<svg width="14" height="14" viewBox="0 0 14 14" fill="none" xmlns="http://www.w3.org/2000/svg">
<path fill-rule="evenodd" clip-rule="evenodd" d="M0.6 2.8H13.4C13.5591 2.8 13.7117 2.73678 13.8243 2.62426C13.9368 2.51174 14 2.35913 14 2.2C14 2.04087 13.9368 1.88826 13.8243 1.77573C13.7117 1.66321 13.5591 1.6 13.4 1.6H0.6C0.44087 1.6 0.288258 1.66321 0.175736 1.77573C0.063214 1.88826 0 2.04087 0 2.2C0 2.35913 0.063214 2.51174 0.175736 2.62426C0.288258 2.73678 0.44087 2.8 0.6 2.8ZM0.6 6H13.4C13.5591 6 13.7117 5.93678 13.8243 5.82426C13.9368 5.71174 14 5.55913 14 5.4C14 5.24087 13.9368 5.08826 13.8243 4.97573C13.7117 4.86321 13.5591 4.8 13.4 4.8H0.6C0.44087 4.8 0.288258 4.86321 0.175736 4.97573C0.063214 5.08826 0 5.24087 0 5.4C0 5.55913 0.063214 5.71174 0.175736 5.82426C0.288258 5.93678 0.44087 6 0.6 6ZM13.4 9.2H0.6C0.44087 9.2 0.288258 9.13678 0.175736 9.02426C0.063214 8.91174 0 8.75913 0 8.6C0 8.44087 0.063214 8.28826 0.175736 8.17573C0.288258 8.06321 0.44087 8 0.6 8H13.4C13.5591 8 13.7117 8.06321 13.8243 8.17573C13.9368 8.28826 14 8.44087 14 8.6C14 8.75913 13.9368 8.91174 13.8243 9.02426C13.7117 9.13678 13.5591 9.2 13.4 9.2ZM0.6 12.4H13.4C13.5591 12.4 13.7117 12.3368 13.8243 12.2243C13.9368 12.1117 14 11.9591 14 11.8C14 11.6409 13.9368 11.4883 13.8243 11.3757C13.7117 11.2632 13.5591 11.2 13.4 11.2H0.6C0.44087 11.2 0.288258 11.2632 0.175736 11.3757C0.063214 11.4883 0 11.6409 0 11.8C0 11.9591 0.063214 12.1117 0.175736 12.2243C0.288258 12.3368 0.44087 12.4 0.6 12.4Z" fill="#212121"/>
</svg>
