<svg width="14" height="14" viewBox="0 0 14 14" fill="none" xmlns="http://www.w3.org/2000/svg">
<path fill-rule="evenodd" clip-rule="evenodd" d="M0.6 2.8H13.4C13.5591 2.8 13.7117 2.73678 13.8243 2.62426C13.9368 2.51174 14 2.35913 14 2.2C14 2.04087 13.9368 1.88826 13.8243 1.77573C13.7117 1.66321 13.5591 1.6 13.4 1.6H0.6C0.44087 1.6 0.288258 1.66321 0.175736 1.77573C0.063214 1.88826 0 2.04087 0 2.2C0 2.35913 0.063214 2.51174 0.175736 2.62426C0.288258 2.73678 0.44087 2.8 0.6 2.8ZM3 6H11C11.1591 6 11.3117 5.93678 11.4243 5.82426C11.5368 5.71174 11.6 5.55913 11.6 5.4C11.6 5.24087 11.5368 5.08826 11.4243 4.97573C11.3117 4.86321 11.1591 4.8 11 4.8H3C2.84087 4.8 2.68826 4.86321 2.57574 4.97573C2.46322 5.08826 2.4 5.24087 2.4 5.4C2.4 5.55913 2.46322 5.71174 2.57574 5.82426C2.68826 5.93678 2.84087 6 3 6ZM13.4 9.2H0.6C0.44087 9.2 0.288258 9.13678 0.175736 9.02426C0.063214 8.91174 0 8.75913 0 8.6C0 8.44087 0.063214 8.28826 0.175736 8.17573C0.288258 8.06321 0.44087 8 0.6 8H13.4C13.5591 8 13.7117 8.06321 13.8243 8.17573C13.9368 8.28826 14 8.44087 14 8.6C14 8.75913 13.9368 8.91174 13.8243 9.02426C13.7117 9.13678 13.5591 9.2 13.4 9.2ZM3 12.4H11C11.1591 12.4 11.3117 12.3368 11.4243 12.2243C11.5368 12.1117 11.6 11.9591 11.6 11.8C11.6 11.6409 11.5368 11.4883 11.4243 11.3757C11.3117 11.2632 11.1591 11.2 11 11.2H3C2.84087 11.2 2.68826 11.2632 2.57574 11.3757C2.46322 11.4883 2.4 11.6409 2.4 11.8C2.4 11.9591 2.46322 12.1117 2.57574 12.2243C2.68826 12.3368 2.84087 12.4 3 12.4Z" fill="#212121"/>
</svg>
