<svg width="14" height="14" viewBox="0 0 14 14" fill="none" xmlns="http://www.w3.org/2000/svg">
<g clip-path="url(#clip0_233_9220)">
<path fill-rule="evenodd" clip-rule="evenodd" d="M0.706353 2.83333H13.4048C13.5626 2.83333 13.714 2.77062 13.8257 2.65899C13.9373 2.54736 14 2.39596 14 2.23809C14 2.08023 13.9373 1.92883 13.8257 1.8172C13.714 1.70557 13.5626 1.64286 13.4048 1.64286H0.706353C0.548486 1.64286 0.397085 1.70557 0.285456 1.8172C0.173827 1.92883 0.111115 2.08023 0.111115 2.23809C0.111115 2.39596 0.173827 2.54736 0.285456 2.65899C0.397085 2.77062 0.548486 2.83333 0.706353 2.83333ZM0.595238 6.00794H8.53175C8.68961 6.00794 8.84101 5.94522 8.95264 5.83359C9.06427 5.72197 9.12698 5.57057 9.12698 5.4127C9.12698 5.25483 9.06427 5.10343 8.95264 4.9918C8.84101 4.88017 8.68961 4.81746 8.53175 4.81746H0.595238C0.437371 4.81746 0.28597 4.88017 0.174341 4.9918C0.0627123 5.10343 0 5.25483 0 5.4127C0 5.57057 0.0627123 5.72197 0.174341 5.83359C0.28597 5.94522 0.437371 6.00794 0.595238 6.00794ZM13.4048 9.18254H0.706353C0.548486 9.18254 0.397085 9.11983 0.285456 9.0082C0.173827 8.89657 0.111115 8.74517 0.111115 8.5873C0.111115 8.42943 0.173827 8.27803 0.285456 8.16641C0.397085 8.05478 0.548486 7.99206 0.706353 7.99206H13.4048C13.5626 7.99206 13.714 8.05478 13.8257 8.16641C13.9373 8.27803 14 8.42943 14 8.5873C14 8.74517 13.9373 8.89657 13.8257 9.0082C13.714 9.11983 13.5626 9.18254 13.4048 9.18254ZM0.595238 12.3571H8.53175C8.68961 12.3571 8.84101 12.2944 8.95264 12.1828C9.06427 12.0712 9.12698 11.9198 9.12698 11.7619C9.12698 11.604 9.06427 11.4526 8.95264 11.341C8.84101 11.2294 8.68961 11.1667 8.53175 11.1667H0.595238C0.437371 11.1667 0.28597 11.2294 0.174341 11.341C0.0627123 11.4526 0 11.604 0 11.7619C0 11.9198 0.0627123 12.0712 0.174341 12.1828C0.28597 12.2944 0.437371 12.3571 0.595238 12.3571Z" fill="#212121"/>
</g>
<defs>
<clipPath id="clip0_233_9220">
<rect width="14" height="14" fill="white"/>
</clipPath>
</defs>
</svg>
