<svg width="14" height="14" viewBox="0 0 14 14" fill="none" xmlns="http://www.w3.org/2000/svg">
<g clip-path="url(#clip0_238_10780)">
<path fill-rule="evenodd" clip-rule="evenodd" d="M0.6 2.8H13.4C13.5591 2.8 13.7117 2.73679 13.8243 2.62426C13.9368 2.51174 14 2.35913 14 2.2C14 2.04087 13.9368 1.88826 13.8243 1.77574C13.7117 1.66321 13.5591 1.6 13.4 1.6H0.6C0.44087 1.6 0.288258 1.66321 0.175736 1.77574C0.0632142 1.88826 0 2.04087 0 2.2C0 2.35913 0.0632142 2.51174 0.175736 2.62426C0.288258 2.73679 0.44087 2.8 0.6 2.8ZM5.34399 6H13.344C13.5031 6 13.6557 5.93679 13.7683 5.82426C13.8808 5.71174 13.944 5.55913 13.944 5.4C13.944 5.24087 13.8808 5.08826 13.7683 4.97574C13.6557 4.86321 13.5031 4.8 13.344 4.8H5.34399C5.18486 4.8 5.03225 4.86321 4.91972 4.97574C4.8072 5.08826 4.74399 5.24087 4.74399 5.4C4.74399 5.55913 4.8072 5.71174 4.91972 5.82426C5.03225 5.93679 5.18486 6 5.34399 6ZM13.4 9.2H0.6C0.44087 9.2 0.288258 9.13679 0.175736 9.02426C0.0632142 8.91174 0 8.75913 0 8.6C0 8.44087 0.0632142 8.28826 0.175736 8.17574C0.288258 8.06321 0.44087 8 0.6 8H13.4C13.5591 8 13.7117 8.06321 13.8243 8.17574C13.9368 8.28826 14 8.44087 14 8.6C14 8.75913 13.9368 8.91174 13.8243 9.02426C13.7117 9.13679 13.5591 9.2 13.4 9.2ZM5.34399 12.4H13.344C13.5031 12.4 13.6557 12.3368 13.7683 12.2243C13.8808 12.1117 13.944 11.9591 13.944 11.8C13.944 11.6409 13.8808 11.4883 13.7683 11.3757C13.6557 11.2632 13.5031 11.2 13.344 11.2H5.34399C5.18486 11.2 5.03225 11.2632 4.91972 11.3757C4.8072 11.4883 4.74399 11.6409 4.74399 11.8C4.74399 11.9591 4.8072 12.1117 4.91972 12.2243C5.03225 12.3368 5.18486 12.4 5.34399 12.4Z" fill="#212121"/>
</g>
<defs>
<clipPath id="clip0_238_10780">
<rect width="14" height="14" fill="white"/>
</clipPath>
</defs>
</svg>
