<svg width="14" height="14" viewBox="0 0 14 14" fill="none" xmlns="http://www.w3.org/2000/svg">
<g clip-path="url(#clip0_260_11957)">
<path fill-rule="evenodd" clip-rule="evenodd" d="M9.16749 1.49135C9.93613 1.95345 10.5043 2.68616 10.7604 3.54566C10.8213 3.77312 10.8564 4.00672 10.8649 4.24203H3.13513C3.14231 4.00596 3.18036 3.77185 3.24829 3.54566C3.49374 2.67876 4.06025 1.93794 4.83255 1.47394L4.96312 1.39559L5.10239 1.32596L4.94571 1.05611L4.48436 0.185641C4.47636 0.171352 4.47125 0.155627 4.46933 0.139364C4.4674 0.1231 4.4687 0.106617 4.47314 0.0908552C4.47759 0.0750932 4.4851 0.0603611 4.49523 0.0475002C4.50537 0.0346394 4.51795 0.0239013 4.53224 0.0158995C4.54653 0.00789769 4.56225 0.00278871 4.57851 0.000864138C4.59478 -0.00106043 4.61126 0.000237121 4.62702 0.0046828C4.64278 0.00912849 4.65752 0.0166353 4.67038 0.0267744C4.68324 0.0369135 4.69398 0.0494865 4.70198 0.0637754L5.17203 0.934245L5.32001 1.20409L5.46799 1.14316L5.60727 1.09093C6.50938 0.77785 7.49066 0.77785 8.39277 1.09093L8.54075 1.14316L8.68003 1.20409L8.82801 0.934245L9.29806 0.124708C9.31113 0.106697 9.32809 0.0918648 9.34768 0.0813151C9.36727 0.0707655 9.38899 0.0647703 9.41122 0.0637754H9.47215C9.49347 0.0791857 9.50922 0.101077 9.51706 0.126179C9.52491 0.151281 9.52442 0.178248 9.51568 0.20305L9.05433 1.07352L8.89764 1.34337L9.03692 1.413L9.16749 1.49135ZM5.06564 3.02563C5.1229 3.06389 5.19021 3.08431 5.25908 3.08431C5.35142 3.08431 5.43999 3.04762 5.50528 2.98232C5.57058 2.91703 5.60727 2.82846 5.60727 2.73612C5.60727 2.66725 5.58685 2.59993 5.54859 2.54268C5.51033 2.48542 5.45595 2.44079 5.39232 2.41443C5.3287 2.38808 5.25869 2.38119 5.19115 2.39462C5.12361 2.40806 5.06157 2.44122 5.01287 2.48991C4.96418 2.53861 4.93102 2.60065 4.91758 2.66819C4.90415 2.73573 4.91104 2.80574 4.9374 2.86936C4.96375 2.93299 5.00838 2.98737 5.06564 3.02563ZM8.54752 3.02563C8.60477 3.06389 8.67209 3.08431 8.74096 3.08431C8.8333 3.08431 8.92187 3.04762 8.98716 2.98232C9.05246 2.91703 9.08915 2.82846 9.08915 2.73612C9.08915 2.66725 9.06873 2.59993 9.03047 2.54268C8.99221 2.48542 8.93783 2.44079 8.8742 2.41443C8.81058 2.38808 8.74057 2.38119 8.67303 2.39462C8.60549 2.40806 8.54345 2.44122 8.49475 2.48991C8.44606 2.53861 8.4129 2.60065 8.39946 2.66819C8.38603 2.73573 8.39292 2.80574 8.41927 2.86936C8.44563 2.93299 8.49026 2.98737 8.54752 3.02563ZM1.1464 4.94304C1.29985 4.78959 1.50797 4.70338 1.72498 4.70338C1.94199 4.70338 2.15011 4.78959 2.30356 4.94304C2.45701 5.09649 2.54322 5.30461 2.54322 5.52162V9.22982C2.54322 9.44684 2.45701 9.65496 2.30356 9.80841C2.15011 9.96186 1.94199 10.0481 1.72498 10.0481C1.50797 10.0481 1.29985 9.96186 1.1464 9.80841C0.992946 9.65496 0.906738 9.44684 0.906738 9.22982V5.52162C0.906738 5.30461 0.992946 5.09649 1.1464 4.94304ZM11.6965 4.94304C11.85 4.78959 12.0581 4.70338 12.2751 4.70338C12.4921 4.70338 12.7002 4.78959 12.8537 4.94304C13.0071 5.09649 13.0933 5.30461 13.0933 5.52162V9.22982C13.0933 9.44684 13.0071 9.65496 12.8537 9.80841C12.7002 9.96186 12.4921 10.0481 12.2751 10.0481C12.0581 10.0481 11.85 9.96186 11.6965 9.80841C11.5431 9.65496 11.4568 9.44684 11.4568 9.22982V5.52162C11.4568 5.30461 11.5431 5.09649 11.6965 4.94304ZM3.13513 4.70338V10.2744C3.13513 10.3967 3.15922 10.5178 3.20603 10.6308C3.25284 10.7438 3.32144 10.8465 3.40793 10.933C3.49442 11.0195 3.5971 11.0881 3.7101 11.1349C3.82311 11.1817 3.94422 11.2058 4.06653 11.2058H4.65845V13.1818C4.65845 13.3988 4.74466 13.6069 4.89811 13.7603C5.05156 13.9138 5.25969 14 5.4767 14C5.69371 14 5.90183 13.9138 6.05528 13.7603C6.20873 13.6069 6.29494 13.3988 6.29494 13.1818V11.2058H7.7051V13.1818C7.7051 13.3988 7.79131 13.6069 7.94476 13.7603C8.09821 13.9138 8.30633 14 8.52334 14C8.74035 14 8.94847 13.9138 9.10192 13.7603C9.25537 13.6069 9.34158 13.3988 9.34158 13.1818V11.2058H9.9335C10.1805 11.2058 10.4174 11.1077 10.5921 10.933C10.7668 10.7583 10.8649 10.5214 10.8649 10.2744V4.70338H3.13513Z" fill="#212121"/>
</g>
<defs>
<clipPath id="clip0_260_11957">
<rect width="14" height="14" fill="white"/>
</clipPath>
</defs>
</svg>
