<svg width="14" height="14" viewBox="0 0 14 14" fill="none" xmlns="http://www.w3.org/2000/svg">
<path d="M10.9461 7.40223C10.9356 6.86309 11.0758 6.33172 11.351 5.86796C11.6262 5.40421 12.0253 5.02648 12.5036 4.77733C12.2024 4.3586 11.8091 4.01462 11.354 3.7719C10.8989 3.52918 10.3942 3.3942 9.87865 3.37738C8.76744 3.28988 7.55999 4.02486 7.11375 4.02486C6.66752 4.02486 5.56506 3.41238 4.72509 3.41238C2.97515 3.41238 1.12897 4.80358 1.12897 7.57723C1.13741 8.44179 1.28817 9.29906 1.5752 10.1146C1.96019 11.2346 3.40388 14.0432 4.90883 13.9995C5.6963 13.9995 6.25628 13.4395 7.27999 13.4395C8.30371 13.4395 8.78494 13.9995 9.66866 13.9995C11.1824 13.9995 12.4948 11.4183 12.871 10.2721C12.3014 10.0391 11.814 9.64173 11.4712 9.13058C11.1283 8.61942 10.9455 8.01772 10.9461 7.40223ZM9.19618 2.26617C9.46803 1.95962 9.67301 1.59978 9.79805 1.2096C9.92309 0.819418 9.96544 0.40746 9.9224 0C9.10545 0.0895898 8.35087 0.479352 7.80498 1.09371C7.52271 1.39112 7.30477 1.74351 7.16477 2.1289C7.02477 2.51429 6.9657 2.9244 6.99126 3.33363C7.41496 3.34553 7.83524 3.25465 8.21617 3.06876C8.5971 2.88287 8.92735 2.60749 9.17868 2.26617H9.19618Z" fill="#212121"/>
</svg>
