<svg width="14" height="14" viewBox="0 0 14 14" fill="none" xmlns="http://www.w3.org/2000/svg">
<g clip-path="url(#clip0_312_11991)">
<path fill-rule="evenodd" clip-rule="evenodd" d="M7 14C5.61553 14 4.26215 13.5895 3.11101 12.8203C1.95987 12.0511 1.06266 10.9579 0.532846 9.67879C0.00303296 8.3997 -0.13559 6.99224 0.134506 5.63437C0.404603 4.2765 1.07129 3.02922 2.05026 2.05026C3.02922 1.07129 4.2765 0.404603 5.63437 0.134506C6.99224 -0.13559 8.3997 0.00303296 9.67879 0.532846C10.9579 1.06266 12.0511 1.95987 12.8203 3.11101C13.5895 4.26215 14 5.61553 14 7C14 8.85652 13.2625 10.637 11.9497 11.9497C10.637 13.2625 8.85652 14 7 14ZM7 1.16667C5.84628 1.16667 4.71846 1.50879 3.75918 2.14976C2.79989 2.79074 2.05222 3.70178 1.61071 4.76768C1.16919 5.83358 1.05367 7.00647 1.27876 8.13803C1.50384 9.26958 2.05941 10.309 2.87521 11.1248C3.69102 11.9406 4.73042 12.4962 5.86198 12.7212C6.99353 12.9463 8.16642 12.8308 9.23232 12.3893C10.2982 11.9478 11.2093 11.2001 11.8502 10.2408C12.4912 9.28154 12.8333 8.15373 12.8333 7C12.8333 5.45291 12.2188 3.96918 11.1248 2.87521C10.0308 1.78125 8.5471 1.16667 7 1.16667ZM6.99996 10.6944C6.92332 10.6948 6.84737 10.6799 6.77659 10.6505C6.7058 10.6211 6.64159 10.5779 6.58774 10.5233L3.49086 7.42646C3.48597 7.42189 3.48115 7.41723 3.4764 7.41248C3.367 7.30308 3.30554 7.15471 3.30554 7C3.30554 6.84529 3.367 6.69692 3.4764 6.58752C3.48113 6.58279 3.48593 6.57815 3.49081 6.5736L6.58774 3.47667C6.69832 3.37363 6.84458 3.31753 6.9957 3.3202C7.14682 3.32286 7.29101 3.38408 7.39789 3.49096C7.50477 3.59784 7.56599 3.74203 7.56865 3.89315C7.57132 4.04427 7.51522 4.19053 7.41218 4.30111L5.29663 6.41667H10.1111C10.2658 6.41667 10.4142 6.47813 10.5236 6.58752C10.633 6.69692 10.6944 6.84529 10.6944 7C10.6944 7.15471 10.633 7.30308 10.5236 7.41248C10.4142 7.52188 10.2658 7.58333 10.1111 7.58333H5.29663L7.41218 9.69889C7.52142 9.80826 7.58278 9.95653 7.58278 10.1111C7.58278 10.2657 7.52142 10.414 7.41218 10.5233C7.35833 10.5779 7.29412 10.6211 7.22333 10.6505C7.15255 10.6799 7.0766 10.6948 6.99996 10.6944Z" fill="#212121"/>
</g>
<defs>
<clipPath id="clip0_312_11991">
<rect width="14" height="14" fill="white"/>
</clipPath>
</defs>
</svg>
