<svg width="14" height="14" viewBox="0 0 14 14" fill="none" xmlns="http://www.w3.org/2000/svg">
<g clip-path="url(#clip0_326_12517)">
<path d="M13.952 6.77575C13.9216 6.70435 13.8782 6.63923 13.824 6.58375L10.624 3.38377C10.5691 3.32483 10.5029 3.27754 10.4293 3.24475C10.3557 3.21196 10.2762 3.19432 10.1957 3.1929C10.1151 3.19148 10.0351 3.2063 9.96036 3.23648C9.88565 3.26665 9.81778 3.31157 9.76081 3.36854C9.70383 3.42552 9.65892 3.49339 9.62874 3.5681C9.59856 3.64281 9.58374 3.72283 9.58517 3.80339C9.58659 3.88395 9.60422 3.9634 9.63701 4.037C9.66981 4.1106 9.71709 4.17684 9.77604 4.23177L11.952 6.40775H2.0481L4.22408 4.23177C4.33007 4.11803 4.38777 3.96759 4.38502 3.81215C4.38228 3.65671 4.31931 3.50841 4.20938 3.39848C4.09945 3.28855 3.95115 3.22558 3.79571 3.22284C3.64027 3.22009 3.48983 3.27779 3.37609 3.38377L0.176119 6.58375C0.121888 6.63923 0.0784791 6.70435 0.0481203 6.77575C0.0164173 6.84898 6.10352e-05 6.92794 6.10352e-05 7.00774C6.10352e-05 7.08755 0.0164173 7.16651 0.0481203 7.23974C0.0784791 7.31114 0.121888 7.37626 0.176119 7.43174L3.37609 10.6317C3.48859 10.7441 3.64109 10.8072 3.80009 10.8072C3.95909 10.8072 4.11159 10.7441 4.22408 10.6317C4.33644 10.5192 4.39956 10.3667 4.39956 10.2077C4.39956 10.0487 4.33644 9.89622 4.22408 9.78372L2.0481 7.60774H11.952L9.77604 9.78372C9.66368 9.89622 9.60057 10.0487 9.60057 10.2077C9.60057 10.3667 9.66368 10.5192 9.77604 10.6317C9.88854 10.7441 10.041 10.8072 10.2 10.8072C10.359 10.8072 10.5115 10.7441 10.624 10.6317L13.824 7.43174C13.8782 7.37626 13.9216 7.31114 13.952 7.23974C13.9837 7.16651 14.0001 7.08755 14.0001 7.00774C14.0001 6.92794 13.9837 6.84898 13.952 6.77575Z" fill="#212121"/>
</g>
<defs>
<clipPath id="clip0_326_12517">
<rect width="14" height="14" fill="white"/>
</clipPath>
</defs>
</svg>
