<svg width="14" height="14" viewBox="0 0 14 14" fill="none" xmlns="http://www.w3.org/2000/svg">
<path d="M2 10.092C2 10.2662 2.0692 10.4332 2.19238 10.5564C2.31555 10.6796 2.48262 10.7488 2.65682 10.7488C2.83102 10.7488 2.99808 10.6796 3.12126 10.5564C3.24443 10.4332 3.31363 10.2662 3.31363 10.092V4.24193L10.8626 11.7909C10.9228 11.8555 10.9953 11.9072 11.0759 11.9431C11.1564 11.979 11.2434 11.9983 11.3316 11.9999C11.4198 12.0015 11.5074 11.9852 11.5892 11.9522C11.671 11.9192 11.7453 11.87 11.8076 11.8076C11.87 11.7453 11.9192 11.671 11.9522 11.5892C11.9852 11.5074 12.0015 11.4198 11.9999 11.3316C11.9983 11.2434 11.979 11.1564 11.9431 11.0759C11.9072 10.9953 11.8555 10.9228 11.7909 10.8626L4.24193 3.31363H10.092C10.2662 3.31363 10.4332 3.24443 10.5564 3.12126C10.6796 2.99808 10.7488 2.83102 10.7488 2.65682C10.7488 2.48262 10.6796 2.31555 10.5564 2.19238C10.4332 2.0692 10.2662 2 10.092 2H2.65682C2.56951 2.00046 2.48317 2.01832 2.40285 2.05255C2.28439 2.10343 2.18326 2.18762 2.11174 2.29489C2.04023 2.40217 2.00141 2.5279 2 2.65682V10.092Z" fill="#212121"/>
</svg>
