<svg width="14" height="14" viewBox="0 0 14 14" fill="none" xmlns="http://www.w3.org/2000/svg">
<path d="M3.90802 2C3.73382 2 3.56675 2.0692 3.44358 2.19238C3.3204 2.31555 3.2512 2.48262 3.2512 2.65682C3.2512 2.83102 3.3204 2.99808 3.44358 3.12126C3.56675 3.24443 3.73382 3.31363 3.90802 3.31363H9.75807L2.20905 10.8626C2.14452 10.9228 2.09276 10.9953 2.05686 11.0759C2.02096 11.1564 2.00166 11.2434 2.0001 11.3316C1.99855 11.4198 2.01477 11.5074 2.0478 11.5892C2.08084 11.671 2.13001 11.7453 2.19238 11.8076C2.25475 11.87 2.32904 11.9192 2.41083 11.9522C2.49261 11.9852 2.58021 12.0015 2.6684 11.9999C2.7566 11.9983 2.84357 11.979 2.92414 11.9431C3.00471 11.9072 3.07722 11.8555 3.13735 11.7909L10.6864 4.24193V10.092C10.6864 10.2662 10.7556 10.4332 10.8787 10.5564C11.0019 10.6796 11.169 10.7488 11.3432 10.7488C11.5174 10.7488 11.6844 10.6796 11.8076 10.5564C11.9308 10.4332 12 10.2662 12 10.092V2.65682C11.9995 2.56951 11.9817 2.48317 11.9475 2.40285C11.8998 2.29088 11.8223 2.19412 11.7235 2.12309C11.6247 2.05206 11.5083 2.00949 11.387 2H3.90802Z" fill="#212121"/>
</svg>
