<svg width="14" height="14" viewBox="0 0 14 14" fill="none" xmlns="http://www.w3.org/2000/svg">
<g clip-path="url(#clip0_1518_32561)">
<path d="M13.96 7.232C13.928 7.304 13.8879 7.368 13.8319 7.424L11.8308 9.424C11.7107 9.544 11.5586 9.6 11.4065 9.6C11.2544 9.6 11.1023 9.544 10.9823 9.424C10.7501 9.192 10.7501 8.808 10.9823 8.576L11.9588 7.6H7.60435V11.952L8.5809 10.976C8.81304 10.744 9.19726 10.744 9.42939 10.976C9.66152 11.208 9.66152 11.592 9.42939 11.824L7.42824 13.824C7.37221 13.88 7.30818 13.92 7.23614 13.952C7.16409 13.984 7.08405 14 7.004 14C6.92396 14 6.84391 13.984 6.77187 13.952C6.69983 13.92 6.63579 13.88 6.57976 13.824L4.57862 11.824C4.34648 11.592 4.34648 11.208 4.57862 10.976C4.81075 10.744 5.19497 10.744 5.4271 10.976L6.40366 11.952V7.6H2.04917L3.02573 8.576C3.25786 8.808 3.25786 9.192 3.02573 9.424C2.90566 9.544 2.75357 9.6 2.60149 9.6C2.4494 9.6 2.29731 9.544 2.17724 9.424L0.176101 7.424C0.120069 7.368 0.0800457 7.304 0.0480274 7.232C-0.0160091 7.088 -0.0160091 6.92 0.0480274 6.776C0.0800457 6.704 0.120069 6.64 0.176101 6.584L2.17724 4.584C2.40938 4.352 2.7936 4.352 3.02573 4.584C3.25786 4.816 3.25786 5.2 3.02573 5.432L2.04917 6.408H6.40366V2.048L5.4271 3.024C5.19497 3.256 4.81075 3.256 4.57862 3.024C4.34648 2.792 4.34648 2.408 4.57862 2.176L6.57976 0.176C6.63579 0.12 6.69983 0.08 6.77187 0.048C6.91595 -0.016 7.08405 -0.016 7.22813 0.048C7.30017 0.08 7.36421 0.12 7.42024 0.176L9.42138 2.176C9.65352 2.408 9.65352 2.792 9.42138 3.024C9.30132 3.144 9.14923 3.2 8.99714 3.2C8.84505 3.2 8.69297 3.144 8.5729 3.024L7.59634 2.048V6.4H11.9508L10.9743 5.424C10.7421 5.192 10.7421 4.808 10.9743 4.576C11.2064 4.344 11.5906 4.344 11.8228 4.576L13.8239 6.576C13.8799 6.632 13.92 6.696 13.952 6.768C14.016 6.912 14.016 7.08 13.952 7.224L13.96 7.232Z" fill="#212121"/>
</g>
<defs>
<clipPath id="clip0_1518_32561">
<rect width="14" height="14" fill="white"/>
</clipPath>
</defs>
</svg>
