<svg width="14" height="14" viewBox="0 0 14 14" fill="none" xmlns="http://www.w3.org/2000/svg">
<g clip-path="url(#clip0_326_12527)">
<path d="M7.2392 13.9519C7.3106 13.9216 7.37571 13.8782 7.4312 13.8239L10.6312 10.624C10.7372 10.5102 10.7949 10.3598 10.7921 10.2044C10.7894 10.0489 10.7264 9.90061 10.6165 9.79068C10.5065 9.68075 10.3582 9.61778 10.2028 9.61504C10.0474 9.6123 9.89692 9.66999 9.78318 9.77598L7.6072 11.952V2.04804L9.78318 4.22402C9.89692 4.33001 10.0474 4.38771 10.2028 4.38496C10.3582 4.38222 10.5065 4.31925 10.6165 4.20932C10.7264 4.09939 10.7894 3.95109 10.7921 3.79565C10.7949 3.64021 10.7372 3.48977 10.6312 3.37603L7.4312 0.176058C7.37571 0.121827 7.3106 0.0784181 7.2392 0.0480592C7.16596 0.0163563 7.08701 0 7.0072 0C6.9274 0 6.84844 0.0163563 6.77521 0.0480592C6.7038 0.0784181 6.63869 0.121827 6.58321 0.176058L3.38323 3.37603C3.27087 3.48853 3.20776 3.64103 3.20776 3.80003C3.20776 3.95903 3.27087 4.11152 3.38323 4.22402C3.49573 4.33638 3.64823 4.39949 3.80723 4.39949C3.96623 4.39949 4.11873 4.33638 4.23123 4.22402L6.40721 2.04804V11.952L4.23123 9.77598C4.11873 9.66362 3.96623 9.60051 3.80723 9.60051C3.64823 9.60051 3.49573 9.66362 3.38323 9.77598C3.27087 9.88848 3.20776 10.041 3.20776 10.2C3.20776 10.359 3.27087 10.5115 3.38323 10.624L6.58321 13.8239C6.63869 13.8782 6.7038 13.9216 6.77521 13.9519C6.84844 13.9836 6.9274 14 7.0072 14C7.08701 14 7.16596 13.9836 7.2392 13.9519Z" fill="#212121"/>
</g>
<defs>
<clipPath id="clip0_326_12527">
<rect width="14" height="14" fill="white"/>
</clipPath>
</defs>
</svg>
