<svg width="14" height="14" viewBox="0 0 14 14" fill="none" xmlns="http://www.w3.org/2000/svg">
<g clip-path="url(#clip0_312_11980)">
<path fill-rule="evenodd" clip-rule="evenodd" d="M7 14C5.61553 14 4.26215 13.5895 3.11101 12.8203C1.95987 12.0511 1.06266 10.9579 0.532846 9.67879C0.00303296 8.3997 -0.13559 6.99224 0.134506 5.63437C0.404603 4.2765 1.07129 3.02922 2.05026 2.05026C3.02922 1.07129 4.2765 0.404603 5.63437 0.134506C6.99224 -0.13559 8.3997 0.00303296 9.67879 0.532846C10.9579 1.06266 12.0511 1.95987 12.8203 3.11101C13.5895 4.26215 14 5.61553 14 7C14 8.85652 13.2625 10.637 11.9497 11.9497C10.637 13.2625 8.85652 14 7 14ZM7 1.16667C5.84628 1.16667 4.71846 1.50879 3.75918 2.14976C2.79989 2.79074 2.05222 3.70178 1.61071 4.76768C1.16919 5.83358 1.05367 7.00647 1.27876 8.13803C1.50384 9.26958 2.05941 10.309 2.87521 11.1248C3.69102 11.9406 4.73042 12.4962 5.86198 12.7212C6.99353 12.9463 8.16642 12.8308 9.23232 12.3893C10.2982 11.9478 11.2093 11.2001 11.8502 10.2408C12.4912 9.28154 12.8333 8.15373 12.8333 7C12.8333 5.45291 12.2188 3.96918 11.1248 2.87521C10.0308 1.78125 8.5471 1.16667 7 1.16667ZM6.99997 10.6944C6.92334 10.6948 6.84742 10.6798 6.77665 10.6505C6.70586 10.6211 6.64166 10.5779 6.5878 10.5233L3.47669 7.41222C3.37365 7.30164 3.31755 7.15538 3.32022 7.00426C3.32289 6.85314 3.38411 6.70895 3.49098 6.60207C3.59786 6.4952 3.74205 6.43397 3.89317 6.43131C4.0443 6.42864 4.19055 6.48474 4.30113 6.58778L6.41669 8.70333V3.88889C6.41669 3.73418 6.47815 3.58581 6.58754 3.47641C6.69694 3.36702 6.84531 3.30556 7.00002 3.30556C7.15473 3.30556 7.3031 3.36702 7.4125 3.47641C7.52189 3.58581 7.58335 3.73418 7.58335 3.88889V8.70333L9.69891 6.58778C9.80949 6.48474 9.95575 6.42864 10.1069 6.43131C10.258 6.43397 10.4022 6.4952 10.5091 6.60207C10.6159 6.70895 10.6772 6.85314 10.6798 7.00426C10.6825 7.15538 10.6264 7.30164 10.5234 7.41222L7.41224 10.5233C7.35839 10.5779 7.29418 10.6211 7.22339 10.6505C7.15262 10.6798 7.0767 10.6948 7.00007 10.6944C7.00006 10.6944 7.00004 10.6944 7.00002 10.6944C7 10.6944 6.99999 10.6944 6.99997 10.6944Z" fill="#212121"/>
</g>
<defs>
<clipPath id="clip0_312_11980">
<rect width="14" height="14" fill="white"/>
</clipPath>
</defs>
</svg>
