<svg width="14" height="14" viewBox="0 0 14 14" fill="none" xmlns="http://www.w3.org/2000/svg">
<g clip-path="url(#clip0_1518_32517)">
<path d="M14 10.6073C14 10.9776 13.6929 11.2847 13.3226 11.2847H2.31226L3.41419 12.3867C3.67613 12.6486 3.67613 13.0822 3.41419 13.3441C3.27871 13.4796 3.1071 13.5428 2.93548 13.5428C2.76387 13.5428 2.59226 13.4796 2.45677 13.3441L0.19871 11.086C0.135484 11.0228 0.0903226 10.9505 0.0541935 10.8693C-0.0180645 10.7067 -0.0180645 10.517 0.0541935 10.3544C0.0903226 10.2731 0.135484 10.2009 0.19871 10.1376L2.45677 7.87958C2.71871 7.61764 3.15226 7.61764 3.41419 7.87958C3.67613 8.14151 3.67613 8.57506 3.41419 8.837L2.31226 9.93893H13.3226C13.6929 9.93893 14 10.246 14 10.6164V10.6073ZM0.677419 4.05893H11.6877L10.5858 5.16087C10.3239 5.4228 10.3239 5.85635 10.5858 6.11829C10.7213 6.25377 10.8929 6.317 11.0645 6.317C11.2361 6.317 11.4077 6.25377 11.5432 6.11829L13.8013 3.86022C13.8645 3.797 13.9097 3.72474 13.9458 3.64345C14.0181 3.48087 14.0181 3.29119 13.9458 3.12861C13.9097 3.04732 13.8645 2.97506 13.8013 2.91184L11.5432 0.653773C11.2813 0.391837 10.8477 0.391837 10.5858 0.653773C10.3239 0.915708 10.3239 1.34926 10.5858 1.61119L11.6877 2.71313H0.677419C0.307097 2.71313 5.04717e-08 3.02022 5.04717e-08 3.39055C5.04717e-08 3.76087 0.307097 4.06797 0.677419 4.06797V4.05893Z" fill="#212121"/>
</g>
<defs>
<clipPath id="clip0_1518_32517">
<rect width="14" height="14" fill="white"/>
</clipPath>
</defs>
</svg>
