<svg width="14" height="14" viewBox="0 0 14 14" fill="none" xmlns="http://www.w3.org/2000/svg">
<g clip-path="url(#clip0_326_12534)">
<path d="M7.00026 0C5.1438 0 3.36339 0.737473 2.05067 2.05018C0.737964 3.36289 0.000490779 5.14331 0.000490779 6.99977C-0.0102335 7.92196 0.163497 8.837 0.51147 9.6911C0.859444 10.5452 1.37464 11.3211 2.02678 11.9732C2.67891 12.6254 3.45483 13.1406 4.30893 13.4886C5.16302 13.8365 6.07806 14.0103 7.00026 13.9995C7.15938 13.9995 7.31199 13.9363 7.42451 13.8238C7.53702 13.7113 7.60024 13.5587 7.60024 13.3996C7.60024 13.2404 7.53702 13.0878 7.42451 12.9753C7.31199 12.8628 7.15938 12.7996 7.00026 12.7996C6.23624 12.8081 5.4782 12.664 4.77066 12.3756C4.06313 12.0871 3.42035 11.6602 2.88007 11.12C2.33979 10.5797 1.9129 9.9369 1.62447 9.22936C1.33604 8.52182 1.19188 7.76379 1.20045 6.99977C1.20257 5.46221 1.8143 3.98824 2.90151 2.90102C3.98873 1.81381 5.4627 1.20208 7.00026 1.19996C10.8481 1.19996 12.8001 3.15189 12.8001 6.99977V8.10373C12.8134 8.26469 12.7932 8.42668 12.7408 8.57945C12.6884 8.73222 12.6048 8.87246 12.4954 8.9913C12.3861 9.11014 12.2532 9.205 12.1053 9.26988C11.9574 9.33477 11.7976 9.36827 11.6361 9.36827C11.4746 9.36827 11.3148 9.33477 11.1669 9.26988C11.019 9.205 10.8861 9.11014 10.7768 8.9913C10.6674 8.87246 10.5838 8.73222 10.5314 8.57945C10.479 8.42668 10.4588 8.26469 10.4721 8.10373V4.10386C10.4721 3.94474 10.4089 3.79213 10.2964 3.67961C10.1839 3.56709 10.0313 3.50388 9.87216 3.50388C9.71304 3.50388 9.56043 3.56709 9.44791 3.67961C9.33539 3.79213 9.27218 3.94474 9.27218 4.10386V4.37585C8.64254 3.82742 7.83526 3.52611 7.00026 3.52788C6.07946 3.52788 5.19637 3.89367 4.54526 4.54477C3.89416 5.19588 3.52837 6.07897 3.52837 6.99977C3.52837 7.92057 3.89416 8.80365 4.54526 9.45476C5.19637 10.1059 6.07946 10.4717 7.00026 10.4717C7.49241 10.47 7.97847 10.3627 8.42561 10.157C8.87275 9.95141 9.27055 9.65222 9.59217 9.27969C9.85081 9.73138 10.2515 10.0849 10.7319 10.2852C11.2124 10.4855 11.7455 10.5213 12.2484 10.3872C12.7513 10.253 13.1958 9.95633 13.5126 9.54335C13.8294 9.13036 14.0007 8.62423 14 8.10373V6.99977C14 2.48792 11.5121 0 7.00026 0ZM7.00026 9.27169C6.55091 9.27169 6.11166 9.13844 5.73804 8.8888C5.36443 8.63916 5.07323 8.28433 4.90127 7.86919C4.72932 7.45405 4.68432 6.99725 4.77199 6.55654C4.85965 6.11583 5.07603 5.71101 5.39376 5.39327C5.7115 5.07554 6.11632 4.85916 6.55703 4.7715C6.99774 4.68383 7.45454 4.72883 7.86968 4.90078C8.28482 5.07274 8.63965 5.36394 8.88929 5.73755C9.13894 6.11117 9.27218 6.55042 9.27218 6.99977C9.27007 7.60167 9.03003 8.17832 8.60442 8.60393C8.17881 9.02954 7.60216 9.26958 7.00026 9.27169Z" fill="#212121"/>
</g>
<defs>
<clipPath id="clip0_326_12534">
<rect width="14" height="14" fill="white"/>
</clipPath>
</defs>
</svg>
