<svg width="14" height="14" viewBox="0 0 14 14" fill="none" xmlns="http://www.w3.org/2000/svg">
<g clip-path="url(#clip0_326_12544)">
<path d="M13.64 0.848634C13.424 0.752634 13.168 0.800634 12.992 0.960634L7.176 6.41663V1.40063C7.176 1.16063 7.032 0.944634 6.816 0.848634C6.6 0.752634 6.344 0.800634 6.168 0.960634L0.192 6.56063C0.072 6.67263 0 6.83263 0 7.00063C0 7.16863 0.072 7.32863 0.192 7.44063L6.168 13.0406C6.28 13.1446 6.432 13.2006 6.576 13.2006C6.656 13.2006 6.736 13.1846 6.816 13.1526C7.032 13.0566 7.176 12.8406 7.176 12.6006V7.58463L12.992 13.0406C13.104 13.1446 13.256 13.2006 13.4 13.2006C13.48 13.2006 13.56 13.1846 13.64 13.1526C13.856 13.0566 14 12.8406 14 12.6006V1.40063C14 1.16063 13.856 0.944634 13.64 0.848634ZM5.976 11.2166L1.48 7.00063L5.976 2.78463V11.2166ZM12.8 11.2166L8.304 7.00063L12.8 2.78463V11.2166Z" fill="#212121"/>
</g>
<defs>
<clipPath id="clip0_326_12544">
<rect width="14" height="14" fill="white"/>
</clipPath>
</defs>
</svg>
