<svg width="14" height="14" viewBox="0 0 14 14" fill="none" xmlns="http://www.w3.org/2000/svg">
<g clip-path="url(#clip0_326_12554)">
<path d="M13.4479 10.207C13.3798 10.207 11.852 9.93472 11.852 5.47983C11.852 2.33342 10.0216 0.374481 6.99622 0.374481C3.97083 0.374481 2.14046 2.33342 2.14046 5.47983C2.14046 10.0179 0.559697 10.207 0.567261 10.207C0.416814 10.207 0.272529 10.2668 0.166147 10.3731C0.0597647 10.4795 0 10.6238 0 10.7743C0 10.9247 0.0597647 11.069 0.166147 11.1754C0.272529 11.2818 0.416814 11.3415 0.567261 11.3415H4.22042C4.34669 11.9849 4.69255 12.5645 5.19888 12.9811C5.7052 13.3978 6.34053 13.6255 6.99622 13.6255C7.65191 13.6255 8.28724 13.3978 8.79356 12.9811C9.29988 12.5645 9.64575 11.9849 9.77201 11.3415H13.4327C13.5832 11.3415 13.7275 11.2818 13.8339 11.1754C13.9402 11.069 14 10.9247 14 10.7743C14 10.6238 13.9402 10.4795 13.8339 10.3731C13.7275 10.2668 13.5832 10.207 13.4327 10.207H13.4479ZM6.99622 12.476C6.6455 12.4754 6.30363 12.3659 6.01778 12.1627C5.73193 11.9595 5.51619 11.6726 5.40032 11.3415H8.59211C8.47625 11.6726 8.26051 11.9595 7.97466 12.1627C7.68881 12.3659 7.34694 12.4754 6.99622 12.476ZM2.27661 10.207C2.82118 9.38258 3.27499 7.93796 3.27499 5.47983C3.27499 3.0217 4.63641 1.509 6.99622 1.509C9.35602 1.509 10.7175 2.95363 10.7175 5.47983C10.7175 8.00603 11.1713 9.38258 11.7158 10.207H2.27661Z" fill="#212121"/>
</g>
<defs>
<clipPath id="clip0_326_12554">
<rect width="14" height="14" fill="white"/>
</clipPath>
</defs>
</svg>
