<svg width="14" height="14" viewBox="0 0 14 14" fill="none" xmlns="http://www.w3.org/2000/svg">
<g clip-path="url(#clip0_1517_32542)">
<path d="M8.33366 8.46218C8.09754 9.41637 6.49714 8.89988 5.97243 8.76857L6.3922 7.07904C6.91692 7.21035 8.57853 7.46422 8.33366 8.46218ZM6.96939 4.76798L6.5846 6.29993C7.02186 6.40498 8.35989 6.85144 8.57853 5.98479C8.79716 5.08312 7.40666 4.87302 6.96939 4.76798ZM13.7907 8.68978C12.855 12.4365 9.05952 14.7213 5.30778 13.7934C1.56479 12.8567 -0.726479 9.05745 0.209269 5.31073C1.14502 1.55525 4.94048 -0.7208 8.69222 0.207127C12.4352 1.14381 14.7265 4.94306 13.7907 8.68978ZM4.70436 8.17329C4.66938 8.26959 4.57318 8.40965 4.35454 8.35713C4.31956 8.35713 3.79484 8.21706 3.79484 8.21706L3.41005 9.09247L4.40702 9.33758C4.59941 9.3901 4.77432 9.43387 4.95797 9.4864L4.64314 10.7557L5.40398 10.9483L5.71881 9.68774C5.9287 9.74902 6.12984 9.79279 6.33098 9.84531L6.01615 11.0971L6.78574 11.2897L7.10057 10.0204C8.41237 10.2655 9.40059 10.1692 9.81162 8.97866C10.1439 8.02448 9.79412 7.47297 9.10325 7.11406C9.60173 7.00025 9.97778 6.6676 10.0827 5.98479C10.2226 5.05686 9.51428 4.54913 8.54355 4.22523L8.85838 2.95589L8.08879 2.7633L7.7827 3.98887C7.58156 3.93634 7.37168 3.89257 7.16179 3.84005L7.46787 2.60573L6.70703 2.41314L6.3922 3.67372C6.22604 3.63871 6.05988 3.59494 5.90246 3.55992L4.84428 3.28855L4.64314 4.11142C4.64314 4.11142 5.20284 4.24273 5.20284 4.25149C5.50892 4.33027 5.5614 4.53162 5.5614 4.69794L4.69561 8.15578L4.70436 8.17329Z" fill="#212121"/>
</g>
<defs>
<clipPath id="clip0_1517_32542">
<rect width="14" height="14" fill="white"/>
</clipPath>
</defs>
</svg>
