<svg width="14" height="14" viewBox="0 0 14 14" fill="none" xmlns="http://www.w3.org/2000/svg">
<g clip-path="url(#clip0_326_12561)">
<path d="M6.332 13.992C6.27344 14.0027 6.21343 14.0027 6.15487 13.992C6.02705 13.9534 5.91534 13.8741 5.83673 13.7662C5.75812 13.6583 5.71692 13.5277 5.7194 13.3942V13.313L6.38367 8.6262H3.18042C3.0724 8.62629 2.96642 8.59675 2.87402 8.54079C2.78163 8.48483 2.70635 8.4046 2.65639 8.30883C2.59995 8.21258 2.57019 8.10303 2.57019 7.99145C2.57019 7.87988 2.59995 7.77032 2.65639 7.67408L4.13254 5.0982L7.15865 0.285948C7.2259 0.172403 7.32967 0.0850283 7.45301 0.0381052C7.57635 -0.00881796 7.71196 -0.0125138 7.83768 0.0276219C7.96549 0.0662051 8.07721 0.145489 8.15581 0.253408C8.23442 0.361327 8.27562 0.491973 8.27314 0.625463V0.706651L7.60887 5.39343H10.8195C10.9275 5.39333 11.0335 5.42287 11.1259 5.47883C11.2183 5.53479 11.2936 5.61503 11.3435 5.7108C11.4 5.80704 11.4297 5.9166 11.4297 6.02817C11.4297 6.13975 11.4 6.2493 11.3435 6.34555L9.86738 8.92143L6.84127 13.7337C6.78567 13.8168 6.70961 13.8842 6.62043 13.9295C6.53124 13.9747 6.43192 13.9962 6.332 13.992ZM3.99969 7.48956H6.95199C7.03341 7.49052 7.11384 7.50752 7.18869 7.53957C7.26354 7.57162 7.33135 7.6181 7.38823 7.67636C7.44512 7.73461 7.48997 7.80351 7.52023 7.8791C7.55049 7.95469 7.56556 8.03551 7.56459 8.11693V8.19811L7.12912 11.2537L8.97431 8.30144L10.0371 6.47102H7.08484C7.00342 6.47005 6.92299 6.45306 6.84814 6.42101C6.77329 6.38896 6.70548 6.34248 6.64859 6.28422C6.59171 6.22597 6.54685 6.15707 6.51659 6.08148C6.48634 6.00589 6.47126 5.92507 6.47224 5.84365V5.76247L6.9077 2.70683L5.06251 5.65914L3.99969 7.48956Z" fill="#212121"/>
</g>
<defs>
<clipPath id="clip0_326_12561">
<rect width="14" height="14" fill="white"/>
</clipPath>
</defs>
</svg>
