<svg width="14" height="14" viewBox="0 0 14 14" fill="none" xmlns="http://www.w3.org/2000/svg">
<path d="M9.99907 0H4.00096C3.41767 0 2.85826 0.231712 2.44581 0.644162C2.03336 1.05661 1.80165 1.61601 1.80165 2.19931V13.3958C1.80084 13.5059 1.83034 13.614 1.88693 13.7085C1.94352 13.8029 2.025 13.88 2.12246 13.9312C2.21992 13.9824 2.32959 14.0058 2.43946 13.9988C2.54933 13.9918 2.65516 13.9547 2.74535 13.8916L7.00001 10.9246L11.2547 13.8916C11.356 13.9606 11.476 13.9969 11.5986 13.9956C11.6954 13.9944 11.7908 13.9726 11.8785 13.9316C11.9747 13.8789 12.0551 13.8014 12.1113 13.7072C12.1676 13.613 12.1976 13.5055 12.1984 13.3958V2.19931C12.1984 1.61601 11.9667 1.05661 11.5542 0.644162C11.1418 0.231712 10.5824 0 9.99907 0Z" fill="#212121"/>
</svg>
