<svg width="14" height="14" viewBox="0 0 14 14" fill="none" xmlns="http://www.w3.org/2000/svg">
<path d="M11.5999 14C11.4779 13.9976 11.3589 13.9616 11.2559 13.896L6.99993 10.928L2.74393 13.896C2.64992 13.9532 2.54198 13.9835 2.43193 13.9835C2.32187 13.9835 2.21393 13.9532 2.11993 13.896C2.02786 13.8485 1.94985 13.7778 1.8937 13.6907C1.83755 13.6037 1.80521 13.5034 1.79993 13.4V2.2C1.79993 1.61652 2.03171 1.05694 2.44429 0.644365C2.85687 0.231785 3.41645 0 3.99993 0H9.99993C10.5834 0 11.143 0.231785 11.5556 0.644365C11.9681 1.05694 12.1999 1.61652 12.1999 2.2V13.4C12.2003 13.5089 12.1707 13.6159 12.1142 13.709C12.0577 13.8022 11.9767 13.878 11.8799 13.928C11.7941 13.9751 11.6978 13.9998 11.5999 14ZM6.99993 9.6C7.12253 9.59871 7.24258 9.635 7.34393 9.704L10.9999 12.248V2.2C10.9999 1.93478 10.8946 1.68043 10.707 1.49289C10.5195 1.30536 10.2651 1.2 9.99993 1.2H3.99993C3.73471 1.2 3.48036 1.30536 3.29282 1.49289C3.10528 1.68043 2.99993 1.93478 2.99993 2.2V12.248L6.65593 9.704C6.75727 9.635 6.87733 9.59871 6.99993 9.6Z" fill="#212121"/>
</svg>
