<svg width="14" height="14" viewBox="0 0 14 14" fill="none" xmlns="http://www.w3.org/2000/svg">
<g clip-path="url(#clip0_326_12570)">
<path fill-rule="evenodd" clip-rule="evenodd" d="M12.5992 0.000837441H2.80062C2.28639 -0.0142535 1.78716 0.175126 1.41232 0.527473C1.03749 0.87982 0.817618 1.36639 0.800903 1.88057V11.7991C0.821772 12.4024 1.08108 12.9728 1.52194 13.3852C1.9628 13.7976 2.54922 14.0182 3.15256 13.9988H12.5992C12.7577 13.9967 12.9091 13.9329 13.0211 13.8208C13.1332 13.7088 13.197 13.5574 13.1991 13.3989V0.600751C13.197 0.442288 13.1332 0.290899 13.0211 0.178839C12.9091 0.0667793 12.7577 0.00290911 12.5992 0.000837441ZM11.9993 12.799H3.15256C2.86731 12.8188 2.58586 12.7246 2.36993 12.5372C2.154 12.3498 2.02122 12.0843 2.00073 11.7991C2.02122 11.5139 2.154 11.2485 2.36993 11.0611C2.58586 10.8736 2.86731 10.7795 3.15256 10.7993H11.9993V12.799ZM11.9993 9.59945H3.15256C2.74987 9.5999 2.35376 9.70167 2.00073 9.89541V1.88057C2.01905 1.6853 2.11294 1.50493 2.26237 1.37791C2.4118 1.25089 2.60495 1.18729 2.80062 1.20066H11.9993V9.59945ZM4.40039 4.40021H9.59964C9.75875 4.40021 9.91134 4.337 10.0238 4.22449C10.1363 4.11199 10.1996 3.9594 10.1996 3.80029C10.1996 3.64118 10.1363 3.48859 10.0238 3.37609C9.91134 3.26358 9.75875 3.20038 9.59964 3.20038H4.40039C4.24128 3.20038 4.08869 3.26358 3.97619 3.37609C3.86368 3.48859 3.80048 3.64118 3.80048 3.80029C3.80048 3.9594 3.86368 4.11199 3.97619 4.22449C4.08869 4.337 4.24128 4.40021 4.40039 4.40021ZM9.59964 7.1998H4.40039C4.24128 7.1998 4.08869 7.13659 3.97619 7.02409C3.86368 6.91158 3.80048 6.75899 3.80048 6.59988C3.80048 6.44078 3.86368 6.28819 3.97619 6.17568C4.08869 6.06317 4.24128 5.99997 4.40039 5.99997H9.59964C9.75875 5.99997 9.91134 6.06317 10.0238 6.17568C10.1363 6.28819 10.1996 6.44078 10.1996 6.59988C10.1996 6.75899 10.1363 6.91158 10.0238 7.02409C9.91134 7.13659 9.75875 7.1998 9.59964 7.1998Z" fill="#212121"/>
</g>
<defs>
<clipPath id="clip0_326_12570">
<rect width="14" height="14" fill="white"/>
</clipPath>
</defs>
</svg>
