<svg width="14" height="14" viewBox="0 0 14 14" fill="none" xmlns="http://www.w3.org/2000/svg">
<g clip-path="url(#clip0_327_12493)">
<path d="M14.0011 10.6153C14.0011 10.6153 14.0011 10.5593 14.0011 10.5273V3.4702C14.0009 3.37838 13.9789 3.28792 13.9371 3.20616C13.8782 3.0791 13.7762 2.97704 13.6491 2.91812L7.24808 0.0536605C7.17017 0.0182958 7.0856 0 7.00004 0C6.91448 0 6.82991 0.0182958 6.752 0.0536605L0.35098 2.91812C0.248032 2.96992 0.160981 3.04856 0.0990161 3.14574C0.0370508 3.24291 0.00247011 3.35501 -0.00107574 3.4702V10.5273C0.00490615 10.6419 0.0404813 10.753 0.102181 10.8498C0.163881 10.9465 0.2496 11.0256 0.35098 11.0794L6.752 13.9439C6.82946 13.9808 6.91421 14 7.00004 14C7.08587 14 7.17061 13.9808 7.24808 13.9439L13.6491 11.0794C13.7415 11.0371 13.822 10.9726 13.8834 10.8916C13.9449 10.8106 13.9853 10.7157 14.0011 10.6153ZM1.19912 4.39035L6.39994 6.72672V12.4716L1.19912 10.1433V4.39035ZM7.60013 6.72672L12.801 4.39035V10.1433L7.60013 12.4716V6.72672ZM7.01604 1.25385L11.9528 3.4702L7.01604 5.67855L2.07925 3.4702L7.01604 1.25385Z" fill="#212121"/>
</g>
<defs>
<clipPath id="clip0_327_12493">
<rect width="14" height="14" fill="white"/>
</clipPath>
</defs>
</svg>
