<svg width="14" height="14" viewBox="0 0 14 14" fill="none" xmlns="http://www.w3.org/2000/svg">
<g clip-path="url(#clip0_327_12503)">
<path d="M12.6 2.80139H9.6V1.80139C9.57125 1.40442 9.38714 1.03479 9.08761 0.772697C8.78807 0.510604 8.39728 0.377187 8 0.401391H6C5.60272 0.377187 5.21193 0.510604 4.91239 0.772697C4.61286 1.03479 4.42875 1.40442 4.4 1.80139V2.80139H1.4C1.02934 2.80349 0.674468 2.95166 0.412371 3.21376C0.150274 3.47586 0.00210008 3.83074 0 4.20139V12.2014C0.00210008 12.572 0.150274 12.9269 0.412371 13.189C0.674468 13.4511 1.02934 13.5993 1.4 13.6014H12.6C12.9707 13.5993 13.3255 13.4511 13.5876 13.189C13.8497 12.9269 13.9979 12.572 14 12.2014V4.20139C13.9979 3.83074 13.8497 3.47586 13.5876 3.21376C13.3255 2.95166 12.9707 2.80349 12.6 2.80139ZM5.6 1.80139C5.6 1.73739 5.752 1.60139 6 1.60139H8C8.248 1.60139 8.4 1.73739 8.4 1.80139V2.80139H5.6V1.80139ZM1.4 4.00139H12.6C12.653 4.00139 12.7039 4.02246 12.7414 4.05997C12.7789 4.09748 12.8 4.14835 12.8 4.20139V6.80139H1.2V4.20139C1.2 4.14835 1.22107 4.09748 1.25858 4.05997C1.29609 4.02246 1.34696 4.00139 1.4 4.00139ZM4.4 8.00139H9.6V9.20139H4.4V8.00139ZM12.6 12.4014H1.4C1.34696 12.4014 1.29609 12.3803 1.25858 12.3428C1.22107 12.3053 1.2 12.2544 1.2 12.2014V8.00139H3.2V9.80139C3.20207 9.95988 3.26595 10.1113 3.37803 10.2234C3.4901 10.3354 3.64151 10.3993 3.8 10.4014H10.2C10.3585 10.3993 10.5099 10.3354 10.622 10.2234C10.734 10.1113 10.7979 9.95988 10.8 9.80139V8.00139H12.8V12.2014C12.8 12.2544 12.7789 12.3053 12.7414 12.3428C12.7039 12.3803 12.653 12.4014 12.6 12.4014Z" fill="#212121"/>
</g>
<defs>
<clipPath id="clip0_327_12503">
<rect width="14" height="14" fill="white"/>
</clipPath>
</defs>
</svg>
