<svg width="14" height="14" viewBox="0 0 14 14" fill="none" xmlns="http://www.w3.org/2000/svg">
<path fill-rule="evenodd" clip-rule="evenodd" d="M11.6 12.8H12C12.1592 12.8 12.3118 12.8632 12.4243 12.9757C12.5368 13.0883 12.6 13.2409 12.6 13.4C12.6 13.5591 12.5368 13.7117 12.4243 13.8243C12.3118 13.9368 12.1592 14 12 14H2.00002C1.84089 14 1.68828 13.9368 1.57576 13.8243C1.46324 13.7117 1.40002 13.5591 1.40002 13.4C1.40002 13.2409 1.46324 13.0883 1.57576 12.9757C1.68828 12.8632 1.84089 12.8 2.00002 12.8H2.40002V0.6C2.4021 0.441514 2.46598 0.290103 2.57805 0.178027C2.69013 0.0659513 2.84154 0.00207197 3.00002 0H11C11.1585 0.00207197 11.3099 0.0659513 11.422 0.178027C11.5341 0.290103 11.598 0.441514 11.6 0.6V12.8ZM6.20002 12.8H10.4V1.2H3.60002V12.8H4.60002V11C4.60002 10.8939 4.64217 10.7922 4.71718 10.7172C4.7922 10.6421 4.89394 10.6 5.00002 10.6H5.80002C5.90611 10.6 6.00785 10.6421 6.08287 10.7172C6.15788 10.7922 6.20002 10.8939 6.20002 11V12.8ZM5.80004 2.2H5.00004C4.77912 2.2 4.60004 2.37908 4.60004 2.6V3.4C4.60004 3.62091 4.77912 3.8 5.00004 3.8H5.80004C6.02095 3.8 6.20004 3.62091 6.20004 3.4V2.6C6.20004 2.37908 6.02095 2.2 5.80004 2.2ZM9.00002 2.2H8.20002C7.9791 2.2 7.80002 2.37908 7.80002 2.6V3.4C7.80002 3.62091 7.9791 3.8 8.20002 3.8H9.00002C9.22093 3.8 9.40002 3.62091 9.40002 3.4V2.6C9.40002 2.37908 9.22093 2.2 9.00002 2.2ZM5.00004 5H5.80004C6.02095 5 6.20004 5.17909 6.20004 5.4V6.2C6.20004 6.42091 6.02095 6.6 5.80004 6.6H5.00004C4.77912 6.6 4.60004 6.42091 4.60004 6.2V5.4C4.60004 5.17909 4.77912 5 5.00004 5ZM9.00002 5H8.20002C7.9791 5 7.80002 5.17909 7.80002 5.4V6.2C7.80002 6.42091 7.9791 6.6 8.20002 6.6H9.00002C9.22093 6.6 9.40002 6.42091 9.40002 6.2V5.4C9.40002 5.17909 9.22093 5 9.00002 5ZM5.00004 7.8H5.80004C6.02095 7.8 6.20004 7.97909 6.20004 8.2V9C6.20004 9.22092 6.02095 9.4 5.80004 9.4H5.00004C4.77912 9.4 4.60004 9.22092 4.60004 9V8.2C4.60004 7.97909 4.77912 7.8 5.00004 7.8ZM9.00002 7.8H8.20002C7.9791 7.8 7.80002 7.97909 7.80002 8.2V9C7.80002 9.22092 7.9791 9.4 8.20002 9.4H9.00002C9.22093 9.4 9.40002 9.22092 9.40002 9V8.2C9.40002 7.97909 9.22093 7.8 9.00002 7.8Z" fill="#212121"/>
</svg>
