<svg width="14" height="14" viewBox="0 0 14 14" fill="none" xmlns="http://www.w3.org/2000/svg">
<path d="M9.51281 4.30769H4.48717C4.28614 4.30769 4.12819 4.14974 4.12819 3.94872V2.87179C4.12819 2.67077 4.28614 2.51282 4.48717 2.51282H9.51281C9.71384 2.51282 9.87178 2.67077 9.87178 2.87179V3.94872C9.87178 4.14974 9.71384 4.30769 9.51281 4.30769ZM9.87178 6.46154V5.74359C9.87178 5.54256 9.71384 5.38462 9.51281 5.38462H8.79486C8.59384 5.38462 8.43589 5.54256 8.43589 5.74359V6.46154C8.43589 6.66256 8.59384 6.82051 8.79486 6.82051H9.51281C9.71384 6.82051 9.87178 6.66256 9.87178 6.46154ZM5.56409 6.46154V5.74359C5.56409 5.54256 5.40614 5.38462 5.20512 5.38462H4.48717C4.28614 5.38462 4.12819 5.54256 4.12819 5.74359V6.46154C4.12819 6.66256 4.28614 6.82051 4.48717 6.82051H5.20512C5.40614 6.82051 5.56409 6.66256 5.56409 6.46154ZM7.71794 6.46154V5.74359C7.71794 5.54256 7.55999 5.38462 7.35896 5.38462H6.64101C6.43999 5.38462 6.28204 5.54256 6.28204 5.74359V6.46154C6.28204 6.66256 6.43999 6.82051 6.64101 6.82051H7.35896C7.55999 6.82051 7.71794 6.66256 7.71794 6.46154ZM9.87178 8.79487V8.07692C9.87178 7.8759 9.71384 7.71795 9.51281 7.71795H8.79486C8.59384 7.71795 8.43589 7.8759 8.43589 8.07692V8.79487C8.43589 8.9959 8.59384 9.15385 8.79486 9.15385H9.51281C9.71384 9.15385 9.87178 8.9959 9.87178 8.79487ZM5.56409 8.79487V8.07692C5.56409 7.8759 5.40614 7.71795 5.20512 7.71795H4.48717C4.28614 7.71795 4.12819 7.8759 4.12819 8.07692V8.79487C4.12819 8.9959 4.28614 9.15385 4.48717 9.15385H5.20512C5.40614 9.15385 5.56409 8.9959 5.56409 8.79487ZM7.71794 8.79487V8.07692C7.71794 7.8759 7.55999 7.71795 7.35896 7.71795H6.64101C6.43999 7.71795 6.28204 7.8759 6.28204 8.07692V8.79487C6.28204 8.9959 6.43999 9.15385 6.64101 9.15385H7.35896C7.55999 9.15385 7.71794 8.9959 7.71794 8.79487ZM9.87178 11.1282V10.4103C9.87178 10.2092 9.71384 10.0513 9.51281 10.0513H8.79486C8.59384 10.0513 8.43589 10.2092 8.43589 10.4103V11.1282C8.43589 11.3292 8.59384 11.4872 8.79486 11.4872H9.51281C9.71384 11.4872 9.87178 11.3292 9.87178 11.1282ZM7.71794 11.1282V10.4103C7.71794 10.2092 7.55999 10.0513 7.35896 10.0513H4.48717C4.28614 10.0513 4.12819 10.2092 4.12819 10.4103V11.1282C4.12819 11.3292 4.28614 11.4872 4.48717 11.4872H7.35896C7.55999 11.4872 7.71794 11.3292 7.71794 11.1282ZM12.2051 12.3846V1.61538C12.2051 0.725128 11.48 0 10.5897 0H3.41025C2.51999 0 1.79486 0.725128 1.79486 1.61538V12.3846C1.79486 13.2749 2.51999 14 3.41025 14H10.5897C11.48 14 12.2051 13.2749 12.2051 12.3846ZM10.5897 1.07692C10.8841 1.07692 11.1282 1.32103 11.1282 1.61538V12.3846C11.1282 12.679 10.8841 12.9231 10.5897 12.9231H3.41025C3.11589 12.9231 2.87178 12.679 2.87178 12.3846V1.61538C2.87178 1.32103 3.11589 1.07692 3.41025 1.07692H10.5897Z" fill="#212121"/>
</svg>
