<svg width="14" height="14" viewBox="0 0 14 14" fill="none" xmlns="http://www.w3.org/2000/svg">
<path fill-rule="evenodd" clip-rule="evenodd" d="M9.83783 1.51351H10.7838C11.3357 1.51351 11.865 1.73277 12.2553 2.12305C12.6456 2.51333 12.8649 3.04266 12.8649 3.59459V11.9189C12.8649 12.4709 12.6456 13.0002 12.2553 13.3905C11.865 13.7807 11.3357 14 10.7838 14H3.21621C2.66428 14 2.13494 13.7807 1.74467 13.3905C1.35439 13.0002 1.13513 12.4709 1.13513 11.9189V3.59459C1.13513 3.04266 1.35439 2.51333 1.74467 2.12305C2.13494 1.73277 2.66428 1.51351 3.21621 1.51351H4.16216V0.567568C4.16216 0.417039 4.22196 0.272676 4.3284 0.166237C4.43484 0.0597971 4.5792 0 4.72973 0C4.88025 0 5.02462 0.0597971 5.13106 0.166237C5.2375 0.272676 5.29729 0.417039 5.29729 0.567568V1.51351H8.7027V0.567568C8.7027 0.417039 8.7625 0.272676 8.86894 0.166237C8.97538 0.0597971 9.11974 0 9.27027 0C9.42079 0 9.56516 0.0597971 9.6716 0.166237C9.77804 0.272676 9.83783 0.417039 9.83783 0.567568V1.51351ZM4.16216 2.64865H3.21621C2.96533 2.64865 2.72473 2.74831 2.54733 2.92571C2.36993 3.10311 2.27027 3.34371 2.27027 3.59459V5.67568H11.7297V3.59459C11.7297 3.34371 11.6301 3.10311 11.4527 2.92571C11.2753 2.74831 11.0347 2.64865 10.7838 2.64865H9.83783V3.59459C9.83783 3.74512 9.77804 3.88949 9.6716 3.99593C9.56516 4.10237 9.42079 4.16216 9.27027 4.16216C9.11974 4.16216 8.97538 4.10237 8.86894 3.99593C8.7625 3.88949 8.7027 3.74512 8.7027 3.59459V2.64865H5.29729V3.59459C5.29729 3.74512 5.2375 3.88949 5.13106 3.99593C5.02462 4.10237 4.88025 4.16216 4.72973 4.16216C4.5792 4.16216 4.43484 4.10237 4.3284 3.99593C4.22196 3.88949 4.16216 3.74512 4.16216 3.59459V2.64865ZM3.21621 12.8649H10.7838C11.0347 12.8649 11.2753 12.7652 11.4527 12.5878C11.6301 12.4104 11.7297 12.1698 11.7297 11.9189V6.81081H2.27027V11.9189C2.27027 12.1698 2.36993 12.4104 2.54733 12.5878C2.72473 12.7652 2.96533 12.8649 3.21621 12.8649ZM8.28465 8.43375C8.35353 8.46281 8.4159 8.50537 8.46808 8.55891C8.52162 8.61109 8.56418 8.67346 8.59324 8.74234C8.62229 8.81123 8.63726 8.88523 8.63726 8.95999C8.63726 9.03476 8.62229 9.10876 8.59324 9.17765C8.56418 9.24653 8.52162 9.3089 8.46808 9.36108L7.80213 10.027L8.46808 10.693C8.52162 10.7451 8.56418 10.8075 8.59324 10.8764C8.62229 10.9453 8.63726 11.0193 8.63726 11.094C8.63726 11.1688 8.62229 11.2428 8.59324 11.3117C8.56418 11.3806 8.52162 11.443 8.46808 11.4951C8.41649 11.5493 8.35417 11.592 8.2851 11.6207C8.21604 11.6494 8.14175 11.6633 8.06699 11.6616C7.99242 11.662 7.91853 11.6474 7.84966 11.6188C7.78078 11.5902 7.71831 11.5482 7.66591 11.4951L6.99997 10.8292L6.33402 11.4951C6.28162 11.5482 6.21915 11.5902 6.15028 11.6188C6.0814 11.6474 6.00751 11.662 5.93294 11.6616C5.85818 11.6633 5.78389 11.6494 5.71483 11.6207C5.64577 11.592 5.58345 11.5493 5.53186 11.4951C5.47831 11.443 5.43576 11.3806 5.4067 11.3117C5.37764 11.2428 5.36267 11.1688 5.36267 11.094C5.36267 11.0193 5.37764 10.9453 5.4067 10.8764C5.43576 10.8075 5.47831 10.7451 5.53186 10.693L6.1978 10.027L5.53186 9.36108C5.4316 9.25348 5.37702 9.11118 5.37962 8.96414C5.38221 8.8171 5.44178 8.67681 5.54577 8.57282C5.64976 8.46883 5.79005 8.40927 5.93709 8.40667C6.08412 8.40408 6.22643 8.45866 6.33402 8.55891L6.99997 9.22486L7.66591 8.55891C7.71809 8.50537 7.78046 8.46281 7.84934 8.43375C7.91823 8.4047 7.99223 8.38972 8.06699 8.38972C8.14176 8.38972 8.21576 8.4047 8.28465 8.43375Z" fill="#212121"/>
</svg>
