<svg width="14" height="14" viewBox="0 0 14 14" fill="none" xmlns="http://www.w3.org/2000/svg">
<path fill-rule="evenodd" clip-rule="evenodd" d="M9.83783 1.51351H10.7838C11.3357 1.51351 11.865 1.73277 12.2553 2.12305C12.6456 2.51333 12.8649 3.04266 12.8649 3.59459V11.9189C12.8649 12.4709 12.6456 13.0002 12.2553 13.3905C11.865 13.7807 11.3357 14 10.7838 14H3.21621C2.66428 14 2.13494 13.7807 1.74467 13.3905C1.35439 13.0002 1.13513 12.4709 1.13513 11.9189V3.59459C1.13513 3.04266 1.35439 2.51333 1.74467 2.12305C2.13494 1.73277 2.66428 1.51351 3.21621 1.51351H4.16216V0.567568C4.16216 0.417039 4.22196 0.272676 4.3284 0.166237C4.43484 0.0597971 4.5792 0 4.72973 0C4.88025 0 5.02462 0.0597971 5.13106 0.166237C5.2375 0.272676 5.29729 0.417039 5.29729 0.567568V1.51351H8.7027V0.567568C8.7027 0.417039 8.7625 0.272676 8.86894 0.166237C8.97538 0.0597971 9.11974 0 9.27027 0C9.42079 0 9.56516 0.0597971 9.6716 0.166237C9.77804 0.272676 9.83783 0.417039 9.83783 0.567568V1.51351ZM4.16216 2.64865H3.21621C2.96533 2.64865 2.72473 2.74831 2.54733 2.92571C2.36993 3.10311 2.27027 3.34371 2.27027 3.59459V5.67568H11.7297V3.59459C11.7297 3.34371 11.6301 3.10311 11.4527 2.92571C11.2753 2.74831 11.0347 2.64865 10.7838 2.64865H9.83783V3.59459C9.83783 3.74512 9.77804 3.88949 9.6716 3.99593C9.56516 4.10237 9.42079 4.16216 9.27027 4.16216C9.11974 4.16216 8.97538 4.10237 8.86894 3.99593C8.7625 3.88949 8.7027 3.74512 8.7027 3.59459V2.64865H5.29729V3.59459C5.29729 3.74512 5.2375 3.88949 5.13106 3.99593C5.02462 4.10237 4.88025 4.16216 4.72973 4.16216C4.5792 4.16216 4.43484 4.10237 4.3284 3.99593C4.22196 3.88949 4.16216 3.74512 4.16216 3.59459V2.64865ZM3.21621 12.8649H10.7838C11.0347 12.8649 11.2753 12.7652 11.4527 12.5878C11.6301 12.4104 11.7297 12.1698 11.7297 11.9189V6.81081H2.27027V11.9189C2.27027 12.1698 2.36993 12.4104 2.54733 12.5878C2.72473 12.7652 2.96533 12.8649 3.21621 12.8649ZM5.48651 9.4973H8.51354C8.66407 9.4973 8.80843 9.5571 8.91487 9.66354C9.02131 9.76997 9.08111 9.91434 9.08111 10.0649C9.08111 10.2154 9.02131 10.3598 8.91487 10.4662C8.80843 10.5726 8.66407 10.6324 8.51354 10.6324H5.48651C5.33598 10.6324 5.19162 10.5726 5.08518 10.4662C4.97874 10.3598 4.91895 10.2154 4.91895 10.0649C4.91895 9.91434 4.97874 9.76997 5.08518 9.66354C5.19162 9.5571 5.33598 9.4973 5.48651 9.4973Z" fill="#212121"/>
</svg>
