<svg width="14" height="14" viewBox="0 0 14 14" fill="none" xmlns="http://www.w3.org/2000/svg">
<path fill-rule="evenodd" clip-rule="evenodd" d="M2.2 12.788H11.8C12.3835 12.788 12.9431 12.5562 13.3556 12.1436C13.7682 11.7311 14 11.1715 14 10.588V5.78801C14 5.20453 13.7682 4.64495 13.3556 4.23237C12.9431 3.81979 12.3835 3.58801 11.8 3.58801H11.32L10.376 2.18801C10.174 1.88762 9.90131 1.64149 9.58184 1.4713C9.26238 1.3011 8.90597 1.21206 8.544 1.21201H5.456C5.09403 1.21206 4.73762 1.3011 4.41816 1.4713C4.09869 1.64149 3.82597 1.88762 3.624 2.18801L2.68 3.58801H2.2C1.61652 3.58801 1.05694 3.81979 0.644365 4.23237C0.231785 4.64495 0 5.20453 0 5.78801V10.588C0 11.1715 0.231785 11.7311 0.644365 12.1436C1.05694 12.5562 1.61652 12.788 2.2 12.788ZM1.49289 5.0809C1.68043 4.89336 1.93478 4.78801 2.2 4.78801H3C3.09794 4.78783 3.19435 4.76367 3.28081 4.71765C3.36727 4.67164 3.44115 4.60515 3.496 4.52401L4.656 2.83601C4.74346 2.70248 4.86186 2.59202 5.00113 2.51403C5.14041 2.43604 5.29645 2.39281 5.456 2.38801H8.6C8.75955 2.39281 8.91559 2.43604 9.05487 2.51403C9.19414 2.59202 9.31254 2.70248 9.4 2.83601L10.504 4.52401C10.5588 4.60515 10.6327 4.67164 10.7192 4.71765C10.8056 4.76367 10.9021 4.78783 11 4.78801H11.8C12.0652 4.78801 12.3196 4.89336 12.5071 5.0809C12.6946 5.26844 12.8 5.52279 12.8 5.78801V10.588C12.8 10.8532 12.6946 11.1076 12.5071 11.2951C12.3196 11.4826 12.0652 11.588 11.8 11.588H2.2C1.93478 11.588 1.68043 11.4826 1.49289 11.2951C1.30536 11.1076 1.2 10.8532 1.2 10.588V5.78801C1.2 5.52279 1.30536 5.26844 1.49289 5.0809ZM5.55554 9.94983C5.98311 10.2355 6.48579 10.388 7.00003 10.388C7.68894 10.3859 8.34903 10.1113 8.83617 9.62415C9.32331 9.13701 9.59792 8.47692 9.60003 7.788C9.60003 7.27377 9.44754 6.77109 9.16185 6.34352C8.87615 5.91595 8.47009 5.58271 7.995 5.38592C7.51991 5.18913 6.99714 5.13764 6.49279 5.23796C5.98844 5.33828 5.52517 5.58591 5.16155 5.94953C4.79793 6.31314 4.55031 6.77642 4.44998 7.28077C4.34966 7.78512 4.40115 8.30789 4.59794 8.78298C4.79473 9.25807 5.12798 9.66413 5.55554 9.94983ZM6.22223 6.62395C6.45246 6.47011 6.72313 6.388 7.00003 6.388C7.37068 6.39011 7.72556 6.53828 7.98765 6.80038C8.24975 7.06247 8.39793 7.41735 8.40003 7.788C8.40003 8.0649 8.31792 8.33557 8.16408 8.5658C8.01025 8.79603 7.7916 8.97547 7.53578 9.08144C7.27997 9.1874 6.99847 9.21512 6.7269 9.1611C6.45533 9.10709 6.20587 8.97375 6.01008 8.77795C5.81428 8.58216 5.68095 8.3327 5.62693 8.06113C5.57291 7.78956 5.60063 7.50806 5.70659 7.25225C5.81256 6.99643 5.992 6.77778 6.22223 6.62395Z" fill="#212121"/>
</svg>
