<svg width="14" height="14" viewBox="0 0 14 14" fill="none" xmlns="http://www.w3.org/2000/svg">
<g clip-path="url(#clip0_386_16474)">
<path fill-rule="evenodd" clip-rule="evenodd" d="M13.2178 5.25602L11.7492 1.26522C11.6565 0.990687 11.4807 0.751779 11.2461 0.5816C11.0116 0.411422 10.7299 0.318397 10.4402 0.315414H3.57602C3.29012 0.316056 3.01131 0.404415 2.77722 0.56856C2.54314 0.732704 2.36506 0.964727 2.26704 1.2333L0.798426 5.2241C0.562757 5.33688 0.363213 5.51316 0.222216 5.73312C0.0812187 5.95307 0.00435644 6.20799 0.000266111 6.46923V10.0609C-0.0043179 10.2944 0.0503872 10.5253 0.159265 10.7318C0.268143 10.9384 0.427637 11.114 0.622831 11.2422V11.2901V12.8864C0.622831 13.0981 0.706922 13.3011 0.856606 13.4508C1.00629 13.6005 1.20931 13.6846 1.42099 13.6846H2.21915C2.43084 13.6846 2.63385 13.6005 2.78353 13.4508C2.93322 13.3011 3.01731 13.0981 3.01731 12.8864V11.4897H10.9989V12.8864C10.9989 13.0981 11.083 13.3011 11.2327 13.4508C11.3824 13.6005 11.5854 13.6846 11.7971 13.6846H12.5952C12.8069 13.6846 13.0099 13.6005 13.1596 13.4508C13.3093 13.3011 13.3934 13.0981 13.3934 12.8864V11.2901V11.2422C13.5811 11.1151 13.7346 10.9438 13.8404 10.7434C13.9461 10.5429 14.001 10.3195 14 10.0929V6.50115C13.9974 6.24161 13.9229 5.98786 13.7848 5.76807C13.6467 5.54828 13.4505 5.37104 13.2178 5.25602ZM12.7948 10.0929C12.7948 10.1458 12.7737 10.1965 12.7363 10.234C12.6989 10.2714 12.6481 10.2924 12.5952 10.2924H1.42099C1.36807 10.2924 1.31732 10.2714 1.27989 10.234C1.24247 10.1965 1.22145 10.1458 1.22145 10.0929V6.50115C1.22145 6.44823 1.24247 6.39748 1.27989 6.36006C1.31732 6.32264 1.36807 6.30161 1.42099 6.30161H12.5952C12.6481 6.30161 12.6989 6.32264 12.7363 6.36006C12.7737 6.39748 12.7948 6.44823 12.7948 6.50115V10.0929ZM3.39244 1.64036C3.40679 1.60317 3.43194 1.57113 3.46466 1.54837C3.49738 1.52561 3.53617 1.51317 3.57602 1.51265H10.4402C10.48 1.51317 10.5188 1.52561 10.5516 1.54837C10.5843 1.57113 10.6094 1.60317 10.6238 1.64036L11.7412 4.70529H2.27502L3.39244 1.64036ZM3.8154 9.49426C4.47662 9.49426 5.01264 8.95823 5.01264 8.29702C5.01264 7.6358 4.47662 7.09978 3.8154 7.09978C3.15419 7.09978 2.61816 7.6358 2.61816 8.29702C2.61816 8.95823 3.15419 9.49426 3.8154 9.49426ZM11.3979 8.29702C11.3979 8.95823 10.8619 9.49426 10.2007 9.49426C9.53944 9.49426 9.00342 8.95823 9.00342 8.29702C9.00342 7.6358 9.53944 7.09978 10.2007 7.09978C10.8619 7.09978 11.3979 7.6358 11.3979 8.29702Z" fill="#212121"/>
</g>
<defs>
<clipPath id="clip0_386_16474">
<rect width="14" height="14" fill="white"/>
</clipPath>
</defs>
</svg>
