<svg width="14" height="14" viewBox="0 0 14 14" fill="none" xmlns="http://www.w3.org/2000/svg">
<path d="M6.99996 11.2216C6.89636 11.2224 6.79405 11.1986 6.70138 11.1522C6.60871 11.1059 6.5283 11.0383 6.4667 10.955L1.13407 3.84485C1.05912 3.74532 1.01356 3.62678 1.00256 3.50268C0.991567 3.37857 1.01557 3.25387 1.07186 3.14272C1.12851 3.03351 1.21392 2.94184 1.31887 2.87762C1.42381 2.8134 1.5443 2.77907 1.66733 2.77832H12.3326C12.4556 2.77907 12.5761 2.8134 12.6811 2.87762C12.786 2.94184 12.8714 3.03351 12.9281 3.14272C12.9844 3.25387 13.0084 3.37857 12.9974 3.50268C12.9864 3.62678 12.9408 3.74532 12.8659 3.84485L7.53323 10.955C7.47162 11.0383 7.39121 11.1059 7.29854 11.1522C7.20587 11.1986 7.10357 11.2224 6.99996 11.2216ZM3.00049 4.11148L6.99996 9.44411L10.9994 4.11148H3.00049Z" fill="#212121"/>
</svg>
