<svg width="14" height="14" viewBox="0 0 14 14" fill="none" xmlns="http://www.w3.org/2000/svg">
<path d="M12.3326 11.2161H1.66734C1.54431 11.2153 1.42382 11.181 1.31888 11.1168C1.21393 11.0525 1.12852 10.9609 1.07186 10.8517C1.01558 10.7405 0.991575 10.6158 1.00257 10.4917C1.01357 10.3676 1.05913 10.2491 1.13408 10.1495L6.46671 3.03937C6.53084 2.95963 6.61204 2.8953 6.70433 2.85109C6.79662 2.80688 6.89764 2.78394 6.99997 2.78394C7.1023 2.78394 7.20332 2.80688 7.29561 2.85109C7.3879 2.8953 7.4691 2.95963 7.53323 3.03937L12.8659 10.1495C12.9408 10.2491 12.9864 10.3676 12.9974 10.4917C13.0084 10.6158 12.9844 10.7405 12.9281 10.8517C12.8714 10.9609 12.786 11.0525 12.6811 11.1168C12.5761 11.181 12.4556 11.2153 12.3326 11.2161ZM3.0005 9.88291H10.9994L6.99997 4.55028L3.0005 9.88291Z" fill="#212121"/>
</svg>
