<svg width="14" height="14" viewBox="0 0 14 14" fill="none" xmlns="http://www.w3.org/2000/svg">
<g clip-path="url(#clip0_1517_32547)">
<path d="M5.71242 6.59998C5.71242 6.27196 5.98443 5.99995 6.31246 5.99995H7.31252V4.99988C7.31252 4.67186 7.58453 4.39985 7.91255 4.39985C8.24057 4.39985 8.51259 4.67186 8.51259 4.99988V5.99995H9.51265C9.84068 5.99995 10.1127 6.27196 10.1127 6.59998C10.1127 6.928 9.84068 7.20002 9.51265 7.20002H8.51259V8.20008C8.51259 8.5281 8.24057 8.80012 7.91255 8.80012C7.58453 8.80012 7.31252 8.5281 7.31252 8.20008V7.20002H6.31246C5.98443 7.20002 5.71242 6.928 5.71242 6.59998ZM6.40046 12.4003C6.40046 13.0644 5.86443 13.6004 5.20039 13.6004C4.53634 13.6004 4.00031 13.0644 4.00031 12.4003C4.00031 11.7363 4.53634 11.2003 5.20039 11.2003C5.86443 11.2003 6.40046 11.7363 6.40046 12.4003ZM11.6008 12.4003C11.6008 13.0644 11.0648 13.6004 10.4007 13.6004C9.73667 13.6004 9.20063 13.0644 9.20063 12.4003C9.20063 11.7363 9.73667 11.2003 10.4007 11.2003C11.0648 11.2003 11.6008 11.7363 11.6008 12.4003ZM13.9849 3.54379L12.3848 9.94419C12.3208 10.2082 12.0808 10.4002 11.8008 10.4002H3.8003C3.51228 10.4002 3.26426 10.1922 3.20826 9.90419L1.69617 1.59967H0.600098C0.272078 1.59967 6.10352e-05 1.32765 6.10352e-05 0.999635C6.10352e-05 0.671614 0.272078 0.399597 0.600098 0.399597H2.2002C2.48822 0.399597 2.73623 0.60761 2.79223 0.895628L3.13626 2.79975H13.4009C13.5849 2.79975 13.7609 2.88775 13.8729 3.03176C13.9849 3.17577 14.0249 3.36778 13.9849 3.54379ZM12.6328 3.99982H3.35227L4.29633 9.20015H11.3288L12.6248 3.99982H12.6328Z" fill="#212121"/>
</g>
<defs>
<clipPath id="clip0_1517_32547">
<rect width="14" height="14" fill="white"/>
</clipPath>
</defs>
</svg>
