<svg width="14" height="14" viewBox="0 0 14 14" fill="none" xmlns="http://www.w3.org/2000/svg">
<g clip-path="url(#clip0_386_16556)">
<path d="M8.06491 0.882768V0.636611C8.06271 0.468455 7.99493 0.307805 7.87602 0.18889C7.7571 0.0699756 7.59645 0.0021984 7.4283 0C6.12659 0.00753353 4.84945 0.355116 3.72345 1.0083C2.59746 1.66148 1.66172 2.59758 1.00896 3.72382C0.356204 4.85006 0.00910412 6.12733 0.00206244 7.42904C-0.00497924 8.73075 0.328282 10.0117 0.968814 11.1449C1.02526 11.241 1.10592 11.3205 1.20274 11.3757C1.29956 11.4308 1.40914 11.4595 1.52054 11.459C1.63087 11.4588 1.73919 11.4295 1.83461 11.3741L2.08076 11.2468C2.71947 12.1417 3.57255 12.862 4.56183 13.3417C5.55111 13.8214 6.64496 14.0451 7.74314 13.9924C8.84133 13.9398 9.90873 13.6123 10.8475 13.0401C11.7864 12.4679 12.5666 11.6692 13.1166 10.7173C13.6667 9.76536 13.9691 8.69059 13.9961 7.59147C14.0231 6.49236 13.7739 5.40404 13.2712 4.42625C12.7685 3.44846 12.0284 2.61246 11.1188 1.99485C10.2092 1.37725 9.15918 0.997794 8.06491 0.891256V0.882768ZM6.79169 1.30718V7.06214L1.79217 9.93114C1.40253 9.0419 1.2279 8.07336 1.28244 7.10404C1.33698 6.13472 1.61914 5.19188 2.10607 4.35196C2.59299 3.51204 3.27097 2.79867 4.08505 2.26967C4.89912 1.74067 5.82639 1.41093 6.79169 1.30718ZM7.4283 12.7322C6.60423 12.7299 5.79194 12.5363 5.05546 12.1666C4.31897 11.7969 3.6784 11.2612 3.18422 10.6017L7.74236 7.97886C7.84118 7.92488 7.92343 7.845 7.98025 7.74779C8.03708 7.65058 8.06635 7.53973 8.06491 7.42713V2.16448C9.40036 2.33422 10.6213 3.00531 11.4804 4.04176C12.3395 5.0782 12.7724 6.40248 12.6915 7.74624C12.6105 9.08999 12.0218 10.3527 11.0445 11.2785C10.0672 12.2044 8.77447 12.724 7.4283 12.7322Z" fill="#212121"/>
</g>
<defs>
<clipPath id="clip0_386_16556">
<rect width="14" height="14" fill="white"/>
</clipPath>
</defs>
</svg>
