<svg width="14" height="14" viewBox="0 0 14 14" fill="none" xmlns="http://www.w3.org/2000/svg">
<g clip-path="url(#clip0_386_16524)">
<path fill-rule="evenodd" clip-rule="evenodd" d="M0 0.636364V13.3636C0 13.5324 0.0670452 13.6943 0.186387 13.8136C0.305573 13.9328 0.467169 13.9998 0.635706 14L0.636364 14L0.636996 14H13.3636C13.5324 14 13.6943 13.9329 13.8136 13.8136C13.933 13.6943 14 13.5324 14 13.3636C14 13.1949 13.933 13.033 13.8136 12.9137C13.6943 12.7943 13.5324 12.7273 13.3636 12.7273H1.27273V0.636364C1.27273 0.46759 1.20568 0.305728 1.08634 0.186387C0.967 0.0670452 0.805138 0 0.636364 0C0.467589 0 0.305728 0.0670452 0.186387 0.186387C0.0670452 0.305728 0 0.46759 0 0.636364ZM6.12821 10.8415C6.24708 10.9604 6.40766 11.0281 6.57576 11.0303C6.74385 11.0281 6.90443 10.9604 7.0233 10.8415C7.14217 10.7226 7.20992 10.562 7.21212 10.3939V3.60606C7.21212 3.43729 7.14507 3.27542 7.02573 3.15608C6.90639 3.03674 6.74453 2.9697 6.57576 2.9697C6.40698 2.9697 6.24512 3.03674 6.12578 3.15608C6.00644 3.27542 5.93939 3.43729 5.93939 3.60606V10.3939C5.94159 10.562 6.00934 10.7226 6.12821 10.8415ZM9.09794 10.8415C9.2168 10.9604 9.37739 11.0281 9.54548 11.0303C9.71357 11.0281 9.87416 10.9604 9.99303 10.8415C10.1119 10.7226 10.1796 10.562 10.1818 10.3939V7C10.1818 6.83122 10.1148 6.66936 9.99546 6.55002C9.87612 6.43068 9.71426 6.36363 9.54548 6.36363C9.37671 6.36363 9.21485 6.43068 9.09551 6.55002C8.97616 6.66936 8.90912 6.83122 8.90912 7V10.3939C8.91132 10.562 8.97907 10.7226 9.09794 10.8415ZM12.5151 11.0303C12.3471 11.0281 12.1865 10.9604 12.0676 10.8415C11.9487 10.7226 11.881 10.562 11.8788 10.3939V3.60606C11.8788 3.43729 11.9458 3.27542 12.0652 3.15608C12.1845 3.03674 12.3464 2.9697 12.5151 2.9697C12.6839 2.9697 12.8458 3.03674 12.9651 3.15608C13.0845 3.27542 13.1515 3.43729 13.1515 3.60606V10.3939C13.1493 10.562 13.0816 10.7226 12.9627 10.8415C12.8438 10.9604 12.6832 11.0281 12.5151 11.0303ZM3.15854 10.8415C3.27741 10.9604 3.438 11.0281 3.60609 11.0303C3.77418 11.0281 3.93477 10.9604 4.05364 10.8415C4.17251 10.7226 4.24026 10.562 4.24245 10.3939V7C4.24245 6.83122 4.17541 6.66936 4.05607 6.55002C3.93673 6.43068 3.77486 6.36363 3.60609 6.36363C3.43732 6.36363 3.27545 6.43068 3.15611 6.55002C3.03677 6.66936 2.96973 6.83122 2.96973 7V10.3939C2.97192 10.562 3.03967 10.7226 3.15854 10.8415Z" fill="#212121"/>
</g>
<defs>
<clipPath id="clip0_386_16524">
<rect width="14" height="14" fill="white"/>
</clipPath>
</defs>
</svg>
