<svg width="14" height="14" viewBox="0 0 14 14" fill="none" xmlns="http://www.w3.org/2000/svg">
<g clip-path="url(#clip0_386_16573)">
<path fill-rule="evenodd" clip-rule="evenodd" d="M2.2 14H11.8C12.3835 14 12.9431 13.7682 13.3556 13.3556C13.7682 12.9431 14 12.3835 14 11.8V5.632C14 5.47287 13.9368 5.32026 13.8243 5.20774C13.7117 5.09521 13.5591 5.032 13.4 5.032C13.2409 5.032 13.0883 5.09521 12.9757 5.20774C12.8632 5.32026 12.8 5.47287 12.8 5.632V11.8C12.8 12.0652 12.6946 12.3196 12.5071 12.5071C12.3196 12.6946 12.0652 12.8 11.8 12.8H2.2C1.93478 12.8 1.68043 12.6946 1.49289 12.5071C1.30536 12.3196 1.2 12.0652 1.2 11.8V2.2C1.2 1.93478 1.30536 1.68043 1.49289 1.49289C1.68043 1.30536 1.93478 1.2 2.2 1.2H9.288C9.44713 1.2 9.59974 1.13679 9.71226 1.02426C9.82479 0.911742 9.888 0.75913 9.888 0.6C9.888 0.44087 9.82479 0.288258 9.71226 0.175736C9.59974 0.063214 9.44713 0 9.288 0H2.2C1.61652 0 1.05694 0.231785 0.644365 0.644365C0.231785 1.05694 0 1.61652 0 2.2V11.8C0 12.3835 0.231785 12.9431 0.644365 13.3556C1.05694 13.7682 1.61652 14 2.2 14ZM5.39999 9.40001C5.50204 9.51641 5.64563 9.58821 5.79999 9.60001C5.95434 9.58821 6.09793 9.51641 6.19999 9.40001L13.4 2.20001C13.4535 2.08805 13.4709 1.96226 13.4499 1.83997C13.4289 1.71768 13.3706 1.6049 13.2828 1.51717C13.1951 1.42943 13.0823 1.37105 12.96 1.35007C12.8377 1.32909 12.7119 1.34654 12.6 1.40001L5.77599 8.17601L3.79999 6.20001C3.68802 6.14654 3.56224 6.12909 3.43995 6.15007C3.31766 6.17105 3.20488 6.22943 3.11714 6.31717C3.02941 6.4049 2.97103 6.51768 2.95005 6.63997C2.92907 6.76226 2.94651 6.88805 2.99999 7.00001L5.39999 9.40001Z" fill="#212121"/>
</g>
<defs>
<clipPath id="clip0_386_16573">
<rect width="14" height="14" fill="white"/>
</clipPath>
</defs>
</svg>
