<svg width="14" height="14" viewBox="0 0 14 14" fill="none" xmlns="http://www.w3.org/2000/svg">
<g clip-path="url(#clip0_386_16564)">
<path fill-rule="evenodd" clip-rule="evenodd" d="M3.42878 13.0233C4.50314 13.6607 5.72836 13.998 6.97692 14H7.6988C8.64543 13.9032 9.5608 13.6063 10.3845 13.1289C11.5868 12.4654 12.5674 11.4616 13.2038 10.2431C13.8402 9.02447 14.1042 7.64504 13.9629 6.27702C13.9552 6.19684 13.9319 6.11896 13.8942 6.04782C13.8565 5.97668 13.8052 5.91367 13.7432 5.86239C13.6812 5.81112 13.6098 5.77258 13.5329 5.74897C13.4561 5.72537 13.3753 5.71716 13.2953 5.72482C13.2153 5.73248 13.1376 5.75586 13.0666 5.79362C12.9956 5.83138 12.9327 5.88278 12.8815 5.94489C12.8303 6.007 12.7919 6.0786 12.7683 6.1556C12.7447 6.2326 12.7366 6.3135 12.7442 6.39368C12.8272 7.15691 12.7573 7.92906 12.5387 8.66491C12.3202 9.40075 11.9572 10.0855 11.4712 10.679C10.9992 11.2617 10.4193 11.7476 9.76354 12.1101C9.08283 12.4874 8.33297 12.7229 7.55908 12.8023C6.79735 12.8854 6.02672 12.8154 5.29232 12.5964C4.55792 12.3774 3.87452 12.0138 3.28214 11.5268C2.70064 11.0538 2.2157 10.4728 1.8539 9.81575C1.47731 9.1337 1.24232 8.38237 1.16307 7.60696C1.08009 6.84373 1.14994 6.07157 1.36853 5.33573C1.58711 4.59988 1.95005 3.91514 2.43607 3.3216C2.90812 2.73896 3.48794 2.25306 4.14374 1.89055C4.82444 1.51321 5.5743 1.27776 6.34819 1.19836C7.13113 1.11493 7.92282 1.18897 8.67683 1.41613C8.75194 1.4468 8.83261 1.4614 8.91368 1.45901C8.99474 1.45662 9.07442 1.43728 9.14759 1.40224C9.22076 1.3672 9.28582 1.31723 9.33859 1.25552C9.39137 1.19382 9.43069 1.12175 9.45405 1.04393C9.4774 0.966109 9.48427 0.884259 9.47421 0.803625C9.46416 0.722991 9.4374 0.645352 9.39565 0.575685C9.3539 0.506018 9.29808 0.44586 9.23178 0.399067C9.16547 0.352273 9.09014 0.319878 9.01061 0.303957C8.11947 0.029588 7.18196 -0.0603784 6.25504 0.039524C5.32464 0.129724 4.42319 0.413139 3.60815 0.871708C2.40727 1.53634 1.42829 2.54055 0.793319 3.75905C0.158347 4.97755 -0.104502 6.35641 0.0375607 7.72362C0.127583 8.65585 0.410442 9.55908 0.868111 10.3757C1.4702 11.4717 2.35443 12.3859 3.42878 13.0233ZM5.42442 9.33355C5.52344 9.44671 5.66277 9.51651 5.81253 9.52799C5.9623 9.51651 6.10162 9.44671 6.20064 9.33355L13.1866 2.33387C13.2385 2.22502 13.2554 2.10273 13.235 1.98384C13.2147 1.86496 13.158 1.75532 13.0729 1.67002C12.9878 1.58473 12.8783 1.52797 12.7597 1.50758C12.641 1.48718 12.519 1.50414 12.4104 1.55613L5.78924 8.1436L3.87199 6.22258C3.76336 6.1706 3.64131 6.15363 3.52266 6.17403C3.404 6.19443 3.29458 6.25118 3.20945 6.33648C3.12433 6.42177 3.06768 6.53141 3.04732 6.6503C3.02697 6.76919 3.0439 6.89147 3.09578 7.00032L5.42442 9.33355Z" fill="#212121"/>
</g>
<defs>
<clipPath id="clip0_386_16564">
<rect width="14" height="14" fill="white"/>
</clipPath>
</defs>
</svg>
