<svg width="14" height="14" viewBox="0 0 14 14" fill="none" xmlns="http://www.w3.org/2000/svg">
<g clip-path="url(#clip0_401_22088)">
<path fill-rule="evenodd" clip-rule="evenodd" d="M3.11101 12.8203C4.26215 13.5895 5.61553 14 7 14C8.85652 14 10.637 13.2625 11.9497 11.9497C13.2625 10.637 14 8.85652 14 7C14 5.61553 13.5895 4.26215 12.8203 3.11101C12.0511 1.95987 10.9579 1.06266 9.67879 0.532846C8.3997 0.00303296 6.99224 -0.13559 5.63437 0.134506C4.2765 0.404603 3.02922 1.07129 2.05026 2.05026C1.07129 3.02922 0.404603 4.2765 0.134506 5.63437C-0.13559 6.99224 0.00303296 8.3997 0.532846 9.67879C1.06266 10.9579 1.95987 12.0511 3.11101 12.8203ZM3.75918 2.14976C4.71846 1.50879 5.84628 1.16667 7 1.16667C8.5471 1.16667 10.0308 1.78125 11.1248 2.87521C12.2188 3.96918 12.8333 5.45291 12.8333 7C12.8333 8.15373 12.4912 9.28154 11.8502 10.2408C11.2093 11.2001 10.2982 11.9478 9.23232 12.3893C8.16642 12.8308 6.99353 12.9463 5.86198 12.7212C4.73042 12.4962 3.69102 11.9406 2.87521 11.1248C2.05941 10.309 1.50384 9.26958 1.27876 8.13803C1.05367 7.00647 1.16919 5.83358 1.61071 4.76768C2.05222 3.70178 2.79989 2.79074 3.75918 2.14976ZM5.22102 10.6505C5.29181 10.6798 5.36775 10.6948 5.44439 10.6944C5.52103 10.6948 5.59698 10.6798 5.66776 10.6505C5.73855 10.6211 5.80276 10.5779 5.85661 10.5233L8.96772 7.41221C9.07696 7.30284 9.13832 7.15458 9.13832 6.99999C9.13832 6.84541 9.07696 6.69714 8.96772 6.58777L5.85661 3.47666C5.74603 3.37362 5.59978 3.31752 5.44865 3.32019C5.29753 3.32286 5.15334 3.38408 5.04646 3.49095C4.93959 3.59783 4.87837 3.74202 4.8757 3.89314C4.87303 4.04426 4.92913 4.19052 5.03217 4.3011L7.73106 6.99999L5.03217 9.69888C4.92293 9.80826 4.86157 9.95652 4.86157 10.1111C4.86157 10.2657 4.92293 10.4139 5.03217 10.5233C5.08603 10.5779 5.15023 10.6211 5.22102 10.6505Z" fill="#212121"/>
</g>
<defs>
<clipPath id="clip0_401_22088">
<rect width="14" height="14" fill="white"/>
</clipPath>
</defs>
</svg>
