<svg width="14" height="14" viewBox="0 0 14 14" fill="none" xmlns="http://www.w3.org/2000/svg">
<g clip-path="url(#clip0_407_20692)">
<path fill-rule="evenodd" clip-rule="evenodd" d="M4.40001 10.8H8.6C9.18348 10.8 9.74306 10.5682 10.1556 10.1556C10.5682 9.74306 10.8 9.18348 10.8 8.6V4.40001H11.8C12.0652 4.40001 12.3196 4.50537 12.5071 4.69291C12.6947 4.88044 12.8 5.1348 12.8 5.40001V11.8C12.8 12.0652 12.6947 12.3196 12.5071 12.5071C12.3196 12.6947 12.0652 12.8 11.8 12.8H5.40001C5.1348 12.8 4.88044 12.6947 4.69291 12.5071C4.50537 12.3196 4.40001 12.0652 4.40001 11.8V10.8ZM3.20001 10.8H2.2C1.61652 10.8 1.05694 10.5682 0.644365 10.1556C0.231785 9.74306 0 9.18348 0 8.6V2.2C0 1.61652 0.231785 1.05694 0.644365 0.644365C1.05694 0.231785 1.61652 0 2.2 0H8.6C9.18348 0 9.74306 0.231785 10.1556 0.644365C10.5682 1.05694 10.8 1.61652 10.8 2.2V3.20001H11.8C12.3835 3.20001 12.9431 3.4318 13.3556 3.84438C13.7682 4.25696 14 4.81654 14 5.40001V11.8C14 12.3835 13.7682 12.9431 13.3556 13.3556C12.9431 13.7682 12.3835 14 11.8 14H5.40001C4.81654 14 4.25696 13.7682 3.84438 13.3556C3.4318 12.9431 3.20001 12.3835 3.20001 11.8V10.8ZM1.49289 1.49289C1.68043 1.30536 1.93478 1.2 2.2 1.2H8.6C8.86522 1.2 9.11957 1.30536 9.30711 1.49289C9.49464 1.68043 9.6 1.93478 9.6 2.2V8.6C9.6 8.86522 9.49464 9.11957 9.30711 9.30711C9.11957 9.49464 8.86522 9.6 8.6 9.6H2.2C1.93478 9.6 1.68043 9.49464 1.49289 9.30711C1.30536 9.11957 1.2 8.86522 1.2 8.6V2.2C1.2 1.93478 1.30536 1.68043 1.49289 1.49289Z" fill="#212121"/>
</g>
<defs>
<clipPath id="clip0_407_20692">
<rect width="14" height="14" fill="white"/>
</clipPath>
</defs>
</svg>
