<svg width="14" height="14" viewBox="0 0 14 14" fill="none" xmlns="http://www.w3.org/2000/svg">
<g clip-path="url(#clip0_407_20722)">
<path d="M10.4053 12.1083H5.10786C4.18586 12.1082 3.28107 11.8586 2.48945 11.3859C1.69783 10.9132 1.0489 10.2351 0.611477 9.42348C0.174058 8.61185 -0.0355368 7.69696 0.00492139 6.77585C0.0453796 5.85474 0.334383 4.96175 0.841279 4.1916C1.34818 3.42144 2.05406 2.80284 2.88408 2.40139C3.71409 1.99994 4.63729 1.83063 5.55574 1.91139C6.4742 1.99216 7.35367 2.32001 8.10088 2.86015C8.84809 3.4003 9.43518 4.13261 9.79988 4.97941C9.99944 4.94092 10.2021 4.92066 10.4053 4.91887C11.3399 4.97621 12.2213 5.37334 12.8834 6.03546C13.5455 6.69757 13.9427 7.57895 14 8.51356C14 8.98562 13.907 9.45306 13.7264 9.88919C13.5457 10.3253 13.2809 10.7216 12.9471 11.0554C12.6133 11.3892 12.2171 11.654 11.7809 11.8346C11.3448 12.0153 10.8774 12.1083 10.4053 12.1083ZM5.10786 3.02692C4.05413 3.02692 3.04356 3.44551 2.29847 4.19061C1.55337 4.93571 1.13478 5.94628 1.13478 7.00001C1.13478 8.05373 1.55337 9.0643 2.29847 9.8094C3.04356 10.5545 4.05413 10.9731 5.10786 10.9731H10.4053C11.057 10.9711 11.6814 10.7113 12.1422 10.2505C12.6031 9.78969 12.8628 9.16526 12.8648 8.51356C12.8102 7.8796 12.5335 7.28529 12.0835 6.83535C11.6336 6.38541 11.0393 6.10872 10.4053 6.05403C10.1468 6.0598 9.8911 6.10839 9.64853 6.19782C9.50766 6.25424 9.35047 6.25424 9.2096 6.19782C9.14282 6.16416 9.08356 6.11729 9.03543 6.06006C8.9873 6.00282 8.95129 5.93641 8.92959 5.86484C8.68552 5.04191 8.18104 4.3204 7.49191 3.80866C6.80277 3.29693 5.9662 3.02262 5.10786 3.02692Z" fill="#212121"/>
</g>
<defs>
<clipPath id="clip0_407_20722">
<rect width="14" height="14" fill="white"/>
</clipPath>
</defs>
</svg>
