<svg width="14" height="14" viewBox="0 0 14 14" fill="none" xmlns="http://www.w3.org/2000/svg">
<g clip-path="url(#clip0_407_20702)">
<path fill-rule="evenodd" clip-rule="evenodd" d="M11.1323 11.7666C10.9822 11.7666 10.8382 11.707 10.7321 11.6008C10.6259 11.4947 10.5663 11.3507 10.5663 11.2006C10.5663 11.0505 10.6259 10.9065 10.7321 10.8004C10.8382 10.6942 10.9822 10.6346 11.1323 10.6346C12.385 10.6346 12.8303 10.0082 12.8303 8.23476C12.7757 7.60257 12.4998 7.00992 12.0511 6.56123C11.6025 6.11255 11.0098 5.83663 10.3776 5.7821C10.1206 5.78863 9.86611 5.83444 9.62296 5.91794C9.54954 5.94865 9.47041 5.96331 9.39087 5.96094C9.31133 5.95857 9.23321 5.93923 9.16175 5.90422C9.09029 5.8692 9.02714 5.81932 8.97653 5.75791C8.92592 5.6965 8.88901 5.62499 8.86829 5.54816C8.58108 4.65075 7.98343 3.88508 7.18262 3.38857C6.38181 2.89205 5.43025 2.69719 4.49873 2.83897C3.56721 2.98074 2.71671 3.44986 2.09987 4.16214C1.48303 4.87441 1.14023 5.78321 1.133 6.72543C1.133 9.15545 1.24619 10.6346 2.83099 10.6346C2.9811 10.6346 3.12506 10.6942 3.23121 10.8004C3.33735 10.9065 3.39698 11.0505 3.39698 11.2006C3.39698 11.3507 3.33735 11.4947 3.23121 11.6008C3.12506 11.707 2.9811 11.7666 2.83099 11.7666C0.00100075 11.7666 0.00100073 8.85358 0.00100073 6.72543C-0.0225727 5.5359 0.370975 4.37564 1.11338 3.44591C1.85578 2.51619 2.9002 1.87566 4.06546 1.63544C5.23073 1.39522 6.44332 1.57045 7.49289 2.13075C8.54247 2.69105 9.36281 3.60106 9.81162 4.70293C10.0108 4.66696 10.2129 4.64928 10.4154 4.65011C11.3474 4.70729 12.2263 5.10332 12.8865 5.76358C13.5468 6.42384 13.9428 7.30276 14 8.23476L13.9964 8.33089C13.9594 9.36016 13.8729 11.7666 11.1323 11.7666ZM6.97962 12.4684C6.90594 12.4685 6.83297 12.454 6.76491 12.4258C6.71657 12.4057 6.67139 12.379 6.63065 12.3464C6.61349 12.3329 6.59705 12.3183 6.58143 12.3026C6.57668 12.2979 6.57202 12.2931 6.56746 12.2882L4.44598 10.1667C4.346 10.0594 4.29157 9.91749 4.29416 9.77086C4.29674 9.62422 4.35614 9.48432 4.45984 9.38062C4.56355 9.27692 4.70345 9.21752 4.85008 9.21493C4.99671 9.21234 5.13862 9.26677 5.24592 9.36675L6.41565 10.5365V7.10277C6.41565 6.95266 6.47528 6.8087 6.58143 6.70255C6.68757 6.59641 6.83153 6.53677 6.98165 6.53677C7.13176 6.53677 7.27572 6.59641 7.38187 6.70255C7.48801 6.8087 7.54764 6.95266 7.54764 7.10277V10.5365L8.71737 9.36675C8.82466 9.26677 8.96657 9.21234 9.11321 9.21493C9.25984 9.21752 9.39974 9.27692 9.50344 9.38062C9.60714 9.48432 9.66654 9.62422 9.66913 9.77086C9.67172 9.91749 9.61729 10.0594 9.51731 10.1667L7.38161 12.3326C7.27126 12.4284 7.12771 12.4772 6.9818 12.4684C6.98175 12.4684 6.9817 12.4684 6.98165 12.4684C6.98097 12.4684 6.98029 12.4684 6.97962 12.4684Z" fill="#212121"/>
</g>
<defs>
<clipPath id="clip0_407_20702">
<rect width="14" height="14" fill="white"/>
</clipPath>
</defs>
</svg>
