<svg width="14" height="14" viewBox="0 0 14 14" fill="none" xmlns="http://www.w3.org/2000/svg">
<g clip-path="url(#clip0_407_20713)">
<path fill-rule="evenodd" clip-rule="evenodd" d="M11.1323 11.7671C10.9822 11.7671 10.8382 11.7075 10.7321 11.6013C10.6259 11.4952 10.5663 11.3512 10.5663 11.2011C10.5663 11.051 10.6259 10.907 10.7321 10.8009C10.8382 10.6947 10.9822 10.6351 11.1323 10.6351C12.385 10.6351 12.8303 10.0087 12.8303 8.23528C12.7757 7.60309 12.4998 7.01044 12.0511 6.56175C11.6025 6.11307 11.0098 5.83715 10.3776 5.78262C10.1206 5.78915 9.86611 5.83496 9.62296 5.91846C9.54954 5.94917 9.47041 5.96383 9.39087 5.96146C9.31133 5.95909 9.23321 5.93975 9.16175 5.90474C9.09029 5.86972 9.02714 5.81984 8.97653 5.75843C8.92592 5.69702 8.88901 5.62551 8.86829 5.54868C8.58108 4.65127 7.98343 3.8856 7.18262 3.38908C6.38181 2.89257 5.43025 2.69771 4.49873 2.83948C3.56721 2.98126 2.71671 3.45038 2.09987 4.16265C1.48303 4.87493 1.14023 5.78373 1.133 6.72595C1.133 9.32199 1.70654 10.6351 2.83099 10.6351C2.9811 10.6351 3.12506 10.6947 3.23121 10.8009C3.33735 10.907 3.39698 11.051 3.39698 11.2011C3.39698 11.3512 3.33735 11.4952 3.23121 11.6013C3.12506 11.7075 2.9811 11.7671 2.83099 11.7671C0.94433 11.7671 0.00100073 10.0691 0.00100073 6.72595C-0.0225727 5.53642 0.370975 4.37615 1.11338 3.44643C1.85578 2.51671 2.9002 1.87618 4.06546 1.63596C5.23073 1.39573 6.44332 1.57097 7.49289 2.13127C8.54247 2.69157 9.36281 3.60158 9.81162 4.70345C10.0108 4.66748 10.2129 4.64979 10.4154 4.65063C11.3474 4.70781 12.2263 5.10383 12.8865 5.7641C13.5468 6.42436 13.9428 7.30328 14 8.23528L13.9964 8.33141C13.9594 9.36068 13.8729 11.7671 11.1323 11.7671ZM9.11734 9.80499C8.9676 9.80325 8.82432 9.74378 8.71737 9.63897L7.54764 8.46924V11.9029C7.54764 12.0531 7.48801 12.197 7.38187 12.3032C7.27572 12.4093 7.13176 12.4689 6.98165 12.4689C6.83153 12.4689 6.68757 12.4093 6.58143 12.3032C6.47528 12.197 6.41565 12.0531 6.41565 11.9029V8.46923L5.24592 9.63897C5.13862 9.73894 4.99671 9.79337 4.85008 9.79079C4.70345 9.7882 4.56355 9.7288 4.45984 9.6251C4.35614 9.5214 4.29674 9.38149 4.29416 9.23486C4.29157 9.08823 4.346 8.94632 4.44598 8.83902L6.5675 6.7175C6.57205 6.71262 6.57669 6.70781 6.58143 6.70307C6.58809 6.69641 6.5949 6.68993 6.60185 6.68364C6.6495 6.63943 6.70457 6.60383 6.76459 6.57851C6.83329 6.54954 6.90709 6.53461 6.98164 6.53461C7.0562 6.53461 7.13 6.54954 7.19869 6.57851C7.2586 6.60378 7.31356 6.63929 7.36115 6.68337C7.3682 6.68975 7.37511 6.69631 7.38187 6.70307C7.38664 6.70784 7.39131 6.71269 7.39589 6.71761L9.51731 8.83902C9.6233 8.94515 9.68284 9.089 9.68284 9.23899C9.68284 9.38898 9.6233 9.53284 9.51731 9.63897C9.40951 9.74249 9.26676 9.80174 9.11734 9.80499Z" fill="#212121"/>
</g>
<defs>
<clipPath id="clip0_407_20713">
<rect width="14" height="14" fill="white"/>
</clipPath>
</defs>
</svg>
