<svg width="14" height="14" viewBox="0 0 14 14" fill="none" xmlns="http://www.w3.org/2000/svg">
<g clip-path="url(#clip0_407_20730)">
<path fill-rule="evenodd" clip-rule="evenodd" d="M4.59982 2.40018C4.75883 2.40018 4.91134 2.46329 5.02385 2.57566C5.13622 2.68817 5.19934 2.84068 5.19934 2.99969C5.19934 3.15871 5.13622 3.31122 5.02385 3.42373L1.44758 7L5.02385 10.5763C5.13622 10.6888 5.19934 10.8413 5.19934 11.0003C5.19934 11.1593 5.13622 11.3118 5.02385 11.4243C4.91134 11.5367 4.75883 11.5998 4.59982 11.5998C4.44081 11.5998 4.2883 11.5367 4.17579 11.4243L0.175485 7.42403C0.0631165 7.31152 0 7.15901 0 7C0 6.84098 0.0631165 6.68847 0.175485 6.57596L4.17579 2.57566C4.2883 2.46329 4.44081 2.40018 4.59982 2.40018ZM9.82421 2.57566L13.8245 6.57596C13.9369 6.68847 14 6.84098 14 6.99999C14 7.159 13.9369 7.31151 13.8245 7.42402L9.82421 11.4243C9.7117 11.5367 9.55919 11.5998 9.40018 11.5998C9.24116 11.5998 9.08865 11.5367 8.97614 11.4243C8.86378 11.3118 8.80066 11.1593 8.80066 11.0003C8.80066 10.8413 8.86378 10.6888 8.97614 10.5763L12.5524 6.99999L8.97614 3.42372C8.87015 3.30997 8.81245 3.15952 8.81519 3.00407C8.81793 2.84862 8.88091 2.7003 8.99085 2.59036C9.10079 2.48042 9.24911 2.41745 9.40456 2.41471C9.56001 2.41196 9.71046 2.46967 9.82421 2.57566Z" fill="#212121"/>
</g>
<defs>
<clipPath id="clip0_407_20730">
<rect width="14" height="14" fill="white"/>
</clipPath>
</defs>
</svg>
