<svg width="14" height="14" viewBox="0 0 14 14" fill="none" xmlns="http://www.w3.org/2000/svg">
<g clip-path="url(#clip0_321_12054)">
<path fill-rule="evenodd" clip-rule="evenodd" d="M6.36274 13.861C6.57846 13.9517 6.80999 13.999 7.04403 14C7.51203 13.9856 7.95641 13.7912 8.2845 13.4573C8.61259 13.1235 8.79906 12.6759 8.80503 12.208C8.80573 12.13 8.82677 12.0536 8.86608 11.9863C8.90538 11.9189 8.9616 11.863 9.02916 11.824C9.0998 11.7981 9.17632 11.7926 9.24995 11.8081C9.32357 11.8237 9.39131 11.8597 9.4454 11.912C9.61042 12.077 9.80633 12.2078 10.022 12.2971C10.2376 12.3864 10.4687 12.4324 10.7021 12.4324C10.9355 12.4324 11.1666 12.3864 11.3823 12.2971C11.5979 12.2078 11.7938 12.077 11.9588 11.912C12.1226 11.7453 12.2516 11.5477 12.3382 11.3307C12.4247 11.1137 12.4672 10.8816 12.4631 10.648C12.4594 10.1801 12.2726 9.73215 11.9428 9.4C11.8905 9.34595 11.8545 9.27824 11.8389 9.20466C11.8233 9.13108 11.8288 9.0546 11.8548 8.984C11.8885 8.91897 11.9389 8.86401 12.0007 8.82468C12.0626 8.78535 12.1337 8.76303 12.207 8.76C12.4403 8.76211 12.6718 8.71826 12.8882 8.63095C13.1046 8.54364 13.3017 8.41459 13.4682 8.25116C13.6347 8.08772 13.7674 7.89311 13.8586 7.67844C13.9499 7.46377 13.9979 7.23323 14 7C13.9856 6.53226 13.7911 6.08813 13.457 5.76023C13.123 5.43233 12.6752 5.24596 12.207 5.24C12.1274 5.23385 12.0505 5.20795 11.9834 5.16465C11.9163 5.12134 11.8611 5.06201 11.8228 4.992C11.799 4.9172 11.7946 4.83761 11.81 4.76066C11.8254 4.68371 11.8601 4.61192 11.9108 4.552C12.0759 4.38708 12.2068 4.19127 12.2961 3.97576C12.3855 3.76026 12.4315 3.52927 12.4315 3.296C12.4315 3.06273 12.3855 2.83174 12.2961 2.61624C12.2068 2.40073 12.0759 2.20492 11.9108 2.04C11.7459 1.87366 11.5486 1.74306 11.331 1.65635C11.1134 1.56964 10.8802 1.52867 10.6461 1.536C10.1779 1.53974 9.72971 1.72637 9.39737 2.056C9.34328 2.10829 9.27554 2.14429 9.20192 2.15985C9.1283 2.17542 9.05177 2.16992 8.98113 2.144C8.91607 2.11025 8.86108 2.05992 8.82172 1.99811C8.78236 1.9363 8.76004 1.8652 8.757 1.792C8.75912 1.55877 8.71524 1.32741 8.62788 1.11113C8.54053 0.894843 8.4114 0.697876 8.24787 0.531471C8.08434 0.365067 7.88962 0.232484 7.67482 0.141294C7.46003 0.0501035 7.22936 0.00209171 6.996 0C6.52387 0.0145577 6.07596 0.212293 5.74723 0.551295C5.41849 0.890296 5.23477 1.34391 5.23499 1.816C5.22884 1.89558 5.20292 1.97237 5.1596 2.03942C5.11627 2.10647 5.05689 2.16166 4.98685 2.2C4.91001 2.22059 4.82917 2.22111 4.75208 2.20149C4.67499 2.18188 4.60423 2.1428 4.5466 2.088C4.38158 1.92303 4.18566 1.79217 3.97003 1.70288C3.7544 1.6136 3.52328 1.56764 3.28988 1.56764C3.05648 1.56764 2.82536 1.6136 2.60973 1.70288C2.3941 1.79217 2.19818 1.92303 2.03316 2.088C1.86937 2.25469 1.74042 2.45231 1.65384 2.66932C1.56726 2.88633 1.52478 3.11841 1.52887 3.352C1.53261 3.81994 1.71935 4.26785 2.04917 4.6C2.1042 4.65916 2.14043 4.73331 2.15325 4.81307C2.16608 4.89282 2.15493 4.97459 2.12121 5.048C2.09268 5.11436 2.04599 5.17132 1.98653 5.21236C1.92706 5.2534 1.85722 5.27684 1.78502 5.28C1.55166 5.27895 1.32037 5.32384 1.10437 5.41212C0.888373 5.5004 0.691885 5.63034 0.526131 5.79452C0.360376 5.95869 0.228599 6.15389 0.138326 6.36896C0.0480519 6.58403 0.00104881 6.81477 0 7.048C0.0145198 7.51848 0.211256 7.96495 0.548734 8.29328C0.886212 8.62161 1.33806 8.80615 1.80903 8.808C1.88704 8.80869 1.96352 8.82972 2.03091 8.86901C2.09829 8.90829 2.15425 8.96448 2.19325 9.032C2.21624 9.1048 2.2179 9.18265 2.19805 9.25637C2.17819 9.33008 2.13764 9.39658 2.08119 9.448C1.91612 9.61292 1.78519 9.80873 1.69585 10.0242C1.60652 10.2397 1.56054 10.4707 1.56054 10.704C1.56054 10.9373 1.60652 11.1683 1.69585 11.3838C1.78519 11.5993 1.91612 11.7951 2.08119 11.96C2.42101 12.2862 2.87475 12.467 3.34591 12.464C3.81412 12.4603 4.26229 12.2736 4.59463 11.944C4.65382 11.889 4.72802 11.8528 4.80782 11.84C4.88761 11.8272 4.96943 11.8383 5.04288 11.872C5.10928 11.9005 5.16627 11.9472 5.20733 12.0066C5.2484 12.066 5.27185 12.1358 5.27501 12.208C5.2729 12.4419 5.31704 12.6739 5.4049 12.8907C5.49276 13.1075 5.6226 13.3048 5.78698 13.4713C5.95135 13.6379 6.14701 13.7703 6.36274 13.861ZM5.49114 10.76C5.2974 10.6732 5.08709 10.6295 4.87479 10.632C4.45415 10.6346 4.05039 10.7977 3.74614 11.088C3.69358 11.1405 3.63119 11.1822 3.56251 11.2106C3.49384 11.2391 3.42024 11.2537 3.34591 11.2537C3.27158 11.2537 3.19798 11.2391 3.12931 11.2106C3.06064 11.1822 2.99824 11.1405 2.94568 11.088C2.89312 11.0355 2.85143 10.9731 2.82299 10.9045C2.79454 10.8358 2.7799 10.7623 2.7799 10.688C2.7799 10.6137 2.79454 10.5402 2.82299 10.4715C2.85143 10.4029 2.89312 10.3405 2.94568 10.288C3.16917 10.0639 3.32115 9.77859 3.38241 9.46817C3.44368 9.15774 3.41148 8.83614 3.28988 8.544C3.15713 8.26318 2.94769 8.02556 2.68569 7.85854C2.42368 7.69152 2.11979 7.6019 1.80903 7.6C1.6543 7.60252 1.50443 7.546 1.38992 7.44196C1.27541 7.33793 1.20488 7.19418 1.19268 7.04C1.19893 6.8858 1.26518 6.74012 1.37732 6.63403C1.48946 6.52793 1.63862 6.46979 1.79302 6.472C2.10269 6.46487 2.40364 6.36811 2.65938 6.19346C2.91512 6.0188 3.11468 5.77374 3.23385 5.488C3.35745 5.19738 3.39224 4.8767 3.33384 4.56636C3.27544 4.25602 3.12646 3.96988 2.90566 3.744C2.8531 3.69147 2.81141 3.62911 2.78297 3.56048C2.75452 3.49185 2.73988 3.41829 2.73988 3.344C2.73988 3.26971 2.75452 3.19615 2.78297 3.12752C2.81141 3.05889 2.8531 2.99653 2.90566 2.944C2.95822 2.89147 3.02062 2.8498 3.08929 2.82137C3.15796 2.79295 3.23156 2.77831 3.30589 2.77831C3.38022 2.77831 3.45382 2.79295 3.52249 2.82137C3.59116 2.8498 3.65356 2.89147 3.70612 2.944C3.93454 3.16602 4.22269 3.31678 4.53541 3.37787C4.84812 3.43895 5.17187 3.40773 5.46712 3.288C5.75178 3.15684 5.99407 2.94875 6.16664 2.68722C6.3392 2.42569 6.43516 2.12116 6.44368 1.808C6.4392 1.65282 6.49507 1.50195 6.59956 1.38708C6.70404 1.27221 6.84901 1.20228 7.004 1.192C7.15617 1.19824 7.29989 1.26361 7.40455 1.37418C7.50921 1.48476 7.56654 1.63181 7.56432 1.784C7.57437 2.0908 7.67251 2.38824 7.84704 2.64084C8.02158 2.89343 8.26513 3.09051 8.54864 3.20858C8.83216 3.32664 9.14368 3.3607 9.44603 3.3067C9.74838 3.25269 10.0288 3.1129 10.2539 2.904C10.3064 2.85147 10.3688 2.8098 10.4375 2.78137C10.5062 2.75295 10.5798 2.73831 10.6541 2.73831C10.7284 2.73831 10.802 2.75295 10.8707 2.78137C10.9394 2.8098 11.0018 2.85147 11.0543 2.904C11.1069 2.95653 11.1486 3.01889 11.177 3.08752C11.2055 3.15615 11.2201 3.22971 11.2201 3.304C11.2201 3.37829 11.2055 3.45185 11.177 3.52048C11.1486 3.58911 11.1069 3.65147 11.0543 3.704C10.8322 3.93229 10.6813 4.22028 10.6202 4.53282C10.5591 4.84535 10.5903 5.16891 10.7101 5.464C10.8414 5.74849 11.0496 5.99065 11.3112 6.16311C11.5729 6.33558 11.8776 6.43148 12.191 6.44C12.3462 6.43552 12.4972 6.49136 12.6121 6.59579C12.7271 6.70021 12.797 6.8451 12.8073 7C12.8011 7.15208 12.7357 7.29572 12.625 7.40032C12.5144 7.50492 12.3673 7.56221 12.215 7.56C11.907 7.56064 11.6058 7.65004 11.3474 7.81748C11.089 7.98491 10.8844 8.22328 10.7581 8.504C10.6356 8.79538 10.6021 9.11652 10.6619 9.4269C10.7217 9.73729 10.8722 10.023 11.0943 10.248C11.2005 10.3541 11.2601 10.498 11.2601 10.648C11.2601 10.798 11.2005 10.9419 11.0943 11.048C10.9882 11.1541 10.8442 11.2137 10.6941 11.2137C10.544 11.2137 10.4 11.1541 10.2939 11.048C10.0696 10.8246 9.78418 10.6728 9.47358 10.6115C9.16298 10.5503 8.84119 10.5825 8.54888 10.704C8.2679 10.8367 8.03015 11.046 7.86304 11.3078C7.69592 11.5697 7.60625 11.8734 7.60435 12.184C7.60686 12.3386 7.55032 12.4884 7.44622 12.6029C7.34212 12.7173 7.1983 12.7878 7.04403 12.8C6.88973 12.7938 6.74398 12.7275 6.63782 12.6155C6.53166 12.5034 6.47349 12.3543 6.4757 12.2C6.46857 11.8905 6.37175 11.5897 6.197 11.3341C6.02224 11.0785 5.77704 10.8791 5.49114 10.76ZM5.69298 8.94897C6.07866 9.20653 6.53211 9.34401 6.99598 9.34401C7.618 9.34401 8.21455 9.09705 8.65438 8.65747C9.09422 8.21788 9.34132 7.62167 9.34132 7.00001C9.34132 6.53641 9.20376 6.08322 8.94606 5.69775C8.68835 5.31228 8.32205 5.01185 7.8935 4.83443C7.46494 4.65702 6.99337 4.6106 6.53842 4.70105C6.08347 4.79149 5.66557 5.01473 5.33757 5.34255C5.00957 5.67036 4.7862 6.08802 4.6957 6.54272C4.60521 6.99741 4.65165 7.46871 4.82916 7.89702C5.00668 8.32533 5.30729 8.69141 5.69298 8.94897ZM6.36004 6.04881C6.54828 5.9231 6.76958 5.85601 6.99598 5.85601C7.29956 5.85601 7.5907 5.97654 7.80537 6.19108C8.02003 6.40562 8.14063 6.6966 8.14063 7.00001C8.14063 7.22627 8.0735 7.44745 7.94772 7.63558C7.82195 7.82371 7.64317 7.97034 7.43402 8.05693C7.22486 8.14351 6.99471 8.16617 6.77267 8.12203C6.55062 8.07788 6.34667 7.96893 6.18658 7.80894C6.0265 7.64895 5.91748 7.4451 5.87332 7.22319C5.82915 7.00128 5.85182 6.77126 5.93845 6.56222C6.02509 6.35318 6.1718 6.17451 6.36004 6.04881Z" fill="#212121"/>
</g>
<defs>
<clipPath id="clip0_321_12054">
<rect width="14" height="14" fill="white"/>
</clipPath>
</defs>
</svg>
