<svg width="14" height="14" viewBox="0 0 14 14" fill="none" xmlns="http://www.w3.org/2000/svg">
<g clip-path="url(#clip0_407_20738)">
<path d="M1.08298 13.4999C0.99047 13.5015 0.898946 13.4807 0.816234 13.4393C0.733521 13.3978 0.66208 13.337 0.608016 13.262C0.553952 13.187 0.518873 13.1 0.505777 13.0085C0.492681 12.917 0.501957 12.8237 0.532814 12.7366L1.75541 8.72889C1.48932 8.03983 1.35455 7.30713 1.35807 6.56857C1.35685 5.75613 1.51791 4.95162 1.83183 4.20214C2.13975 3.48494 2.58048 2.83228 3.13084 2.27847C3.68393 1.72356 4.34079 1.28263 5.06407 0.980748C5.81209 0.6635 6.6164 0.5 7.42904 0.5C8.24167 0.5 9.04599 0.6635 9.794 0.980748C10.8899 1.44968 11.8245 2.22849 12.483 3.2213C13.1415 4.21412 13.495 5.37762 13.5 6.56857C13.4952 8.17704 12.8554 9.71868 11.7196 10.8587C11.1652 11.4085 10.5119 11.8488 9.794 12.1564C8.34916 12.7609 6.72717 12.7882 5.26275 12.2327L1.25109 13.4541C1.19743 13.477 1.14086 13.4924 1.08298 13.4999ZM7.42522 1.66778C6.45741 1.67196 5.51198 1.95895 4.70546 2.49339C3.89894 3.02782 3.26657 3.78633 2.88632 4.67543C2.38111 5.89765 2.38111 7.27003 2.88632 8.49225C2.93184 8.61804 2.93184 8.75578 2.88632 8.88156L1.94644 12.0648L5.11756 11.103C5.24347 11.0575 5.38135 11.0575 5.50727 11.103C6.11278 11.3541 6.76195 11.4834 7.41758 11.4834C8.0732 11.4834 8.72238 11.3541 9.32789 11.103C9.9245 10.852 10.4657 10.486 10.9205 10.0258C11.3752 9.56556 11.7347 9.02024 11.9781 8.42103C12.2216 7.82183 12.3443 7.18053 12.3393 6.53387C12.3343 5.8872 12.2016 5.24788 11.9488 4.65253C11.5694 3.76775 10.9387 3.01348 10.1347 2.483C9.33073 1.95252 8.38873 1.66909 7.42522 1.66778Z" fill="#212121"/>
</g>
<defs>
<clipPath id="clip0_407_20738">
<rect width="14" height="14" fill="white"/>
</clipPath>
</defs>
</svg>
