<svg width="14" height="14" viewBox="0 0 14 14" fill="none" xmlns="http://www.w3.org/2000/svg">
<g clip-path="url(#clip0_407_20746)">
<path fill-rule="evenodd" clip-rule="evenodd" d="M0.339694 11.2997C0.428545 11.3444 0.526861 11.3669 0.62624 11.3652C0.687265 11.3651 0.748003 11.3568 0.806822 11.3404L3.30605 10.5609C3.87193 11.5956 4.76933 12.4154 5.86008 12.8818C7.10953 13.4161 8.51621 13.4455 9.78672 12.9639L13.1686 13.994C13.2285 14.002 13.2892 14.002 13.3491 13.994H13.3738C13.4731 13.9957 13.5715 13.9732 13.6603 13.9285C13.7492 13.8838 13.8259 13.8181 13.884 13.7371C13.942 13.6562 13.9797 13.5623 13.9938 13.4635C14.0079 13.3647 13.9979 13.264 13.9648 13.1699L12.9387 9.77468C13.1542 9.18036 13.2653 8.55299 13.267 7.92051C13.2693 7.20693 13.1269 6.50036 12.8484 5.84383C12.583 5.21013 12.1984 4.63375 11.7157 4.14623C11.5133 3.95157 11.2965 3.77283 11.0671 3.61152C11.0253 3.48609 10.9788 3.36207 10.9277 3.23974C10.6593 2.60768 10.275 2.03183 9.79493 1.54214C9.17623 0.928184 8.41698 0.475949 7.58373 0.225067C6.75047 -0.0258143 5.86864 -0.0676843 5.01552 0.103127C4.16239 0.273938 3.36402 0.652217 2.69037 1.20481C2.01672 1.7574 1.48835 2.46744 1.15157 3.2727C0.873757 3.92655 0.731328 4.6303 0.732948 5.34114C0.740447 5.95698 0.851451 6.56713 1.06128 7.14587L0.0352406 10.5411C0.00209457 10.6352 -0.00787025 10.7359 0.00619766 10.8347C0.0202656 10.9334 0.0579479 11.0273 0.116024 11.1083C0.1741 11.1893 0.250843 11.255 0.339694 11.2997ZM11.3169 5.80514C11.2662 6.33926 11.1352 6.86361 10.9277 7.36013C10.6593 7.9922 10.275 8.56804 9.79493 9.05774C9.07516 9.77908 8.1645 10.2781 7.17086 10.4958C6.35271 10.6749 5.50655 10.6571 4.70085 10.4472C4.80337 10.5867 4.91463 10.7199 5.03411 10.846C5.60964 11.4175 6.34065 11.8053 7.13518 11.9607C7.92972 12.1162 8.75229 12.0322 9.49943 11.7195C9.63469 11.6704 9.7828 11.6704 9.91805 11.7195L12.3806 12.4777L11.6254 10.0054C11.5765 9.86963 11.5765 9.72094 11.6254 9.58515C11.8382 9.0822 11.9471 8.54112 11.9455 7.99467C11.9475 7.45748 11.8433 6.92524 11.639 6.42874C11.5495 6.2114 11.4417 6.00281 11.3169 5.80514ZM4.45132 1.54214C4.95228 1.3285 5.49123 1.21916 6.03552 1.22075C6.6946 1.23748 7.33996 1.41337 7.91699 1.73353C8.49402 2.05369 8.98573 2.5087 9.35051 3.06005C9.71529 3.6114 9.9424 4.24287 10.0126 4.901C10.0828 5.55913 9.99408 6.22456 9.75389 6.84096C9.32702 7.83612 8.5269 8.62243 7.52676 9.02962C6.52662 9.43681 5.40698 9.43211 4.41027 9.01653C4.27502 8.96744 4.12691 8.96744 3.99165 9.01653L1.52915 9.77468L2.28432 7.30245C2.33322 7.16666 2.33322 7.01796 2.28432 6.88217C2.07324 6.37725 1.96452 5.83516 1.96452 5.28758C1.96452 4.73999 2.07324 4.1979 2.28432 3.69298C2.70495 2.72341 3.48082 1.95333 4.45132 1.54214Z" fill="#212121"/>
</g>
<defs>
<clipPath id="clip0_407_20746">
<rect width="14" height="14" fill="white"/>
</clipPath>
</defs>
</svg>
