<svg width="14" height="14" viewBox="0 0 14 14" fill="none" xmlns="http://www.w3.org/2000/svg">
<g clip-path="url(#clip0_407_20755)">
<path fill-rule="evenodd" clip-rule="evenodd" d="M3.11101 12.8203C4.26215 13.5895 5.61553 14 7 14C8.85652 14 10.637 13.2625 11.9497 11.9497C13.2625 10.637 14 8.85652 14 7C14 5.61553 13.5895 4.26215 12.8203 3.11101C12.0511 1.95987 10.9579 1.06266 9.67879 0.532846C8.3997 0.00303296 6.99224 -0.13559 5.63437 0.134506C4.2765 0.404603 3.02922 1.07129 2.05026 2.05026C1.07129 3.02922 0.404603 4.2765 0.134506 5.63437C-0.13559 6.99224 0.00303296 8.3997 0.532846 9.67879C1.06266 10.9579 1.95987 12.0511 3.11101 12.8203ZM3.75918 2.14976C4.71846 1.50879 5.84628 1.16667 7 1.16667C8.5471 1.16667 10.0308 1.78125 11.1248 2.87521C12.2188 3.96918 12.8333 5.45291 12.8333 7C12.8333 8.15373 12.4912 9.28154 11.8502 10.2408C11.2093 11.2001 10.2982 11.9478 9.23232 12.3893C8.16642 12.8308 6.99353 12.9463 5.86198 12.7212C4.73042 12.4962 3.69102 11.9406 2.87521 11.1248C2.05941 10.309 1.50384 9.26958 1.27876 8.13803C1.05367 7.00647 1.16919 5.83358 1.61071 4.76768C2.05222 3.70178 2.79989 2.79074 3.75918 2.14976ZM6.26885 5.14887L10.0644 3.59332C10.1271 3.57009 10.1961 3.57009 10.2589 3.59332C10.3237 3.61929 10.3756 3.66985 10.4033 3.73396C10.431 3.79808 10.4322 3.87054 10.4066 3.93554L8.85107 7.73109C8.74821 7.99154 8.59296 8.22809 8.39496 8.42609C8.19695 8.6241 7.9604 8.77934 7.69996 8.88221L3.90441 10.4378C3.84167 10.461 3.7727 10.461 3.70996 10.4378C3.64513 10.4118 3.59321 10.3612 3.56552 10.2971C3.53784 10.233 3.53664 10.1605 3.56218 10.0955L5.11774 6.29998C5.2206 6.03954 5.37585 5.80299 5.57385 5.60499C5.77186 5.40698 6.00841 5.25174 6.26885 5.14887ZM6.56785 7.64668C6.69576 7.73215 6.84613 7.77776 6.99996 7.77776C7.20624 7.77776 7.40407 7.69582 7.54993 7.54996C7.69579 7.40409 7.77774 7.20626 7.77774 6.99998C7.77774 6.84615 7.73212 6.69578 7.64666 6.56787C7.5612 6.43997 7.43972 6.34028 7.2976 6.28141C7.15548 6.22254 6.9991 6.20714 6.84822 6.23715C6.69735 6.26716 6.55876 6.34124 6.44999 6.45001C6.34122 6.55879 6.26714 6.69737 6.23713 6.84825C6.20712 6.99912 6.22252 7.15551 6.28139 7.29763C6.34026 7.43975 6.43995 7.56122 6.56785 7.64668Z" fill="#212121"/>
</g>
<defs>
<clipPath id="clip0_407_20755">
<rect width="14" height="14" fill="white"/>
</clipPath>
</defs>
</svg>
