<svg width="14" height="14" viewBox="0 0 14 14" fill="none" xmlns="http://www.w3.org/2000/svg">
<path d="M12.4062 4.12821L8.43591 0.157949C8.33503 0.0569387 8.19816 0.000125678 8.0554 0H6.28207C5.75843 0 5.25625 0.208012 4.88598 0.578276C4.51572 0.948541 4.30771 1.45073 4.30771 1.97436V2.87179H3.41027C2.88664 2.87179 2.38445 3.07981 2.01419 3.45007C1.64393 3.82034 1.43591 4.32252 1.43591 4.84615V12.0256C1.43591 12.5493 1.64393 13.0515 2.01419 13.4217C2.38445 13.792 2.88664 14 3.41027 14H8.43591C8.95955 14 9.46173 13.792 9.832 13.4217C10.2023 13.0515 10.4103 12.5493 10.4103 12.0256V11.1282H10.5898C11.1134 11.1282 11.6156 10.9202 11.9858 10.5499C12.3561 10.1797 12.5641 9.67748 12.5641 9.15385V4.48718C12.5585 4.35192 12.5021 4.22375 12.4062 4.12821ZM8.6154 1.83795L10.7262 3.94872H8.6154V1.83795ZM9.33335 12.0256C9.33335 12.2637 9.2388 12.4919 9.0705 12.6602C8.90219 12.8285 8.67393 12.9231 8.43591 12.9231H3.41027C3.17226 12.9231 2.94399 12.8285 2.77569 12.6602C2.60739 12.4919 2.51284 12.2637 2.51284 12.0256V4.84615C2.51284 4.60814 2.60739 4.37987 2.77569 4.21157C2.94399 4.04327 3.17226 3.94872 3.41027 3.94872H4.30771V9.15385C4.30771 9.67748 4.51572 10.1797 4.88598 10.5499C5.25625 10.9202 5.75843 11.1282 6.28207 11.1282H9.33335V12.0256ZM10.5898 10.0513H6.28207C6.04405 10.0513 5.81579 9.95673 5.64748 9.78843C5.47918 9.62013 5.38463 9.39186 5.38463 9.15385V1.97436C5.38463 1.73634 5.47918 1.50808 5.64748 1.33978C5.81579 1.17147 6.04405 1.07692 6.28207 1.07692H7.53848V4.48718C7.54034 4.62941 7.59766 4.76529 7.69825 4.86587C7.79883 4.96645 7.93471 5.02378 8.07694 5.02564H11.4872V9.15385C11.4872 9.39186 11.3926 9.62013 11.2243 9.78843C11.056 9.95673 10.8278 10.0513 10.5898 10.0513Z" fill="#212121"/>
</svg>
