<svg width="14" height="14" viewBox="0 0 14 14" fill="none" xmlns="http://www.w3.org/2000/svg">
<path fill-rule="evenodd" clip-rule="evenodd" d="M1.4 1.60001H12.6C12.9707 1.60211 13.3255 1.75028 13.5876 2.01238C13.8497 2.27447 13.9979 2.62935 14 3.00001V11C13.9979 11.3707 13.8497 11.7255 13.5876 11.9876C13.3255 12.2497 12.9707 12.3979 12.6 12.4H1.4C1.02934 12.3979 0.674468 12.2497 0.412371 11.9876C0.150274 11.7255 0.00210008 11.3707 0 11V3.00001C0.00210008 2.62935 0.150274 2.27447 0.412371 2.01238C0.674468 1.75028 1.02934 1.60211 1.4 1.60001ZM12.6 2.80001H1.4C1.34696 2.80001 1.29609 2.82108 1.25858 2.85858C1.22107 2.89609 1.2 2.94696 1.2 3.00001V4.80001H12.8V3.00001C12.8 2.94696 12.7789 2.89609 12.7414 2.85858C12.7039 2.82108 12.653 2.80001 12.6 2.80001ZM1.4 11.2H12.6C12.653 11.2 12.7039 11.1789 12.7414 11.1414C12.7789 11.1039 12.8 11.053 12.8 11V6.00001H1.2V11C1.2 11.053 1.22107 11.1039 1.25858 11.1414C1.29609 11.1789 1.34696 11.2 1.4 11.2ZM3.00001 7.80002H4.60001C4.81219 7.80002 5.01567 7.8843 5.1657 8.03433C5.31573 8.18436 5.40001 8.38785 5.40001 8.60002C5.40001 8.81219 5.31573 9.01567 5.1657 9.1657C5.01567 9.31573 4.81219 9.40002 4.60001 9.40002H3.00001C2.78784 9.40002 2.58436 9.31573 2.43433 9.1657C2.2843 9.01567 2.20001 8.81219 2.20001 8.60002C2.20001 8.38785 2.2843 8.18436 2.43433 8.03433C2.58436 7.8843 2.78784 7.80002 3.00001 7.80002Z" fill="#212121"/>
</svg>
