<svg width="14" height="14" viewBox="0 0 14 14" fill="none" xmlns="http://www.w3.org/2000/svg">
<g clip-path="url(#clip0_407_20779)">
<path d="M12.6605 1.35459C10.8846 0.525302 8.95897 0.0644975 6.99999 0C5.04101 0.0644975 3.11541 0.525302 1.33945 1.35459C1.11141 1.46174 0.918902 1.63205 0.784764 1.84533C0.650627 2.05861 0.580495 2.30589 0.582692 2.55784V11.4422C0.580495 11.6941 0.650627 11.9414 0.784764 12.1547C0.918902 12.3679 1.11141 12.5383 1.33945 12.6454C3.11541 13.4747 5.04101 13.9355 6.99999 14C8.95897 13.9355 10.8846 13.4747 12.6605 12.6454C12.8886 12.5383 13.0811 12.3679 13.2152 12.1547C13.3493 11.9414 13.4195 11.6941 13.4173 11.4422V2.55784C13.4195 2.30589 13.3493 2.05861 13.2152 1.84533C13.0811 1.63205 12.8886 1.46174 12.6605 1.35459ZM12.2973 7.40865C10.6391 8.20006 8.83616 8.64306 6.99999 8.71027C5.16381 8.64306 3.36092 8.20006 1.70269 7.40865V4.48757C3.37487 5.22287 5.17395 5.62637 6.99999 5.67568C8.82603 5.62637 10.6251 5.22287 12.2973 4.48757V7.40865ZM1.81621 2.38378C3.44203 1.62162 5.20545 1.19685 6.99999 1.13514C8.79679 1.19812 10.5624 1.6228 12.1913 2.38378C12.2232 2.40036 12.2499 2.42535 12.2686 2.45603C12.2873 2.48671 12.2972 2.52192 12.2973 2.55784V3.21622C10.6391 4.00763 8.83616 4.45063 6.99999 4.51784C5.16381 4.45063 3.36092 4.00763 1.70269 3.21622V2.53514C1.70666 2.50216 1.71925 2.47082 1.73917 2.44425C1.7591 2.41768 1.78567 2.39683 1.81621 2.38378ZM12.1838 11.6162C10.558 12.3784 8.79453 12.8031 6.99999 12.8649C5.20319 12.8019 3.43755 12.3772 1.80864 11.6162C1.77677 11.5996 1.75005 11.5747 1.73138 11.544C1.7127 11.5133 1.70278 11.4781 1.70269 11.4422V8.64973C3.37487 9.38503 5.17395 9.78854 6.99999 9.83784C8.82603 9.78854 10.6251 9.38503 12.2973 8.64973V11.4422C12.2974 11.4791 12.2867 11.5152 12.2666 11.5462C12.2464 11.5771 12.2176 11.6014 12.1838 11.6162Z" fill="#212121"/>
</g>
<defs>
<clipPath id="clip0_407_20779">
<rect width="14" height="14" fill="white"/>
</clipPath>
</defs>
</svg>
