<svg width="14" height="14" viewBox="0 0 14 14" fill="none" xmlns="http://www.w3.org/2000/svg">
<g clip-path="url(#clip0_1518_32541)">
<path d="M10.9218 5.3333L9.25513 7.00002L10.9218 8.66673C11.1396 8.88445 11.1396 9.24482 10.9218 9.46254C10.8092 9.57516 10.6666 9.62771 10.5239 9.62771C10.3813 9.62771 10.2386 9.57516 10.126 9.46254L8.45931 7.79583L6.7926 9.46254C6.67998 9.57516 6.53734 9.62771 6.39469 9.62771C6.25205 9.62771 6.1094 9.57516 5.99678 9.46254C5.77906 9.24482 5.77906 8.88445 5.99678 8.66673L7.66349 7.00002L5.99678 5.3333C5.77906 5.11558 5.77906 4.75521 5.99678 4.53749C6.21451 4.31976 6.57488 4.31976 6.7926 4.53749L8.45931 6.2042L10.126 4.53749C10.3437 4.31976 10.7041 4.31976 10.9218 4.53749C11.1396 4.75521 11.1396 5.11558 10.9218 5.3333ZM13.9925 3.24616V10.7539C13.9925 11.4746 13.4069 12.0677 12.6786 12.0677H3.72195C3.26398 12.0677 2.85105 11.835 2.61081 11.4521L0.14077 7.49552C-0.0469232 7.19522 -0.0469232 6.80481 0.14077 6.497L2.61081 2.54794C2.85105 2.16505 3.27148 1.93231 3.72195 1.93231H12.6862C13.4069 1.93231 14 2.52542 14 3.24616H13.9925ZM12.8663 3.24616C12.8663 3.14105 12.7838 3.05847 12.6786 3.05847H3.72195C3.65438 3.05847 3.59432 3.0885 3.56429 3.14856L1.15431 7.00002L3.56429 10.8515C3.60182 10.904 3.66189 10.9416 3.72195 10.9416H12.6862C12.7913 10.9416 12.8738 10.859 12.8738 10.7539V3.24616H12.8663Z" fill="#212121"/>
</g>
<defs>
<clipPath id="clip0_1518_32541">
<rect width="14" height="14" fill="white"/>
</clipPath>
</defs>
</svg>
