<svg width="14" height="14" viewBox="0 0 14 14" fill="none" xmlns="http://www.w3.org/2000/svg">
<g clip-path="url(#clip0_407_20788)">
<path fill-rule="evenodd" clip-rule="evenodd" d="M12.6 10.8H7.60002V12.8H9.40002C9.55915 12.8 9.71177 12.8632 9.82429 12.9757C9.93681 13.0883 10 13.2409 10 13.4C10 13.5591 9.93681 13.7117 9.82429 13.8243C9.71177 13.9368 9.55915 14 9.40002 14H7.00002C6.9996 14 6.99917 14 6.99874 14H4.6C4.44087 14 4.28826 13.9368 4.17574 13.8243C4.06321 13.7117 4 13.5591 4 13.4C4 13.2409 4.06321 13.0882 4.17574 12.9757C4.28826 12.8632 4.44087 12.8 4.6 12.8H6.40002V10.8H1.4C1.02934 10.7979 0.674468 10.6497 0.412371 10.3876C0.150274 10.1255 0.00210008 9.77066 0 9.4V1.4C0.00210008 1.02934 0.150274 0.674468 0.412371 0.412371C0.674468 0.150274 1.02934 0.00210008 1.4 0H12.6C12.9707 0.00210008 13.3255 0.150274 13.5876 0.412371C13.8497 0.674468 13.9979 1.02934 14 1.4V9.4C13.9979 9.77066 13.8497 10.1255 13.5876 10.3876C13.3255 10.6497 12.9707 10.7979 12.6 10.8ZM1.4 1.2C1.34696 1.2 1.29609 1.22107 1.25858 1.25858C1.22107 1.29609 1.2 1.34696 1.2 1.4V9.4C1.2 9.45304 1.22107 9.50391 1.25858 9.54142C1.29609 9.57893 1.34696 9.6 1.4 9.6H12.6C12.653 9.6 12.7039 9.57893 12.7414 9.54142C12.7789 9.50391 12.8 9.45304 12.8 9.4V1.4C12.8 1.34696 12.7789 1.29609 12.7414 1.25858C12.7039 1.22107 12.653 1.2 12.6 1.2H1.4Z" fill="#212121"/>
</g>
<defs>
<clipPath id="clip0_407_20788">
<rect width="14" height="14" fill="white"/>
</clipPath>
</defs>
</svg>
