<svg width="14" height="14" viewBox="0 0 14 14" fill="none" xmlns="http://www.w3.org/2000/svg">
<g clip-path="url(#clip0_407_20799)">
<path fill-rule="evenodd" clip-rule="evenodd" d="M7 14C6.82012 14 6.642 13.9646 6.4758 13.8957C6.3096 13.8268 6.15859 13.7258 6.03138 13.5985L0.401276 7.96228C0.274058 7.83495 0.173141 7.68378 0.104289 7.5174C0.0354377 7.35102 0 7.1727 0 6.99261C0 6.81252 0.0354377 6.63419 0.104289 6.46781C0.173141 6.30143 0.274058 6.15026 0.401276 6.02294L6.03138 0.386718C6.29289 0.138415 6.63958 0 7 0C7.36042 0 7.70712 0.138415 7.96862 0.386718L13.5987 6.02294C13.7259 6.15026 13.8269 6.30143 13.8957 6.46781C13.9646 6.63419 14 6.81252 14 6.99261C14 7.1727 13.9646 7.35102 13.8957 7.5174C13.8269 7.68378 13.7259 7.83495 13.5987 7.96228L7.96862 13.5985C7.84141 13.7258 7.6904 13.8268 7.5242 13.8957C7.35801 13.9646 7.17988 14 7 14ZM7 1.12155C6.97014 1.12059 6.94044 1.1262 6.91298 1.13798C6.88553 1.14976 6.86099 1.16742 6.84109 1.18973L1.20341 6.83352C1.18189 6.85404 1.16476 6.87872 1.15305 6.90607C1.14135 6.93341 1.13531 6.96286 1.13531 6.99261C1.13531 7.02236 1.14135 7.0518 1.15305 7.07915C1.16476 7.10649 1.18189 7.13117 1.20341 7.15169L6.84109 12.7955C6.85824 12.8221 6.88177 12.8439 6.90953 12.8591C6.93729 12.8742 6.96839 12.8821 7 12.8821C7.03161 12.8821 7.06271 12.8742 7.09047 12.8591C7.11823 12.8439 7.14176 12.8221 7.15892 12.7955L12.7966 7.15169C12.8181 7.13117 12.8352 7.10649 12.8469 7.07915C12.8587 7.0518 12.8647 7.02236 12.8647 6.99261C12.8647 6.96286 12.8587 6.93341 12.8469 6.90607C12.8352 6.87872 12.8181 6.85404 12.7966 6.83352L7.15892 1.18973C7.13902 1.16742 7.11447 1.14976 7.08702 1.13798C7.05956 1.1262 7.02986 1.12059 7 1.12155ZM6.039 8.82591C5.96443 8.82626 5.89054 8.8117 5.82167 8.78308C5.75279 8.75446 5.69033 8.71236 5.63793 8.65924L4.10695 7.1266C4.04926 7.09905 3.9961 7.06168 3.95005 7.01558C3.84361 6.90902 3.78381 6.76451 3.78381 6.61382C3.78381 6.46313 3.84361 6.31862 3.95005 6.21207C3.95574 6.20637 3.96154 6.2008 3.96744 6.19537C3.96932 6.19344 3.97121 6.19152 3.97311 6.18961L5.63793 4.50784C5.74434 4.40144 5.88859 4.34167 6.039 4.34167C6.1894 4.34167 6.33365 4.40144 6.44007 4.50784C6.54635 4.61437 6.60605 4.75878 6.60605 4.90934C6.60605 5.05991 6.54635 5.20431 6.44007 5.31085L5.69732 6.04565H9.64851C9.79842 6.04762 9.94164 6.10811 10.0477 6.21424C10.1537 6.32037 10.2141 6.46374 10.2161 6.61382V8.7274C10.2065 8.87214 10.1428 9.00795 10.0376 9.10767C9.93234 9.20739 9.79339 9.26367 9.64851 9.26527C9.49859 9.26331 9.35537 9.20282 9.24935 9.09669C9.14334 8.99056 9.08291 8.84718 9.08096 8.6971V7.18199H5.75853L6.44007 7.85623C6.54635 7.96277 6.60605 8.10717 6.60605 8.25774C6.60605 8.4083 6.54635 8.55271 6.44007 8.65924C6.38767 8.71236 6.3252 8.75446 6.25633 8.78308C6.18745 8.8117 6.11356 8.82626 6.039 8.82591Z" fill="#212121"/>
</g>
<defs>
<clipPath id="clip0_407_20799">
<rect width="14" height="14" fill="white"/>
</clipPath>
</defs>
</svg>
