<svg width="14" height="14" viewBox="0 0 14 14" fill="none" xmlns="http://www.w3.org/2000/svg">
<path d="M11.8496 2.50347C10.9437 2.08365 9.97884 1.7743 8.96242 1.59753C8.83721 1.81849 8.6899 2.12047 8.59415 2.36353C7.51881 2.20149 6.45083 2.20149 5.39759 2.36353C5.29448 2.12047 5.14717 1.81849 5.02196 1.59753C4.00554 1.7743 3.04068 2.08365 2.13474 2.50347C0.308136 5.25811 -0.185342 7.94646 0.057714 10.5906C1.273 11.4966 2.44409 12.0416 3.60045 12.4025C3.88769 12.0121 4.13812 11.5923 4.35908 11.1578C3.93925 11.0031 3.54152 10.8042 3.16589 10.5759C3.26901 10.5022 3.36475 10.4212 3.4605 10.3476C5.76586 11.4229 8.26271 11.4229 10.5386 10.3476C10.6344 10.4286 10.7301 10.5022 10.8332 10.5759C10.4576 10.8042 10.0525 10.9957 9.64003 11.1578C9.86099 11.5923 10.1114 12.0121 10.3987 12.4025C11.555 12.0416 12.7335 11.4966 13.9414 10.5906C14.2286 7.51927 13.4479 4.86038 11.8644 2.50347H11.8496ZM4.66842 8.97025C3.97608 8.97025 3.40895 8.32946 3.40895 7.54137C3.40895 6.75328 3.96135 6.11249 4.66842 6.11249C5.37549 6.11249 5.93526 6.75328 5.9279 7.54137C5.9279 8.3221 5.37549 8.97025 4.66842 8.97025ZM9.31595 8.97025C8.62361 8.97025 8.05648 8.32946 8.05648 7.54137C8.05648 6.75328 8.60888 6.11249 9.31595 6.11249C10.023 6.11249 10.5828 6.75328 10.5754 7.54137C10.5754 8.3221 10.023 8.97025 9.31595 8.97025Z" fill="#212121"/>
</svg>
