<svg width="14" height="14" viewBox="0 0 14 14" fill="none" xmlns="http://www.w3.org/2000/svg">
<path fill-rule="evenodd" clip-rule="evenodd" d="M6.57805 13.822C6.69013 13.934 6.84154 13.9979 7.00002 14C7.15851 13.9979 7.30992 13.934 7.422 13.822C7.53407 13.7099 7.59795 13.5585 7.60002 13.4V12.4H8.20002C8.62043 12.4271 9.04206 12.3709 9.4407 12.2347C9.83935 12.0985 10.2072 11.8848 10.5231 11.6061C10.839 11.3274 11.0967 10.989 11.2815 10.6104C11.4663 10.2319 11.5746 9.82052 11.6 9.40001C11.5746 8.9795 11.4663 8.56815 11.2815 8.18957C11.0967 7.81099 10.839 7.47263 10.5231 7.1939C10.2072 6.91517 9.83935 6.70156 9.4407 6.56533C9.04206 6.42909 8.62043 6.37291 8.20002 6.40001H7.60002V2.80001H10.2C10.3592 2.80001 10.5118 2.7368 10.6243 2.62428C10.7368 2.51175 10.8 2.35914 10.8 2.20001C10.8 2.04088 10.7368 1.88827 10.6243 1.77575C10.5118 1.66323 10.3592 1.60001 10.2 1.60001H7.60002V0.6C7.60002 0.44087 7.53681 0.288258 7.42429 0.175736C7.31177 0.063214 7.15915 0 7.00002 0C6.84089 0 6.68828 0.063214 6.57576 0.175736C6.46324 0.288258 6.40002 0.44087 6.40002 0.6V1.60001H5.80002C5.37962 1.57291 4.95799 1.62909 4.55935 1.76533C4.1607 1.90156 3.79288 2.11517 3.47699 2.3939C3.16109 2.67263 2.90335 3.01099 2.71853 3.38957C2.53372 3.76815 2.42548 4.1795 2.40002 4.60001C2.42548 5.02052 2.53372 5.43187 2.71853 5.81045C2.90335 6.18903 3.16109 6.52739 3.47699 6.80612C3.79288 7.08485 4.1607 7.29846 4.55935 7.4347C4.95799 7.57093 5.37962 7.62711 5.80002 7.60001H6.40002V11.2H3.00002C2.84089 11.2 2.68828 11.2632 2.57576 11.3757C2.46324 11.4883 2.40002 11.6409 2.40002 11.8C2.40002 11.9591 2.46324 12.1118 2.57576 12.2243C2.68828 12.3368 2.84089 12.4 3.00002 12.4H6.40002V13.4C6.4021 13.5585 6.46598 13.7099 6.57805 13.822ZM6.40002 6.40001V2.80001H5.80002C5.27079 2.75285 4.74413 2.91485 4.3329 3.25131C3.92167 3.58777 3.65859 4.07192 3.60002 4.60001C3.65859 5.12811 3.92167 5.61226 4.3329 5.94871C4.74413 6.28517 5.27079 6.44718 5.80002 6.40001H6.40002ZM7.60002 7.60001V11.2H8.20002C8.72926 11.2472 9.25592 11.0852 9.66715 10.7487C10.0784 10.4123 10.3415 9.92811 10.4 9.40001C10.3415 8.87192 10.0784 8.38777 9.66715 8.05131C9.25592 7.71485 8.72926 7.55285 8.20002 7.60001H7.60002Z" fill="#212121"/>
</svg>
