<svg width="14" height="14" viewBox="0 0 14 14" fill="none" xmlns="http://www.w3.org/2000/svg">
<g clip-path="url(#clip0_407_20843)">
<path fill-rule="evenodd" clip-rule="evenodd" d="M0.300978 7.56279C0.412274 7.63724 0.543136 7.67703 0.677036 7.67715H13.3227C13.4566 7.67703 13.5875 7.63724 13.6988 7.56279C13.8101 7.48834 13.8968 7.38258 13.9481 7.25887C13.9993 7.13516 14.0127 6.99904 13.9866 6.8677C13.9605 6.73637 13.8961 6.61571 13.8015 6.52097L7.47862 0.198122C7.35159 0.071258 7.17941 0 6.99989 0C6.82036 0 6.64818 0.071258 6.52116 0.198122L0.198306 6.52097C0.103683 6.61571 0.0392581 6.73637 0.0131678 6.8677C-0.0129224 6.99904 0.000492322 7.13516 0.0517177 7.25887C0.102943 7.38258 0.189681 7.48834 0.300978 7.56279ZM6.99989 1.63431L11.6878 6.32225H2.31194L6.99989 1.63431ZM1.58035 14H12.4195C12.838 13.9976 13.2387 13.8303 13.5346 13.5344C13.8306 13.2385 13.9979 12.8378 14.0002 12.4193V10.6128C13.9979 10.1943 13.8306 9.79357 13.5346 9.49764C13.2387 9.20171 12.838 9.03441 12.4195 9.03204H1.58035C1.16185 9.03441 0.761163 9.20171 0.465234 9.49764C0.169305 9.79357 0.00200495 10.1943 -0.000366211 10.6128V12.4193C0.00200495 12.8378 0.169305 13.2385 0.465234 13.5344C0.761163 13.8303 1.16185 13.9976 1.58035 14ZM1.42067 10.4531C1.46302 10.4107 1.52046 10.3869 1.58035 10.3869H12.4195C12.4794 10.3869 12.5368 10.4107 12.5792 10.4531C12.6215 10.4954 12.6453 10.5529 12.6453 10.6128V12.4193C12.6453 12.4792 12.6215 12.5366 12.5792 12.579C12.5368 12.6213 12.4794 12.6451 12.4195 12.6451H1.58035C1.52046 12.6451 1.46302 12.6213 1.42067 12.579C1.37832 12.5366 1.35453 12.4792 1.35453 12.4193V10.6128C1.35453 10.5529 1.37832 10.4954 1.42067 10.4531Z" fill="#212121"/>
</g>
<defs>
<clipPath id="clip0_407_20843">
<rect width="14" height="14" fill="white"/>
</clipPath>
</defs>
</svg>
