<svg width="14" height="14" viewBox="0 0 14 14" fill="none" xmlns="http://www.w3.org/2000/svg">
<g clip-path="url(#clip0_407_20854)">
<path fill-rule="evenodd" clip-rule="evenodd" d="M2.8 7.00001C2.8 7.7732 2.1732 8.40001 1.4 8.40001C0.626801 8.40001 0 7.7732 0 7.00001C0 6.22681 0.626801 5.60001 1.4 5.60001C2.1732 5.60001 2.8 6.22681 2.8 7.00001ZM6.99998 8.40001C7.77317 8.40001 8.39998 7.7732 8.39998 7.00001C8.39998 6.22681 7.77317 5.60001 6.99998 5.60001C6.22678 5.60001 5.59998 6.22681 5.59998 7.00001C5.59998 7.7732 6.22678 8.40001 6.99998 8.40001ZM12.6 8.40001C13.3732 8.40001 14 7.7732 14 7.00001C14 6.22681 13.3732 5.60001 12.6 5.60001C11.8268 5.60001 11.2 6.22681 11.2 7.00001C11.2 7.7732 11.8268 8.40001 12.6 8.40001Z" fill="#212121"/>
</g>
<defs>
<clipPath id="clip0_407_20854">
<rect width="14" height="14" fill="white"/>
</clipPath>
</defs>
</svg>
