<svg width="14" height="14" viewBox="0 0 14 14" fill="none" xmlns="http://www.w3.org/2000/svg">
<g clip-path="url(#clip0_407_20865)">
<path fill-rule="evenodd" clip-rule="evenodd" d="M6.99998 2.8C7.77317 2.8 8.39998 2.1732 8.39998 1.4C8.39998 0.626801 7.77317 0 6.99998 0C6.22678 0 5.59998 0.626801 5.59998 1.4C5.59998 2.1732 6.22678 2.8 6.99998 2.8ZM6.99998 8.40001C7.77317 8.40001 8.39998 7.7732 8.39998 7.00001C8.39998 6.22681 7.77317 5.60001 6.99998 5.60001C6.22678 5.60001 5.59998 6.22681 5.59998 7.00001C5.59998 7.7732 6.22678 8.40001 6.99998 8.40001ZM8.39998 12.6C8.39998 13.3732 7.77317 14 6.99998 14C6.22678 14 5.59998 13.3732 5.59998 12.6C5.59998 11.8268 6.22678 11.2 6.99998 11.2C7.77317 11.2 8.39998 11.8268 8.39998 12.6Z" fill="#212121"/>
</g>
<defs>
<clipPath id="clip0_407_20865">
<rect width="14" height="14" fill="white"/>
</clipPath>
</defs>
</svg>
