<svg width="14" height="14" viewBox="0 0 14 14" fill="none" xmlns="http://www.w3.org/2000/svg">
<g clip-path="url(#clip0_331_12654)">
<path d="M12.6 0.800018H1.4C1.02934 0.802118 0.674468 0.950292 0.412371 1.21239C0.150274 1.47449 0.00210008 1.82936 0 2.20002V11.8C0.00210008 12.1707 0.150274 12.5255 0.412371 12.7876C0.674468 13.0497 1.02934 13.1979 1.4 13.2H12.6C12.9707 13.1979 13.3255 13.0497 13.5876 12.7876C13.8497 12.5255 13.9979 12.1707 14 11.8V2.20002C13.9979 1.82936 13.8497 1.47449 13.5876 1.21239C13.3255 0.950292 12.9707 0.802118 12.6 0.800018ZM1.4 2.00002H12.6C12.653 2.00002 12.7039 2.02109 12.7414 2.0586C12.7789 2.0961 12.8 2.14697 12.8 2.20002V3.43202L7 6.32802L1.2 3.43202V2.20002C1.2 2.14697 1.22107 2.0961 1.25858 2.0586C1.29609 2.02109 1.34696 2.00002 1.4 2.00002ZM12.6 12H1.4C1.34696 12 1.29609 11.9789 1.25858 11.9414C1.22107 11.9039 1.2 11.8531 1.2 11.8V4.76802L6.728 7.53602C6.81245 7.57826 6.90558 7.60025 7 7.60025C7.09442 7.60025 7.18755 7.57826 7.272 7.53602L12.8 4.76802V11.8C12.8 11.8531 12.7789 11.9039 12.7414 11.9414C12.7039 11.9789 12.653 12 12.6 12Z" fill="#212121"/>
</g>
<defs>
<clipPath id="clip0_331_12654">
<rect width="14" height="14" fill="white"/>
</clipPath>
</defs>
</svg>
