<svg width="14" height="14" viewBox="0 0 14 14" fill="none" xmlns="http://www.w3.org/2000/svg">
<g clip-path="url(#clip0_1517_32537)">
<path d="M14 5.16727C14 4.77697 13.8473 4.40364 13.5673 4.12364L9.87636 0.432727C9.29939 -0.144242 8.36606 -0.144242 7.78909 0.432727L0.432727 7.78909C0.152727 8.06909 0 8.44242 0 8.83273C0 9.22303 0.152727 9.59636 0.432727 9.87636L4.12364 13.5673C4.41212 13.8558 4.78545 14 5.16727 14C5.20121 14 5.24364 14 5.27758 13.9915C5.29455 13.9915 5.30303 13.9915 5.32 13.9915H12.0994C12.4473 13.9915 12.7358 13.703 12.7358 13.3552C12.7358 13.0073 12.4473 12.7188 12.0994 12.7188H7.05091L13.5588 6.21091C13.8388 5.93091 13.9915 5.55758 13.9915 5.16727H14ZM1.33212 8.97697C1.28121 8.92606 1.27273 8.86667 1.27273 8.83273C1.27273 8.79879 1.27273 8.73939 1.33212 8.68849L4.55636 5.46424L8.53576 9.44364L5.31152 12.6679C5.23515 12.7442 5.10788 12.7442 5.02303 12.6679L1.33212 8.96848V8.97697ZM12.6679 5.32L9.44364 8.54424L5.46424 4.56485L8.68849 1.34061C8.76485 1.26424 8.89212 1.26424 8.97697 1.34061L12.6679 5.04C12.7188 5.09091 12.7273 5.1503 12.7273 5.18424C12.7273 5.21818 12.7273 5.27758 12.6679 5.32849V5.32Z" fill="#212121"/>
</g>
<defs>
<clipPath id="clip0_1517_32537">
<rect width="14" height="14" fill="white"/>
</clipPath>
</defs>
</svg>
