<svg width="14" height="14" viewBox="0 0 14 14" fill="none" xmlns="http://www.w3.org/2000/svg">
<g clip-path="url(#clip0_407_20876)">
<path fill-rule="evenodd" clip-rule="evenodd" d="M8.72505 13.9998H8.6048C7.22454 13.9695 5.88389 13.5327 4.75079 12.7439C3.6177 11.9552 2.74255 10.8496 2.23498 9.56568C2.13432 9.31105 2.049 9.05165 1.97914 8.78885H0.708313C0.54885 8.78885 0.395917 8.7255 0.28316 8.61274C0.170402 8.49999 0.107056 8.34706 0.107056 8.18759C0.107056 8.02813 0.170402 7.8752 0.28316 7.76244C0.395917 7.64968 0.54885 7.58633 0.708313 7.58633H1.76939C1.73512 7.18693 1.73509 6.78461 1.76967 6.38382H0.708313C0.54885 6.38382 0.395917 6.32047 0.28316 6.20772C0.170402 6.09496 0.107056 5.94203 0.107056 5.78256C0.107056 5.6231 0.170402 5.47017 0.28316 5.35741C0.395917 5.24465 0.54885 5.1813 0.708313 5.1813H1.98004C2.30376 3.96591 2.94904 2.85759 3.85086 1.9746C4.50748 1.32627 5.28839 0.817358 6.14667 0.478455C7.00494 0.139553 7.92287 -0.0223483 8.8453 0.00247855C10.6465 0.0281367 12.3688 0.745766 13.6554 2.00667C13.768 2.11941 13.8312 2.27223 13.8312 2.43156C13.8312 2.59089 13.768 2.74371 13.6554 2.85645C13.5426 2.96904 13.3898 3.03229 13.2305 3.03229C13.0711 3.03229 12.9183 2.96904 12.8056 2.85645C11.9943 2.05815 10.9668 1.51524 9.8501 1.29491C8.73345 1.07458 7.5767 1.1865 6.52299 1.61681C5.46929 2.04712 4.56488 2.77695 3.92169 3.71597C3.61051 4.17027 3.36708 4.66388 3.19635 5.1813H11.9318C12.0912 5.1813 12.2442 5.24465 12.3569 5.35741C12.4697 5.47017 12.533 5.6231 12.533 5.78256C12.533 5.94203 12.4697 6.09496 12.3569 6.20772C12.2442 6.32047 12.0912 6.38382 11.9318 6.38382H2.9365C2.91814 6.55484 2.90733 6.72706 2.9042 6.89999C2.90006 7.12993 2.90955 7.35909 2.93236 7.58633H10.7293C10.8887 7.58633 11.0417 7.64968 11.1544 7.76244C11.2672 7.8752 11.3305 8.02813 11.3305 8.18759C11.3305 8.34706 11.2672 8.49999 11.1544 8.61274C11.0417 8.7255 10.8887 8.78885 10.7293 8.78885H3.18337C3.33322 9.25422 3.54187 9.70127 3.80616 10.1186C4.41506 11.0803 5.29255 11.8422 6.33004 12.3103C7.36754 12.7783 8.5195 12.9319 9.64337 12.752C10.7672 12.5721 11.8137 12.0666 12.6533 11.2981L12.8296 11.1297C12.9474 11.0175 13.1039 10.9549 13.2665 10.9549C13.4292 10.9549 13.5857 11.0175 13.7035 11.1297C13.7595 11.1793 13.805 11.2395 13.8375 11.3069C13.8699 11.3743 13.8885 11.4475 13.8922 11.5222C13.896 11.5968 13.8847 11.6715 13.8592 11.7418C13.8337 11.8121 13.7943 11.8766 13.7435 11.9314L13.7035 11.9715L13.471 12.196C12.171 13.3708 10.4772 14.0145 8.72505 13.9998Z" fill="#212121"/>
</g>
<defs>
<clipPath id="clip0_407_20876">
<rect width="14" height="14" fill="white"/>
</clipPath>
</defs>
</svg>
