<svg width="14" height="14" viewBox="0 0 14 14" fill="none" xmlns="http://www.w3.org/2000/svg">
<g clip-path="url(#clip0_407_20887)">
<path d="M11.7672 14H2.19389C1.61204 14 1.05401 13.7682 0.642576 13.3556C0.231142 12.9431 0 12.3835 0 11.8V2.2C0 1.61652 0.231142 1.05694 0.642576 0.644365C1.05401 0.231785 1.61204 0 2.19389 0H6.98057C7.13926 0 7.29145 0.063214 7.40366 0.175736C7.51587 0.288258 7.57891 0.44087 7.57891 0.6C7.57891 0.75913 7.51587 0.911742 7.40366 1.02426C7.29145 1.13679 7.13926 1.2 6.98057 1.2H2.19389C1.92941 1.2 1.67577 1.30536 1.48875 1.49289C1.30173 1.68043 1.19667 1.93478 1.19667 2.2V11.8C1.19667 12.0652 1.30173 12.3196 1.48875 12.5071C1.67577 12.6946 1.92941 12.8 2.19389 12.8H11.7672C12.0317 12.8 12.2854 12.6946 12.4724 12.5071C12.6594 12.3196 12.7645 12.0652 12.7645 11.8V7C12.7645 6.84087 12.8275 6.68826 12.9397 6.57574C13.0519 6.46321 13.2041 6.4 13.3628 6.4C13.5215 6.4 13.6737 6.46321 13.7859 6.57574C13.8981 6.68826 13.9611 6.84087 13.9611 7V11.8C13.9611 12.3835 13.73 12.9431 13.3186 13.3556C12.9071 13.7682 12.3491 14 11.7672 14Z" fill="#212121"/>
<path d="M13.3628 4.4C13.2047 4.39793 13.0538 4.33405 12.942 4.22197C12.8302 4.1099 12.7665 3.95849 12.7645 3.8V1.2H10.1717C10.013 1.2 9.86079 1.13679 9.74858 1.02426C9.63637 0.911742 9.57333 0.75913 9.57333 0.6C9.57333 0.44087 9.63637 0.288258 9.74858 0.175736C9.86079 0.063214 10.013 0 10.1717 0H13.3628C13.5208 0.00207197 13.6718 0.0659513 13.7836 0.178027C13.8954 0.290103 13.9591 0.441514 13.9611 0.6V3.8C13.9591 3.95849 13.8954 4.1099 13.7836 4.22197C13.6718 4.33405 13.5208 4.39793 13.3628 4.4Z" fill="#212121"/>
<path d="M8.17724 6.4C8.02332 6.3882 7.88013 6.3164 7.77835 6.2C7.68024 6.09 7.62599 5.94759 7.62599 5.8C7.62599 5.65241 7.68024 5.51 7.77835 5.4L12.9639 0.2C13.0187 0.14105 13.0848 0.0937688 13.1581 0.0609752C13.2315 0.0281816 13.3108 0.010548 13.3911 0.00912658C13.4715 0.00770515 13.5513 0.0225249 13.6258 0.0527017C13.7003 0.0828785 13.7679 0.127794 13.8248 0.184769C13.8816 0.241744 13.9264 0.309611 13.9565 0.384322C13.9865 0.459032 14.0013 0.539055 13.9999 0.619618C13.9985 0.70018 13.9809 0.779631 13.9482 0.853231C13.9155 0.92683 13.8684 0.99307 13.8096 1.048L8.57613 6.2C8.47436 6.3164 8.33117 6.3882 8.17724 6.4Z" fill="#212121"/>
</g>
<defs>
<clipPath id="clip0_407_20887">
<rect width="14" height="14" fill="white"/>
</clipPath>
</defs>
</svg>
