<svg width="14" height="14" viewBox="0 0 14 14" fill="none" xmlns="http://www.w3.org/2000/svg">
<g clip-path="url(#clip0_334_13314)">
<path d="M13.9999 6.95671C13.9835 5.6145 13.5862 4.30496 12.8549 3.18231C12.1236 2.05966 11.0886 1.17065 9.87198 0.619981C8.65532 0.06931 7.3076 -0.120089 5.98755 0.0740903C4.66749 0.268269 3.43006 0.837939 2.42101 1.71601C1.41195 2.59408 0.673279 3.74399 0.291991 5.0303C-0.0892972 6.31662 -0.0973255 7.68577 0.268852 8.97652C0.635029 10.2673 1.36016 11.4259 2.35885 12.3159C3.35754 13.2058 4.5882 13.7902 5.90589 14V9.00807H4.15584V6.95671H5.90589V5.39838C5.86539 5.03603 5.90444 4.66915 6.02026 4.32365C6.13609 3.97814 6.32587 3.66242 6.57622 3.39878C6.82657 3.13513 7.13138 2.92999 7.46913 2.79782C7.80689 2.66566 8.16936 2.6097 8.53097 2.63388C9.05584 2.64112 9.57943 2.68821 10.0973 2.77475V4.53557H9.22224C9.07135 4.51643 8.91811 4.53164 8.77386 4.58009C8.6296 4.62854 8.498 4.70898 8.3888 4.81548C8.27959 4.92198 8.19557 5.0518 8.14293 5.19536C8.0903 5.33892 8.0704 5.49255 8.0847 5.64489V6.97431H10.0273L9.71225 9.02567H8.09345V13.956C9.74717 13.6928 11.2524 12.842 12.336 11.5578C13.4197 10.2737 14.01 8.64126 13.9999 6.95671Z" fill="#212121"/>
</g>
<defs>
<clipPath id="clip0_334_13314">
<rect width="14" height="14" fill="white"/>
</clipPath>
</defs>
</svg>
