<svg width="14" height="14" viewBox="0 0 14 14" fill="none" xmlns="http://www.w3.org/2000/svg">
<g clip-path="url(#clip0_408_20918)">
<path d="M13.4 0.799988C13.072 0.799988 12.8 1.07199 12.8 1.39999V6.35199L7.424 0.975988C7.256 0.807988 6.992 0.751988 6.768 0.847988C6.544 0.943988 6.4 1.15999 6.4 1.39999V6.35199L1.024 0.975988C0.856 0.807988 0.592 0.751988 0.368 0.847988C0.144 0.943988 0 1.15999 0 1.39999V12.6C0 12.84 0.144 13.064 0.368 13.152C0.44 13.184 0.52 13.2 0.6 13.2C0.76 13.2 0.912 13.136 1.024 13.024L6.4 7.64799V12.6C6.4 12.84 6.544 13.064 6.768 13.152C6.84 13.184 6.92 13.2 7 13.2C7.16 13.2 7.312 13.136 7.424 13.024L12.8 7.64799V12.6C12.8 12.928 13.072 13.2 13.4 13.2C13.728 13.2 14 12.928 14 12.6V1.39999C14 1.07199 13.728 0.799988 13.4 0.799988ZM1.2 11.152V2.84799L5.352 6.99999L1.2 11.152ZM7.6 11.152V2.84799L11.752 6.99999L7.6 11.152Z" fill="#212121"/>
</g>
<defs>
<clipPath id="clip0_408_20918">
<rect width="14" height="14" fill="white"/>
</clipPath>
</defs>
</svg>
