<svg width="14" height="14" viewBox="0 0 14 14" fill="none" xmlns="http://www.w3.org/2000/svg">
<g clip-path="url(#clip0_408_20901)">
<path d="M13.632 0.847988C13.408 0.751988 13.152 0.807988 12.976 0.975988L7.6 6.35199V1.39999C7.6 1.15999 7.456 0.935988 7.232 0.847988C7.008 0.751988 6.752 0.807988 6.576 0.975988L1.2 6.35199V1.39999C1.2 1.07199 0.928 0.799988 0.6 0.799988C0.272 0.799988 0 1.07199 0 1.39999V12.6C0 12.928 0.272 13.2 0.6 13.2C0.928 13.2 1.2 12.928 1.2 12.6V7.64799L6.576 13.024C6.688 13.136 6.84 13.2 7 13.2C7.08 13.2 7.152 13.184 7.232 13.152C7.456 13.056 7.6 12.84 7.6 12.6V7.64799L12.976 13.024C13.088 13.136 13.24 13.2 13.4 13.2C13.48 13.2 13.552 13.184 13.632 13.152C13.856 13.056 14 12.84 14 12.6V1.39999C14 1.15999 13.856 0.935988 13.632 0.847988ZM6.4 11.152L2.248 6.99999L6.4 2.84799V11.152ZM12.8 11.152L8.648 6.99999L12.8 2.84799V11.152Z" fill="#212121"/>
</g>
<defs>
<clipPath id="clip0_408_20901">
<rect width="14" height="14" fill="white"/>
</clipPath>
</defs>
</svg>
