<svg width="14" height="14" viewBox="0 0 14 14" fill="none" xmlns="http://www.w3.org/2000/svg">
<g clip-path="url(#clip0_1518_32525)">
<path d="M3.97232 12.1081H2.83718C2.31502 12.1081 1.89124 11.6843 1.89124 11.1622V2.08108C1.89124 1.55892 2.31502 1.13514 2.83718 1.13514H5.67502V4.72973C5.67502 5.04 5.93232 5.2973 6.24259 5.2973H9.87502C9.9507 5.51676 10.155 5.67568 10.4048 5.67568C10.715 5.67568 10.9723 5.41838 10.9723 5.10811V4.72973C10.9723 4.65405 10.9572 4.57838 10.9269 4.51027C10.8966 4.44216 10.8588 4.38162 10.8058 4.32865L6.64367 0.166487C6.5907 0.113514 6.53016 0.0756756 6.46205 0.0454054C6.39394 0.0151351 6.31827 0 6.24259 0H2.83718C1.68691 0 0.756104 0.930811 0.756104 2.08108V11.1622C0.756104 12.3124 1.68691 13.2432 2.83718 13.2432H3.97232C4.28259 13.2432 4.53989 12.9859 4.53989 12.6757C4.53989 12.3654 4.28259 12.1081 3.97232 12.1081ZM6.81016 1.9373L9.03502 4.16216H6.81016V1.9373ZM12.7583 6.52324C12.4707 6.23568 12.0469 6.06162 11.608 6.05405C11.1539 6.03135 10.7226 6.20541 10.435 6.50054L5.59935 11.3438C5.50097 11.4422 5.448 11.5632 5.43286 11.6995L5.29664 13.387C5.28151 13.5535 5.34205 13.72 5.46313 13.8335C5.56908 13.9395 5.71286 14 5.86421 14C5.87935 14 5.89448 14 5.91718 14L7.61989 13.8411C7.74854 13.8259 7.87718 13.773 7.96799 13.6746L12.8037 8.83135C13.4091 8.23351 13.3864 7.15135 12.7583 6.52324ZM12.0015 8.02919L7.30962 12.7286L6.48475 12.8043L6.54529 12.0022L11.2372 7.3027C11.3129 7.22703 11.4491 7.19676 11.5853 7.18919C11.7366 7.18919 11.8729 7.24216 11.9561 7.32541C12.1377 7.49946 12.1604 7.87027 12.0015 8.02919Z" fill="#212121"/>
</g>
<defs>
<clipPath id="clip0_1518_32525">
<rect width="14" height="14" fill="white"/>
</clipPath>
</defs>
</svg>
