<svg width="14" height="14" viewBox="0 0 14 14" fill="none" xmlns="http://www.w3.org/2000/svg">
<path d="M12.224 4.576L7.82398 0.176C7.71198 0.064 7.55998 0 7.39998 0H3.79998C2.58398 0 1.59998 0.984 1.59998 2.2V11.8C1.59998 13.016 2.58398 14 3.79998 14H10.2C11.416 14 12.4 13.016 12.4 11.8V5C12.4 4.84 12.336 4.688 12.224 4.576ZM7.99998 2.048L10.352 4.4H7.99998V2.048ZM10.2 12.8H3.79998C3.24798 12.8 2.79998 12.352 2.79998 11.8V2.2C2.79998 1.648 3.24798 1.2 3.79998 1.2H6.79998V5C6.79998 5.328 7.07198 5.6 7.39998 5.6H11.2V11.8C11.2 12.352 10.752 12.8 10.2 12.8ZM10.376 7.576L9.17598 11.576C9.10398 11.816 8.87998 11.992 8.62398 12C8.61598 12 8.60798 12 8.59998 12C8.35198 12 8.13598 11.848 8.03998 11.624L6.99998 9.016L5.95998 11.624C5.86398 11.864 5.63198 12.016 5.37598 12C5.11998 11.992 4.90398 11.816 4.82398 11.576L3.62398 7.576C3.52798 7.256 3.71198 6.92 4.02398 6.832C4.34398 6.736 4.67198 6.92 4.76798 7.232L5.47198 9.584L6.43198 7.176C6.61598 6.72 7.36798 6.72 7.54398 7.176L8.50398 9.584L9.20798 7.232C9.30398 6.912 9.63998 6.736 9.95198 6.832C10.272 6.928 10.448 7.264 10.352 7.576H10.376Z" fill="#212121"/>
</svg>
