<svg width="14" height="14" viewBox="0 0 14 14" fill="none" xmlns="http://www.w3.org/2000/svg">
<path fill-rule="evenodd" clip-rule="evenodd" d="M7.8001 0.176L12.2241 4.6C12.331 4.70647 12.3938 4.84928 12.4001 5V11.8C12.4001 12.3835 12.1683 12.9431 11.7557 13.3556C11.3432 13.7682 10.7836 14 10.2001 14H3.8001C3.21662 14 2.65704 13.7682 2.24446 13.3556C1.83188 12.9431 1.6001 12.3835 1.6001 11.8V2.2C1.6001 1.61652 1.83188 1.05694 2.24446 0.644365C2.65704 0.231785 3.21662 0 3.8001 0H7.3761C7.53517 0.000140042 7.68768 0.063446 7.8001 0.176ZM10.3521 4.4L8.0001 2.048V4.4H10.3521ZM3.8001 12.8H10.2001C10.4653 12.8 10.7197 12.6946 10.9072 12.5071C11.0947 12.3196 11.2001 12.0652 11.2001 11.8V5.6H7.4001C7.24161 5.59793 7.0902 5.53405 6.97813 5.42197C6.86605 5.3099 6.80217 5.15849 6.8001 5V1.2H3.8001C3.53488 1.2 3.28053 1.30536 3.09299 1.49289C2.90545 1.68043 2.8001 1.93478 2.8001 2.2V11.8C2.8001 12.0652 2.90545 12.3196 3.09299 12.5071C3.28053 12.6946 3.53488 12.8 3.8001 12.8ZM8.53275 6.80537C8.69081 6.78747 8.84967 6.83142 8.97607 6.92801C9.04252 6.97624 9.09866 7.03728 9.14118 7.10753C9.1837 7.17777 9.21175 7.25581 9.22368 7.33705C9.2356 7.4183 9.23116 7.50111 9.21062 7.58061C9.19008 7.66011 9.15385 7.73471 9.10407 7.80001L7.80007 9.40001L9.07207 11C9.15949 11.0867 9.21812 11.1982 9.24002 11.3193C9.26193 11.4405 9.24603 11.5654 9.1945 11.6772C9.14296 11.789 9.05828 11.8823 8.95194 11.9443C8.8456 12.0063 8.72276 12.0342 8.60007 12.024C8.50978 12.0235 8.42071 12.0032 8.33914 11.9645C8.25758 11.9258 8.18552 11.8697 8.12807 11.8L7.00007 10.36L5.87207 11.752C5.77235 11.8772 5.62698 11.9576 5.46795 11.9756C5.30892 11.9936 5.14925 11.9477 5.02407 11.848C4.89889 11.7483 4.81844 11.6029 4.80044 11.4439C4.78244 11.2849 4.82835 11.1252 4.92807 11L6.20007 9.40001L4.92807 7.80001C4.87554 7.73802 4.83573 7.6663 4.81092 7.58893C4.78611 7.51156 4.77678 7.43007 4.78347 7.34909C4.79016 7.26812 4.81273 7.18926 4.84989 7.11701C4.88705 7.04476 4.93808 6.98054 5.00007 6.92801C5.06205 6.87548 5.13377 6.83567 5.21114 6.81086C5.28851 6.78605 5.37001 6.77672 5.45098 6.78341C5.53195 6.7901 5.61082 6.81266 5.68307 6.84983C5.75532 6.88699 5.81954 6.93802 5.87207 7.00001L7.00007 8.44001L8.12807 7.02401C8.22967 6.90161 8.37469 6.82326 8.53275 6.80537Z" fill="#212121"/>
</svg>
