<svg width="14" height="14" viewBox="0 0 14 14" fill="none" xmlns="http://www.w3.org/2000/svg">
<path fill-rule="evenodd" clip-rule="evenodd" d="M7.80004 0.176L12.224 4.6C12.3309 4.70647 12.3937 4.84928 12.4 5V11.8C12.4 12.3835 12.1683 12.9431 11.7557 13.3556C11.3431 13.7682 10.7835 14 10.2 14H3.80004C3.21656 14 2.65698 13.7682 2.2444 13.3556C1.83182 12.9431 1.60004 12.3835 1.60004 11.8V2.2C1.60004 1.61652 1.83182 1.05694 2.2444 0.644365C2.65698 0.231785 3.21656 0 3.80004 0H7.37604C7.53511 0.000140042 7.68762 0.063446 7.80004 0.176ZM10.352 4.4L8.00004 2.048V4.4H10.352ZM3.80004 12.8H10.2C10.4653 12.8 10.7196 12.6946 10.9071 12.5071C11.0947 12.3196 11.2 12.0652 11.2 11.8V5.6H7.40004C7.24155 5.59793 7.09014 5.53405 6.97806 5.42197C6.86599 5.3099 6.80211 5.15849 6.80004 5V1.2H3.80004C3.53482 1.2 3.28047 1.30536 3.09293 1.49289C2.90539 1.68043 2.80004 1.93478 2.80004 2.2V11.8C2.80004 12.0652 2.90539 12.3196 3.09293 12.5071C3.28047 12.6946 3.53482 12.8 3.80004 12.8ZM7.14403 7.952C7.32991 8.5022 7.70011 8.97132 8.19203 9.28C8.68803 9.216 9.68803 9.12 10.024 9.464C10.1124 9.55844 10.1709 9.6769 10.1921 9.80448C10.2134 9.93207 10.1964 10.0631 10.1434 10.1811C10.0904 10.299 10.0037 10.3987 9.89423 10.4676C9.78473 10.5364 9.65733 10.5714 9.52803 10.568C8.96492 10.527 8.41818 10.3602 7.92803 10.08C7.26497 10.2272 6.61278 10.4196 5.97603 10.656C4.54403 13.152 3.70403 12 3.80003 11.552C3.92003 11 4.69603 10.52 5.26403 10.2C5.6371 9.52401 5.97619 8.82981 6.28003 8.12C6.05762 7.50593 5.98895 6.84673 6.08003 6.2C6.13575 6.07433 6.23046 5.96993 6.35013 5.90227C6.4698 5.83461 6.60808 5.80729 6.74449 5.82434C6.8809 5.84139 7.0082 5.90191 7.10754 5.99695C7.20687 6.09198 7.27296 6.21648 7.29603 6.352C7.36828 6.88994 7.31628 7.43729 7.14403 7.952ZM5.24003 10.688C4.8883 10.9595 4.59223 11.2964 4.36803 11.68V11.688C4.36803 11.704 4.69603 11.552 5.24003 10.688ZM6.75203 7.4C6.89603 7.152 6.91203 6.232 6.70403 6.232V6.24C6.6271 6.62495 6.64356 7.02273 6.75203 7.4ZM6.71203 8.6C6.51435 9.12815 6.27908 9.64147 6.00803 10.136V10.144C6.51477 9.92174 7.03928 9.74244 7.57603 9.608C7.21871 9.33824 6.92397 8.99438 6.71203 8.6ZM8.70403 9.768C9.62403 10.168 9.76803 9.992 9.76803 9.992V10C9.87203 9.936 9.70403 9.704 8.70403 9.768Z" fill="#212121"/>
</svg>
