<svg width="14" height="14" viewBox="0 0 14 14" fill="none" xmlns="http://www.w3.org/2000/svg">
<path d="M12.224 4.6L7.80004 0.176C7.68762 0.063446 7.53511 0.000140042 7.37604 0H3.80004C3.21656 0 2.65698 0.231785 2.2444 0.644365C1.83182 1.05694 1.60004 1.61652 1.60004 2.2V11.8C1.60004 12.3835 1.83182 12.9431 2.2444 13.3556C2.65698 13.7682 3.21656 14 3.80004 14H10.2C10.7835 14 11.3431 13.7682 11.7557 13.3556C12.1683 12.9431 12.4 12.3835 12.4 11.8V5C12.3937 4.84928 12.3309 4.70647 12.224 4.6ZM8.00004 2.048L10.352 4.4H8.00004V2.048ZM10.2 12.8H3.80004C3.53482 12.8 3.28047 12.6946 3.09293 12.5071C2.90539 12.3196 2.80004 12.0652 2.80004 11.8V2.2C2.80004 1.93478 2.90539 1.68043 3.09293 1.49289C3.28047 1.30536 3.53482 1.2 3.80004 1.2H6.80004V5C6.80211 5.15849 6.86599 5.3099 6.97806 5.42197C7.09014 5.53405 7.24155 5.59793 7.40004 5.6H11.2V11.8C11.2 12.0652 11.0947 12.3196 10.9071 12.5071C10.7196 12.6946 10.4653 12.8 10.2 12.8Z" fill="#212121"/>
</svg>
