<svg width="14" height="14" viewBox="0 0 14 14" fill="none" xmlns="http://www.w3.org/2000/svg">
<g clip-path="url(#clip0_1518_32489)">
<path d="M7.34227 9.13887H0.583428C0.264542 9.13887 9.91821e-05 8.87443 9.91821e-05 8.55554C9.91821e-05 8.23666 0.264542 7.97221 0.583428 7.97221H7.34227L6.0045 6.63444C5.77895 6.40889 5.77895 6.03556 6.0045 5.81001C6.23006 5.58445 6.60339 5.58445 6.82894 5.81001L9.16226 8.14332C9.2167 8.19777 9.25559 8.25999 9.2867 8.32999C9.34892 8.46999 9.34892 8.63332 9.2867 8.77332C9.25559 8.84332 9.2167 8.90554 9.16226 8.95998L6.82894 11.2933C6.71227 11.41 6.5645 11.4644 6.41672 11.4644C6.26894 11.4644 6.12117 11.41 6.0045 11.2933C5.77895 11.0677 5.77895 10.6944 6.0045 10.4689L7.34227 9.13109V9.13887ZM14 5.05557V11.6666C14 12.8488 13.0433 13.8055 11.8611 13.8055H6.02783C4.84562 13.8055 3.88896 12.8488 3.88896 11.6666V10.8889C3.88896 10.57 4.1534 10.3055 4.47229 10.3055C4.79118 10.3055 5.05562 10.57 5.05562 10.8889V11.6666C5.05562 12.2033 5.49117 12.6388 6.02783 12.6388H11.8611C12.3978 12.6388 12.8333 12.2033 12.8333 11.6666V5.6389H9.13892C8.82004 5.6389 8.5556 5.37445 8.5556 5.05557V1.36115H6.02783C5.49117 1.36115 5.05562 1.7967 5.05562 2.33336V6.22222C5.05562 6.54111 4.79118 6.80555 4.47229 6.80555C4.1534 6.80555 3.88896 6.54111 3.88896 6.22222V2.33336C3.88896 1.15115 4.84562 0.194489 6.02783 0.194489H9.13892C9.29448 0.194489 9.44226 0.25671 9.55114 0.365598L13.8289 4.64335C13.9378 4.75223 14 4.90001 14 5.05557ZM9.72225 4.47224H12.0089L9.72225 2.18559V4.47224Z" fill="#212121"/>
</g>
<defs>
<clipPath id="clip0_1518_32489">
<rect width="14" height="14" fill="white"/>
</clipPath>
</defs>
</svg>
