<svg width="14" height="14" viewBox="0 0 14 14" fill="none" xmlns="http://www.w3.org/2000/svg">
<g clip-path="url(#clip0_408_20955)">
<path d="M13.7283 0.337647C13.6758 0.236453 13.5966 0.151519 13.4994 0.0920138C13.4021 0.0325088 13.2905 0.000692754 13.1765 0H0.823548C0.709548 0.000692754 0.597903 0.0325088 0.500663 0.0920138C0.403423 0.151519 0.324282 0.236453 0.271783 0.337647C0.219379 0.439133 0.19697 0.553448 0.20718 0.667208C0.217389 0.780968 0.259794 0.889466 0.329431 0.98L4.73531 7V13.3824C4.73745 13.5455 4.8032 13.7014 4.91858 13.8167C5.03395 13.9321 5.18981 13.9979 5.35296 14H8.64708C8.81022 13.9979 8.96609 13.9321 9.08146 13.8167C9.19683 13.7014 9.26259 13.5455 9.26472 13.3824V7L13.6706 0.98C13.7402 0.889466 13.7826 0.780968 13.7929 0.667208C13.8031 0.553448 13.7807 0.439133 13.7283 0.337647Z" fill="#212121"/>
</g>
<defs>
<clipPath id="clip0_408_20955">
<rect width="14" height="14" fill="white"/>
</clipPath>
</defs>
</svg>
