<svg width="14" height="14" viewBox="0 0 14 14" fill="none" xmlns="http://www.w3.org/2000/svg">
<g clip-path="url(#clip0_408_20971)">
<path d="M12.9665 0.997053C12.8869 0.942185 12.7952 0.907674 12.6992 0.896547C12.6032 0.88542 12.506 0.898018 12.416 0.933235C11.4687 1.34379 10.4661 1.61259 9.4405 1.73096C8.79268 1.55769 8.17429 1.28882 7.60573 0.933235C6.87196 0.479716 6.06056 0.165974 5.21255 0.00787204C4.18348 -0.0878552 1.73446 0.717849 1.22392 0.885372C1.10541 0.9254 1.00242 1.00157 0.929446 1.10316C0.85647 1.20476 0.817172 1.32667 0.817078 1.45176V13.4017C0.817078 13.5604 0.880112 13.7126 0.992314 13.8248C1.10452 13.937 1.2567 14 1.41537 14C1.57405 14 1.72623 13.937 1.83843 13.8248C1.95063 13.7126 2.01367 13.5604 2.01367 13.4017V8.72703C3.00811 8.37461 4.04241 8.14685 5.09289 8.04896C5.76833 8.21475 6.41411 8.48383 7.00744 8.84668C7.70156 9.27096 8.462 9.57567 9.25703 9.74812H9.4405C10.5952 9.5987 11.7246 9.29553 12.7989 8.84668C12.9111 8.80225 13.0074 8.72539 13.0756 8.62591C13.1438 8.52644 13.1808 8.40888 13.1818 8.28828V1.49164C13.1878 1.39802 13.1714 1.30432 13.1339 1.21831C13.0965 1.13229 13.0391 1.05645 12.9665 0.997053Z" fill="#212121"/>
</g>
<defs>
<clipPath id="clip0_408_20971">
<rect width="14" height="14" fill="white"/>
</clipPath>
</defs>
</svg>
