<svg width="14" height="14" viewBox="0 0 14 14" fill="none" xmlns="http://www.w3.org/2000/svg">
<g clip-path="url(#clip0_408_20978)">
<path d="M12.9698 0.989738C12.8902 0.934839 12.7984 0.900308 12.7024 0.889175C12.6064 0.878042 12.5091 0.890647 12.4191 0.925884C11.4689 1.32997 10.4667 1.59865 9.44188 1.72406C8.79368 1.55069 8.17495 1.28167 7.60607 0.925884C6.87123 0.473422 6.05963 0.1596 5.21155 0C3.84913 0.12049 2.50785 0.415571 1.22067 0.877993C1.10209 0.918044 0.999048 0.994253 0.92603 1.09591C0.853013 1.19756 0.813693 1.31954 0.813599 1.4447V13.4014C0.813599 13.5601 0.876668 13.7124 0.988934 13.8247C1.1012 13.9369 1.25346 14 1.41223 14C1.571 14 1.72326 13.9369 1.83553 13.8247C1.94779 13.7124 2.01086 13.5601 2.01086 13.4014V8.73204C3.00467 8.3723 4.03978 8.139 5.09182 8.03763C5.76736 8.20436 6.41338 8.47353 7.00744 8.8358C7.70195 9.26031 8.46282 9.5652 9.2583 9.73774H9.44188C10.5979 9.5918 11.7285 9.28834 12.8022 8.8358C12.915 8.79227 13.012 8.71559 13.0804 8.61585C13.1488 8.51612 13.1854 8.39801 13.1853 8.27708V1.48461C13.1913 1.39093 13.1749 1.29718 13.1374 1.21112C13.0999 1.12505 13.0425 1.04917 12.9698 0.989738ZM12.0359 7.87799C11.2067 8.22132 10.3336 8.44699 9.44188 8.54846C8.79368 8.37509 8.17495 8.10607 7.60607 7.75028C6.87123 7.29782 6.05963 6.984 5.21155 6.8244H5.05191C4.02446 6.91695 3.01166 7.1313 2.03481 7.46294V1.87571C3.02861 1.51597 4.06372 1.28267 5.11577 1.1813C5.7913 1.34803 6.43733 1.6172 7.03139 1.97948C7.7259 2.40399 8.48676 2.70887 9.28224 2.88141C10.2188 2.84468 11.1421 2.6476 12.012 2.29875L12.0359 7.87799Z" fill="#212121"/>
</g>
<defs>
<clipPath id="clip0_408_20978">
<rect width="14" height="14" fill="white"/>
</clipPath>
</defs>
</svg>
