<svg width="14" height="14" viewBox="0 0 14 14" fill="none" xmlns="http://www.w3.org/2000/svg">
<g clip-path="url(#clip0_408_20994)">
<path d="M11.6667 13.1515H2.33333C1.71449 13.1515 1.121 12.9057 0.683417 12.4681C0.245832 12.0305 0 11.437 0 10.8182V3.18181C0 2.56298 0.245832 1.96948 0.683417 1.5319C1.121 1.09431 1.71449 0.848483 2.33333 0.848483H4.45454C4.54548 0.848234 4.63547 0.866972 4.71875 0.903499C4.80203 0.940025 4.87676 0.993535 4.93818 1.0606L7.28848 3.80969H11.6667C11.9738 3.80969 12.2779 3.87032 12.5615 3.98811C12.8452 4.10591 13.1028 4.27854 13.3196 4.4961C13.5364 4.71367 13.7081 4.9719 13.8248 5.25597C13.9416 5.54005 14.0011 5.84438 14 6.15151V10.8182C14 11.437 13.7542 12.0305 13.3166 12.4681C12.879 12.9057 12.2855 13.1515 11.6667 13.1515ZM2.33333 2.12121C2.05204 2.12121 1.78227 2.23295 1.58337 2.43185C1.38447 2.63075 1.27273 2.90052 1.27273 3.18181V10.8182C1.27273 11.0995 1.38447 11.3692 1.58337 11.5681C1.78227 11.767 2.05204 11.8788 2.33333 11.8788H11.6667C11.9479 11.8788 12.2177 11.767 12.4166 11.5681C12.6155 11.3692 12.7273 11.0995 12.7273 10.8182V6.15151C12.7273 5.87022 12.6155 5.60045 12.4166 5.40155C12.2177 5.20264 11.9479 5.0909 11.6667 5.0909H6.99999C6.90842 5.09008 6.81804 5.07001 6.73472 5.03201C6.6514 4.99401 6.57701 4.93891 6.51636 4.8703L4.16606 2.12121H2.33333Z" fill="#212121"/>
</g>
<defs>
<clipPath id="clip0_408_20994">
<rect width="14" height="14" fill="white"/>
</clipPath>
</defs>
</svg>
