<svg width="14" height="14" viewBox="0 0 14 14" fill="none" xmlns="http://www.w3.org/2000/svg">
<g clip-path="url(#clip0_408_20986)">
<path fill-rule="evenodd" clip-rule="evenodd" d="M0.00976251 11.9222H0.000171989V3.59246C-0.00383182 3.32233 0.0455412 3.05407 0.145458 2.80307C0.245376 2.55207 0.393871 2.32326 0.582423 2.12978C0.770976 1.93631 0.995876 1.78196 1.24422 1.67561C1.49256 1.56925 1.75946 1.51298 2.02961 1.51002H3.85458C3.93708 1.50824 4.019 1.52423 4.09478 1.55689C4.17056 1.58956 4.23843 1.63814 4.29379 1.69933L6.31565 4.14526H10.0338C10.3077 4.14418 10.5792 4.19798 10.8321 4.30349C11.0849 4.409 11.3141 4.56407 11.5061 4.75958C11.698 4.95508 11.8489 5.18704 11.9498 5.44179C12.0507 5.69654 12.0995 5.96891 12.0935 6.24284V6.43219H13.4414C13.5386 6.43299 13.6341 6.45841 13.7188 6.50608C13.8036 6.55375 13.8749 6.62212 13.926 6.7048C13.9745 6.79023 14 6.88677 14 6.98498C14 7.0832 13.9745 7.17974 13.926 7.26517L11.3665 12.1873C11.3185 12.2751 11.2487 12.3491 11.1639 12.4022C11.079 12.4552 10.9819 12.4856 10.8819 12.4902H0.568123C0.47089 12.4894 0.375443 12.464 0.290694 12.4163C0.205945 12.3686 0.134656 12.3003 0.0834822 12.2176C0.0350294 12.1322 0.00955963 12.0356 0.00955963 11.9374C0.00955963 11.9323 0.00962737 11.9273 0.00976251 11.9222ZM10.9576 6.43219V6.24284C10.9606 6.11962 10.939 5.99704 10.8939 5.88232C10.8488 5.7676 10.7813 5.66306 10.6952 5.57485C10.6091 5.48664 10.5062 5.41655 10.3926 5.36871C10.279 5.32087 10.157 5.29624 10.0338 5.29628H6.04304C5.96047 5.2961 5.87897 5.27768 5.80435 5.24234C5.72973 5.20699 5.66384 5.15559 5.6114 5.09182L3.58954 2.6459H2.02961C1.78589 2.65382 1.55519 2.75777 1.38781 2.93508C1.22042 3.1124 1.12992 3.3487 1.13605 3.59246V9.63306L2.64299 6.73509C2.69291 6.64398 2.76626 6.56786 2.85546 6.51461C2.94466 6.46136 3.04647 6.4329 3.15035 6.43219H10.9576ZM10.5411 11.3543H1.49954L3.4684 7.56807H12.51L10.5411 11.3543Z" fill="#212121"/>
</g>
<defs>
<clipPath id="clip0_408_20986">
<rect width="14" height="14" fill="white"/>
</clipPath>
</defs>
</svg>
