<svg width="14" height="14" viewBox="0 0 14 14" fill="none" xmlns="http://www.w3.org/2000/svg">
<g clip-path="url(#clip0_408_21004)">
<path d="M13.808 6.56063L7.832 0.960634C7.656 0.800634 7.4 0.752634 7.184 0.848634C6.968 0.944634 6.824 1.16063 6.824 1.40063V6.41663L1.008 0.960634C0.832 0.800634 0.576 0.752634 0.36 0.848634C0.144 0.944634 0 1.16063 0 1.40063V12.6006C0 12.8406 0.144 13.0566 0.36 13.1526C0.44 13.1846 0.52 13.2006 0.6 13.2006C0.752 13.2006 0.896 13.1446 1.008 13.0406L6.824 7.58463V12.6006C6.824 12.8406 6.968 13.0566 7.184 13.1526C7.264 13.1846 7.344 13.2006 7.424 13.2006C7.576 13.2006 7.72 13.1446 7.832 13.0406L13.808 7.44063C13.928 7.32863 14 7.16863 14 7.00063C14 6.83263 13.928 6.67263 13.808 6.56063ZM1.2 11.2166V2.78463L5.696 7.00063L1.2 11.2166ZM8.024 11.2166V2.78463L12.52 7.00063L8.024 11.2166Z" fill="#212121"/>
</g>
<defs>
<clipPath id="clip0_408_21004">
<rect width="14" height="14" fill="white"/>
</clipPath>
</defs>
</svg>
