<svg width="14" height="14" viewBox="0 0 14 14" fill="none" xmlns="http://www.w3.org/2000/svg">
<g clip-path="url(#clip0_1518_32533)">
<path d="M13 3.6H11.88C12.2 3.216 12.4 2.736 12.4 2.2C12.4 0.984 11.416 0 10.2 0C8.856 0 7.672 0.712 7 1.768C6.328 0.712 5.144 0 3.8 0C2.584 0 1.6 0.984 1.6 2.2C1.6 2.736 1.8 3.216 2.12 3.6H1C0.448 3.6 0 4.048 0 4.6V6.6C0 7.08 0.344 7.464 0.8 7.56V13C0.8 13.552 1.248 14 1.8 14H12.2C12.752 14 13.2 13.552 13.2 13V7.56C13.656 7.464 14 7.08 14 6.6V4.6C14 4.048 13.552 3.6 13 3.6ZM12.8 6.4H7.6V4.8H12.8V6.4ZM10.2 1.2C10.752 1.2 11.2 1.648 11.2 2.2C11.2 2.752 10.752 3.2 10.2 3.2H7.672C7.944 2.056 8.976 1.2 10.2 1.2ZM3.8 1.2C5.024 1.2 6.056 2.056 6.328 3.2H3.8C3.248 3.2 2.8 2.752 2.8 2.2C2.8 1.648 3.248 1.2 3.8 1.2ZM1.2 4.8H6.4V6.4H1.2V4.8ZM2 7.6H6.4V12.8H2V7.6ZM12 12.8H7.6V7.6H12V12.8Z" fill="#212121"/>
</g>
<defs>
<clipPath id="clip0_1518_32533">
<rect width="14" height="14" fill="white"/>
</clipPath>
</defs>
</svg>
