<svg width="14" height="14" viewBox="0 0 14 14" fill="none" xmlns="http://www.w3.org/2000/svg">
<g clip-path="url(#clip0_408_21014)">
<path d="M4.68283 11.2619C4.68283 11.3231 4.6216 11.3668 4.53413 11.3668C4.44666 11.3668 4.37669 11.3668 4.37669 11.2619C4.37669 11.157 4.44666 11.157 4.52539 11.157C4.60411 11.157 4.68283 11.2007 4.68283 11.2619ZM3.80813 11.1308C3.80813 11.192 3.80813 11.2619 3.93059 11.2794C3.96191 11.2944 3.99793 11.2964 4.03072 11.285C4.06352 11.2735 4.09042 11.2495 4.10553 11.2182C4.10553 11.157 4.10553 11.0958 3.98307 11.0696C3.86062 11.0433 3.82563 11.0696 3.80813 11.1308ZM5.0502 11.0871C4.97148 11.0871 4.919 11.157 4.92775 11.2269C4.93649 11.2969 5.00647 11.3231 5.09394 11.3056C5.18141 11.2881 5.22514 11.2269 5.2164 11.1657C5.20765 11.1045 5.13767 11.0783 5.0502 11.0871ZM6.91331 0.000549935C5.99082 -0.00812852 5.07609 0.169571 4.224 0.522984C3.37191 0.876398 2.60003 1.39824 1.95469 2.0572C1.30934 2.71615 0.803828 3.49864 0.468484 4.3577C0.133141 5.21676 -0.0251206 6.13468 0.00319703 7.05639C-0.02122 8.56627 0.426751 10.0461 1.28454 11.2891C2.14233 12.5321 3.3671 13.4763 4.78779 13.9898C5.14642 14.051 5.27763 13.8237 5.27763 13.6401C5.27763 13.4565 5.27763 12.4685 5.27763 11.8914C5.27763 11.8914 3.30081 12.3286 2.88095 11.0171C2.88095 11.0171 2.56606 10.1428 2.10247 9.95917C2.10247 9.95917 1.4552 9.50451 2.14621 9.51326C2.37253 9.54376 2.58855 9.62688 2.77691 9.75595C2.96528 9.88502 3.12075 10.0564 3.23083 10.2564C3.32235 10.4358 3.44957 10.5945 3.60467 10.7229C3.75977 10.8513 3.93948 10.9467 4.13278 11.0032C4.32608 11.0597 4.52889 11.0761 4.72877 11.0514C4.92865 11.0268 5.12137 10.9615 5.29512 10.8597C5.32822 10.4947 5.4857 10.1521 5.74122 9.88922C4.16676 9.70561 2.57481 9.47828 2.57481 6.68917C2.55809 6.37409 2.60873 6.05907 2.72336 5.76508C2.83798 5.4711 3.01396 5.2049 3.23958 4.98423C3.02672 4.3442 3.05156 3.64895 3.30956 3.02573C3.90435 2.83338 5.26013 3.80388 5.26013 3.80388C6.41838 3.47735 7.64441 3.47735 8.80266 3.80388C8.80266 3.80388 10.1584 2.83338 10.7532 3.02573C11.0168 3.64773 11.0417 4.34502 10.8232 4.98423C11.0568 5.20186 11.2421 5.46605 11.3671 5.75973C11.4922 6.05341 11.5542 6.37004 11.5492 6.68917C11.5492 9.48703 9.88728 9.70561 8.31283 9.88922C8.47107 10.0666 8.59147 10.2744 8.66666 10.4999C8.74186 10.7254 8.77028 10.9639 8.75018 11.2007C8.75018 12.18 8.75018 13.3865 8.75018 13.6226C8.74961 13.6817 8.7633 13.74 8.79007 13.7926C8.81685 13.8452 8.85593 13.8906 8.904 13.9249C8.95207 13.9593 9.00771 13.9815 9.0662 13.9897C9.12469 13.998 9.18431 13.992 9.24001 13.9723C10.6581 13.4633 11.8804 12.5218 12.7342 11.2809C13.588 10.0399 14.0302 8.56217 13.9984 7.05639C14.0066 6.1253 13.8287 5.20194 13.4753 4.34045C13.1218 3.47897 12.5998 2.6967 11.9399 2.03951C11.28 1.38233 10.4955 0.863463 9.63231 0.513337C8.76916 0.163211 7.84476 -0.0111254 6.91331 0.000549935ZM2.74975 9.97665C2.74975 9.97665 2.74975 10.0728 2.74975 10.1253C2.7595 10.1351 2.77109 10.1428 2.78385 10.1481C2.7966 10.1534 2.81028 10.1561 2.8241 10.1561C2.83791 10.1561 2.85159 10.1534 2.86435 10.1481C2.87711 10.1428 2.8887 10.1351 2.89845 10.1253C2.89845 10.1253 2.89845 10.0291 2.89845 9.96791C2.89845 9.9067 2.78474 9.94168 2.74975 9.97665ZM2.4436 9.74058C2.4436 9.74058 2.4436 9.82802 2.50483 9.85425C2.51221 9.86337 2.52154 9.87074 2.53214 9.87579C2.54273 9.88085 2.55432 9.88348 2.56606 9.88348C2.5778 9.88348 2.58939 9.88085 2.59999 9.87579C2.61058 9.87074 2.61991 9.86337 2.62729 9.85425C2.62729 9.85425 2.62729 9.76681 2.56606 9.74058C2.50483 9.71435 2.4611 9.71435 2.4436 9.74058ZM3.3183 10.7723C3.3183 10.7723 3.3183 10.8947 3.3183 10.9559C3.3183 11.0171 3.467 11.0258 3.50199 10.9559C3.53698 10.886 3.50199 10.8335 3.50199 10.7723C3.50199 10.7111 3.38828 10.7286 3.35329 10.7723H3.3183ZM2.99466 10.3439C2.99466 10.3439 2.99466 10.4488 2.99466 10.5187C2.99466 10.5887 3.11712 10.6149 3.16086 10.5887C3.18301 10.5632 3.19521 10.5306 3.19521 10.4969C3.19521 10.4631 3.18301 10.4305 3.16086 10.4051C3.11712 10.3351 3.04715 10.3089 2.99466 10.3439Z" fill="#212121"/>
</g>
<defs>
<clipPath id="clip0_408_21014">
<rect width="14" height="14" fill="white"/>
</clipPath>
</defs>
</svg>
