<svg width="14" height="14" viewBox="0 0 14 14" fill="none" xmlns="http://www.w3.org/2000/svg">
<g clip-path="url(#clip0_408_21021)">
<path d="M7 0C5.61553 0 4.26215 0.410543 3.11101 1.17971C1.95987 1.94888 1.06266 3.04213 0.532846 4.32121C0.00303295 5.6003 -0.13559 7.00776 0.134506 8.36563C0.404603 9.7235 1.07129 10.9708 2.05025 11.9497C3.02922 12.9287 4.2765 13.5954 5.63437 13.8655C6.99224 14.1356 8.3997 13.997 9.67878 13.4672C10.9579 12.9373 12.0511 12.0401 12.8203 10.889C13.5895 9.73784 14 8.38447 14 7C14 5.14348 13.2625 3.36301 11.9497 2.05025C10.637 0.737498 8.85651 0 7 0ZM12.8022 6.41666H10.6556C10.3839 4.54301 9.59158 2.78327 8.36889 1.33778C9.54159 1.62345 10.5972 2.26492 11.3909 3.17423C12.1846 4.08353 12.6776 5.21612 12.8022 6.41666ZM4.51889 7.58333H9.48111C9.12186 9.42574 8.26362 11.1341 7 12.5222C5.73638 11.1341 4.87814 9.42574 4.51889 7.58333ZM4.51889 6.41666C4.87814 4.57426 5.73638 2.86586 7 1.47778C8.26362 2.86586 9.12186 4.57426 9.48111 6.41666H4.51889ZM5.63111 1.33778C4.40842 2.78327 3.61614 4.54301 3.34445 6.41666H1.19778C1.32239 5.21612 1.81536 4.08353 2.60908 3.17423C3.40281 2.26492 4.45841 1.62345 5.63111 1.33778ZM1.19778 7.56H3.34445C3.61614 9.43366 4.40842 11.1934 5.63111 12.6389C4.46185 12.3546 3.40872 11.7166 2.61534 10.8119C1.82196 9.90713 1.32694 8.77971 1.19778 7.58333V7.56ZM8.36889 12.6389C9.59158 11.1934 10.3839 9.43366 10.6556 7.56H12.8022C12.6822 8.7647 12.1913 9.90247 11.3972 10.8164C10.6031 11.7302 9.54504 12.3752 8.36889 12.6622V12.6389Z" fill="#212121"/>
</g>
<defs>
<clipPath id="clip0_408_21021">
<rect width="14" height="14" fill="white"/>
</clipPath>
</defs>
</svg>
