<svg width="14" height="14" viewBox="0 0 14 14" fill="none" xmlns="http://www.w3.org/2000/svg">
<g clip-path="url(#clip0_334_13323)">
<path d="M13.9352 5.92363L13.8549 5.6174H7.21256V8.38228H11.1854C10.9638 9.22597 10.4598 9.97241 9.75409 10.5022C9.04841 11.032 8.1818 11.3146 7.29291 11.3047C6.13303 11.2953 5.01859 10.8615 4.16817 10.0885C3.75012 9.68464 3.41745 9.20397 3.18919 8.67399C2.96092 8.144 2.84156 7.57509 2.83792 6.99984C2.85142 5.84442 3.31817 4.73842 4.14139 3.91122C4.9798 3.13281 6.09342 2.70316 7.24827 2.71251C8.23737 2.71997 9.1897 3.08086 9.92662 3.72747L11.8907 1.75005C10.5962 0.61816 8.92061 -0.00505439 7.18578 0.000125704C6.23143 -0.00543107 5.2853 0.173292 4.40143 0.52609C3.51756 0.878887 2.71324 1.39885 2.03442 2.05629C0.743183 3.37073 0.0151815 5.12024 0.000234769 6.94478C-0.0147119 8.76931 0.684534 10.5301 1.95407 11.8646C2.65744 12.5514 3.49342 13.0939 4.41316 13.4605C5.33289 13.8271 6.31795 14.0103 7.31077 13.9996C8.2111 14.0061 9.10341 13.8335 9.93364 13.492C10.7639 13.1506 11.5147 12.6476 12.1407 12.0134C13.3691 10.6896 14.0336 8.95507 13.9977 7.16608C14.0074 6.751 13.9865 6.33577 13.9352 5.92363Z" fill="#212121"/>
</g>
<defs>
<clipPath id="clip0_334_13323">
<rect width="14" height="14" fill="white"/>
</clipPath>
</defs>
</svg>
