<svg width="14" height="14" viewBox="0 0 14 14" fill="none" xmlns="http://www.w3.org/2000/svg">
<g clip-path="url(#clip0_408_21028)">
<path d="M13.4615 3.58975H11.3077L11.8605 1.38565C11.8948 1.24665 11.8724 1.09972 11.7984 0.977199C11.7243 0.854675 11.6046 0.766587 11.4656 0.732313C11.3266 0.698039 11.1797 0.720386 11.0572 0.794439C10.9347 0.868492 10.8466 0.988184 10.8123 1.12718L10.1949 3.58975H5.5641L6.11692 1.38565C6.1512 1.24665 6.12885 1.09972 6.0548 0.977199C5.98074 0.854675 5.86105 0.766587 5.72205 0.732313C5.58305 0.698039 5.43613 0.720386 5.3136 0.794439C5.19108 0.868492 5.10299 0.988184 5.06872 1.12718L4.42256 3.58975H1.97436C1.83155 3.58975 1.69459 3.64648 1.59361 3.74746C1.49263 3.84844 1.4359 3.9854 1.4359 4.12821C1.4359 4.27102 1.49263 4.40798 1.59361 4.50896C1.69459 4.60994 1.83155 4.66667 1.97436 4.66667H4.12821L2.95795 9.33334H0.538462C0.395653 9.33334 0.258693 9.39007 0.157712 9.49105C0.0567305 9.59203 0 9.72899 0 9.8718C0 10.0146 0.0567305 10.1516 0.157712 10.2525C0.258693 10.3535 0.395653 10.4103 0.538462 10.4103H2.69231L2.13949 12.6144C2.10521 12.7534 2.12756 12.9003 2.20161 13.0228C2.27567 13.1453 2.39536 13.2334 2.53436 13.2677C2.67336 13.302 2.82028 13.2796 2.94281 13.2056C3.06533 13.1315 3.15342 13.0118 3.18769 12.8728L3.80513 10.4103H8.4359L7.88308 12.6144C7.8488 12.7534 7.87115 12.9003 7.9452 13.0228C8.01926 13.1453 8.13895 13.2334 8.27795 13.2677C8.41695 13.302 8.56387 13.2796 8.6864 13.2056C8.80892 13.1315 8.89701 13.0118 8.93128 12.8728L9.54872 10.4103H12.0256C12.1685 10.4103 12.3054 10.3535 12.4064 10.2525C12.5074 10.1516 12.5641 10.0146 12.5641 9.8718C12.5641 9.72899 12.5074 9.59203 12.4064 9.49105C12.3054 9.39007 12.1685 9.33334 12.0256 9.33334H9.87179L11.0421 4.66667H13.4615C13.6043 4.66667 13.7413 4.60994 13.8423 4.50896C13.9433 4.40798 14 4.27102 14 4.12821C14 3.9854 13.9433 3.84844 13.8423 3.74746C13.7413 3.64648 13.6043 3.58975 13.4615 3.58975ZM9.87179 4.66667L8.70154 9.33334H4.12821L5.29846 4.66667H9.87179Z" fill="#212121"/>
</g>
<defs>
<clipPath id="clip0_408_21028">
<rect width="14" height="14" fill="white"/>
</clipPath>
</defs>
</svg>
