<svg width="14" height="14" viewBox="0 0 14 14" fill="none" xmlns="http://www.w3.org/2000/svg">
<g clip-path="url(#clip0_408_21035)">
<path d="M12.8415 1.96287C12.4733 1.59068 12.0348 1.29546 11.5514 1.0944C11.0681 0.893345 10.5495 0.790466 10.026 0.79176C9.50249 0.790466 8.98395 0.893345 8.50058 1.0944C8.01722 1.29546 7.57868 1.59068 7.21052 1.96287L6.98593 2.19549L6.76133 1.97089C6.01672 1.22636 5.00686 0.808089 3.95387 0.808089C2.90089 0.808089 1.89102 1.22636 1.14641 1.97089C0.411553 2.7206 -6.10352e-05 3.72855 -6.10352e-05 4.77835C-6.10352e-05 5.82815 0.411553 6.8361 1.14641 7.58581L6.57684 13.0323C6.68964 13.1449 6.84255 13.2082 7.00197 13.2082C7.16139 13.2082 7.3143 13.1449 7.4271 13.0323L12.8575 7.58581C13.5927 6.83364 14.0029 5.82281 13.9999 4.77106C13.9969 3.71931 13.5809 2.71083 12.8415 1.96287Z" fill="#212121"/>
</g>
<defs>
<clipPath id="clip0_408_21035">
<rect width="14" height="14" fill="white"/>
</clipPath>
</defs>
</svg>
