<svg width="14" height="14" viewBox="0 0 14 14" fill="none" xmlns="http://www.w3.org/2000/svg">
<g clip-path="url(#clip0_408_21042)">
<path d="M6.99994 13.2108C6.84049 13.2106 6.68761 13.1472 6.57493 13.0343L1.14608 7.58944C0.411434 6.83995 -6.10352e-05 5.8323 -6.10352e-05 4.7828C-6.10352e-05 3.7333 0.411434 2.72565 1.14608 1.97616C1.89048 1.23184 2.90005 0.813689 3.95272 0.813689C5.0054 0.813689 6.01497 1.23184 6.75937 1.97616L6.99994 2.18465L7.22447 1.96012C7.59252 1.58804 8.03093 1.2929 8.51416 1.0919C8.99738 0.890901 9.51577 0.788053 10.0391 0.789346C10.5619 0.787004 11.08 0.88859 11.5632 1.0882C12.0464 1.28781 12.4851 1.58147 12.8538 1.9521C13.5884 2.70159 13.9999 3.70925 13.9999 4.75874C13.9999 5.80824 13.5884 6.8159 12.8538 7.56539L7.42494 13.0103C7.37118 13.0705 7.30585 13.1193 7.23283 13.1537C7.15981 13.1882 7.08061 13.2076 6.99994 13.2108ZM3.96074 1.98417C3.59655 1.98152 3.23543 2.05102 2.89823 2.18865C2.56103 2.32629 2.25442 2.52933 1.99609 2.78607C1.47556 3.30904 1.18333 4.01687 1.18333 4.75473C1.18333 5.4926 1.47556 6.20043 1.99609 6.72339L6.99994 11.7593L11.9958 6.73943C12.2545 6.48101 12.4597 6.17412 12.5997 5.83632C12.7398 5.49853 12.8118 5.13644 12.8118 4.77077C12.8118 4.4051 12.7398 4.04302 12.5997 3.70522C12.4597 3.36742 12.2545 3.06054 11.9958 2.80211C11.7395 2.54489 11.4344 2.34145 11.0984 2.20375C10.7624 2.06604 10.4022 1.99684 10.0391 2.00021C9.67493 1.99756 9.31382 2.06706 8.97661 2.20469C8.63941 2.34232 8.33281 2.54537 8.07448 2.80211L7.42494 3.45165C7.31022 3.56051 7.15809 3.62119 6.99994 3.62119C6.84178 3.62119 6.68966 3.56051 6.57493 3.45165L5.92539 2.80211C5.66839 2.54247 5.36238 2.33647 5.02512 2.19606C4.68786 2.05565 4.32607 1.98363 3.96074 1.98417Z" fill="#212121"/>
</g>
<defs>
<clipPath id="clip0_408_21042">
<rect width="14" height="14" fill="white"/>
</clipPath>
</defs>
</svg>
