<svg width="14" height="14" viewBox="0 0 14 14" fill="none" xmlns="http://www.w3.org/2000/svg">
<g clip-path="url(#clip0_408_21050)">
<path fill-rule="evenodd" clip-rule="evenodd" d="M7.10616 0.111358C8.93333 0.111358 10.6861 0.835194 11.9808 2.12445C13.2737 3.41729 14 5.17077 14 6.99913C14 8.82749 13.2737 10.581 11.9808 11.8738C10.688 13.1667 8.93452 13.893 7.10616 13.893C5.2778 13.893 3.52433 13.1667 2.23148 11.8738C2.17322 11.817 2.12691 11.7492 2.0953 11.6742C2.06368 11.5993 2.04739 11.5187 2.04739 11.4374C2.04739 11.356 2.06368 11.2755 2.0953 11.2006C2.12691 11.1256 2.17322 11.0577 2.23148 11.001C2.34728 10.8853 2.50424 10.8204 2.6679 10.8204C2.83156 10.8204 2.98852 10.8853 3.10431 11.001C8.63773 16.098 16.205 8.506 11.108 2.99728C10.0459 1.93732 8.60668 1.34202 7.10616 1.34202C5.60564 1.34202 4.16641 1.93732 3.10431 2.99728L2.05856 4.01833H4.52884C4.69263 4.01833 4.84971 4.08339 4.96553 4.19921C5.08134 4.31503 5.14641 4.47211 5.14641 4.6359C5.14641 4.79969 5.08134 4.95677 4.96553 5.07258C4.84971 5.1884 4.69263 5.25347 4.52884 5.25347H0.617569C0.453027 5.2513 0.295959 5.18441 0.180373 5.06729C0.064787 4.95016 -1.42408e-05 4.79222 2.34745e-09 4.62766V0.724625C2.34745e-09 0.560835 0.0650651 0.403754 0.180882 0.287937C0.296698 0.172121 0.45378 0.107056 0.617569 0.107056C0.781359 0.107056 0.93844 0.172121 1.05426 0.287937C1.17007 0.403754 1.23514 0.560835 1.23514 0.724625V3.12079L2.23148 2.12445C3.52623 0.835194 5.27899 0.111358 7.10616 0.111358ZM6.56483 3.68281C6.68019 3.56746 6.83603 3.50171 6.99916 3.49957C7.15795 3.50793 7.3076 3.57642 7.41771 3.69112C7.52783 3.80583 7.59016 3.95815 7.59203 4.11714V6.76857L9.46944 8.64598C9.53926 8.73045 9.58534 8.83197 9.60296 8.94013C9.62058 9.04829 9.60911 9.15919 9.56971 9.26145C9.53032 9.36371 9.46442 9.45364 9.37879 9.52203C9.29316 9.59041 9.19087 9.63477 9.08243 9.65056C9.00129 9.65094 8.92089 9.63512 8.84595 9.60401C8.771 9.5729 8.70303 9.52714 8.64601 9.46941L6.56275 7.43555C6.4469 7.31984 6.38174 7.16287 6.38159 6.99913V4.11714C6.38372 3.95402 6.44947 3.79817 6.56483 3.68281Z" fill="#212121"/>
</g>
<defs>
<clipPath id="clip0_408_21050">
<rect width="14" height="14" fill="white"/>
</clipPath>
</defs>
</svg>
