<svg width="14" height="14" viewBox="0 0 14 14" fill="none" xmlns="http://www.w3.org/2000/svg">
<path d="M12 12.8H11.472C11.168 11.712 10.232 9.008 7.95202 7C10.232 4.992 11.168 2.288 11.472 1.2H12C12.328 1.2 12.6 0.928 12.6 0.6C12.6 0.272 12.328 0 12 0H2.00002C1.67202 0 1.40002 0.272 1.40002 0.6C1.40002 0.928 1.67202 1.2 2.00002 1.2H2.52802C2.83202 2.288 3.76802 4.992 6.04802 7C3.76802 9.008 2.83202 11.712 2.52802 12.8H2.00002C1.67202 12.8 1.40002 13.072 1.40002 13.4C1.40002 13.728 1.67202 14 2.00002 14H12C12.328 14 12.6 13.728 12.6 13.4C12.6 13.072 12.328 12.8 12 12.8ZM3.78402 1.2H10.208C9.84802 2.336 8.92802 4.6 6.99202 6.224C5.05602 4.592 4.13602 2.336 3.77602 1.2H3.78402ZM7.00002 7.776C8.93602 9.408 9.85602 11.664 10.216 12.8H3.78402C4.14402 11.664 5.06402 9.4 7.00002 7.776Z" fill="#212121"/>
</svg>
