<svg width="14" height="14" viewBox="0 0 14 14" fill="none" xmlns="http://www.w3.org/2000/svg">
<path fill-rule="evenodd" clip-rule="evenodd" d="M12.6 12.4H1.4C1.02934 12.3979 0.674468 12.2497 0.412371 11.9876C0.150274 11.7255 0.00210008 11.3706 0 11V2.99998C0.00210008 2.62932 0.150274 2.27444 0.412371 2.01235C0.674468 1.75025 1.02934 1.60208 1.4 1.59998H12.6C12.9707 1.60208 13.3255 1.75025 13.5876 2.01235C13.8497 2.27444 13.9979 2.62932 14 2.99998V11C13.9979 11.3706 13.8497 11.7255 13.5876 11.9876C13.3255 12.2497 12.9707 12.3979 12.6 12.4ZM1.4 2.79998C1.34696 2.79998 1.29609 2.82105 1.25858 2.85855C1.22107 2.89606 1.2 2.94693 1.2 2.99998V11C1.2 11.053 1.22107 11.1039 1.25858 11.1414C1.29609 11.1789 1.34696 11.2 1.4 11.2H12.6C12.653 11.2 12.7039 11.1789 12.7414 11.1414C12.7789 11.1039 12.8 11.053 12.8 11V2.99998C12.8 2.94693 12.7789 2.89606 12.7414 2.85855C12.7039 2.82105 12.653 2.79998 12.6 2.79998H1.4ZM4.6 6.79998C4.28355 6.79998 3.97421 6.70614 3.71109 6.53033C3.44797 6.35452 3.24289 6.10463 3.12179 5.81227C3.00069 5.51991 2.96901 5.1982 3.03074 4.88783C3.09248 4.57746 3.24487 4.29237 3.46863 4.06861C3.69239 3.84484 3.97749 3.69246 4.28786 3.63072C4.59823 3.56898 4.91993 3.60067 5.21229 3.72177C5.50466 3.84287 5.75454 4.04795 5.93035 4.31106C6.10616 4.57418 6.2 4.88353 6.2 5.19998C6.2 5.62432 6.03143 6.03129 5.73137 6.33135C5.43131 6.63141 5.02435 6.79998 4.6 6.79998ZM4.6 4.79998C4.52089 4.79998 4.44355 4.82344 4.37777 4.86739C4.31199 4.91134 4.26072 4.97381 4.23045 5.0469C4.20017 5.11999 4.19225 5.20042 4.20769 5.27801C4.22312 5.35561 4.26122 5.42688 4.31716 5.48282C4.3731 5.53876 4.44437 5.57686 4.52196 5.59229C4.59956 5.60773 4.67998 5.5998 4.75307 5.56953C4.82616 5.53925 4.88864 5.48798 4.93259 5.4222C4.97654 5.35643 5 5.27909 5 5.19998C5 5.09389 4.95786 4.99215 4.88284 4.91713C4.80783 4.84212 4.70609 4.79998 4.6 4.79998ZM6.57803 9.82192C6.69011 9.934 6.84152 9.99788 7.00001 9.99995C7.15849 9.99788 7.3099 9.934 7.42198 9.82192C7.53405 9.70985 7.59793 9.55844 7.60001 9.39995C7.60001 7.19995 5.34401 7.19995 4.60001 7.19995C3.85601 7.19995 1.60001 7.19995 1.60001 9.39995C1.60001 9.55908 1.66322 9.71169 1.77574 9.82421C1.88826 9.93674 2.04088 9.99995 2.20001 9.99995C2.35914 9.99995 2.51175 9.93674 2.62427 9.82421C2.73679 9.71169 2.80001 9.55908 2.80001 9.39995C2.80001 8.85595 2.93601 8.39995 4.60001 8.39995C6.26401 8.39995 6.40001 8.85595 6.40001 9.39995C6.40208 9.55844 6.46596 9.70985 6.57803 9.82192ZM11 5.99999H8.6C8.44087 5.99999 8.28826 5.93677 8.17574 5.82425C8.06321 5.71173 8 5.55912 8 5.39999C8 5.24086 8.06321 5.08825 8.17574 4.97572C8.28826 4.8632 8.44087 4.79999 8.6 4.79999H11C11.1591 4.79999 11.3117 4.8632 11.4243 4.97572C11.5368 5.08825 11.6 5.24086 11.6 5.39999C11.6 5.55912 11.5368 5.71173 11.4243 5.82425C11.3117 5.93677 11.1591 5.99999 11 5.99999ZM8.6 8.39995H10.2C10.3591 8.39995 10.5117 8.33674 10.6243 8.22422C10.7368 8.11169 10.8 7.95908 10.8 7.79995C10.8 7.64082 10.7368 7.48821 10.6243 7.37569C10.5117 7.26317 10.3591 7.19995 10.2 7.19995H8.6C8.44087 7.19995 8.28826 7.26317 8.17574 7.37569C8.06321 7.48821 8 7.64082 8 7.79995C8 7.95908 8.06321 8.11169 8.17574 8.22422C8.28826 8.33674 8.44087 8.39995 8.6 8.39995Z" fill="#212121"/>
</svg>
