<svg width="14" height="14" viewBox="0 0 14 14" fill="none" xmlns="http://www.w3.org/2000/svg">
<g clip-path="url(#clip0_343_12822)">
<path d="M11.8 0.799988H2.2C1.61652 0.799988 1.05694 1.03177 0.644365 1.44435C0.231785 1.85693 0 2.41651 0 2.99999V11C0 11.5835 0.231785 12.143 0.644365 12.5556C1.05694 12.9682 1.61652 13.2 2.2 13.2H11.8C12.3835 13.2 12.9431 12.9682 13.3556 12.5556C13.7682 12.143 14 11.5835 14 11V2.99999C14 2.41651 13.7682 1.85693 13.3556 1.44435C12.9431 1.03177 12.3835 0.799988 11.8 0.799988ZM2.2 1.99999H11.8C12.0652 1.99999 12.3196 2.10534 12.5071 2.29288C12.6946 2.48042 12.8 2.73477 12.8 2.99999V9.55199L10.624 7.37599C10.5671 7.31519 10.4974 7.26785 10.4199 7.2374C10.3424 7.20695 10.2591 7.19417 10.176 7.19999C10.092 7.20488 10.0098 7.2265 9.93421 7.26359C9.85865 7.30069 9.79126 7.3525 9.736 7.41599L8.704 8.65599L5.024 4.97599C4.96977 4.91836 4.90395 4.87288 4.83086 4.84254C4.75778 4.81221 4.6791 4.7977 4.6 4.79999C4.51597 4.80488 4.43376 4.8265 4.35821 4.86359C4.28265 4.90069 4.21526 4.9525 4.16 5.01599L1.2 8.54399V2.99999C1.2 2.73477 1.30536 2.48042 1.49289 2.29288C1.68043 2.10534 1.93478 1.99999 2.2 1.99999ZM1.2 11V10.416L4.64 6.28799L7.936 9.58399L5.92 11.984H2.2C1.93753 11.984 1.68557 11.8809 1.49849 11.6968C1.31141 11.5127 1.2042 11.2624 1.2 11ZM11.8 12H7.48L10.24 8.68799L12.76 11.208C12.7158 11.4304 12.596 11.6307 12.4211 11.775C12.2462 11.9193 12.0268 11.9988 11.8 12Z" fill="#212121"/>
</g>
<defs>
<clipPath id="clip0_343_12822">
<rect width="14" height="14" fill="white"/>
</clipPath>
</defs>
</svg>
