<svg width="14" height="14" viewBox="0 0 14 14" fill="none" xmlns="http://www.w3.org/2000/svg">
<g clip-path="url(#clip0_408_21084)">
<path d="M11.9189 0.756714H4.35135C3.79941 0.756714 3.27008 0.97597 2.8798 1.36625C2.48953 1.75653 2.27027 2.28586 2.27027 2.8378V3.02698H2.08108C1.52914 3.02698 0.999813 3.24624 0.609535 3.63652C0.219256 4.0268 0 4.55613 0 5.10807V11.1621C0 11.7141 0.219256 12.2434 0.609535 12.6337C0.999813 13.0239 1.52914 13.2432 2.08108 13.2432H9.64865C10.2006 13.2432 10.7299 13.0239 11.1202 12.6337C11.5105 12.2434 11.7297 11.7141 11.7297 11.1621V10.9729H11.9189C12.4709 10.9729 13.0002 10.7537 13.3905 10.3634C13.7807 9.97312 14 9.44379 14 8.89185V2.8378C14 2.28586 13.7807 1.75653 13.3905 1.36625C13.0002 0.97597 12.4709 0.756714 11.9189 0.756714ZM3.40541 2.8378C3.40541 2.58691 3.50507 2.34631 3.68247 2.16891C3.85987 1.99151 4.10047 1.89185 4.35135 1.89185H11.9189C12.1698 1.89185 12.4104 1.99151 12.5878 2.16891C12.7652 2.34631 12.8649 2.58691 12.8649 2.8378V7.52969L11.147 6.08428C11.0911 6.03565 11.026 5.9986 10.9557 5.9753C10.8853 5.952 10.811 5.9429 10.7371 5.94853C10.6632 5.95416 10.5911 5.97441 10.5251 6.00811C10.459 6.0418 10.4004 6.08827 10.3524 6.14482L9.5427 7.09834L6.51568 4.16212C6.4673 4.10443 6.40717 4.05772 6.33932 4.0251C6.27146 3.99247 6.19743 3.97469 6.12216 3.97293C6.04418 3.97587 5.96764 3.99486 5.89733 4.02872C5.82702 4.06257 5.76444 4.11056 5.71351 4.16969L3.40541 6.91671V2.8378ZM4.35135 9.8378C4.10047 9.8378 3.85987 9.73813 3.68247 9.56073C3.50507 9.38334 3.40541 9.14273 3.40541 8.89185V8.66482L6.1827 5.39563L8.80108 7.96104L7.21189 9.8378H4.35135ZM10.5946 11.1621C10.5946 11.413 10.4949 11.6536 10.3175 11.831C10.1401 12.0084 9.89953 12.1081 9.64865 12.1081H2.08108C1.8302 12.1081 1.5896 12.0084 1.4122 11.831C1.2348 11.6536 1.13514 11.413 1.13514 11.1621V5.10807C1.13514 4.85718 1.2348 4.61658 1.4122 4.43918C1.5896 4.26178 1.8302 4.16212 2.08108 4.16212H2.27027V8.89185C2.27027 9.44379 2.48953 9.97312 2.8798 10.3634C3.27008 10.7537 3.79941 10.9729 4.35135 10.9729H10.5946V11.1621ZM11.9189 9.8378H8.7027L10.8519 7.31023L12.8422 8.9978C12.8197 9.2273 12.7128 9.44029 12.5422 9.59548C12.3716 9.75067 12.1495 9.83702 11.9189 9.8378Z" fill="#212121"/>
</g>
<defs>
<clipPath id="clip0_408_21084">
<rect width="14" height="14" fill="white"/>
</clipPath>
</defs>
</svg>
