<svg width="14" height="14" viewBox="0 0 14 14" fill="none" xmlns="http://www.w3.org/2000/svg">
<g clip-path="url(#clip0_408_21092)">
<path fill-rule="evenodd" clip-rule="evenodd" d="M5.02954 8.85845C5.57541 9.33664 6.27653 9.60006 7.00223 9.59963C7.72794 9.60006 8.42905 9.33664 8.97493 8.85845C9.5208 8.38025 9.87421 7.71991 9.96929 7.00046H12.8004V11.2231C12.8004 11.4882 12.695 11.7425 12.5076 11.93C12.3201 12.1175 12.0658 12.2228 11.8007 12.2228H2.20375C2.07043 12.2228 1.93845 12.1962 1.81557 12.1445C1.69269 12.0927 1.5814 12.0169 1.48825 11.9216C1.3951 11.8262 1.32197 11.7131 1.27317 11.5891C1.22437 11.465 1.20087 11.3324 1.20407 11.1991V7.00046H4.03518C4.13026 7.71991 4.48366 8.38025 5.02954 8.85845ZM0.00445557 6.47364C0.000834309 6.4441 -0.00059569 6.41422 0.00022464 6.38425C0.00317024 6.27664 0.0350217 6.17181 0.0924378 6.08075L3.07549 1.28228C3.19796 1.06807 3.37674 0.89148 3.59243 0.771648C3.80813 0.651816 4.05252 0.593319 4.2991 0.602498H9.70537C9.96891 0.603226 10.2268 0.678775 10.4491 0.820355C10.6714 0.961935 10.8489 1.16372 10.961 1.40224L13.8073 5.98419C13.8131 5.98951 13.8187 5.99495 13.8243 6.00051C13.9368 6.113 14 6.26556 14 6.42464V11.2231C13.9937 11.8022 13.7592 12.3555 13.3474 12.7628C12.9356 13.17 12.3798 13.3985 11.8007 13.3984H2.20375C1.91494 13.3984 1.62895 13.3415 1.36212 13.231C1.09529 13.1205 0.852839 12.9585 0.648615 12.7543C0.444391 12.55 0.282392 12.3076 0.171867 12.0408C0.0613421 11.7739 0.00445557 11.4879 0.00445557 11.1991V6.47364ZM4.603 5.82483H1.68393L4.11515 1.89009C4.13334 1.85696 4.15989 1.82919 4.19217 1.80954C4.22445 1.78989 4.26132 1.77906 4.2991 1.77812H9.71337C9.79334 1.77812 9.85732 1.82611 9.9213 1.93807L12.3205 5.82483H9.40147C9.24239 5.82483 9.08982 5.88803 8.97734 6.00051C8.86485 6.113 8.80166 6.26556 8.80166 6.42464V6.60058C8.80166 7.07782 8.61208 7.53551 8.27462 7.87297C7.93716 8.21043 7.47947 8.40001 7.00223 8.40001C6.525 8.40001 6.0673 8.21043 5.72985 7.87297C5.39239 7.53551 5.20281 7.07782 5.20281 6.60058V6.42464C5.20281 6.26556 5.13961 6.113 5.02713 6.00051C4.91464 5.88803 4.76208 5.82483 4.603 5.82483Z" fill="#212121"/>
</g>
<defs>
<clipPath id="clip0_408_21092">
<rect width="14" height="14" fill="white"/>
</clipPath>
</defs>
</svg>
