<svg width="14" height="14" viewBox="0 0 14 14" fill="none" xmlns="http://www.w3.org/2000/svg">
<path fill-rule="evenodd" clip-rule="evenodd" d="M6.35795 2.16387C6.5285 2.33442 6.75891 2.43163 7.00008 2.43478C7.24125 2.43163 7.47166 2.33442 7.64221 2.16387C7.81276 1.99332 7.90997 1.76291 7.91312 1.52174V0.913043C7.91312 0.670889 7.81693 0.438653 7.6457 0.267424C7.47447 0.0961953 7.24223 0 7.00008 0C6.75793 0 6.52569 0.0961953 6.35446 0.267424C6.18323 0.438653 6.08704 0.670889 6.08704 0.913043V1.52174C6.09019 1.76291 6.1874 1.99332 6.35795 2.16387ZM6.35795 13.7291C6.5285 13.8996 6.75891 13.9968 7.00008 14C7.24125 13.9968 7.47166 13.8996 7.64221 13.7291C7.81276 13.5585 7.90997 13.3281 7.91312 13.0869V4.5652C7.91312 4.32305 7.81693 4.09081 7.6457 3.91959C7.47447 3.74836 7.24223 3.65216 7.00008 3.65216C6.75793 3.65216 6.52569 3.74836 6.35446 3.91959C6.18323 4.09081 6.08704 4.32305 6.08704 4.5652V13.0869C6.09019 13.3281 6.1874 13.5585 6.35795 13.7291Z" fill="#212121"/>
</svg>
