<svg width="14" height="14" viewBox="0 0 14 14" fill="none" xmlns="http://www.w3.org/2000/svg">
<g clip-path="url(#clip0_409_21124)">
<path d="M7 3.40257C6.28913 3.40257 5.59422 3.61317 5.00315 4.00774C4.41208 4.4023 3.9514 4.96312 3.67936 5.61927C3.40732 6.27541 3.33614 6.99741 3.47482 7.69397C3.61351 8.39053 3.95583 9.03036 4.45849 9.53256C4.96115 10.0347 5.60158 10.3767 6.2988 10.5153C6.99601 10.6539 7.71869 10.5827 8.37546 10.311C9.03222 10.0392 9.59356 9.57892 9.9885 8.98841C10.3834 8.39789 10.5942 7.70364 10.5942 6.99343C10.5954 6.52155 10.5032 6.05409 10.323 5.6179C10.1428 5.18172 9.87808 4.7854 9.54409 4.45173C9.2101 4.11806 8.81342 3.8536 8.37682 3.67355C7.94023 3.4935 7.47233 3.40141 7 3.40257ZM7 9.33187C6.53707 9.33187 6.08453 9.19473 5.69961 8.93777C5.31469 8.68082 5.01469 8.31561 4.83753 7.88831C4.66037 7.46102 4.61402 6.99084 4.70434 6.53722C4.79465 6.08361 5.01757 5.66694 5.34492 5.3399C5.67226 5.01287 6.08932 4.79015 6.54336 4.69992C6.9974 4.60969 7.46803 4.656 7.89572 4.83299C8.32342 5.00998 8.68898 5.30971 8.94617 5.69426C9.20336 6.07882 9.34064 6.53093 9.34064 6.99343C9.34064 7.61362 9.09404 8.20842 8.65508 8.64696C8.21613 9.0855 7.62078 9.33187 7 9.33187ZM11.5848 3.25368C11.5848 3.4269 11.5334 3.59623 11.4371 3.74026C11.3408 3.88428 11.2039 3.99654 11.0437 4.06283C10.8835 4.12912 10.7072 4.14646 10.5372 4.11267C10.3671 4.07887 10.2109 3.99546 10.0883 3.87297C9.96572 3.75049 9.88223 3.59443 9.8484 3.42454C9.81458 3.25465 9.83194 3.07855 9.89829 2.91851C9.96464 2.75848 10.077 2.62169 10.2212 2.52546C10.3653 2.42922 10.5348 2.37785 10.7082 2.37785C10.9407 2.37785 11.1637 2.47013 11.3281 2.63438C11.4925 2.79862 11.5848 3.02139 11.5848 3.25368ZM13.9606 4.1295C13.986 3.0407 13.5795 1.98601 12.8297 1.1955C12.0427 0.436761 10.9865 0.020982 9.89292 0.0394119C8.75329 -0.0131373 5.24671 -0.0131373 4.10708 0.0394119C3.01759 0.0158429 1.9626 0.421709 1.17032 1.16922C0.420468 1.95973 0.0139509 3.01442 0.039449 4.10322C-0.0131497 5.24179 -0.0131497 8.74507 0.039449 9.88364C0.0139509 10.9724 0.420468 12.0271 1.17032 12.8176C1.9626 13.5652 3.01759 13.971 4.10708 13.9475C5.26425 14.0175 8.73575 14.0175 9.89292 13.9475C10.9827 13.9729 12.0384 13.5668 12.8297 12.8176C13.5795 12.0271 13.986 10.9724 13.9606 9.88364C14.0132 8.74507 14.0132 5.24179 13.9606 4.10322V4.1295ZM12.4703 11.1361C12.3512 11.4373 12.1715 11.7109 11.9423 11.9399C11.7131 12.1689 11.4393 12.3484 11.1378 12.4673C9.77685 12.7422 8.38559 12.8364 7 12.7476C5.61732 12.8366 4.22893 12.7423 2.87101 12.4673C2.5695 12.3484 2.29565 12.1689 2.06643 11.9399C1.83722 11.7109 1.65753 11.4373 1.53851 11.1361C1.17032 10.2077 1.24922 8.01814 1.24922 7.00219C1.24922 5.98624 1.17032 3.78793 1.53851 2.86831C1.65418 2.56411 1.83258 2.28761 2.06214 2.05676C2.2917 1.8259 2.56729 1.64586 2.87101 1.52831C4.22893 1.25328 5.61732 1.15904 7 1.24805C8.38559 1.15919 9.77685 1.25342 11.1378 1.52831C11.4393 1.64722 11.7131 1.82674 11.9423 2.05574C12.1715 2.28473 12.3512 2.55833 12.4703 2.85956C12.8384 3.78793 12.7508 5.97748 12.7508 6.99343C12.7508 8.00938 12.8384 10.2077 12.4703 11.1273V11.1361Z" fill="#212121"/>
</g>
<defs>
<clipPath id="clip0_409_21124">
<rect width="14" height="14" fill="white"/>
</clipPath>
</defs>
</svg>
