<svg width="14" height="14" viewBox="0 0 14 14" fill="none" xmlns="http://www.w3.org/2000/svg">
<g clip-path="url(#clip0_409_21134)">
<path fill-rule="evenodd" clip-rule="evenodd" d="M7.4055 8.86435C7.96296 9.09446 8.56038 9.21224 9.16347 9.21094C10.2295 9.21094 11.2624 8.84116 12.0862 8.16465C12.91 7.48814 13.4737 6.54681 13.681 5.50118C13.8883 4.45555 13.7265 3.37038 13.2231 2.43073C12.7198 1.49108 11.906 0.755137 10.9207 0.348412C9.93533 -0.0583137 8.83941 -0.110636 7.81981 0.200367C6.8002 0.51137 5.92005 1.16644 5.32945 2.05386C4.73885 2.94128 4.47439 4.0061 4.58115 5.06672C4.66874 5.93692 5.00178 6.76008 5.53586 7.44289L3.34762 9.63452C3.34409 9.63587 3.34058 9.63725 3.33708 9.63866C3.26254 9.66877 3.19483 9.71358 3.13798 9.77043C3.08114 9.82727 3.03632 9.89499 3.00622 9.96953C3.00469 9.97331 3.00319 9.97711 3.00174 9.98093L1.66306 11.3217C1.6304 11.3434 1.59972 11.3685 1.57158 11.3966C1.5432 11.425 1.51797 11.456 1.4961 11.4889L0.383517 12.6032C0.28535 12.713 0.231079 12.855 0.231079 13.0023C0.231079 13.1495 0.28535 13.2916 0.383517 13.4014C0.48534 13.5175 0.628602 13.5892 0.782605 13.6009C0.936607 13.5892 1.07987 13.5175 1.18169 13.4014L1.96316 12.6343L3.15326 13.8244C3.20853 13.8804 3.27442 13.9247 3.34706 13.9549C3.4197 13.985 3.49764 14.0004 3.57629 14C3.65494 14.0004 3.73288 13.985 3.80552 13.9549C3.87816 13.9247 3.94405 13.8804 3.99932 13.8244C4.11143 13.7122 4.17439 13.56 4.17439 13.4014C4.17439 13.2427 4.11143 13.0906 3.99932 12.9783L2.81708 11.7961L3.5743 11.0528L4.74953 12.228C4.8048 12.284 4.87069 12.3284 4.94333 12.3585C5.01597 12.3887 5.09391 12.404 5.17256 12.4036C5.25121 12.404 5.32915 12.3887 5.40179 12.3585C5.47443 12.3284 5.54032 12.284 5.59559 12.228C5.7077 12.1158 5.77067 11.9636 5.77067 11.805C5.77067 11.6464 5.7077 11.4942 5.59559 11.382L4.42822 10.2146L6.38579 8.29307L6.39296 8.28584C6.70377 8.5205 7.04392 8.7151 7.4055 8.86435ZM7.28318 1.80352C7.83951 1.43067 8.49376 1.23083 9.16347 1.22919C9.72193 1.22783 10.2721 1.36436 10.7651 1.62666C11.2581 1.88897 11.6788 2.26894 11.9897 2.73284C12.3006 3.19675 12.4921 3.73024 12.5474 4.28596C12.6026 4.84167 12.5198 5.40243 12.3063 5.91846C12.0927 6.43448 11.7551 6.8898 11.3234 7.24401C10.8916 7.59823 10.3791 7.84036 9.83128 7.94894C9.28348 8.05751 8.71735 8.02917 8.18313 7.86641C7.64892 7.70366 7.16315 7.41153 6.76895 7.01596C6.2962 6.54158 5.97445 5.93788 5.84425 5.28094C5.71404 4.62401 5.7812 3.94323 6.03727 3.32439C6.29334 2.70556 6.72685 2.17638 7.28318 1.80352Z" fill="#212121"/>
</g>
<defs>
<clipPath id="clip0_409_21134">
<rect width="14" height="14" fill="white"/>
</clipPath>
</defs>
</svg>
