<svg width="14" height="14" viewBox="0 0 14 14" fill="none" xmlns="http://www.w3.org/2000/svg">
<g clip-path="url(#clip0_1518_32553)">
<path d="M13.9719 12.9792L11.5445 6.19217C11.374 5.74566 10.9924 5.46963 10.554 5.46963C10.1156 5.46963 9.74216 5.74566 9.55544 6.20841L7.13614 12.9792C7.02248 13.2958 7.18485 13.6449 7.50147 13.7586C7.81809 13.8722 8.16718 13.7099 8.28084 13.3932L8.78419 11.9888H12.3157L12.8191 13.3932C12.9084 13.6449 13.1438 13.7992 13.3955 13.7992C13.4604 13.7992 13.5335 13.7911 13.5984 13.7667C13.9151 13.653 14.0774 13.3039 13.9638 12.9873L13.9719 12.9792ZM9.2307 10.7629L10.5621 7.03649L11.8936 10.7629H9.2307ZM7.16049 3.62674C5.32572 6.52503 3.66955 8.27862 1.65617 9.44767C1.55875 9.5045 1.45321 9.52886 1.35579 9.52886C1.14471 9.52886 0.941749 9.42332 0.828091 9.22848C0.657603 8.93621 0.755025 8.56276 1.04729 8.40039C2.75217 7.40994 4.14854 5.98921 5.71541 3.63485H0.608892C0.276035 3.63485 7.62939e-06 3.35883 7.62939e-06 3.02597C7.62939e-06 2.69311 0.276035 2.41709 0.608892 2.41709H3.65332V0.809629C3.65332 0.476772 3.92934 0.200745 4.2622 0.200745C4.59506 0.200745 4.87109 0.476772 4.87109 0.809629V2.41709H7.91551C8.24837 2.41709 8.52439 2.69311 8.52439 3.02597C8.52439 3.35883 8.24837 3.63485 7.91551 3.63485H7.15237L7.16049 3.62674ZM7.19297 9.52886C7.08743 9.52886 6.98189 9.5045 6.88447 9.44767C6.35677 9.13917 5.8453 8.7982 5.36631 8.44098C5.0984 8.23802 5.04157 7.85646 5.24454 7.58855C5.4475 7.32064 5.82906 7.26381 6.09697 7.46677C6.53537 7.79963 7.01436 8.10813 7.50147 8.39227C7.79373 8.56276 7.89115 8.93621 7.72067 9.22848C7.60701 9.42332 7.40405 9.52886 7.19297 9.52886Z" fill="#212121"/>
</g>
<defs>
<clipPath id="clip0_1518_32553">
<rect width="14" height="14" fill="white"/>
</clipPath>
</defs>
</svg>
