<svg width="14" height="14" viewBox="0 0 14 14" fill="none" xmlns="http://www.w3.org/2000/svg">
<g clip-path="url(#clip0_413_20686)">
<path d="M12.8793 0.00125598H1.19913C1.04858 -0.00579775 0.898115 0.0169108 0.756351 0.0680819C0.614587 0.119253 0.484308 0.197882 0.372971 0.299467C0.261634 0.401052 0.171425 0.523598 0.10751 0.660091C0.043594 0.796583 0.00722617 0.944342 0.000488281 1.09491V12.8014C0.00930776 13.1165 0.138424 13.4163 0.36133 13.6392C0.584236 13.8621 0.884017 13.9912 1.19913 14H12.8793C13.1857 13.9864 13.4745 13.8532 13.6838 13.6292C13.8932 13.4051 14.0064 13.1079 13.9992 12.8014V1.09491C14.0017 0.948362 13.9743 0.802849 13.9185 0.667292C13.8628 0.531735 13.78 0.408992 13.6751 0.306589C13.5703 0.204186 13.4456 0.124283 13.3087 0.0717791C13.1719 0.0192749 13.0258 -0.00472345 12.8793 0.00125598ZM4.3751 11.6727H2.33653V5.43452H4.3751V11.6727ZM3.40393 4.4896C3.26168 4.49456 3.11993 4.47005 2.98761 4.4176C2.85528 4.36516 2.73522 4.28592 2.63499 4.18486C2.53475 4.0838 2.45649 3.9631 2.40513 3.83035C2.35377 3.6976 2.33041 3.55566 2.33653 3.41345C2.33024 3.2697 2.35406 3.12623 2.40648 2.99223C2.45889 2.85824 2.53874 2.73667 2.64089 2.63535C2.74304 2.53402 2.86524 2.45516 2.99966 2.40383C3.13408 2.35251 3.27774 2.32984 3.42143 2.3373C3.56369 2.33234 3.70543 2.35685 3.83776 2.4093C3.97009 2.46174 4.09014 2.54098 4.19038 2.64204C4.29062 2.7431 4.36887 2.8638 4.42024 2.99655C4.4716 3.1293 4.49495 3.27124 4.48884 3.41345C4.49513 3.5572 4.4713 3.70067 4.41889 3.83467C4.36647 3.96866 4.28663 4.09023 4.18448 4.19155C4.08232 4.29288 3.96012 4.37174 3.8257 4.42307C3.69128 4.47439 3.54762 4.49706 3.40393 4.4896ZM11.6719 11.6727H9.62462V8.26051C9.62462 7.44684 9.3359 6.88689 8.60972 6.88689C8.38412 6.88885 8.16466 6.96053 7.98139 7.0921C7.79813 7.22367 7.66005 7.4087 7.58606 7.62182C7.52917 7.78159 7.50535 7.95127 7.51606 8.12053V11.6727H5.50374V5.43452H7.51606V6.30944C7.69497 5.98076 7.96126 5.70794 8.2855 5.52111C8.60974 5.33429 8.97932 5.24073 9.3534 5.25078C10.6745 5.25078 11.6719 6.12571 11.6719 7.98929V11.6727Z" fill="#212121"/>
</g>
<defs>
<clipPath id="clip0_413_20686">
<rect width="14" height="14" fill="white"/>
</clipPath>
</defs>
</svg>
