<svg width="14" height="14" viewBox="0 0 14 14" fill="none" xmlns="http://www.w3.org/2000/svg">
<g clip-path="url(#clip0_413_20676)">
<path fill-rule="evenodd" clip-rule="evenodd" d="M6.23612 11.5347C6.62468 11.6995 7.04199 11.7858 7.46404 11.7886C8.40359 11.7718 9.29824 11.3835 9.95208 10.7086L12.9601 7.6765C13.6032 7.05889 13.9765 6.21245 13.999 5.32114C14.0214 4.42982 13.6912 3.56565 13.0801 2.91642C12.7444 2.59014 12.3411 2.34151 11.8987 2.18807C11.4564 2.03464 10.9858 1.98014 10.5201 2.02841C10.3621 2.04457 10.217 2.1227 10.1165 2.24566C10.0161 2.36862 9.96843 2.5264 9.98408 2.68442C9.99109 2.76229 10.0135 2.83801 10.0499 2.90719C10.0863 2.97637 10.1361 3.03764 10.1964 3.08748C10.2566 3.13732 10.3261 3.17472 10.4009 3.19754C10.4757 3.22036 10.5543 3.22814 10.6321 3.22043C10.9241 3.19194 11.2189 3.22806 11.4954 3.32622C11.7719 3.42438 12.0234 3.58219 12.2321 3.78844C12.616 4.20854 12.8214 4.76145 12.805 5.33027C12.7885 5.89909 12.5516 6.43923 12.1441 6.83649L9.12806 9.86054C8.73237 10.2648 8.19709 10.5024 7.63188 10.5247C7.06668 10.547 6.51433 10.3523 6.08801 9.98054C5.69804 9.55707 5.49104 8.99676 5.51201 8.42147C5.53298 7.84618 5.78024 7.30243 6.20001 6.90849L7.17603 5.86847C7.23498 5.81354 7.28226 5.7473 7.31506 5.6737C7.34785 5.6001 7.36549 5.52065 7.36691 5.44008C7.36833 5.35952 7.35351 5.27949 7.32333 5.20478C7.29315 5.13007 7.24824 5.0622 7.19126 5.00523C7.13429 4.94825 7.06642 4.90333 6.99171 4.87316C6.91699 4.84298 6.83697 4.82816 6.75641 4.82958C6.67584 4.831 6.59639 4.84863 6.52279 4.88143C6.44919 4.91422 6.38295 4.96151 6.32802 5.02046L5.32 6.02847C4.66872 6.64975 4.29036 7.50391 4.26786 8.40371C4.24537 9.30351 4.58058 10.1755 5.2 10.8286C5.49542 11.13 5.84756 11.37 6.23612 11.5347ZM0.919929 11.0606C1.52188 11.6576 2.33615 11.9914 3.18397 11.9886L3.47997 11.9486C3.63794 11.9324 3.78305 11.8543 3.88352 11.7313C3.984 11.6084 4.03163 11.4506 4.01598 11.2926C4.00897 11.2147 3.98659 11.139 3.95016 11.0698C3.91372 11.0006 3.86394 10.9393 3.80369 10.8895C3.74344 10.8397 3.67392 10.8023 3.59913 10.7794C3.52434 10.7566 3.44578 10.7488 3.36797 10.7566C3.07593 10.785 2.78121 10.7489 2.50469 10.6508C2.22818 10.5526 1.97665 10.3948 1.76794 10.1885C1.38821 9.76438 1.1884 9.2091 1.2108 8.64023C1.23319 8.07135 1.47604 7.5335 1.88795 7.1405L4.87199 4.11645C5.26768 3.71223 5.80296 3.47463 6.36817 3.45232C6.93338 3.43001 7.48573 3.62468 7.91205 3.99645C8.30201 4.41991 8.50902 4.98022 8.48805 5.55551C8.46707 6.1308 8.21981 6.67455 7.80004 7.0685L6.82403 8.10851C6.76508 8.16344 6.71779 8.22969 6.685 8.30329C6.65221 8.37689 6.63457 8.45634 6.63315 8.5369C6.63173 8.61747 6.64655 8.69749 6.67673 8.7722C6.7069 8.84692 6.75182 8.91478 6.8088 8.97176C6.86577 9.02874 6.93364 9.07365 7.00835 9.10383C7.08306 9.13401 7.16309 9.14883 7.24365 9.1474C7.32422 9.14598 7.40367 9.12835 7.47727 9.09556C7.55087 9.06276 7.61711 9.01548 7.67204 8.95653L8.68006 7.94851C9.33134 7.32724 9.7097 6.47307 9.73219 5.57328C9.75469 4.67348 9.41948 3.80147 8.80006 3.14843C8.50463 2.84702 8.1525 2.60702 7.76394 2.44226C7.37538 2.2775 6.95806 2.19123 6.53602 2.18842C5.59646 2.20514 4.70182 2.59349 4.04798 3.26843L1.03993 6.30048C0.396894 6.9181 0.0235767 7.76453 0.00110662 8.65585C-0.0213635 9.54716 0.308829 10.4113 0.919929 11.0606Z" fill="#212121"/>
</g>
<defs>
<clipPath id="clip0_413_20676">
<rect width="14" height="14" fill="white"/>
</clipPath>
</defs>
</svg>
