<svg width="14" height="14" viewBox="0 0 14 14" fill="none" xmlns="http://www.w3.org/2000/svg">
<g clip-path="url(#clip0_276_10426)">
<path fill-rule="evenodd" clip-rule="evenodd" d="M0.551331 3.7111C0.658806 3.7536 0.773539 3.77474 0.889104 3.77332C1.00467 3.77474 1.1194 3.7536 1.22688 3.7111C1.33309 3.65956 1.43178 3.59377 1.52021 3.51555C1.60259 3.43249 1.66777 3.33399 1.712 3.22569C1.75623 3.11739 1.77866 3.00143 1.77798 2.88444C1.77471 2.6491 1.68263 2.42368 1.52021 2.25334C1.43567 2.17242 1.33599 2.10898 1.22688 2.06668C1.01047 1.97777 0.767738 1.97777 0.551331 2.06668C0.441428 2.1074 0.34144 2.17103 0.258002 2.25334C0.0955748 2.42368 0.00350264 2.6491 0.00022848 2.88444C-0.000447859 3.00143 0.0219741 3.11739 0.0662086 3.22569C0.110443 3.33399 0.17562 3.43249 0.258002 3.51555C0.346429 3.59377 0.445115 3.65956 0.551331 3.7111ZM3.55573 3.55109H13.3334C13.5102 3.55109 13.6797 3.48085 13.8048 3.35583C13.9298 3.23081 14 3.06124 14 2.88443C14 2.70762 13.9298 2.53806 13.8048 2.41303C13.6797 2.28801 13.5102 2.21777 13.3334 2.21777H3.55573C3.37892 2.21777 3.20935 2.28801 3.08433 2.41303C2.95931 2.53806 2.88907 2.70762 2.88907 2.88443C2.88907 3.06124 2.95931 3.23081 3.08433 3.35583C3.20935 3.48085 3.37892 3.55109 3.55573 3.55109ZM3.55573 7.55103H13.3334C13.5102 7.55103 13.6797 7.48079 13.8048 7.35577C13.9298 7.23074 14 7.06118 14 6.88437C14 6.70756 13.9298 6.53799 13.8048 6.41297C13.6797 6.28795 13.5102 6.21771 13.3334 6.21771H3.55573C3.37892 6.21771 3.20935 6.28795 3.08433 6.41297C2.95931 6.53799 2.88907 6.70756 2.88907 6.88437C2.88907 7.06118 2.95931 7.23074 3.08433 7.35577C3.20935 7.48079 3.37892 7.55103 3.55573 7.55103ZM13.3334 11.551H3.55573C3.37892 11.551 3.20935 11.4807 3.08433 11.3557C2.95931 11.2307 2.88907 11.0611 2.88907 10.8843C2.88907 10.7075 2.95931 10.5379 3.08433 10.4129C3.20935 10.2879 3.37892 10.2177 3.55573 10.2177H13.3334C13.5102 10.2177 13.6797 10.2879 13.8048 10.4129C13.9298 10.5379 14 10.7075 14 10.8843C14 11.0611 13.9298 11.2307 13.8048 11.3557C13.6797 11.4807 13.5102 11.551 13.3334 11.551ZM0.889074 7.77324C0.772918 7.77184 0.658164 7.74768 0.551301 7.70213C0.443583 7.65712 0.344371 7.59398 0.257972 7.51547C0.17559 7.43241 0.110413 7.33391 0.0661781 7.22561C0.0219436 7.11731 -0.000478377 7.00135 0.000197962 6.88437C0.00347213 6.64902 0.0955443 6.4236 0.257972 6.25326C0.344371 6.17475 0.443583 6.11161 0.551301 6.0666C0.712207 5.99199 0.891754 5.96723 1.06685 5.99549L1.22685 6.04882L1.38684 6.12882C1.43341 6.16164 1.47794 6.19726 1.52018 6.23549C1.68681 6.41028 1.77921 6.64287 1.77795 6.88437C1.77795 7.12011 1.6843 7.3462 1.5176 7.5129C1.35091 7.67959 1.12482 7.77324 0.889074 7.77324ZM0.55131 11.711C0.658785 11.7535 0.773517 11.7746 0.889083 11.7732C1.00606 11.7739 1.12203 11.7515 1.23033 11.7072C1.33863 11.663 1.43713 11.5978 1.52018 11.5154C1.5987 11.429 1.66183 11.3298 1.70685 11.2221C1.75387 11.1157 1.77817 11.0007 1.77817 10.8843C1.77817 10.768 1.75387 10.653 1.70685 10.5466C1.66183 10.4388 1.5987 10.3396 1.52018 10.2532C1.43565 10.1723 1.33597 10.1089 1.22686 10.0666C1.06498 9.9985 0.886572 9.9799 0.71414 10.0131C0.541707 10.0463 0.382978 10.1299 0.257981 10.2532C0.179466 10.3396 0.116331 10.4388 0.0713168 10.5466C0.0242907 10.653 0 10.768 0 10.8843C0 11.0007 0.0242907 11.1157 0.0713168 11.2221C0.116331 11.3298 0.179466 11.429 0.257981 11.5154C0.346407 11.5937 0.445094 11.6595 0.55131 11.711Z" fill="#212121"/>
</g>
<defs>
<clipPath id="clip0_276_10426">
<rect width="14" height="14" fill="white"/>
</clipPath>
</defs>
</svg>
