<svg width="14" height="14" viewBox="0 0 14 14" fill="none" xmlns="http://www.w3.org/2000/svg">
<g clip-path="url(#clip0_413_20693)">
<path d="M10.2 0C9.19218 0 8.22563 0.400356 7.51299 1.11299C6.80036 1.82563 6.4 2.79218 6.4 3.8V5.6H2.2C1.61652 5.6 1.05694 5.83179 0.644365 6.24437C0.231785 6.65695 0 7.21652 0 7.8V11.8C0 12.3835 0.231785 12.9431 0.644365 13.3556C1.05694 13.7682 1.61652 14 2.2 14H7.8C8.38348 14 8.94306 13.7682 9.35564 13.3556C9.76822 12.9431 10 12.3835 10 11.8V7.8C10 7.21652 9.76822 6.65695 9.35564 6.24437C8.94306 5.83179 8.38348 5.6 7.8 5.6H7.6V3.8C7.6 3.11044 7.87393 2.44912 8.36152 1.96152C8.84912 1.47393 9.51044 1.2 10.2 1.2C10.8896 1.2 11.5509 1.47393 12.0385 1.96152C12.5261 2.44912 12.8 3.11044 12.8 3.8C12.8 3.95913 12.8632 4.11174 12.9757 4.22426C13.0883 4.33679 13.2409 4.4 13.4 4.4C13.5591 4.4 13.7117 4.33679 13.8243 4.22426C13.9368 4.11174 14 3.95913 14 3.8C14 2.79218 13.5996 1.82563 12.887 1.11299C12.1744 0.400356 11.2078 0 10.2 0ZM8.8 7.8V11.8C8.8 12.0652 8.69464 12.3196 8.50711 12.5071C8.31957 12.6946 8.06522 12.8 7.8 12.8H2.2C1.93478 12.8 1.68043 12.6946 1.49289 12.5071C1.30536 12.3196 1.2 12.0652 1.2 11.8V7.8C1.2 7.53478 1.30536 7.28043 1.49289 7.09289C1.68043 6.90536 1.93478 6.8 2.2 6.8H7.8C8.06522 6.8 8.31957 6.90536 8.50711 7.09289C8.69464 7.28043 8.8 7.53478 8.8 7.8Z" fill="#212121"/>
</g>
<defs>
<clipPath id="clip0_413_20693">
<rect width="14" height="14" fill="white"/>
</clipPath>
</defs>
</svg>
