<svg width="14" height="14" viewBox="0 0 14 14" fill="none" xmlns="http://www.w3.org/2000/svg">
<g clip-path="url(#clip0_413_20701)">
<path fill-rule="evenodd" clip-rule="evenodd" d="M6.69055 13.9019C6.78061 13.9667 6.88902 14.0011 6.99999 14C7.11095 14.0011 7.21936 13.9667 7.30942 13.9019C7.56602 13.7585 12.849 10.1887 12.849 5.84905C12.849 4.29778 12.2328 2.81005 11.1359 1.71315C10.039 0.616237 8.55125 0 6.99999 0C5.44872 0 3.96099 0.616237 2.86409 1.71315C1.76718 2.81005 1.15094 4.29778 1.15094 5.84905C1.15094 10.1887 6.46414 13.7585 6.69055 13.9019ZM3.67349 2.53361C4.55788 1.65629 5.75427 1.1658 6.99999 1.16981C8.2457 1.1658 9.4421 1.65629 10.3265 2.53361C11.2109 3.41092 11.711 4.60334 11.717 5.84905C11.717 9.0264 8.10187 11.9321 6.99999 12.7396C5.8981 11.9321 2.28301 9.0264 2.28301 5.84905C2.28901 4.60334 2.7891 3.41092 3.67349 2.53361ZM5.8469 7.23512C6.18821 7.46317 6.58948 7.5849 6.99997 7.5849C7.55042 7.5849 8.07832 7.36623 8.46755 6.97701C8.85677 6.58778 9.07544 6.05988 9.07544 5.50943C9.07544 5.09894 8.95371 4.69767 8.72566 4.35636C8.4976 4.01505 8.17346 3.74903 7.79422 3.59195C7.41497 3.43486 6.99767 3.39376 6.59507 3.47384C6.19246 3.55392 5.82265 3.75159 5.53239 4.04185C5.24213 4.33211 5.04446 4.70192 4.96438 5.10453C4.8843 5.50713 4.9254 5.92443 5.08249 6.30368C5.23957 6.68292 5.50559 7.00706 5.8469 7.23512ZM6.47585 4.72502C6.63099 4.62136 6.81338 4.56603 6.99997 4.56603C7.25017 4.56603 7.49013 4.66543 7.66705 4.84235C7.84397 5.01927 7.94336 5.25922 7.94336 5.50943C7.94336 5.69601 7.88803 5.87841 7.78437 6.03355C7.68071 6.18869 7.53337 6.30961 7.36099 6.38101C7.18861 6.45241 6.99892 6.4711 6.81592 6.4347C6.63292 6.3983 6.46482 6.30845 6.33289 6.17651C6.20095 6.04457 6.1111 5.87648 6.0747 5.69348C6.0383 5.51048 6.05698 5.32079 6.12839 5.14841C6.19979 4.97602 6.32071 4.82869 6.47585 4.72502Z" fill="#212121"/>
</g>
<defs>
<clipPath id="clip0_413_20701">
<rect width="14" height="14" fill="white"/>
</clipPath>
</defs>
</svg>
