<svg width="14" height="14" viewBox="0 0 14 14" fill="none" xmlns="http://www.w3.org/2000/svg">
<g clip-path="url(#clip0_414_20709)">
<path d="M13.3199 0.672095C13.126 0.543247 12.903 0.464795 12.6711 0.443843C12.4392 0.42289 12.2058 0.460098 11.9919 0.552097L9.13596 1.77607L5.33603 0.176105C5.18675 0.112736 5.02622 0.0800781 4.86404 0.0800781C4.70186 0.0800781 4.54134 0.112736 4.39205 0.176105L0.904125 1.64807C0.632226 1.76633 0.401347 1.96232 0.240507 2.21141C0.0796676 2.4605 -0.00395696 2.75157 0.000143911 3.04805V12.0479C-0.00132768 12.3008 0.0600311 12.5502 0.178714 12.7736C0.297396 12.997 0.469689 13.1874 0.68013 13.3278C0.874047 13.4567 1.09704 13.5351 1.32891 13.5561C1.56079 13.577 1.79423 13.5398 2.0081 13.4478L4.86404 12.2239L8.66397 13.8238C8.81285 13.8885 8.97364 13.9212 9.13596 13.9198C9.29811 13.9196 9.45859 13.887 9.60795 13.8238L13.0959 12.3279C13.3678 12.2096 13.5987 12.0136 13.7595 11.7645C13.9203 11.5154 14.004 11.2244 13.9999 10.9279V1.95207C14.0013 1.6991 13.94 1.44973 13.8213 1.22633C13.7026 1.00292 13.5303 0.812483 13.3199 0.672095ZM5.46403 1.47208L8.53597 2.78405V12.4879L5.46403 11.1759V1.47208ZM1.53611 12.3439C1.50571 12.3614 1.47122 12.3706 1.43611 12.3706C1.40101 12.3706 1.36652 12.3614 1.33612 12.3439C1.29149 12.3126 1.25558 12.2705 1.23178 12.2215C1.20798 12.1725 1.19708 12.1182 1.20012 12.0639V3.04805C1.19914 2.98417 1.21779 2.92153 1.25356 2.86859C1.28933 2.81566 1.34048 2.77498 1.40012 2.75205L4.26406 1.51208V11.1759L1.53611 12.3439ZM12.7999 10.9519C12.8028 11.013 12.7877 11.0737 12.7564 11.1264C12.7251 11.179 12.679 11.2213 12.6239 11.2479L9.73594 12.4879V2.82405L12.4639 1.65607C12.4943 1.63852 12.5288 1.62928 12.5639 1.62928C12.599 1.62928 12.6335 1.63852 12.6639 1.65607C12.7085 1.68731 12.7444 1.72942 12.7682 1.77842C12.792 1.82742 12.8029 1.88168 12.7999 1.93607V10.9519Z" fill="#212121"/>
</g>
<defs>
<clipPath id="clip0_414_20709">
<rect width="14" height="14" fill="white"/>
</clipPath>
</defs>
</svg>
