<svg width="14" height="14" viewBox="0 0 14 14" fill="none" xmlns="http://www.w3.org/2000/svg">
<g clip-path="url(#clip0_1518_32557)">
<path d="M12.3988 0.380615H11.2262C10.3425 0.380615 9.625 1.09812 9.625 1.98187V2.37562L1.3125 4.16062V3.71437C1.3125 3.35562 1.015 3.05812 0.65625 3.05812C0.2975 3.05812 0 3.35562 0 3.71437V9.83937C0 10.1981 0.2975 10.4956 0.65625 10.4956C1.015 10.4956 1.3125 10.1981 1.3125 9.83937V9.28812L9.625 11.0731V11.4669C9.625 12.3506 10.3425 13.0681 11.2262 13.0681H12.3988C13.2825 13.0681 14 12.3506 14 11.4669V1.98187C14 1.09812 13.2825 0.380615 12.3988 0.380615ZM1.3125 7.94061V5.49937L9.625 3.71437V9.72562L1.3125 7.94061ZM12.6875 11.4669C12.6875 11.6244 12.5562 11.7556 12.3988 11.7556H11.2262C11.0688 11.7556 10.9375 11.6244 10.9375 11.4669V1.98187C10.9375 1.82437 11.0688 1.69312 11.2262 1.69312H12.3988C12.5562 1.69312 12.6875 1.82437 12.6875 1.98187V11.4669ZM7.84875 11.9219C7.525 12.9369 6.58875 13.6194 5.5125 13.6194C4.165 13.6194 3.0625 12.5344 3.0625 11.2131C3.0625 11.1169 3.0625 11.0119 3.08 10.9156C3.12375 10.5569 3.45625 10.3031 3.815 10.3469C4.17375 10.3906 4.4275 10.7144 4.38375 11.0731C4.38375 11.1169 4.38375 11.1606 4.38375 11.2044C4.38375 11.8081 4.89125 12.2981 5.52125 12.2981C6.02 12.2981 6.4575 11.9831 6.60625 11.5194C6.71125 11.1694 7.0875 10.9769 7.42875 11.0906C7.77875 11.1956 7.9625 11.5719 7.8575 11.9131L7.84875 11.9219Z" fill="#212121"/>
</g>
<defs>
<clipPath id="clip0_1518_32557">
<rect width="14" height="14" fill="white"/>
</clipPath>
</defs>
</svg>
