<svg width="14" height="14" viewBox="0 0 14 14" fill="none" xmlns="http://www.w3.org/2000/svg">
<g clip-path="url(#clip0_414_20720)">
<path fill-rule="evenodd" clip-rule="evenodd" d="M3.11101 12.8203C4.26215 13.5895 5.61553 14 7 14C8.85652 14 10.637 13.2625 11.9497 11.9497C13.2625 10.637 14 8.85652 14 7C14 5.61553 13.5895 4.26215 12.8203 3.11101C12.0511 1.95987 10.9579 1.06266 9.67879 0.532846C8.3997 0.00303296 6.99224 -0.13559 5.63437 0.134506C4.2765 0.404603 3.02922 1.07129 2.05026 2.05026C1.07129 3.02922 0.404603 4.2765 0.134506 5.63437C-0.13559 6.99224 0.00303296 8.3997 0.532846 9.67879C1.06266 10.9579 1.95987 12.0511 3.11101 12.8203ZM3.75918 2.14976C4.71846 1.50879 5.84628 1.16667 7 1.16667C8.5471 1.16667 10.0308 1.78125 11.1248 2.87521C12.2188 3.96918 12.8333 5.45291 12.8333 7C12.8333 8.15373 12.4912 9.28154 11.8502 10.2408C11.2093 11.2001 10.2982 11.9478 9.23232 12.3893C8.16642 12.8308 6.99353 12.9463 5.86198 12.7212C4.73042 12.4962 3.69102 11.9406 2.87521 11.1248C2.05941 10.309 1.50384 9.26958 1.27876 8.13803C1.05367 7.00647 1.16919 5.83358 1.61071 4.76768C2.05222 3.70178 2.79989 2.79074 3.75918 2.14976ZM3.88889 7.58335H10.1111C10.2658 7.58335 10.4142 7.52189 10.5236 7.4125C10.633 7.3031 10.6944 7.15473 10.6944 7.00002C10.6944 6.84531 10.633 6.69694 10.5236 6.58754C10.4142 6.47815 10.2658 6.41669 10.1111 6.41669H3.88889C3.73418 6.41669 3.58581 6.47815 3.47641 6.58754C3.36702 6.69694 3.30556 6.84531 3.30556 7.00002C3.30556 7.15473 3.36702 7.3031 3.47641 7.4125C3.58581 7.52189 3.73418 7.58335 3.88889 7.58335Z" fill="#212121"/>
</g>
<defs>
<clipPath id="clip0_414_20720">
<rect width="14" height="14" fill="white"/>
</clipPath>
</defs>
</svg>
