<svg width="14" height="14" viewBox="0 0 14 14" fill="none" xmlns="http://www.w3.org/2000/svg">
<path d="M10.2 0H3.79999C3.03199 0 2.39999 0.632 2.39999 1.4V12.6C2.39999 13.368 3.03199 14 3.79999 14H10.2C10.968 14 11.6 13.368 11.6 12.6V1.4C11.6 0.632 10.968 0 10.2 0ZM10.4 12.6C10.4 12.712 10.312 12.8 10.2 12.8H3.79999C3.68799 12.8 3.59999 12.712 3.59999 12.6V1.4C3.59999 1.288 3.68799 1.2 3.79999 1.2H10.2C10.312 1.2 10.4 1.288 10.4 1.4V12.6ZM7.79999 10.2C7.79999 10.64 7.43999 11 6.99999 11C6.55999 11 6.19999 10.64 6.19999 10.2C6.19999 9.76 6.55999 9.4 6.99999 9.4C7.43999 9.4 7.79999 9.76 7.79999 10.2Z" fill="#212121"/>
</svg>
