<svg width="14" height="14" viewBox="0 0 14 14" fill="none" xmlns="http://www.w3.org/2000/svg">
<path fill-rule="evenodd" clip-rule="evenodd" d="M1.4 1.59998H12.6C12.9707 1.60208 13.3255 1.75025 13.5876 2.01235C13.8497 2.27444 13.9979 2.62932 14 2.99998V11C13.9979 11.3706 13.8497 11.7255 13.5876 11.9876C13.3255 12.2497 12.9707 12.3979 12.6 12.4H1.4C1.02934 12.3979 0.674468 12.2497 0.412371 11.9876C0.150274 11.7255 0.00210008 11.3706 0 11V2.99998C0.00210008 2.62932 0.150274 2.27444 0.412371 2.01235C0.674468 1.75025 1.02934 1.60208 1.4 1.59998ZM12.8 4.33598V2.99998C12.7979 2.94833 12.776 2.89949 12.7387 2.8637C12.7014 2.8279 12.6517 2.80793 12.6 2.80798H11.248C11.2164 2.91445 11.2002 3.02491 11.2 3.13598C11.2005 3.30274 11.2339 3.46777 11.2985 3.62155C11.363 3.77533 11.4573 3.91482 11.576 4.03198C11.6627 4.1247 11.7658 4.20064 11.88 4.25598H11.976C12.0612 4.29103 12.1496 4.31782 12.24 4.33598H12.344C12.4396 4.34794 12.5364 4.34794 12.632 4.33598H12.728H12.8ZM2.752 2.79998H1.4C1.34696 2.79998 1.29609 2.82105 1.25858 2.85855C1.22107 2.89606 1.2 2.94693 1.2 2.99998V4.32798H1.272H1.368C1.46363 4.33994 1.56037 4.33994 1.656 4.32798H1.768C1.85412 4.31354 1.93767 4.28659 2.016 4.24798H2.12C2.23259 4.18994 2.33521 4.11432 2.424 4.02398C2.54268 3.90682 2.63701 3.76733 2.70154 3.61355C2.76607 3.45977 2.79953 3.29474 2.8 3.12798C2.79979 3.01691 2.78362 2.90645 2.752 2.79998ZM1.2 9.66398V11C1.20207 11.0516 1.22405 11.1005 1.26133 11.1363C1.29862 11.172 1.34831 11.192 1.4 11.192H2.752C2.78362 11.0855 2.79979 10.975 2.8 10.864C2.79953 10.6972 2.76607 10.5322 2.70154 10.3784C2.63701 10.2246 2.54268 10.0851 2.424 9.96798C2.33521 9.87763 2.23259 9.80202 2.12 9.74398H2.024C1.94008 9.70534 1.85125 9.67842 1.76 9.66398H1.656C1.56037 9.65201 1.46363 9.65201 1.368 9.66398H1.272H1.2ZM3.976 10.872C3.98422 10.9812 3.98422 11.0908 3.976 11.2L10.048 11.184C10.0398 11.0748 10.0398 10.9652 10.048 10.856C10.045 10.5311 10.108 10.2091 10.2331 9.9093C10.3583 9.60953 10.5429 9.33827 10.776 9.11198C10.8938 8.99273 11.0254 8.88799 11.168 8.79998L11.304 8.71198C11.4049 8.65743 11.5091 8.60933 11.616 8.56798L11.776 8.50398C11.9147 8.46319 12.0565 8.43375 12.2 8.41598C12.2825 8.40805 12.3655 8.40805 12.448 8.41598H12.848V5.56798H12.656H12.52H12.384H12.176C12.065 5.55249 11.9553 5.52842 11.848 5.49598L11.672 5.43998C11.5497 5.39823 11.4318 5.34464 11.32 5.27998L11.192 5.20798C11.0408 5.11238 10.9013 4.99964 10.776 4.87198C10.5429 4.64568 10.3583 4.37443 10.2331 4.07465C10.108 3.77487 10.045 3.45281 10.048 3.12798C10.0398 3.0188 10.0398 2.90915 10.048 2.79998H4C4.00822 2.90915 4.00822 3.0188 4 3.12798C4.003 3.45281 3.94002 3.77487 3.81488 4.07465C3.68975 4.37443 3.50506 4.64568 3.272 4.87198C3.14464 4.99729 3.00531 5.10983 2.856 5.20798L2.728 5.27998C2.61616 5.34464 2.49826 5.39823 2.376 5.43998L2.2 5.49598C2.09552 5.53073 1.98854 5.55747 1.88 5.57598H1.672H1.536H1.4H1.2V8.44798H1.6C1.68246 8.43974 1.76554 8.43974 1.848 8.44798C1.99149 8.46575 2.13329 8.49518 2.272 8.53598L2.432 8.59998C2.5304 8.63702 2.62656 8.67976 2.72 8.72798L2.856 8.81598C2.99863 8.90399 3.13023 9.00873 3.248 9.12798C3.48106 9.35427 3.66575 9.62553 3.79089 9.9253C3.91602 10.2251 3.979 10.5471 3.976 10.872ZM11.248 11.2H12.6C12.653 11.2 12.7039 11.1789 12.7414 11.1414C12.7789 11.1039 12.8 11.053 12.8 11V9.67198H12.728H12.632C12.5364 9.66001 12.4396 9.66001 12.344 9.67198H12.24C12.1499 9.69125 12.0616 9.71801 11.976 9.75198H11.88C11.7658 9.80731 11.6627 9.88325 11.576 9.97598C11.4573 10.0931 11.363 10.2326 11.2985 10.3864C11.2339 10.5402 11.2005 10.7052 11.2 10.872C11.2002 10.983 11.2164 11.0935 11.248 11.2ZM5.44442 4.67184C5.90487 4.36417 6.44623 4.19995 7.00001 4.19995C7.74262 4.19995 8.45481 4.49495 8.97991 5.02005C9.50501 5.54515 9.80001 6.25735 9.80001 6.99995C9.80001 7.55374 9.6358 8.09509 9.32813 8.55555C9.02046 9.01601 8.58316 9.37489 8.07153 9.58681C7.55989 9.79874 6.99691 9.85419 6.45376 9.74615C5.91061 9.63811 5.4117 9.37144 5.02011 8.97985C4.62853 8.58826 4.36185 8.08935 4.25381 7.5462C4.14578 7.00306 4.20123 6.44007 4.41315 5.92844C4.62508 5.4168 4.98396 4.9795 5.44442 4.67184ZM6.1111 8.3303C6.37422 8.50611 6.68356 8.59995 7.00001 8.59995C7.42436 8.59995 7.83133 8.43138 8.13138 8.13132C8.43144 7.83126 8.60001 7.4243 8.60001 6.99995C8.60001 6.6835 8.50618 6.37416 8.33036 6.11104C8.15455 5.84792 7.90467 5.64284 7.61231 5.52174C7.31995 5.40064 6.99824 5.36896 6.68787 5.43069C6.3775 5.49243 6.09241 5.64482 5.86864 5.86858C5.64488 6.09234 5.49249 6.37744 5.43076 6.68781C5.36902 6.99818 5.40071 7.31988 5.52181 7.61224C5.64291 7.90461 5.84798 8.15449 6.1111 8.3303Z" fill="#212121"/>
</svg>
