<svg width="14" height="14" viewBox="0 0 14 14" fill="none" xmlns="http://www.w3.org/2000/svg">
<g clip-path="url(#clip0_414_20766)">
<path d="M7.07477 14C6.78031 13.9996 6.48616 13.9808 6.19408 13.9435C4.63857 13.7414 3.19371 13.0315 2.08452 11.9244C0.975323 10.8174 0.264062 9.37527 0.0615075 7.82276C-0.172425 6.06808 0.266069 4.28993 1.28926 2.84407C2.31246 1.3982 3.8449 0.391235 5.58001 0.0246246C5.77024 -0.0184875 5.96897 -0.00477275 6.15144 0.0640595C6.33391 0.132892 6.49204 0.253797 6.60615 0.411709C6.72307 0.575203 6.78923 0.769404 6.79642 0.970145C6.8036 1.17089 6.75148 1.3693 6.64654 1.5407C6.15344 2.38517 5.96522 3.37282 6.11328 4.339C6.25046 5.22672 6.66749 6.04772 7.30385 6.68286C7.94022 7.318 8.7628 7.73423 9.65223 7.87115C10.6213 8.02395 11.6135 7.83276 12.4559 7.33084C12.6292 7.22842 12.8289 7.17916 13.03 7.1892C13.2312 7.19923 13.4249 7.26813 13.5871 7.38729C13.7455 7.49914 13.8669 7.65548 13.936 7.83643C14.005 8.01737 14.0186 8.21473 13.9749 8.40339C13.6472 9.98702 12.7814 11.409 11.524 12.4288C10.2667 13.4487 8.69495 14.0037 7.07477 14ZM5.3861 1.37136C4.41099 1.65736 3.52722 2.19166 2.82163 2.92174C2.11603 3.65183 1.6129 4.55258 1.36166 5.53548C1.11043 6.51839 1.11974 7.54962 1.38868 8.52784C1.65762 9.50607 2.17693 10.3976 2.89559 11.1149C3.61425 11.8322 4.50752 12.3505 5.48763 12.6189C6.46774 12.8873 7.50096 12.8966 8.48576 12.6459C9.47056 12.3951 10.373 11.893 11.1045 11.1887C11.836 10.4845 12.3714 9.60242 12.6579 8.62919C11.893 9.0014 11.0513 9.18951 10.2003 9.17841C9.34936 9.16732 8.51287 8.95733 7.75792 8.56529C7.00297 8.17325 6.35059 7.61008 5.8531 6.92095C5.35561 6.23181 5.02686 5.4359 4.89323 4.59706C4.72316 3.49682 4.89518 2.37099 5.3861 1.37136Z" fill="#212121"/>
</g>
<defs>
<clipPath id="clip0_414_20766">
<rect width="14" height="14" fill="white"/>
</clipPath>
</defs>
</svg>
