<svg width="14" height="14" viewBox="0 0 14 14" fill="none" xmlns="http://www.w3.org/2000/svg">
<g clip-path="url(#clip0_414_20787)">
<path d="M7.06838 0C7.06838 0 7.00513 0 6.96899 0C3.54423 0 0.562248 2.51992 0.0200697 5.90692C-0.0522207 6.35852 0.0742876 6.82818 0.381522 7.18043C0.67972 7.53267 1.10443 7.73138 1.55624 7.73138H1.61046C3.18278 7.73138 4.36653 8.11975 5.12558 8.87844C5.89367 9.64616 6.27319 10.8474 6.26415 12.4461C6.26415 12.8977 6.46295 13.3222 6.80633 13.6202C7.09549 13.8731 7.46598 14.0086 7.83647 13.9996C7.9178 13.9996 7.99912 13.9996 8.08045 13.9815C11.5052 13.4306 14.0444 10.4048 13.9992 6.93656C13.945 3.17023 10.8365 0.0541919 7.05935 0H7.06838ZM7.87262 12.6448C7.8184 12.6448 7.74611 12.6357 7.69189 12.5906C7.66478 12.5635 7.6196 12.5183 7.6196 12.4551C7.62864 10.4771 7.11357 8.9507 6.08343 7.92105C5.06233 6.90044 3.55326 6.37658 1.61046 6.37658H1.55624C1.48395 6.37658 1.43877 6.33142 1.41166 6.30432C1.39359 6.27723 1.33937 6.214 1.35744 6.12368C1.80022 3.39603 4.20388 1.3548 6.96899 1.3548C6.99609 1.3548 7.0232 1.3548 7.05031 1.3548C10.0413 1.39996 12.6076 3.95601 12.6528 6.95463C12.689 9.75454 10.6377 12.2022 7.88165 12.6448H7.87262ZM5.14365 4.30826C5.14365 4.80502 4.73702 5.22049 4.23099 5.22049C3.72495 5.22049 3.31832 4.81405 3.31832 4.30826C3.31832 3.80247 3.72495 3.39603 4.23099 3.39603C4.73702 3.39603 5.14365 3.80247 5.14365 4.30826ZM7.87262 3.17023C7.87262 3.66699 7.46598 4.08246 6.95995 4.08246C6.45392 4.08246 6.04728 3.67602 6.04728 3.17023C6.04728 2.66444 6.45392 2.258 6.95995 2.258C7.46598 2.258 7.87262 2.66444 7.87262 3.17023ZM8.78528 4.30826C8.78528 3.8115 9.19192 3.39603 9.69795 3.39603C10.204 3.39603 10.6106 3.80247 10.6106 4.30826C10.6106 4.81405 10.204 5.22049 9.69795 5.22049C9.19192 5.22049 8.78528 4.81405 8.78528 4.30826ZM11.7402 7.03592C11.7402 7.53268 11.3335 7.94815 10.8275 7.94815C10.3215 7.94815 9.91482 7.54171 9.91482 7.03592C9.91482 6.53012 10.3215 6.12368 10.8275 6.12368C11.3335 6.12368 11.7402 6.53012 11.7402 7.03592ZM10.6016 9.76357C10.6016 10.2603 10.1949 10.6758 9.68891 10.6758C9.18288 10.6758 8.77625 10.2694 8.77625 9.76357C8.77625 9.25778 9.18288 8.85134 9.68891 8.85134C10.1949 8.85134 10.6016 9.25778 10.6016 9.76357Z" fill="#212121"/>
</g>
<defs>
<clipPath id="clip0_414_20787">
<rect width="14" height="14" fill="white"/>
</clipPath>
</defs>
</svg>
