<svg width="14" height="14" viewBox="0 0 14 14" fill="none" xmlns="http://www.w3.org/2000/svg">
<g clip-path="url(#clip0_414_20799)">
<path d="M4.54121 13.9995C3.35551 14.0041 2.21231 13.5576 1.34279 12.7503C0.919346 12.3582 0.581462 11.8827 0.350377 11.3535C0.119291 10.8244 0 10.253 0 9.6755C0 9.09795 0.119291 8.52665 0.350377 7.99749C0.581462 7.46833 0.919346 6.99276 1.34279 6.60066L7.3878 0.883384C8.00952 0.315077 8.8209 0 9.66267 0C10.5045 0 11.3158 0.315077 11.9375 0.883384C12.2617 1.18473 12.5216 1.54865 12.7016 1.95323C12.8816 2.35781 12.978 2.79469 12.985 3.23756C12.9872 3.62029 12.9102 3.99932 12.7588 4.35075C12.6074 4.70218 12.385 5.01839 12.1055 5.27944L6.05246 11.0047C5.68721 11.3441 5.20738 11.5327 4.70913 11.5327C4.21088 11.5327 3.73104 11.3441 3.36579 11.0047C3.18455 10.8375 3.0399 10.6345 2.94095 10.4084C2.84201 10.1824 2.79092 9.93831 2.79092 9.69151C2.79092 9.44473 2.84201 9.20061 2.94095 8.97459C3.0399 8.74856 3.18455 8.54553 3.36579 8.3783L8.96302 3.10143C9.07547 2.98897 9.22789 2.9258 9.38681 2.9258C9.54573 2.9258 9.69816 2.98897 9.8106 3.10143C9.92291 3.21404 9.98599 3.36668 9.98599 3.52582C9.98599 3.68497 9.92291 3.83761 9.8106 3.95022L4.21337 9.22709C4.15059 9.28195 4.10027 9.34964 4.06579 9.42561C4.03131 9.50157 4.01347 9.58405 4.01347 9.66749C4.01347 9.75094 4.03131 9.83341 4.06579 9.90938C4.10027 9.98534 4.15059 10.053 4.21337 10.1079C4.35821 10.232 4.54253 10.3001 4.73312 10.3001C4.9237 10.3001 5.10802 10.232 5.25286 10.1079L11.3059 4.39863C11.4599 4.24749 11.5818 4.06671 11.6642 3.86718C11.7467 3.66765 11.788 3.45348 11.7856 3.23756C11.779 2.95925 11.7161 2.68517 11.6006 2.43192C11.4852 2.17868 11.3196 1.95152 11.114 1.7642C10.7192 1.39782 10.2009 1.19426 9.66267 1.19426C9.12447 1.19426 8.60612 1.39782 8.21139 1.7642L2.19037 7.47347C1.88546 7.75328 1.64199 8.09353 1.47543 8.47262C1.30887 8.85171 1.22285 9.26134 1.22285 9.6755C1.22285 10.0897 1.30887 10.4993 1.47543 10.8784C1.64199 11.2575 1.88546 11.5977 2.19037 11.8775C2.84166 12.4854 3.69887 12.8235 4.58919 12.8235C5.4795 12.8235 6.33671 12.4854 6.988 11.8775L12.977 6.20029C13.0322 6.14363 13.0981 6.0986 13.1708 6.06786C13.2436 6.03711 13.3218 6.02127 13.4008 6.02127C13.4798 6.02127 13.558 6.03711 13.6308 6.06786C13.7036 6.0986 13.7695 6.14363 13.8246 6.20029C13.9369 6.3129 14 6.46554 14 6.62468C14 6.78383 13.9369 6.93647 13.8246 7.04908L7.7876 12.7503C6.90645 13.5698 5.74359 14.0172 4.54121 13.9995Z" fill="#212121"/>
</g>
<defs>
<clipPath id="clip0_414_20799">
<rect width="14" height="14" fill="white"/>
</clipPath>
</defs>
</svg>
