<svg width="14" height="14" viewBox="0 0 14 14" fill="none" xmlns="http://www.w3.org/2000/svg">
<path fill-rule="evenodd" clip-rule="evenodd" d="M3.81391 13.799C3.94045 13.9255 4.1114 13.9977 4.29033 14C4.46927 13.9977 4.64022 13.9255 4.76676 13.799C4.89329 13.6725 4.96541 13.5015 4.96775 13.3226V0.677419C4.96775 0.497757 4.89638 0.325452 4.76934 0.198411C4.6423 0.0713707 4.47 0 4.29033 0C4.11067 0 3.93837 0.0713707 3.81133 0.198411C3.68429 0.325452 3.61292 0.497757 3.61292 0.677419V13.3226C3.61525 13.5015 3.68738 13.6725 3.81391 13.799ZM9.23329 13.799C9.35982 13.9255 9.53077 13.9977 9.70971 14C9.88864 13.9977 10.0596 13.9255 10.1861 13.799C10.3127 13.6725 10.3848 13.5015 10.3871 13.3226V0.677419C10.3871 0.497757 10.3158 0.325452 10.1887 0.198411C10.0617 0.0713707 9.88937 0 9.70971 0C9.53004 0 9.35774 0.0713707 9.2307 0.198411C9.10366 0.325452 9.03229 0.497757 9.03229 0.677419V13.3226C9.03463 13.5015 9.10675 13.6725 9.23329 13.799Z" fill="#212121"/>
</svg>
