<svg width="14" height="14" viewBox="0 0 14 14" fill="none" xmlns="http://www.w3.org/2000/svg">
<g clip-path="url(#clip0_414_20829)">
<path d="M4.53968 8.249C4.43464 8.83548 4.00572 11.6016 3.88317 12.3806C3.88317 12.4419 3.88317 12.4594 3.78688 12.4594H1.49349C1.43931 12.4599 1.38566 12.4488 1.33619 12.4266C1.28673 12.4045 1.24263 12.372 1.20689 12.3313C1.17115 12.2906 1.14463 12.2426 1.12913 12.1907C1.11363 12.1388 1.10953 12.0841 1.11709 12.0305L2.92029 0.545979C2.9443 0.401135 3.01746 0.268977 3.12746 0.171732C3.23746 0.0744876 3.37759 0.0180881 3.52428 0.0120196C8.20737 0.0120196 8.60127 -0.101775 9.80049 0.37091C11.6475 1.08869 11.8225 2.82187 11.1573 4.70386C10.492 6.58585 8.92515 7.46119 6.84183 7.48745C5.51131 7.48745 4.70599 7.27737 4.52217 8.24024L4.53968 8.249ZM12.1026 3.80225C12.0501 3.75849 12.0326 3.74973 12.0151 3.80225C11.9515 4.15592 11.8608 4.50417 11.7438 4.84391C10.5183 8.34529 7.11319 8.05642 5.45004 8.05642C5.4084 8.05158 5.36621 8.05533 5.32608 8.06745C5.28595 8.07956 5.24873 8.09978 5.21673 8.12686C5.18473 8.15394 5.15863 8.18729 5.14004 8.22486C5.12145 8.26243 5.11077 8.30342 5.10865 8.34529C4.41713 12.722 4.23331 13.5973 4.23331 13.5973C4.22288 13.6458 4.2234 13.6959 4.23481 13.7441C4.24623 13.7922 4.26826 13.8373 4.29929 13.8759C4.33033 13.9144 4.36959 13.9456 4.4142 13.9671C4.45882 13.9886 4.50767 13.9998 4.55719 14H6.51795C6.64722 13.9975 6.77151 13.9497 6.86911 13.8649C6.96671 13.7801 7.03141 13.6637 7.05191 13.5361C7.05191 13.3698 7.05191 13.7286 7.49834 10.7175C7.63839 10.0435 7.93601 10.1135 8.37368 10.1135C10.5533 10.1135 12.2602 9.23814 12.7504 6.61211C12.9132 6.11451 12.9304 5.58077 12.8002 5.07369C12.6699 4.56661 12.3976 4.10728 12.0151 3.74973L12.1026 3.80225Z" fill="#212121"/>
</g>
<defs>
<clipPath id="clip0_414_20829">
<rect width="14" height="14" fill="white"/>
</clipPath>
</defs>
</svg>
