<svg width="14" height="14" viewBox="0 0 14 14" fill="none" xmlns="http://www.w3.org/2000/svg">
<g clip-path="url(#clip0_414_20845)">
<path fill-rule="evenodd" clip-rule="evenodd" d="M2.73913 5.47826C2.19738 5.47826 1.6678 5.31761 1.21735 5.01663C0.766905 4.71566 0.415823 4.28786 0.208505 3.78735C0.00118681 3.28684 -0.0530571 2.73609 0.0526328 2.20475C0.158323 1.67341 0.4192 1.18535 0.802274 0.802274C1.18535 0.4192 1.67341 0.158323 2.20475 0.0526328C2.73609 -0.0530571 3.28684 0.00118681 3.78735 0.208505C4.28786 0.415823 4.71566 0.766905 5.01663 1.21735C5.31761 1.6678 5.47826 2.19738 5.47826 2.73913C5.47826 3.46559 5.18967 4.1623 4.67599 4.67599C4.1623 5.18967 3.46559 5.47826 2.73913 5.47826ZM2.73913 1.82609C2.55855 1.82609 2.38202 1.87964 2.23187 1.97996C2.08172 2.08029 1.9647 2.22289 1.89559 2.38973C1.82648 2.55656 1.8084 2.74014 1.84363 2.91726C1.87886 3.09437 1.96582 3.25706 2.09351 3.38475C2.2212 3.51244 2.38389 3.5994 2.56101 3.63463C2.73812 3.66986 2.9217 3.65178 3.08854 3.58267C3.25537 3.51357 3.39797 3.39654 3.4983 3.24639C3.59863 3.09624 3.65217 2.91971 3.65217 2.73913C3.64902 2.49796 3.55181 2.26755 3.38126 2.097C3.21071 1.92645 2.9803 1.82924 2.73913 1.82609ZM0.973916 13.9392C0.853954 13.9397 0.735086 13.9163 0.624289 13.8704C0.513491 13.8244 0.412996 13.7567 0.328698 13.6714C0.157715 13.5002 0.061676 13.2681 0.061676 13.0261C0.061676 12.7842 0.157715 12.5521 0.328698 12.3809L12.3809 0.328748C12.4645 0.239043 12.5653 0.167092 12.6773 0.117189C12.7893 0.0672859 12.9102 0.0404521 13.0328 0.0382891C13.1553 0.036126 13.2771 0.058678 13.3908 0.104599C13.5045 0.150521 13.6078 0.21887 13.6945 0.305572C13.7812 0.392273 13.8495 0.495548 13.8955 0.609238C13.9414 0.722928 13.9639 0.844703 13.9618 0.967298C13.9596 1.08989 13.9328 1.2108 13.8829 1.32279C13.833 1.43479 13.761 1.53559 13.6713 1.61918L1.61913 13.6714C1.53484 13.7567 1.43434 13.8244 1.32354 13.8704C1.21275 13.9163 1.09388 13.9397 0.973916 13.9392ZM9.73909 13.5384C10.1895 13.8393 10.7191 14 11.2609 14C11.9873 14 12.684 13.7114 13.1977 13.1977C13.7114 12.684 14 11.9873 14 11.2609C14 10.7191 13.8393 10.1895 13.5384 9.73908C13.2374 9.28863 12.8096 8.93755 12.3091 8.73023C11.8086 8.52292 11.2578 8.46867 10.7265 8.57436C10.1952 8.68005 9.70708 8.94093 9.32401 9.324C8.94094 9.70708 8.68006 10.1951 8.57437 10.7265C8.46868 11.2578 8.52292 11.8086 8.73024 12.3091C8.93756 12.8096 9.28864 13.2374 9.73909 13.5384ZM10.7536 10.5017C10.9038 10.4014 11.0803 10.3478 11.2609 10.3478C11.502 10.351 11.7324 10.4482 11.903 10.6187C12.0736 10.7893 12.1708 11.0197 12.1739 11.2609C12.1739 11.4414 12.1204 11.618 12.02 11.7681C11.9197 11.9183 11.7771 12.0353 11.6103 12.1044C11.4434 12.1735 11.2599 12.1916 11.0827 12.1564C10.9056 12.1211 10.7429 12.0342 10.6152 11.9065C10.4876 11.7788 10.4006 11.6161 10.3654 11.439C10.3301 11.2619 10.3482 11.0783 10.4173 10.9115C10.4864 10.7446 10.6035 10.602 10.7536 10.5017Z" fill="#212121"/>
</g>
<defs>
<clipPath id="clip0_414_20845">
<rect width="14" height="14" fill="white"/>
</clipPath>
</defs>
</svg>
