<svg width="14" height="14" viewBox="0 0 14 14" fill="none" xmlns="http://www.w3.org/2000/svg">
<g clip-path="url(#clip0_414_20854)">
<path d="M12.1555 14H11.9714C9.89718 13.7743 7.90444 13.0671 6.15203 11.9348C4.52404 10.8979 3.14181 9.51844 2.10171 7.89251C0.966784 6.1355 0.259475 4.13694 0.036531 2.05718C0.0110389 1.80911 0.0362075 1.55845 0.11051 1.32041C0.184813 1.08237 0.3067 0.8619 0.468778 0.672384C0.626418 0.48033 0.820995 0.321864 1.04099 0.206368C1.26098 0.0908731 1.50191 0.0206983 1.74951 0H3.8307C4.28145 0.000454748 4.71718 0.162067 5.0592 0.455651C5.40123 0.749236 5.62701 1.15544 5.69577 1.60092C5.77177 2.17314 5.91414 2.73458 6.12001 3.27387C6.24523 3.61277 6.27108 3.98038 6.1945 4.33347C6.11793 4.68655 5.94212 5.01043 5.68776 5.26701L5.19948 5.75529C5.96826 6.96894 6.99948 7.9947 8.21721 8.757L8.70549 8.27673C8.96206 8.02237 9.28594 7.84656 9.63903 7.76999C9.99212 7.69341 10.3597 7.71926 10.6986 7.84448C11.2385 8.04847 11.7997 8.19078 12.3716 8.26873C12.8247 8.33683 13.2373 8.56796 13.5321 8.91872C13.8268 9.26949 13.9834 9.71577 13.9725 10.1738V12.0949C13.9725 12.5945 13.7746 13.0738 13.422 13.4279C13.0695 13.7819 12.591 13.9819 12.0914 13.984L12.1555 14ZM3.8307 1.19268H1.91761C1.82367 1.19889 1.73197 1.22408 1.64805 1.26673C1.56412 1.30938 1.48972 1.36861 1.42933 1.44082C1.37055 1.50847 1.32607 1.58731 1.29856 1.6726C1.27104 1.75789 1.26107 1.84786 1.26924 1.93711C1.46334 3.82361 2.0966 5.63842 3.11829 7.23614C4.06014 8.71432 5.3142 9.96838 6.79239 10.9102C8.39111 11.9427 10.2079 12.5894 12.0994 12.7993C12.1978 12.8049 12.2962 12.7899 12.3886 12.7555C12.4809 12.721 12.565 12.6678 12.6357 12.5992C12.7632 12.4685 12.8349 12.2935 12.8358 12.1109V10.1978C12.8394 10.0294 12.7811 9.86545 12.672 9.7371C12.5628 9.60875 12.4104 9.5249 12.2435 9.50143C11.5822 9.41252 10.9326 9.25146 10.3064 9.02115C10.183 8.97503 10.0491 8.96483 9.92018 8.99175C9.79124 9.01867 9.67259 9.0816 9.57798 9.17324L8.77753 9.9737C8.68377 10.0651 8.56303 10.1238 8.43324 10.1411C8.30345 10.1584 8.17154 10.1334 8.05711 10.0698C6.34908 9.10457 4.9353 7.69356 3.96678 5.98742C3.90048 5.87373 3.87394 5.7412 3.89133 5.61075C3.90872 5.4803 3.96907 5.35936 4.06283 5.26701L4.86329 4.46655C4.95508 4.37372 5.01823 4.25643 5.0452 4.1287C5.07217 4.00096 5.06181 3.86816 5.01538 3.74614C4.7842 3.12017 4.62312 2.4705 4.5351 1.80903C4.51524 1.63715 4.4321 1.47881 4.30189 1.36487C4.17167 1.25093 4.0037 1.18955 3.8307 1.19268Z" fill="#212121"/>
</g>
<defs>
<clipPath id="clip0_414_20854">
<rect width="14" height="14" fill="white"/>
</clipPath>
</defs>
</svg>
