<svg width="14" height="14" viewBox="0 0 14 14" fill="none" xmlns="http://www.w3.org/2000/svg">
<g clip-path="url(#clip0_414_20862)">
<path d="M3.84674 14C3.75653 13.9995 3.66732 13.9811 3.58433 13.9457C3.46052 13.8951 3.35471 13.8086 3.28052 13.6973C3.20633 13.586 3.16717 13.4551 3.16808 13.3213V0.652851C3.17298 0.524073 3.21445 0.399353 3.28763 0.293276C3.36081 0.187199 3.46268 0.104151 3.58133 0.0538446C3.69997 0.00353825 3.83049 -0.0119472 3.95762 0.00919967C4.08474 0.0303465 4.20322 0.0872511 4.29919 0.173259L10.6334 6.5075C10.7605 6.63475 10.8319 6.80724 10.8319 6.98709C10.8319 7.16694 10.7605 7.33943 10.6334 7.46668L4.29919 13.8009C4.17777 13.9203 4.01682 13.9912 3.84674 14ZM4.52541 2.2907V11.6835L9.2218 6.98709L4.52541 2.2907Z" fill="#212121"/>
</g>
<defs>
<clipPath id="clip0_414_20862">
<rect width="14" height="14" fill="white"/>
</clipPath>
</defs>
</svg>
