<svg width="14" height="14" viewBox="0 0 14 14" fill="none" xmlns="http://www.w3.org/2000/svg">
<g clip-path="url(#clip0_414_20955)">
<path d="M11.4307 12.8004H3.88097L5.4805 10.545C5.55185 10.4444 5.5909 10.3245 5.59246 10.2011V7.6019H8.19169C8.35077 7.6019 8.50334 7.53871 8.61583 7.42622C8.72831 7.31373 8.79151 7.16117 8.79151 7.00208C8.79151 6.843 8.72831 6.69043 8.61583 6.57795C8.50334 6.46546 8.35077 6.40226 8.19169 6.40226H5.56847V3.80304C5.55068 3.46245 5.60359 3.12186 5.72386 2.80271C5.84412 2.48357 6.02915 2.19277 6.26729 1.94862C6.50542 1.70447 6.79152 1.51226 7.10757 1.38408C7.42362 1.25589 7.76279 1.19452 8.10371 1.20381C8.46502 1.1805 8.8271 1.23559 9.16513 1.3653C9.50316 1.49502 9.80914 1.69629 10.0621 1.95533C10.3151 2.21437 10.509 2.52504 10.6307 2.86605C10.7523 3.20706 10.7988 3.57034 10.7669 3.931V4.73076C10.7669 4.88984 10.8301 5.04241 10.9426 5.1549C11.0551 5.26739 11.2077 5.33058 11.3667 5.33058C11.5258 5.33058 11.6784 5.26739 11.7909 5.1549C11.9034 5.04241 11.9666 4.88984 11.9666 4.73076V3.931C11.9998 3.41216 11.9231 2.89216 11.7416 2.40497C11.5601 1.91779 11.2779 1.47439 10.9133 1.10376C10.5487 0.733128 10.11 0.443611 9.62584 0.254132C9.1417 0.0646526 8.62302 -0.0205236 8.10371 0.00417058C7.6047 -0.007144 7.10865 0.0838747 6.64616 0.271615C6.18367 0.459355 5.76454 0.739838 5.4146 1.09577C5.06466 1.4517 4.79134 1.87554 4.61148 2.34115C4.43162 2.80677 4.34904 3.30429 4.36883 3.80304V6.40226H2.56936C2.41028 6.40226 2.25772 6.46546 2.14523 6.57795C2.03274 6.69043 1.96954 6.843 1.96954 7.00208C1.96954 7.16117 2.03274 7.31373 2.14523 7.42622C2.25772 7.53871 2.41028 7.6019 2.56936 7.6019H4.36883V10.0012L2.24146 13.0563C2.1851 13.1506 2.15533 13.2583 2.15533 13.3682C2.15533 13.478 2.1851 13.5858 2.24146 13.6801C2.2915 13.7768 2.36725 13.8579 2.46038 13.9143C2.55351 13.9707 2.66041 14.0004 2.7693 14H11.4307C11.5898 14 11.7424 13.9368 11.8549 13.8243C11.9673 13.7118 12.0305 13.5593 12.0305 13.4002C12.0305 13.2411 11.9673 13.0885 11.8549 12.976C11.7424 12.8635 11.5898 12.8004 11.4307 12.8004Z" fill="#212121"/>
</g>
<defs>
<clipPath id="clip0_414_20955">
<rect width="14" height="14" fill="white"/>
</clipPath>
</defs>
</svg>
