<svg width="14" height="14" viewBox="0 0 14 14" fill="none" xmlns="http://www.w3.org/2000/svg">
<g clip-path="url(#clip0_414_20963)">
<path fill-rule="evenodd" clip-rule="evenodd" d="M6.58937 7.31334C6.69843 7.4224 6.84577 7.48456 6.99998 7.48658C7.1542 7.48456 7.30154 7.4224 7.4106 7.31334C7.51965 7.20428 7.58181 7.05695 7.58383 6.90273V0.675033C7.58383 0.520187 7.52232 0.371684 7.41283 0.262191C7.30333 0.152699 7.15483 0.0911865 6.99998 0.0911865C6.84514 0.0911865 6.69664 0.152699 6.58714 0.262191C6.47765 0.371684 6.41614 0.520187 6.41614 0.675033V6.90273C6.41815 7.05695 6.48031 7.20428 6.58937 7.31334ZM3.11081 12.7262C4.26184 13.4961 5.61521 13.9077 7 13.9089C8.38479 13.9077 9.73816 13.4961 10.8892 12.7262C12.0402 11.9563 12.9373 10.8625 13.467 9.58308C13.9968 8.30363 14.1355 6.89588 13.8657 5.53763C13.5959 4.17938 12.9296 2.93155 11.951 1.95175C11.8973 1.89667 11.8332 1.85289 11.7623 1.823C11.6915 1.79311 11.6153 1.77771 11.5384 1.77771C11.4615 1.77771 11.3854 1.79311 11.3145 1.823C11.2437 1.85289 11.1795 1.89667 11.1258 1.95175C11.0165 2.06122 10.9551 2.20962 10.9551 2.36434C10.9551 2.51906 11.0165 2.66745 11.1258 2.77692C11.6691 3.31793 12.1001 3.9609 12.3943 4.66893C12.6884 5.37695 12.8398 6.13609 12.8398 6.90277C12.8398 7.66945 12.6884 8.42859 12.3943 9.13661C12.1001 9.84464 11.6691 10.4876 11.1258 11.0286C10.5913 11.6022 9.94677 12.0623 9.23059 12.3814C8.51441 12.7005 7.74129 12.8721 6.95736 12.886C6.17343 12.8998 5.39474 12.7556 4.66775 12.4619C3.94075 12.1683 3.28036 11.7312 2.72594 11.1768C2.17153 10.6224 1.73447 9.96202 1.44083 9.23502C1.14718 8.50803 1.00297 7.72934 1.01681 6.94541C1.03064 6.16148 1.20222 5.38836 1.52133 4.67218C1.84044 3.956 2.30053 3.31143 2.87415 2.77692C2.98349 2.66745 3.0449 2.51906 3.0449 2.36434C3.0449 2.20962 2.98349 2.06122 2.87415 1.95175C2.82048 1.89667 2.75632 1.85289 2.68546 1.823C2.6146 1.79311 2.53847 1.77771 2.46157 1.77771C2.38466 1.77771 2.30853 1.79311 2.23767 1.823C2.16681 1.85289 2.10265 1.89667 2.04898 1.95175C1.07039 2.93155 0.404113 4.17938 0.134288 5.53763C-0.135537 6.89588 0.00319775 8.30363 0.53297 9.58308C1.06274 10.8625 1.95979 11.9563 3.11081 12.7262Z" fill="#212121"/>
</g>
<defs>
<clipPath id="clip0_414_20963">
<rect width="14" height="14" fill="white"/>
</clipPath>
</defs>
</svg>
