<svg width="14" height="14" viewBox="0 0 14 14" fill="none" xmlns="http://www.w3.org/2000/svg">
<g clip-path="url(#clip0_302_11857)">
<path fill-rule="evenodd" clip-rule="evenodd" d="M6.20813 6.09H6.75063V0H5.56938L4.72063 2.02125L0.861877 1.70625L1.50938 4.38375L6.10313 6.09H6.20813ZM3.96813 6.41375L2.78688 5.2325L1.61438 4.8125V8.44375L4.17813 10.5788V7.2625L4.93063 6.195L3.96813 6.41375ZM9.9531 6.41375L8.9906 6.195L9.7431 7.2625V10.5788L12.3068 8.44375V4.8125L11.1256 5.2325L9.9531 6.41375ZM5.89308 6.51876H8.02808L8.56183 6.19501L9.41933 7.48126V12.2938L8.78058 13.2475L8.02808 14H5.89308L5.14058 13.2475L4.50183 12.2938V7.48126L5.35933 6.19501L5.89308 6.51876ZM9.74316 12.6087L11.1257 11.2175V9.83496L9.74316 11.0075V12.6087ZM4.17812 12.6087L2.78687 11.2175V9.83496L4.17812 11.0075V12.6087ZM8.3519 0L9.20065 2.02125L13.1382 1.75L12.4819 4.375L7.88815 6.125H7.17065V0H8.3519ZM11.6681 1.49625L10.1631 0H8.66687L9.41937 1.70625L11.6681 1.49625ZM3.74942 0H5.24567L4.50192 1.70625L2.25317 1.49625L3.74942 0Z" fill="#212121"/>
</g>
<defs>
<clipPath id="clip0_302_11857">
<rect width="14" height="14" fill="white"/>
</clipPath>
</defs>
</svg>
