<svg width="14" height="14" viewBox="0 0 14 14" fill="none" xmlns="http://www.w3.org/2000/svg">
<g clip-path="url(#clip0_414_20973)">
<path fill-rule="evenodd" clip-rule="evenodd" d="M9.59995 1.2V3.20001H4.39995V1.2H9.59995ZM3.19995 1V3.20001H2.2C1.61652 3.20001 1.05694 3.4318 0.644365 3.84438C0.231785 4.25696 0 4.81654 0 5.40001V8.60001C0 9.18349 0.231785 9.74307 0.644365 10.1556C1.05694 10.5682 1.61652 10.8 2.2 10.8H3.19995V13C3.19995 13.2652 3.30531 13.5196 3.49284 13.7071C3.68038 13.8947 3.93473 14 4.19995 14H9.79995C10.0652 14 10.3195 13.8947 10.5071 13.7071C10.6946 13.5196 10.8 13.2652 10.8 13V10.8H11.8C12.3835 10.8 12.9431 10.5682 13.3556 10.1556C13.7682 9.74307 14 9.18349 14 8.60001V5.40001C14 4.81654 13.7682 4.25696 13.3556 3.84438C12.9431 3.4318 12.3835 3.20001 11.8 3.20001H10.8V1C10.8 0.734784 10.6946 0.48043 10.5071 0.292893C10.3195 0.105357 10.0652 0 9.79995 0H4.19995C3.93473 0 3.68038 0.105357 3.49284 0.292893C3.30531 0.48043 3.19995 0.734784 3.19995 1ZM10.8 9.60001H11.8C12.0652 9.60001 12.3196 9.49466 12.5071 9.30712C12.6946 9.11958 12.8 8.86523 12.8 8.60001V5.40001C12.8 5.1348 12.6946 4.88044 12.5071 4.69291C12.3196 4.50537 12.0652 4.40001 11.8 4.40001H2.2C1.93478 4.40001 1.68043 4.50537 1.49289 4.69291C1.30536 4.88044 1.2 5.1348 1.2 5.40001V8.60001C1.2 8.86523 1.30536 9.11958 1.49289 9.30712C1.68043 9.49466 1.93478 9.60001 2.2 9.60001H3.19995V7.40002C3.19995 7.13481 3.30531 6.88045 3.49284 6.69292C3.68038 6.50538 3.93473 6.40002 4.19995 6.40002H9.79995C10.0652 6.40002 10.3195 6.50538 10.5071 6.69292C10.6946 6.88045 10.8 7.13481 10.8 7.40002V9.60001ZM4.39995 10.2077C4.39998 10.2051 4.4 10.2026 4.4 10.2C4.4 10.1974 4.39998 10.1949 4.39995 10.1923V7.60002H9.59995V12.8H4.39995V10.2077Z" fill="#212121"/>
</g>
<defs>
<clipPath id="clip0_414_20973">
<rect width="14" height="14" fill="white"/>
</clipPath>
</defs>
</svg>
