<svg width="14" height="14" viewBox="0 0 14 14" fill="none" xmlns="http://www.w3.org/2000/svg">
<g clip-path="url(#clip0_414_21014)">
<path fill-rule="evenodd" clip-rule="evenodd" d="M0 6.32258H6.32258V0H0V6.32258ZM1.35484 1.35484H4.96774V4.96774H1.35484V1.35484ZM7.67737 0V6.32258H13.9999V0H7.67737ZM12.6451 4.96774H9.03221V1.35484H12.6451V4.96774ZM6.32258 14H0V7.67743H6.32258V14ZM4.96774 9.03227H1.35484V12.6452H4.96774V9.03227ZM9.25801 7.67743H7.67737V9.25807H9.25801V7.67743ZM10.8387 7.67743H12.4194V9.25806H14V10.8387H12.4194V12.4193H10.8387V10.8387H12.4193V9.25807H10.8387V7.67743ZM10.8387 9.25806H9.25806V10.8387H10.8387V9.25806ZM9.25801 10.8387H7.67737V12.4193H9.25801V10.8387ZM10.8387 12.4194H9.25806V14H10.8387V12.4194ZM12.4193 12.4194H14V14H12.4193V12.4194Z" fill="#212121"/>
</g>
<defs>
<clipPath id="clip0_414_21014">
<rect width="14" height="14" fill="white"/>
</clipPath>
</defs>
</svg>
