<svg width="14" height="14" viewBox="0 0 14 14" fill="none" xmlns="http://www.w3.org/2000/svg">
<g clip-path="url(#clip0_414_21038)">
<path d="M7 0C3.14222 0 0 3.14222 0 7C0 10.8578 3.14222 14 7 14C10.8578 14 14 10.8578 14 7C14 3.14222 10.8578 0 7 0ZM7 12.8333C3.78 12.8333 1.16667 10.22 1.16667 7C1.16667 3.78 3.78 1.16667 7 1.16667C10.22 1.16667 12.8333 3.78 12.8333 7C12.8333 10.22 10.22 12.8333 7 12.8333ZM8.78889 3.65556C9.26333 4.13 9.52778 4.76778 9.52778 5.44444C9.52778 6.12111 9.26333 6.75111 8.78889 7.23333C8.45444 7.56778 8.03444 7.80111 7.58333 7.90222V8.16667C7.58333 8.48556 7.31889 8.75 7 8.75C6.68111 8.75 6.41667 8.48556 6.41667 8.16667V7.38889C6.41667 7.07 6.68111 6.80556 7 6.80556C7.36556 6.80556 7.70778 6.66556 7.96444 6.40889C8.22111 6.15222 8.36111 5.81 8.36111 5.44444C8.36111 5.07889 8.22111 4.73667 7.96444 4.48C7.45111 3.96667 6.55667 3.96667 6.04333 4.48C5.78667 4.73667 5.64667 5.07889 5.64667 5.44444C5.64667 5.76333 5.38222 6.02778 5.06333 6.02778C4.74444 6.02778 4.48 5.76333 4.48 5.44444C4.48 4.76778 4.74444 4.13778 5.21889 3.65556C6.17556 2.69889 7.84 2.69889 8.79667 3.65556H8.78889ZM7.77778 10.3056C7.77778 10.7333 7.42778 11.0833 7 11.0833C6.57222 11.0833 6.22222 10.7333 6.22222 10.3056C6.22222 9.87778 6.57222 9.52778 7 9.52778C7.42778 9.52778 7.77778 9.87778 7.77778 10.3056Z" fill="#212121"/>
</g>
<defs>
<clipPath id="clip0_414_21038">
<rect width="14" height="14" fill="white"/>
</clipPath>
</defs>
</svg>
