<svg width="14" height="14" viewBox="0 0 14 14" fill="none" xmlns="http://www.w3.org/2000/svg">
<g clip-path="url(#clip0_414_21048)">
<path fill-rule="evenodd" clip-rule="evenodd" d="M7.9008 0.088711C8.79357 0.266668 9.61341 0.705635 10.2565 1.34999C10.8611 1.95819 11.2839 2.72314 11.4773 3.55867C11.6707 4.39421 11.627 5.26714 11.351 6.07916C11.0751 6.89118 10.5779 7.61003 9.91551 8.15475C9.25309 8.69946 8.45174 9.04841 7.60171 9.16229V10.2018C7.60171 10.3609 7.53853 10.5134 7.42606 10.6259C7.31359 10.7383 7.16105 10.8015 7.002 10.8015C6.84294 10.8015 6.6904 10.7383 6.57793 10.6259C6.46546 10.5134 6.40228 10.3609 6.40228 10.2018V8.60255C6.40435 8.44414 6.4682 8.2928 6.58022 8.18078C6.69225 8.06876 6.84359 8.00491 7.002 8.00284C7.67639 8.00442 8.33608 7.80578 8.89749 7.43209C9.45889 7.0584 9.89673 6.52648 10.1555 5.90372C10.4144 5.28096 10.4825 4.59538 10.3513 3.93387C10.2201 3.27235 9.89553 2.66465 9.41866 2.18778C8.94179 1.71091 8.3341 1.38632 7.67258 1.25514C7.01106 1.12396 6.32549 1.19209 5.70273 1.4509C5.07996 1.70971 4.54804 2.14756 4.17435 2.70896C3.80066 3.27036 3.60202 3.93005 3.6036 4.60445C3.6036 4.7635 3.54042 4.91604 3.42795 5.02851C3.31548 5.14098 3.16294 5.20416 3.00389 5.20416C2.84483 5.20416 2.69229 5.14098 2.57982 5.02851C2.46736 4.91604 2.40417 4.7635 2.40417 4.60445C2.40286 3.69412 2.67181 2.80389 3.17693 2.04657C3.68206 1.28924 4.40063 0.698905 5.24159 0.350361C6.08254 0.00181713 7.00804 -0.0892459 7.9008 0.088711ZM8.00152 13.0005C8.00152 13.5525 7.55401 14 7.00199 14C6.44997 14 6.00246 13.5525 6.00246 13.0005C6.00246 12.4485 6.44997 12.001 7.00199 12.001C7.55401 12.001 8.00152 12.4485 8.00152 13.0005Z" fill="#212121"/>
</g>
<defs>
<clipPath id="clip0_414_21048">
<rect width="14" height="14" fill="white"/>
</clipPath>
</defs>
</svg>
