<svg width="14" height="14" viewBox="0 0 14 14" fill="none" xmlns="http://www.w3.org/2000/svg">
<g clip-path="url(#clip0_414_21056)">
<path d="M5.46 8.4C5.32155 8.4 5.18622 8.35894 5.0711 8.28203C4.95599 8.20511 4.86627 8.09579 4.81329 7.96788C4.7603 7.83997 4.74644 7.69922 4.77345 7.56344C4.80046 7.42765 4.86713 7.30292 4.96503 7.20502C5.06292 7.10713 5.18765 7.04046 5.32344 7.01345C5.45923 6.98644 5.59997 7.0003 5.72788 7.05328C5.85579 7.10626 5.96511 7.19599 6.04203 7.3111C6.11895 7.42621 6.16 7.56155 6.16 7.7C6.16 7.79192 6.1419 7.88295 6.10672 7.96788C6.07154 8.0528 6.01998 8.12997 5.95498 8.19497C5.88998 8.25997 5.81281 8.31154 5.72788 8.34671C5.64295 8.38189 5.55193 8.4 5.46 8.4ZM14 7C14 8.38447 13.5895 9.73784 12.8203 10.889C12.0511 12.0401 10.9579 12.9373 9.67879 13.4672C8.3997 13.997 6.99224 14.1356 5.63437 13.8655C4.2765 13.5954 3.02922 12.9287 2.05026 11.9497C1.07129 10.9708 0.404603 9.7235 0.134506 8.36563C-0.13559 7.00776 0.00303297 5.6003 0.532846 4.32122C1.06266 3.04213 1.95987 1.94888 3.11101 1.17971C4.26215 0.410543 5.61553 0 7 0C8.85652 0 10.637 0.737498 11.9497 2.05025C13.2625 3.36301 14 5.14348 14 7ZM10.2638 5.83625C10.0225 5.85045 9.79504 5.95329 9.625 6.125C8.90534 5.64933 8.06385 5.39111 7.20125 5.38125L7.69125 3.1675L9.2575 3.5175C9.25634 3.60901 9.27337 3.69984 9.30759 3.78472C9.34181 3.8696 9.39254 3.94683 9.45684 4.01195C9.52115 4.07707 9.59774 4.12877 9.68219 4.16406C9.76663 4.19934 9.85723 4.21751 9.94875 4.2175C10.1352 4.2152 10.3132 4.13951 10.4443 4.00684C10.5753 3.87417 10.6488 3.69522 10.6488 3.50875C10.654 3.34876 10.6035 3.19191 10.506 3.06498C10.4085 2.93805 10.2699 2.8489 10.114 2.81276C9.95801 2.77661 9.79436 2.79571 9.65093 2.86679C9.5075 2.93787 9.39319 3.05652 9.3275 3.2025L7.5775 2.8175C7.53584 2.80951 7.49271 2.81774 7.45692 2.84051C7.42113 2.86329 7.3954 2.89888 7.385 2.94L6.8425 5.38125C5.98028 5.39356 5.13947 5.65157 4.41875 6.125C4.32403 6.0272 4.20912 5.95123 4.08203 5.9024C3.95494 5.85357 3.81873 5.83304 3.68289 5.84225C3.54705 5.85145 3.41486 5.89018 3.29552 5.95572C3.17619 6.02126 3.07258 6.11204 2.99193 6.22173C2.91127 6.33141 2.85551 6.45738 2.82853 6.59082C2.80155 6.72427 2.804 6.862 2.83571 6.99441C2.86742 7.12681 2.92763 7.25071 3.01213 7.35746C3.09664 7.46421 3.20341 7.55125 3.325 7.6125C3.31162 7.75802 3.31162 7.90447 3.325 8.05C3.325 9.52875 4.99625 10.7362 7.0525 10.7362C9.10875 10.7362 10.78 9.52875 10.78 8.05C10.7803 7.89969 10.7627 7.74988 10.7275 7.60375C10.9043 7.5036 11.0438 7.34863 11.1248 7.16225C11.2058 6.97587 11.2239 6.7682 11.1765 6.57059C11.1291 6.37298 11.0186 6.19617 10.8619 6.06685C10.7051 5.93753 10.5105 5.86273 10.3075 5.85375L10.2638 5.83625ZM8.32125 9.1175C7.92804 9.3645 7.47311 9.49552 7.00875 9.49552C6.5444 9.49552 6.08947 9.3645 5.69625 9.1175C5.66399 9.08798 5.62185 9.07162 5.57813 9.07162C5.5344 9.07162 5.49226 9.08798 5.46 9.1175C5.44303 9.13307 5.42948 9.152 5.42021 9.17309C5.41093 9.19418 5.40615 9.21696 5.40615 9.24C5.40615 9.26303 5.41093 9.28582 5.42021 9.30691C5.42948 9.32799 5.44303 9.34692 5.46 9.3625C5.91955 9.67435 6.46213 9.84106 7.0175 9.84106C7.57287 9.84106 8.11545 9.67435 8.575 9.3625C8.59198 9.34692 8.60553 9.32799 8.6148 9.30691C8.62407 9.28582 8.62886 9.26303 8.62886 9.24C8.62886 9.21696 8.62407 9.19418 8.6148 9.17309C8.60553 9.152 8.59198 9.13307 8.575 9.1175C8.55865 9.10029 8.53897 9.08659 8.51716 9.07722C8.49535 9.06786 8.47186 9.06303 8.44813 9.06303C8.42439 9.06303 8.4009 9.06786 8.37909 9.07722C8.35728 9.08659 8.3376 9.10029 8.32125 9.1175ZM8.54 7C8.40156 7 8.26622 7.04105 8.1511 7.11797C8.03599 7.19489 7.94627 7.30421 7.89329 7.43212C7.8403 7.56003 7.82644 7.70077 7.85345 7.83656C7.88046 7.97235 7.94713 8.09708 8.04503 8.19497C8.14292 8.29287 8.26765 8.35954 8.40344 8.38655C8.53922 8.41356 8.67997 8.3997 8.80788 8.34671C8.93579 8.29373 9.04511 8.20401 9.12203 8.0889C9.19895 7.97378 9.24 7.83845 9.24 7.7C9.24 7.51435 9.16625 7.3363 9.03498 7.20502C8.9037 7.07375 8.72565 7 8.54 7Z" fill="#212121"/>
</g>
<defs>
<clipPath id="clip0_414_21056">
<rect width="14" height="14" fill="white"/>
</clipPath>
</defs>
</svg>
