<svg width="14" height="14" viewBox="0 0 14 14" fill="none" xmlns="http://www.w3.org/2000/svg">
<g clip-path="url(#clip0_414_20774)">
<path fill-rule="evenodd" clip-rule="evenodd" d="M6.77054 5.96336C6.84328 5.99355 6.9213 6.00891 7.00005 6.00854C7.0788 6.00891 7.15683 5.99355 7.22956 5.96336C7.30229 5.93317 7.36826 5.88876 7.4236 5.83273C7.53584 5.72035 7.59888 5.56801 7.59888 5.40918C7.59888 5.25035 7.53584 5.09802 7.4236 4.98564L6.0491 3.61113H7.00004C7.90887 3.61113 8.79728 3.88063 9.55294 4.38554C10.3086 4.89046 10.8976 5.60811 11.2454 6.44776C11.5931 7.2874 11.6841 8.21132 11.5068 9.10268C11.3295 9.99404 10.8919 10.8128 10.2493 11.4554C9.60663 12.0981 8.78786 12.5357 7.8965 12.713C7.00514 12.8903 6.08122 12.7993 5.24158 12.4515C4.40194 12.1037 3.68428 11.5148 3.17937 10.7591C2.67445 10.0035 2.40496 9.11504 2.40496 8.20622C2.40496 8.04726 2.34181 7.89481 2.22941 7.78241C2.11701 7.67001 1.96456 7.60686 1.8056 7.60686C1.64664 7.60686 1.49419 7.67001 1.38179 7.78241C1.26938 7.89481 1.20624 8.04726 1.20624 8.20622C1.20835 9.74218 1.81945 11.2146 2.90554 12.3007C3.99163 13.3868 5.46408 13.9979 7.00004 14C8.53666 14 10.0103 13.3896 11.0969 12.3031C12.1834 11.2165 12.7938 9.74283 12.7938 8.20622C12.7938 6.66961 12.1834 5.19593 11.0969 4.10938C10.0103 3.02283 8.53666 2.41241 7.00004 2.41241H6.04904L7.4236 1.03786C7.48249 0.982986 7.52972 0.916817 7.56248 0.843296C7.59523 0.769775 7.61285 0.690409 7.61427 0.609933C7.61569 0.529456 7.60089 0.449519 7.57074 0.374888C7.5406 0.300257 7.49573 0.232462 7.43881 0.175548C7.3819 0.118634 7.31411 0.0737664 7.23948 0.0436218C7.16484 0.0134773 7.08491 -0.00132663 7.00443 9.32772e-05C6.92395 0.00151319 6.84459 0.019128 6.77107 0.0518865C6.69755 0.0846451 6.63138 0.131876 6.57651 0.190763L4.17907 2.5882C4.06683 2.70058 4.00378 2.85292 4.00378 3.01175C4.00378 3.17058 4.06683 3.32291 4.17907 3.43529L6.57651 5.83273C6.63184 5.88876 6.69781 5.93317 6.77054 5.96336Z" fill="#212121"/>
</g>
<defs>
<clipPath id="clip0_414_20774">
<rect width="14" height="14" fill="white"/>
</clipPath>
</defs>
</svg>
