<svg width="14" height="14" viewBox="0 0 14 14" fill="none" xmlns="http://www.w3.org/2000/svg">
<g clip-path="url(#clip0_414_21131)">
<path fill-rule="evenodd" clip-rule="evenodd" d="M8.92029 10.1356C9.03439 10.2087 9.16778 10.2458 9.30321 10.2423C9.38949 10.2423 9.47487 10.2247 9.55409 10.1906C9.63331 10.1564 9.7047 10.1064 9.76386 10.0436L13.7267 6.11621C13.7531 6.09663 13.7781 6.07505 13.8016 6.05157C13.9286 5.92453 14 5.75222 14 5.57256C14 5.3929 13.9286 5.22059 13.8016 5.09355C13.7781 5.07001 13.753 5.04839 13.7266 5.02877L9.76386 1.10162C9.63684 0.974758 9.46466 0.903503 9.28515 0.903503C9.10563 0.903503 8.93345 0.974758 8.80644 1.10162C8.67958 1.22863 8.60832 1.40081 8.60832 1.58033C8.60832 1.75984 8.67958 1.93202 8.80644 2.05904L11.6644 4.89514H0.677419C0.498484 4.89748 0.327535 4.9696 0.200998 5.09614C0.074461 5.22268 0.00233932 5.39363 0 5.57256V12.419C0.00233932 12.5979 0.074461 12.7689 0.200998 12.8954C0.327535 13.022 0.498484 13.0941 0.677419 13.0964C0.856355 13.0941 1.0273 13.022 1.15384 12.8954C1.28038 12.7689 1.3525 12.5979 1.35484 12.419V6.24998H11.6645L8.80644 9.08613C8.71065 9.18195 8.6458 9.30428 8.62025 9.43733C8.5947 9.57038 8.60963 9.70803 8.66312 9.83251C8.7166 9.95699 8.80618 10.0626 8.92029 10.1356Z" fill="#212121"/>
</g>
<defs>
<clipPath id="clip0_414_21131">
<rect width="14" height="14" fill="white"/>
</clipPath>
</defs>
</svg>
