<svg width="14" height="14" viewBox="0 0 14 14" fill="none" xmlns="http://www.w3.org/2000/svg">
<g clip-path="url(#clip0_416_21141)">
<path fill-rule="evenodd" clip-rule="evenodd" d="M11 14H2.99999C2.41651 14 1.85693 13.7682 1.44435 13.3556C1.03177 12.9431 0.799988 12.3835 0.799988 11.8V2.2C0.799988 1.61652 1.03177 1.05694 1.44435 0.644365C1.85693 0.231785 2.41651 0 2.99999 0H8.99999C9.15906 0.000140042 9.31157 0.063446 9.42399 0.176L13.024 3.8C13.1365 3.91241 13.1998 4.06492 13.2 4.224V11.8C13.2 12.3835 12.9682 12.9431 12.5556 13.3556C12.143 13.7682 11.5835 14 11 14ZM2.99999 1.2C2.73477 1.2 2.48042 1.30536 2.29288 1.49289C2.10534 1.68043 1.99999 1.93478 1.99999 2.2V11.8C1.99999 12.0652 2.10534 12.3196 2.29288 12.5071C2.48042 12.6946 2.73477 12.8 2.99999 12.8H3.20001V8.20001C3.20001 7.9348 3.30537 7.68044 3.49291 7.49291C3.68044 7.30537 3.9348 7.20001 4.20001 7.20001H9.80001C10.0652 7.20001 10.3196 7.30537 10.5071 7.49291C10.6947 7.68044 10.8 7.9348 10.8 8.20001V12.8H11C11.2652 12.8 11.5196 12.6946 11.7071 12.5071C11.8946 12.3196 12 12.0652 12 11.8V4.448L8.75199 1.2H8.39998V3.35998C8.40104 3.4955 8.37539 3.62991 8.3245 3.75552C8.2736 3.88113 8.19847 3.99549 8.10338 4.09206C8.0083 4.18864 7.89512 4.26553 7.77031 4.31837C7.6455 4.3712 7.51151 4.39893 7.37598 4.39998H4.22398C4.08846 4.39893 3.95446 4.3712 3.82966 4.31837C3.70485 4.26553 3.59167 4.18864 3.49658 4.09206C3.40149 3.99549 3.32636 3.88113 3.27547 3.75552C3.22458 3.62991 3.19893 3.4955 3.19998 3.35998V1.2H2.99999ZM4.39998 1.2H7.19998V3.19998H4.39998V1.2ZM4.40001 8.40001V12.8H9.60001V8.40001H4.40001Z" fill="#212121"/>
</g>
<defs>
<clipPath id="clip0_416_21141">
<rect width="14" height="14" fill="white"/>
</clipPath>
</defs>
</svg>
