<svg width="14" height="14" viewBox="0 0 14 14" fill="none" xmlns="http://www.w3.org/2000/svg">
<g clip-path="url(#clip0_417_21187)">
<path fill-rule="evenodd" clip-rule="evenodd" d="M14 4.1176V1.64702C14 1.4286 13.9132 1.21913 13.7588 1.06469C13.6044 0.910251 13.3949 0.823486 13.1765 0.823486H0.823529C0.605116 0.823486 0.395648 0.910251 0.241206 1.06469C0.0867644 1.21913 0 1.4286 0 1.64702V4.1176C0 4.33602 0.0867644 4.54549 0.241206 4.69993C0.395648 4.85437 0.605116 4.94113 0.823529 4.94113C0.605116 4.94113 0.395648 5.0279 0.241206 5.18234C0.0867644 5.33678 0 5.54625 0 5.76466V8.23525C0 8.45366 0.0867644 8.66313 0.241206 8.81757C0.395648 8.97202 0.605116 9.05878 0.823529 9.05878C0.605116 9.05878 0.395648 9.14555 0.241206 9.29999C0.0867644 9.45443 0 9.6639 0 9.88231V12.3529C0 12.5713 0.0867644 12.7808 0.241206 12.9352C0.395648 13.0897 0.605116 13.1764 0.823529 13.1764H13.1765C13.3949 13.1764 13.6044 13.0897 13.7588 12.9352C13.9132 12.7808 14 12.5713 14 12.3529V9.88231C14 9.6639 13.9132 9.45443 13.7588 9.29999C13.6044 9.14555 13.3949 9.05878 13.1765 9.05878C13.3949 9.05878 13.6044 8.97202 13.7588 8.81757C13.9132 8.66313 14 8.45366 14 8.23525V5.76466C14 5.54625 13.9132 5.33678 13.7588 5.18234C13.6044 5.0279 13.3949 4.94113 13.1765 4.94113C13.3949 4.94113 13.6044 4.85437 13.7588 4.69993C13.9132 4.54549 14 4.33602 14 4.1176ZM13.1765 12.3529H0.823529V9.88231H13.1765V12.3529ZM13.1765 8.23525H0.823529V5.76466H13.1765V8.23525ZM13.1765 4.1176H0.823529V1.64702H13.1765V4.1176ZM2.26471 3.49994C2.60583 3.49994 2.88236 3.22341 2.88236 2.8823C2.88236 2.54118 2.60583 2.26465 2.26471 2.26465C1.92359 2.26465 1.64706 2.54118 1.64706 2.8823C1.64706 3.22341 1.92359 3.49994 2.26471 3.49994ZM4.94118 2.8823C4.94118 3.22341 4.66465 3.49994 4.32353 3.49994C3.98242 3.49994 3.70589 3.22341 3.70589 2.8823C3.70589 2.54118 3.98242 2.26465 4.32353 2.26465C4.66465 2.26465 4.94118 2.54118 4.94118 2.8823ZM2.26471 7.61762C2.60583 7.61762 2.88236 7.34109 2.88236 6.99997C2.88236 6.65885 2.60583 6.38232 2.26471 6.38232C1.92359 6.38232 1.64706 6.65885 1.64706 6.99997C1.64706 7.34109 1.92359 7.61762 2.26471 7.61762ZM4.94118 6.99997C4.94118 7.34109 4.66465 7.61762 4.32353 7.61762C3.98242 7.61762 3.70589 7.34109 3.70589 6.99997C3.70589 6.65885 3.98242 6.38232 4.32353 6.38232C4.66465 6.38232 4.94118 6.65885 4.94118 6.99997ZM2.26471 11.7352C2.60583 11.7352 2.88236 11.4587 2.88236 11.1176C2.88236 10.7765 2.60583 10.4999 2.26471 10.4999C1.92359 10.4999 1.64706 10.7765 1.64706 11.1176C1.64706 11.4587 1.92359 11.7352 2.26471 11.7352ZM4.94118 11.1176C4.94118 11.4587 4.66465 11.7352 4.32353 11.7352C3.98242 11.7352 3.70589 11.4587 3.70589 11.1176C3.70589 10.7765 3.98242 10.4999 4.32353 10.4999C4.66465 10.4999 4.94118 10.7765 4.94118 11.1176Z" fill="#212121"/>
</g>
<defs>
<clipPath id="clip0_417_21187">
<rect width="14" height="14" fill="white"/>
</clipPath>
</defs>
</svg>
