<svg width="14" height="14" viewBox="0 0 14 14" fill="none" xmlns="http://www.w3.org/2000/svg">
<g clip-path="url(#clip0_417_21200)">
<path d="M11.4 8.79395C10.9901 8.79542 10.5864 8.89404 10.2221 9.08171C9.85773 9.26938 9.54309 9.54075 9.304 9.87354L5.072 7.79432C5.15448 7.53566 5.19763 7.26609 5.2 6.99462C5.19763 6.72315 5.15448 6.45358 5.072 6.19492L9.304 4.1157C9.66895 4.6106 10.1985 4.95914 10.7975 5.09868C11.3966 5.23821 12.0257 5.15958 12.5719 4.87692C13.1181 4.59426 13.5456 4.12611 13.7774 3.55663C14.0092 2.98714 14.0302 2.35367 13.8366 1.77008C13.6431 1.1865 13.2476 0.691073 12.7213 0.372865C12.195 0.0546574 11.5725 -0.0654634 10.9655 0.0340958C10.3586 0.133655 9.80708 0.446364 9.41014 0.916012C9.01319 1.38566 8.79685 1.98144 8.8 2.59627C8.80189 2.73045 8.81528 2.86422 8.84 2.99612L4.464 5.19529C4.22449 4.94171 3.9355 4.73991 3.6149 4.60236C3.29429 4.46482 2.94888 4.39444 2.6 4.39559C1.91044 4.39559 1.24912 4.66942 0.761522 5.15683C0.273928 5.64424 0 6.30532 0 6.99462C0 7.68393 0.273928 8.345 0.761522 8.83241C1.24912 9.31982 1.91044 9.59365 2.6 9.59365C2.94888 9.5948 3.29429 9.52442 3.6149 9.38688C3.9355 9.24933 4.22449 9.04753 4.464 8.79395L8.84 10.9931C8.81482 11.1277 8.80143 11.2641 8.8 11.401C8.8 11.915 8.95249 12.4175 9.23818 12.8449C9.52387 13.2723 9.92993 13.6054 10.405 13.8022C10.8801 13.9989 11.4029 14.0503 11.9072 13.9501C12.4116 13.8498 12.8749 13.6022 13.2385 13.2388C13.6021 12.8753 13.8497 12.4122 13.95 11.908C14.0504 11.4039 13.9989 10.8813 13.8021 10.4064C13.6053 9.93146 13.272 9.52554 12.8445 9.23996C12.4169 8.95437 11.9142 8.80194 11.4 8.80194V8.79395ZM11.4 1.19679C11.6769 1.19679 11.9476 1.27887 12.1778 1.43264C12.408 1.58642 12.5875 1.80499 12.6934 2.06071C12.7994 2.31643 12.8271 2.59782 12.7731 2.86929C12.7191 3.14076 12.5857 3.39012 12.3899 3.58584C12.1942 3.78156 11.9447 3.91485 11.6731 3.96885C11.4016 4.02285 11.1201 3.99514 10.8642 3.88921C10.6084 3.78329 10.3898 3.60392 10.2359 3.37377C10.0821 3.14363 10 2.87306 10 2.59627C10.0021 2.22575 10.1503 1.871 10.4124 1.60901C10.6745 1.34701 11.0293 1.19889 11.4 1.19679ZM2.6 8.3941C2.32311 8.3941 2.05243 8.31202 1.8222 8.15824C1.59197 8.00447 1.41253 7.7859 1.30657 7.53018C1.20061 7.27446 1.17288 6.99307 1.2269 6.7216C1.28092 6.45012 1.41426 6.20076 1.61005 6.00504C1.80584 5.80932 2.0553 5.67603 2.32687 5.62203C2.59845 5.56804 2.87994 5.59575 3.13576 5.70167C3.39157 5.8076 3.61022 5.98697 3.76406 6.21711C3.91789 6.44726 4 6.71783 4 6.99462C3.9979 7.36514 3.84973 7.71988 3.58763 7.98188C3.32553 8.24388 2.97065 8.392 2.6 8.3941ZM11.4 12.7925C11.1231 12.7925 10.8524 12.7104 10.6222 12.5566C10.392 12.4028 10.2125 12.1843 10.1066 11.9285C10.0006 11.6728 9.97288 11.3914 10.0269 11.12C10.0809 10.8485 10.2143 10.5991 10.41 10.4034C10.6058 10.2077 10.8553 10.0744 11.1269 10.0204C11.3984 9.96639 11.6799 9.9941 11.9358 10.1C12.1916 10.206 12.4102 10.3853 12.5641 10.6155C12.7179 10.8456 12.8 11.1162 12.8 11.393C12.7979 11.7635 12.6497 12.1182 12.3876 12.3802C12.1255 12.6422 11.7707 12.7904 11.4 12.7925Z" fill="#212121"/>
</g>
<defs>
<clipPath id="clip0_417_21200">
<rect width="14" height="14" fill="white"/>
</clipPath>
</defs>
</svg>
