<svg width="14" height="14" viewBox="0 0 14 14" fill="none" xmlns="http://www.w3.org/2000/svg">
<g clip-path="url(#clip0_414_20870)">
<path d="M7.00003 14C6.92379 13.999 6.84822 13.9855 6.77636 13.96C4.60685 12.9959 2.7919 11.3775 1.5847 9.33066C0.377499 7.28382 -0.161743 4.9106 0.0422019 2.54208C0.0491838 2.40844 0.101157 2.28111 0.189649 2.18085C0.27814 2.08059 0.397931 2.01331 0.52949 1.98999C2.68939 1.66249 4.78742 1.00966 6.75239 0.053661C6.83018 0.018296 6.91461 0 7.00003 0C7.08545 0 7.16989 0.018296 7.24767 0.053661C9.21264 1.00966 11.3107 1.66249 13.4706 1.98999C13.6021 2.01331 13.7219 2.08059 13.8104 2.18085C13.8989 2.28111 13.9509 2.40844 13.9579 2.54208C14.1618 4.9106 13.6226 7.28382 12.4154 9.33066C11.2082 11.3775 9.39321 12.9959 7.2237 13.96C7.15184 13.9855 7.07628 13.999 7.00003 14ZM1.21649 3.08617C1.09749 5.09206 1.58595 7.08721 2.6179 8.81041C3.64985 10.5336 5.17721 11.9046 7.00003 12.7438C8.82285 11.9046 10.3502 10.5336 11.3822 8.81041C12.4141 7.08721 12.9026 5.09206 12.7836 3.08617C10.7806 2.74562 8.83424 2.129 7.00003 1.25386C5.16582 2.129 3.21951 2.74562 1.21649 3.08617Z" fill="#212121"/>
</g>
<defs>
<clipPath id="clip0_414_20870">
<rect width="14" height="14" fill="white"/>
</clipPath>
</defs>
</svg>
