<svg width="14" height="14" viewBox="0 0 14 14" fill="none" xmlns="http://www.w3.org/2000/svg">
<g clip-path="url(#clip0_262_14611)">
<path d="M6.4004 12.4003C6.4004 13.0644 5.86437 13.6004 5.20032 13.6004C4.53628 13.6004 4.00025 13.0644 4.00025 12.4003C4.00025 11.7363 4.53628 11.2003 5.20032 11.2003C5.86437 11.2003 6.4004 11.7363 6.4004 12.4003ZM10.4006 11.2003C9.73661 11.2003 9.20057 11.7363 9.20057 12.4003C9.20057 13.0644 9.73661 13.6004 10.4006 13.6004C11.0647 13.6004 11.6007 13.0644 11.6007 12.4003C11.6007 11.7363 11.0647 11.2003 10.4006 11.2003ZM13.9849 3.54379L12.3848 9.94419C12.3208 10.2082 12.0808 10.4002 11.8007 10.4002H3.80024C3.51222 10.4002 3.2642 10.1922 3.2082 9.90419L1.69611 1.59967H0.600037C0.272017 1.59967 0 1.32765 0 0.999635C0 0.671614 0.272017 0.399597 0.600037 0.399597H2.20014C2.48816 0.399597 2.73617 0.60761 2.79217 0.895628L3.1362 2.79975H13.4008C13.5848 2.79975 13.7609 2.88775 13.8729 3.03176C13.9849 3.17577 14.0249 3.36778 13.9849 3.54379ZM12.6328 3.99982H3.35221L4.29627 9.20015H11.3287L12.6328 3.99982Z" fill="#212121"/>
</g>
<defs>
<clipPath id="clip0_262_14611">
<rect width="14" height="14" fill="white"/>
</clipPath>
</defs>
</svg>
