<svg width="14" height="14" viewBox="0 0 14 14" fill="none" xmlns="http://www.w3.org/2000/svg">
<g clip-path="url(#clip0_414_20822)">
<path d="M13 4H10.6V3.6C10.6 2.64522 10.2207 1.72955 9.54558 1.05442C8.87045 0.379285 7.95478 0 7 0C6.04522 0 5.12955 0.379285 4.45442 1.05442C3.77928 1.72955 3.4 2.64522 3.4 3.6V4H1C0.734784 4 0.48043 4.10536 0.292893 4.29289C0.105357 4.48043 0 4.73478 0 5V11.8C0 12.3835 0.231785 12.9431 0.644365 13.3556C1.05694 13.7682 1.61652 14 2.2 14H11.8C12.3835 14 12.9431 13.7682 13.3556 13.3556C13.7682 12.9431 14 12.3835 14 11.8V5C14 4.73478 13.8946 4.48043 13.7071 4.29289C13.5196 4.10536 13.2652 4 13 4ZM4.6 3.6C4.6 2.96348 4.85286 2.35303 5.30294 1.90294C5.75303 1.45286 6.36348 1.2 7 1.2C7.63652 1.2 8.24697 1.45286 8.69706 1.90294C9.14714 2.35303 9.4 2.96348 9.4 3.6V4H4.6V3.6ZM12.8 11.8C12.8 12.0652 12.6946 12.3196 12.5071 12.5071C12.3196 12.6946 12.0652 12.8 11.8 12.8H2.2C1.93478 12.8 1.68043 12.6946 1.49289 12.5071C1.30536 12.3196 1.2 12.0652 1.2 11.8V5.2H3.4V7C3.4 7.15913 3.46321 7.31174 3.57574 7.42426C3.68826 7.53679 3.84087 7.6 4 7.6C4.15913 7.6 4.31174 7.53679 4.42426 7.42426C4.53679 7.31174 4.6 7.15913 4.6 7V5.2H9.4V7C9.4 7.15913 9.46321 7.31174 9.57574 7.42426C9.68826 7.53679 9.84087 7.6 10 7.6C10.1591 7.6 10.3117 7.53679 10.4243 7.42426C10.5368 7.31174 10.6 7.15913 10.6 7V5.2H12.8V11.8Z" fill="#212121"/>
</g>
<defs>
<clipPath id="clip0_414_20822">
<rect width="14" height="14" fill="white"/>
</clipPath>
</defs>
</svg>
