<svg width="14" height="14" viewBox="0 0 14 14" fill="none" xmlns="http://www.w3.org/2000/svg">
<g clip-path="url(#clip0_417_21220)">
<path fill-rule="evenodd" clip-rule="evenodd" d="M4.60064 13.9981H2.20129C1.92396 14.0099 1.64702 13.9669 1.38632 13.8715C1.12563 13.7762 0.886291 13.6304 0.682008 13.4424C0.477725 13.2545 0.312505 13.0281 0.195803 12.7763C0.0791012 12.5244 0.0132073 12.252 0.00189209 11.9746V2.02536C0.0132073 1.748 0.0791012 1.4756 0.195803 1.22374C0.312505 0.97188 0.477725 0.745502 0.682008 0.557562C0.886291 0.369621 1.12563 0.223806 1.38632 0.128461C1.64702 0.0331155 1.92396 -0.00988911 2.20129 0.00190764H4.60064C4.75973 0.00190764 4.9123 0.0651044 5.02479 0.177596C5.13728 0.290087 5.20048 0.442658 5.20048 0.601744C5.20048 0.760831 5.13728 0.913401 5.02479 1.02589C4.9123 1.13838 4.75973 1.20158 4.60064 1.20158H2.20129C1.96382 1.18093 1.7275 1.25248 1.54136 1.40139C1.35523 1.5503 1.23355 1.76515 1.20157 2.00136V11.9746C1.23355 12.2109 1.35523 12.4257 1.54136 12.5746C1.7275 12.7235 1.96382 12.7951 2.20129 12.7744H4.60064C4.75973 12.7744 4.9123 12.8376 5.02479 12.9501C5.13728 13.0626 5.20048 13.2152 5.20048 13.3743C5.20048 13.5333 5.13728 13.6859 5.02479 13.7984C4.9123 13.9109 4.75973 13.9741 4.60064 13.9741V13.9981ZM10.1991 10.799C10.1203 10.7994 10.0422 10.784 9.9694 10.7538C9.89661 10.7236 9.83058 10.6791 9.7752 10.623C9.66288 10.5106 9.59978 10.3581 9.59978 10.1992C9.59978 10.0402 9.66288 9.88774 9.7752 9.77527L11.9507 7.59982H4.60063C4.44154 7.59982 4.28897 7.53662 4.17648 7.42413C4.06399 7.31164 4.00079 7.15907 4.00079 6.99998C4.00079 6.8409 4.06399 6.68833 4.17648 6.57583C4.28897 6.46334 4.44154 6.40015 4.60063 6.40015H11.9506L9.7752 4.22478C9.71627 4.16986 9.669 4.10364 9.63622 4.03006C9.60343 3.95648 9.5858 3.87705 9.58438 3.79651C9.58296 3.71597 9.59778 3.63597 9.62795 3.56128C9.65812 3.48659 9.70302 3.41874 9.75998 3.36178C9.81694 3.30482 9.88479 3.25992 9.95948 3.22975C10.0342 3.19958 10.1142 3.18477 10.1947 3.18619C10.2752 3.18761 10.3547 3.20524 10.4283 3.23802C10.5018 3.27081 10.5681 3.31808 10.623 3.37701L13.8064 6.56039C13.8118 6.56543 13.8171 6.57058 13.8224 6.57583C13.9349 6.68833 13.9981 6.8409 13.9981 6.99998C13.9981 7.15907 13.9349 7.31164 13.8224 7.42413C13.8175 7.42901 13.8125 7.4338 13.8075 7.4385L10.623 10.623C10.5676 10.6791 10.5016 10.7236 10.4288 10.7538C10.356 10.784 10.2779 10.7994 10.1991 10.799Z" fill="#212121"/>
</g>
<defs>
<clipPath id="clip0_417_21220">
<rect width="14" height="14" fill="white"/>
</clipPath>
</defs>
</svg>
