<svg width="14" height="14" viewBox="0 0 14 14" fill="none" xmlns="http://www.w3.org/2000/svg">
<g clip-path="url(#clip0_417_21209)">
<path fill-rule="evenodd" clip-rule="evenodd" d="M11.8 13.9981H9.39999C9.24086 13.9981 9.08825 13.9348 8.97572 13.8221C8.8632 13.7094 8.79999 13.5566 8.79999 13.3972C8.79999 13.2379 8.8632 13.085 8.97572 12.9723C9.08825 12.8597 9.24086 12.7964 9.39999 12.7964H11.8C12.0375 12.817 12.2739 12.7454 12.4601 12.5962C12.6463 12.447 12.768 12.2318 12.8 11.9952V2.0048C12.768 1.76818 12.6463 1.55296 12.4601 1.4038C12.2739 1.25463 12.0375 1.18296 11.8 1.20364H9.39999C9.24086 1.20364 9.08825 1.14034 8.97572 1.02765C8.8632 0.914969 8.79999 0.762137 8.79999 0.602777C8.79999 0.443418 8.8632 0.290585 8.97572 0.177901C9.08825 0.0652164 9.24086 0.00191091 9.39999 0.00191091H11.8C12.0774 -0.00990609 12.3544 0.0331726 12.6152 0.128682C12.8759 0.224191 13.1153 0.370256 13.3197 0.558519C13.524 0.746782 13.6893 0.973548 13.806 1.22584C13.9228 1.47813 13.9887 1.751 14 2.02883V11.9712C13.9887 12.249 13.9228 12.5219 13.806 12.7742C13.6893 13.0265 13.524 13.2532 13.3197 13.4415C13.1153 13.6297 12.8759 13.7758 12.6152 13.8713C12.3544 13.9668 12.0774 14.0099 11.8 13.9981ZM6.2 10.7935C6.12116 10.7939 6.04305 10.7785 5.97024 10.7482C5.89743 10.7179 5.83139 10.6734 5.776 10.6172C5.66364 10.5046 5.60052 10.3519 5.60052 10.1926C5.60052 10.0334 5.66364 9.88068 5.776 9.76802L7.95199 7.58888H0.6C0.44087 7.58888 0.288258 7.52557 0.175736 7.41289C0.063214 7.3002 0 7.14737 0 6.98801C0 6.82865 0.063214 6.67582 0.175736 6.56314C0.288258 6.45045 0.44087 6.38715 0.6 6.38715H7.952L5.776 4.208C5.67001 4.0941 5.61231 3.94344 5.61506 3.78778C5.6178 3.63211 5.68077 3.48359 5.7907 3.3735C5.90063 3.26341 6.04894 3.20035 6.20438 3.1976C6.35982 3.19486 6.51026 3.25264 6.624 3.35878L9.80905 6.54843C9.8142 6.55323 9.81927 6.55813 9.82426 6.56314C9.93679 6.67582 10 6.82865 10 6.98801C10 7.14737 9.93679 7.3002 9.82426 7.41289C9.81923 7.41793 9.81411 7.42287 9.80892 7.42772L6.624 10.6172C6.5686 10.6734 6.50256 10.7179 6.42975 10.7482C6.35694 10.7785 6.27883 10.7939 6.2 10.7935Z" fill="#212121"/>
</g>
<defs>
<clipPath id="clip0_417_21209">
<rect width="14" height="14" fill="white"/>
</clipPath>
</defs>
</svg>
