<svg width="14" height="14" viewBox="0 0 14 14" fill="none" xmlns="http://www.w3.org/2000/svg">
<g clip-path="url(#clip0_417_21246)">
<path d="M2.94 8.84625C2.94 9.13699 2.85379 9.4212 2.69226 9.66294C2.53073 9.90468 2.30115 10.0931 2.03255 10.2044C1.76394 10.3156 1.46837 10.3447 1.18322 10.288C0.898066 10.2313 0.636137 10.0913 0.430554 9.8857C0.22497 9.68011 0.0849666 9.41818 0.0282463 9.13303C-0.028474 8.84788 0.000636866 8.55231 0.111898 8.2837C0.223158 8.0151 0.411572 7.78551 0.653312 7.62399C0.895052 7.46246 1.17926 7.37625 1.47 7.37625H2.94V8.84625ZM3.68375 8.84625C3.68375 8.45638 3.83862 8.08248 4.1143 7.8068C4.38998 7.53112 4.76388 7.37625 5.15375 7.37625C5.54362 7.37625 5.91752 7.53112 6.1932 7.8068C6.46887 8.08248 6.62375 8.45638 6.62375 8.84625V12.53C6.62375 12.9199 6.46887 13.2938 6.1932 13.5694C5.91752 13.8451 5.54362 14 5.15375 14C4.76388 14 4.38998 13.8451 4.1143 13.5694C3.83862 13.2938 3.68375 12.9199 3.68375 12.53V8.84625ZM5.15375 2.94C4.86301 2.94 4.5788 2.85379 4.33706 2.69226C4.09532 2.53073 3.90691 2.30115 3.79565 2.03255C3.68439 1.76394 3.65528 1.46837 3.712 1.18322C3.76872 0.898066 3.90872 0.636137 4.1143 0.430554C4.31989 0.22497 4.58181 0.0849666 4.86697 0.0282463C5.15212 -0.028474 5.44769 0.000636866 5.71629 0.111898C5.9849 0.223158 6.21448 0.411572 6.37601 0.653312C6.53754 0.895052 6.62375 1.17926 6.62375 1.47V2.94H5.15375ZM5.15375 3.68375C5.54362 3.68375 5.91752 3.83862 6.1932 4.1143C6.46887 4.38998 6.62375 4.76388 6.62375 5.15375C6.62375 5.54362 6.46887 5.91752 6.1932 6.1932C5.91752 6.46887 5.54362 6.62375 5.15375 6.62375H1.47C1.08013 6.62375 0.706232 6.46887 0.430554 6.1932C0.154875 5.91752 5.16468e-07 5.54362 5.16468e-07 5.15375C5.16468e-07 4.76388 0.154875 4.38998 0.430554 4.1143C0.706232 3.83862 1.08013 3.68375 1.47 3.68375H5.15375ZM11.06 5.15375C11.06 4.86301 11.1462 4.5788 11.3077 4.33706C11.4693 4.09532 11.6988 3.90691 11.9675 3.79565C12.2361 3.68439 12.5316 3.65528 12.8168 3.712C13.1019 3.76872 13.3639 3.90872 13.5694 4.1143C13.775 4.31989 13.915 4.58181 13.9718 4.86697C14.0285 5.15212 13.9994 5.44769 13.8881 5.71629C13.7768 5.9849 13.5884 6.21448 13.3467 6.37601C13.1049 6.53754 12.8207 6.62375 12.53 6.62375H11.06V5.15375ZM10.3162 5.15375C10.3162 5.54362 10.1614 5.91752 9.8857 6.1932C9.61002 6.46887 9.23612 6.62375 8.84625 6.62375C8.45638 6.62375 8.08248 6.46887 7.8068 6.1932C7.53112 5.91752 7.37625 5.54362 7.37625 5.15375V1.47C7.37625 1.08013 7.53112 0.706232 7.8068 0.430554C8.08248 0.154875 8.45638 5.16468e-07 8.84625 5.16468e-07C9.23612 5.16468e-07 9.61002 0.154875 9.8857 0.430554C10.1614 0.706232 10.3162 1.08013 10.3162 1.47V5.15375ZM8.84625 11.06C9.13699 11.06 9.4212 11.1462 9.66294 11.3077C9.90468 11.4693 10.0931 11.6988 10.2044 11.9675C10.3156 12.2361 10.3447 12.5316 10.288 12.8168C10.2313 13.1019 10.0913 13.3639 9.8857 13.5694C9.68011 13.775 9.41818 13.915 9.13303 13.9718C8.84788 14.0285 8.55231 13.9994 8.2837 13.8881C8.0151 13.7768 7.78551 13.5884 7.62399 13.3467C7.46246 13.1049 7.37625 12.8207 7.37625 12.53V11.06H8.84625ZM8.84625 10.3162C8.45638 10.3162 8.08248 10.1614 7.8068 9.8857C7.53112 9.61002 7.37625 9.23612 7.37625 8.84625C7.37625 8.45638 7.53112 8.08248 7.8068 7.8068C8.08248 7.53112 8.45638 7.37625 8.84625 7.37625H12.53C12.9199 7.37625 13.2938 7.53112 13.5694 7.8068C13.8451 8.08248 14 8.45638 14 8.84625C14 9.23612 13.8451 9.61002 13.5694 9.8857C13.2938 10.1614 12.9199 10.3162 12.53 10.3162H8.84625Z" fill="#212121"/>
</g>
<defs>
<clipPath id="clip0_417_21246">
<rect width="14" height="14" fill="white"/>
</clipPath>
</defs>
</svg>
