<svg width="14" height="14" viewBox="0 0 14 14" fill="none" xmlns="http://www.w3.org/2000/svg">
<g clip-path="url(#clip0_417_21261)">
<path fill-rule="evenodd" clip-rule="evenodd" d="M4.71713 4.76672C4.84366 4.89325 5.01461 4.96537 5.19355 4.96771C5.37248 4.96537 5.54343 4.89325 5.66997 4.76672C5.79651 4.64018 5.86863 4.46923 5.87097 4.29029V2.93628L5.87097 2.93548L5.87097 2.93467V1.58062C5.87097 1.40095 5.7996 1.22865 5.67256 1.10161C5.54551 0.974569 5.37321 0.903198 5.19355 0.903198C5.01389 0.903198 4.84158 0.974569 4.71454 1.10161C4.5875 1.22865 4.51613 1.40095 4.51613 1.58062V2.25806H0.677419C0.497757 2.25806 0.325452 2.32943 0.198411 2.45647C0.0713707 2.58351 0 2.75581 0 2.93548C0 3.11514 0.0713707 3.28744 0.198411 3.41448C0.325452 3.54152 0.497757 3.6129 0.677419 3.6129H4.51613V4.29029C4.51847 4.46923 4.59059 4.64018 4.71713 4.76672ZM13.3226 3.6129H7C6.82033 3.6129 6.64803 3.54152 6.52099 3.41448C6.39395 3.28744 6.32258 3.11514 6.32258 2.93548C6.32258 2.75581 6.39395 2.58351 6.52099 2.45647C6.64803 2.32943 6.82033 2.25806 7 2.25806H13.3226C13.5022 2.25806 13.6745 2.32943 13.8016 2.45647C13.9286 2.58351 14 2.75581 14 2.93548C14 3.11514 13.9286 3.28744 13.8016 3.41448C13.6745 3.54152 13.5022 3.6129 13.3226 3.6129ZM13.3226 11.7419H7C6.82033 11.7419 6.64803 11.6706 6.52099 11.5435C6.39395 11.4165 6.32258 11.2442 6.32258 11.0645C6.32258 10.8848 6.39395 10.7125 6.52099 10.5855C6.64803 10.4585 6.82033 10.3871 7 10.3871H13.3226C13.5022 10.3871 13.6745 10.4585 13.8016 10.5855C13.9286 10.7125 14 10.8848 14 11.0645C14 11.2442 13.9286 11.4165 13.8016 11.5435C13.6745 11.6706 13.5022 11.7419 13.3226 11.7419ZM0.677419 11.7419H4.51613V12.4193C4.51847 12.5983 4.59059 12.7692 4.71713 12.8957C4.84366 13.0223 5.01461 13.0944 5.19355 13.0967C5.37248 13.0944 5.54343 13.0223 5.66997 12.8957C5.79651 12.7692 5.86863 12.5983 5.87097 12.4193V11.0653L5.87097 11.0645L5.87097 11.0637V9.70965C5.87097 9.52998 5.7996 9.35768 5.67256 9.23064C5.54551 9.1036 5.37321 9.03223 5.19355 9.03223C5.01389 9.03223 4.84158 9.1036 4.71454 9.23064C4.5875 9.35768 4.51613 9.52998 4.51613 9.70965V10.3871H0.677419C0.497757 10.3871 0.325452 10.4585 0.198411 10.5855C0.0713707 10.7125 0 10.8848 0 11.0645C0 11.2442 0.0713707 11.4165 0.198411 11.5435C0.325452 11.6706 0.497757 11.7419 0.677419 11.7419ZM10.6129 7.67741H13.3226C13.5022 7.67741 13.6746 7.60604 13.8016 7.479C13.9286 7.35196 14 7.17965 14 6.99999C14 6.82033 13.9286 6.64802 13.8016 6.52098C13.6746 6.39394 13.5022 6.32257 13.3226 6.32257H10.6129C10.4332 6.32257 10.2609 6.39394 10.1339 6.52098C10.0069 6.64802 9.93549 6.82033 9.93549 6.99999C9.93549 7.17965 10.0069 7.35196 10.1339 7.479C10.2609 7.60604 10.4332 7.67741 10.6129 7.67741ZM8.12903 7.67741H0.677419C0.497757 7.67741 0.325452 7.60604 0.198411 7.479C0.0713707 7.35196 0 7.17965 0 6.99999C0 6.82033 0.0713707 6.64802 0.198411 6.52098C0.325452 6.39394 0.497757 6.32257 0.677419 6.32257H8.12903V5.64513C8.12903 5.46547 8.2004 5.29317 8.32744 5.16612C8.45448 5.03908 8.62679 4.96771 8.80645 4.96771C8.98611 4.96771 9.15841 5.03908 9.28546 5.16612C9.4125 5.29317 9.48387 5.46547 9.48387 5.64513V6.99771C9.48387 6.99847 9.48387 6.99923 9.48387 6.99999C9.48387 7.00075 9.48387 7.00151 9.48387 7.00226V8.35481C9.48153 8.53374 9.40941 8.70469 9.28287 8.83123C9.15633 8.95777 8.98538 9.02989 8.80645 9.03223C8.62751 9.02989 8.45656 8.95777 8.33003 8.83123C8.20349 8.70469 8.13137 8.53374 8.12903 8.35481V7.67741Z" fill="#212121"/>
</g>
<defs>
<clipPath id="clip0_417_21261">
<rect width="14" height="14" fill="white"/>
</clipPath>
</defs>
</svg>
