<svg width="14" height="14" viewBox="0 0 14 14" fill="none" xmlns="http://www.w3.org/2000/svg">
<g clip-path="url(#clip0_417_21284)">
<path fill-rule="evenodd" clip-rule="evenodd" d="M11.7419 4.51611V0.677419C11.7419 0.497757 11.6705 0.325452 11.5435 0.198411C11.4165 0.0713707 11.2442 0 11.0645 0C10.8848 0 10.7125 0.0713707 10.5855 0.198411C10.4584 0.325452 10.3871 0.497757 10.3871 0.677419V4.51611H9.70965C9.52998 4.51611 9.35768 4.58748 9.23064 4.71453C9.1036 4.84157 9.03223 5.01387 9.03223 5.19353C9.03223 5.3732 9.1036 5.5455 9.23064 5.67254C9.35768 5.79958 9.52998 5.87095 9.70965 5.87095H11.0634L11.0645 5.87097L11.0656 5.87095H12.4193C12.599 5.87095 12.7713 5.79958 12.8983 5.67254C13.0254 5.5455 13.0967 5.3732 13.0967 5.19353C13.0967 5.01387 13.0254 4.84157 12.8983 4.71453C12.7713 4.58748 12.599 4.51611 12.4193 4.51611H11.7419ZM11.0645 14C10.8856 13.9977 10.7146 13.9255 10.5881 13.799C10.4615 13.6725 10.3894 13.5015 10.3871 13.3226V6.99999C10.3871 6.82033 10.4584 6.64802 10.5855 6.52098C10.7125 6.39394 10.8848 6.32257 11.0645 6.32257C11.2442 6.32257 11.4165 6.39394 11.5435 6.52098C11.6705 6.64802 11.7419 6.82033 11.7419 6.99999V13.3226C11.7396 13.5015 11.6674 13.6725 11.5409 13.799C11.4144 13.9255 11.2434 13.9977 11.0645 14ZM2.93546 14C2.75653 13.9977 2.58558 13.9255 2.45904 13.799C2.3325 13.6725 2.26038 13.5015 2.25804 13.3226V6.99999C2.25804 6.82033 2.32941 6.64802 2.45645 6.52098C2.58349 6.39394 2.7558 6.32257 2.93546 6.32257C3.11512 6.32257 3.28743 6.39394 3.41447 6.52098C3.54151 6.64802 3.61288 6.82033 3.61288 6.99999V13.3226C3.61054 13.5015 3.53842 13.6725 3.41188 13.799C3.28534 13.9255 3.1144 13.9977 2.93546 14ZM3.61288 0.677419V4.51611H4.29029C4.46996 4.51611 4.64226 4.58748 4.7693 4.71453C4.89634 4.84157 4.96771 5.01387 4.96771 5.19353C4.96771 5.3732 4.89634 5.5455 4.7693 5.67254C4.64226 5.79958 4.46996 5.87095 4.29029 5.87095H2.93659L2.93546 5.87097L2.93433 5.87095H1.58062C1.40095 5.87095 1.22865 5.79958 1.10161 5.67254C0.974569 5.5455 0.903198 5.3732 0.903198 5.19353C0.903198 5.01387 0.974569 4.84157 1.10161 4.71453C1.22865 4.58748 1.40095 4.51611 1.58062 4.51611H2.25804V0.677419C2.25804 0.497757 2.32941 0.325452 2.45645 0.198411C2.58349 0.0713707 2.7558 0 2.93546 0C3.11512 0 3.28743 0.0713707 3.41447 0.198411C3.54151 0.325452 3.61288 0.497757 3.61288 0.677419ZM6.52355 13.799C6.65009 13.9255 6.82104 13.9977 6.99997 14C7.17891 13.9977 7.34986 13.9255 7.4764 13.799C7.60293 13.6725 7.67506 13.5015 7.67739 13.3226V10.6129C7.67739 10.4332 7.60602 10.2609 7.47898 10.1339C7.35194 10.0069 7.17964 9.93549 6.99997 9.93549C6.82031 9.93549 6.64801 10.0069 6.52097 10.1339C6.39393 10.2609 6.32256 10.4332 6.32256 10.6129V13.3226C6.32489 13.5015 6.39702 13.6725 6.52355 13.799ZM7.67739 8.12903V0.677419C7.67739 0.497757 7.60602 0.325452 7.47898 0.198411C7.35194 0.0713707 7.17964 0 6.99997 0C6.82031 0 6.64801 0.0713707 6.52097 0.198411C6.39393 0.325452 6.32256 0.497757 6.32256 0.677419V8.12903H5.64513C5.46547 8.12903 5.29317 8.2004 5.16612 8.32744C5.03908 8.45448 4.96771 8.62679 4.96771 8.80645C4.96771 8.98611 5.03908 9.15841 5.16612 9.28546C5.29317 9.4125 5.46547 9.48387 5.64513 9.48387H6.99969C6.99978 9.48387 6.99988 9.48387 6.99997 9.48387C7.00007 9.48387 7.00017 9.48387 7.00026 9.48387H8.35481C8.53447 9.48387 8.70678 9.4125 8.83382 9.28546C8.96086 9.15841 9.03223 8.98611 9.03223 8.80645C9.03223 8.62679 8.96086 8.45448 8.83382 8.32744C8.70678 8.2004 8.53447 8.12903 8.35481 8.12903H7.67739Z" fill="#212121"/>
</g>
<defs>
<clipPath id="clip0_417_21284">
<rect width="14" height="14" fill="white"/>
</clipPath>
</defs>
</svg>
