<svg width="14" height="14" viewBox="0 0 14 14" fill="none" xmlns="http://www.w3.org/2000/svg">
<g clip-path="url(#clip0_417_21398)">
<path fill-rule="evenodd" clip-rule="evenodd" d="M2.19988 5.9997H11.8002C11.9185 6.0005 12.0343 5.96587 12.1326 5.90028C12.231 5.83469 12.3075 5.74114 12.3523 5.63168C12.3984 5.52197 12.4109 5.40101 12.3881 5.2842C12.3653 5.16738 12.3082 5.05998 12.2243 4.97566L7.42408 0.175479C7.31157 0.0631141 7.15907 0 7.00006 0C6.84105 0 6.68855 0.0631141 6.57604 0.175479L1.77587 4.97566C1.69187 5.05998 1.63485 5.16738 1.61206 5.2842C1.58927 5.40101 1.60173 5.52197 1.64786 5.63168C1.6926 5.74114 1.76909 5.83469 1.86748 5.90028C1.96586 5.96587 2.08164 6.0005 2.19988 5.9997ZM10.3522 4.79965H3.64793L7.00006 1.44753L10.3522 4.79965ZM6.7703 13.9548C6.84311 13.985 6.92122 14.0004 7.00006 14C7.0789 14.0004 7.15701 13.985 7.22982 13.9548C7.30264 13.9245 7.36868 13.8801 7.42408 13.824L12.2243 9.02381C12.3082 8.93948 12.3653 8.83209 12.3881 8.71527C12.4109 8.59845 12.3984 8.4775 12.3523 8.36778C12.3075 8.25833 12.231 8.16478 12.1326 8.09919C12.0343 8.03359 11.9185 7.99897 11.8002 7.99977H2.19988C2.08164 7.99897 1.96586 8.03359 1.86748 8.09919C1.76909 8.16478 1.6926 8.25833 1.64786 8.36778C1.60173 8.4775 1.58927 8.59845 1.61206 8.71527C1.63485 8.83209 1.69187 8.93948 1.77587 9.02381L6.57604 13.824C6.63144 13.8801 6.69748 13.9245 6.7703 13.9548ZM7.00006 12.5519L3.64793 9.19981H10.3522L7.00006 12.5519Z" fill="#212121"/>
</g>
<defs>
<clipPath id="clip0_417_21398">
<rect width="14" height="14" fill="white"/>
</clipPath>
</defs>
</svg>
