<svg width="14" height="14" viewBox="0 0 14 14" fill="none" xmlns="http://www.w3.org/2000/svg">
<g clip-path="url(#clip0_417_21312)">
<path d="M4.08223 0.19871C4.01897 0.135484 3.94667 0.0903226 3.86533 0.0541935C3.70266 -0.0180645 3.51288 -0.0180645 3.35021 0.0541935C3.26887 0.0903226 3.19657 0.135484 3.13331 0.19871L0.87399 2.45677C0.611909 2.71871 0.611909 3.15226 0.87399 3.41419C1.13607 3.67613 1.56986 3.67613 1.83194 3.41419L2.93449 2.31226V13.3226C2.93449 13.6929 3.24176 14 3.61229 14C3.98282 14 4.29009 13.6929 4.29009 13.3226V2.31226L5.39264 3.41419C5.52819 3.54968 5.6999 3.6129 5.87161 3.6129C6.04332 3.6129 6.21503 3.54968 6.35059 3.41419C6.61267 3.15226 6.61267 2.71871 6.35059 2.45677L4.09127 0.19871H4.08223Z" fill="#212121"/>
<path d="M13.2822 12.6452L11.7369 8.31871C11.5832 7.93032 11.2308 7.67742 10.8331 7.67742C10.4355 7.67742 10.083 7.93032 9.92941 8.33677L8.39307 12.6452C8.26655 12.9974 8.4473 13.3858 8.79975 13.5123C9.1522 13.6387 9.54081 13.4581 9.66733 13.1058L9.92037 12.4013H11.7549L12.008 13.1058C12.1074 13.3858 12.3695 13.5574 12.6496 13.5574C12.7219 13.5574 12.8033 13.5484 12.8756 13.5213C13.228 13.3948 13.4088 13.0065 13.2822 12.6542V12.6452ZM10.3994 11.0465L10.8331 9.83613L11.2669 11.0465H10.3994Z" fill="#212121"/>
<path d="M8.64607 5.6813C8.81778 6.07872 9.17927 6.32259 9.59499 6.32259H12.4237C12.7942 6.32259 13.1015 6.01549 13.1015 5.64517C13.1015 5.27485 12.7942 4.96775 12.4237 4.96775H10.2637L12.8123 2.3213C13.1195 1.99614 13.2099 1.51743 13.0292 1.10194C12.8575 0.704525 12.496 0.460654 12.0802 0.460654H9.26965C8.89912 0.460654 8.59185 0.767751 8.59185 1.13807C8.59185 1.5084 8.89912 1.81549 9.26965 1.81549H11.4296L8.87201 4.48001C8.56474 4.80517 8.4834 5.27485 8.65511 5.69033L8.64607 5.6813Z" fill="#212121"/>
</g>
<defs>
<clipPath id="clip0_417_21312">
<rect width="14" height="14" fill="white"/>
</clipPath>
</defs>
</svg>
