<svg width="14" height="14" viewBox="0 0 14 14" fill="none" xmlns="http://www.w3.org/2000/svg">
<g clip-path="url(#clip0_417_21323)">
<path d="M1.60774 3.41419L2.70967 2.31226V7.45161C2.70967 7.82194 3.01677 8.12903 3.38709 8.12903C3.75741 8.12903 4.06451 7.82194 4.06451 7.45161V2.31226L5.16645 3.41419C5.30193 3.54968 5.47354 3.6129 5.64516 3.6129C5.81677 3.6129 5.98838 3.54968 6.12387 3.41419C6.3858 3.15226 6.3858 2.71871 6.12387 2.45677L3.8658 0.19871C3.80258 0.135484 3.73032 0.0903226 3.64903 0.0541935C3.48645 -0.0180645 3.29677 -0.0180645 3.13419 0.0541935C3.0529 0.0903226 2.98064 0.135484 2.91741 0.19871L0.65935 2.45677C0.397415 2.71871 0.397415 3.15226 0.65935 3.41419C0.921286 3.67613 1.35483 3.67613 1.61677 3.41419H1.60774Z" fill="#212121"/>
<path d="M12.3922 10.5858L11.2903 11.6877V6.54839C11.2903 6.17806 10.9832 5.87097 10.6129 5.87097C10.2426 5.87097 9.93547 6.17806 9.93547 6.54839V11.6877L8.83353 10.5858C8.5716 10.3239 8.13805 10.3239 7.87611 10.5858C7.61418 10.8477 7.61418 11.2813 7.87611 11.5432L10.1342 13.8013C10.1974 13.8645 10.2697 13.9097 10.351 13.9458C10.4322 13.9819 10.5226 14 10.6129 14C10.7032 14 10.7935 13.9819 10.8748 13.9458C10.9561 13.9097 11.0284 13.8645 11.0916 13.8013L13.3497 11.5432C13.6116 11.2813 13.6116 10.8477 13.3497 10.5858C13.0877 10.3239 12.6542 10.3239 12.3922 10.5858Z" fill="#212121"/>
<path d="M13.3497 1.60774C13.6116 1.34581 13.6116 0.912258 13.3497 0.650322C13.0877 0.388387 12.6542 0.388387 12.3922 0.650322L11.2903 1.75226V0.677419C11.2903 0.307097 10.9832 0 10.6129 0C10.2426 0 9.93547 0.307097 9.93547 0.677419V3.1071L0.650309 12.3923C0.388374 12.6542 0.388374 13.0877 0.650309 13.3497C0.785793 13.4852 0.957406 13.5484 1.12902 13.5484C1.30063 13.5484 1.47224 13.4852 1.60773 13.3497L2.70966 12.2477V13.3226C2.70966 13.6929 3.01676 14 3.38708 14C3.75741 14 4.0645 13.6929 4.0645 13.3226V10.8929L13.3497 1.60774Z" fill="#212121"/>
</g>
<defs>
<clipPath id="clip0_417_21323">
<rect width="14" height="14" fill="white"/>
</clipPath>
</defs>
</svg>
