<svg width="14" height="14" viewBox="0 0 14 14" fill="none" xmlns="http://www.w3.org/2000/svg">
<g clip-path="url(#clip0_417_21345)">
<path fill-rule="evenodd" clip-rule="evenodd" d="M3.7304 13.9988L3.72702 13.9988C3.63771 13.9995 3.54913 13.9825 3.4664 13.9487C3.38264 13.9146 3.30656 13.8641 3.24265 13.8001L0.984779 11.5151C0.857931 11.3881 0.786682 11.2159 0.786682 11.0364C0.786682 10.8569 0.857931 10.6848 0.984779 10.5578C1.11444 10.4325 1.28768 10.3625 1.46796 10.3625C1.64825 10.3625 1.82149 10.4325 1.95115 10.5578L3.04401 11.6506V0.677361C3.04638 0.496888 3.11974 0.324613 3.24821 0.197836C3.37668 0.0710596 3.54991 -1.56221e-05 3.7304 0C3.90848 0.00237458 4.07845 0.0747863 4.20354 0.20156C4.32862 0.328333 4.39875 0.499268 4.39873 0.677361V11.7228L5.56374 10.5578C5.6934 10.4325 5.86664 10.3625 6.04693 10.3625C6.22721 10.3625 6.40045 10.4325 6.53011 10.5578C6.65696 10.6848 6.72821 10.8569 6.72821 11.0364C6.72821 11.2159 6.65696 11.3881 6.53011 11.5151L4.27224 13.773C4.20506 13.8494 4.12132 13.9094 4.02741 13.9485C3.93368 13.9876 3.83228 14.0048 3.73092 13.9988L3.7304 13.9988ZM11.1507 13.3457C11.2758 13.4724 11.4458 13.5448 11.6238 13.5472C11.8043 13.5472 11.9776 13.4762 12.106 13.3494C12.2345 13.2226 12.3079 13.0503 12.3102 12.8699V8.85084C12.3125 8.62787 12.2507 8.40894 12.1323 8.22003C12.0138 8.03113 11.8436 7.88018 11.6419 7.78513C11.4665 7.70024 11.2713 7.66464 11.0772 7.68214C10.8831 7.69964 10.6975 7.76958 10.5401 7.88447L9.94398 8.20961C9.78589 8.29704 9.66901 8.44368 9.61904 8.61729C9.56908 8.7909 9.59012 8.97724 9.67755 9.13533C9.76498 9.29342 9.91163 9.41031 10.0852 9.46027C10.2588 9.51024 10.4452 9.48919 10.6033 9.40176L10.9555 9.20307V12.8699C10.9555 13.0479 11.0256 13.2189 11.1507 13.3457ZM11.1723 4.51575C10.7708 4.51396 10.3788 4.39327 10.0459 4.1689C9.71287 3.94453 9.45382 3.62654 9.3014 3.25507C9.14898 2.8836 9.11002 2.47531 9.18945 2.08172C9.26887 1.68813 9.46312 1.32689 9.74767 1.0436C10.0322 0.760312 10.3943 0.56767 10.7882 0.48999C11.1822 0.412311 11.5903 0.453077 11.9611 0.607143C12.3319 0.761208 12.6487 1.02167 12.8716 1.35564C13.0945 1.68962 13.2135 2.08214 13.2135 2.48366C13.2139 2.57712 13.2078 2.67028 13.1954 2.76249V2.93521V3.9648C13.1566 4.59907 12.8787 5.19503 12.4178 5.63249C11.9568 6.06994 11.3472 6.31635 10.7118 6.32202H10.2692C10.0896 6.32202 9.91728 6.25065 9.79025 6.12362C9.66322 5.99659 9.59186 5.8243 9.59186 5.64466C9.59186 5.46501 9.66322 5.29272 9.79025 5.16569C9.91728 5.03866 10.0896 4.96729 10.2692 4.96729H10.7118C11.0001 4.96124 11.2757 4.84765 11.4846 4.6488C11.5435 4.59276 11.5958 4.5311 11.6411 4.46498C11.4877 4.50004 11.3304 4.51716 11.1723 4.51575ZM11.8407 2.59379C11.8178 2.7326 11.7521 2.86186 11.6513 2.96263C11.5243 3.08966 11.352 3.16103 11.1723 3.16103C10.9927 3.16103 10.8204 3.08966 10.6934 2.96263C10.5663 2.8356 10.495 2.66331 10.495 2.48366C10.495 2.30402 10.5663 2.13173 10.6934 2.0047C10.8204 1.87767 10.9927 1.8063 11.1723 1.8063C11.352 1.8063 11.5243 1.87767 11.6513 2.0047C11.7598 2.11319 11.8277 2.25471 11.8452 2.40562C11.8422 2.43139 11.8407 2.45744 11.8407 2.48364V2.59379Z" fill="#212121"/>
</g>
<defs>
<clipPath id="clip0_417_21345">
<rect width="14" height="14" fill="white"/>
</clipPath>
</defs>
</svg>
