<svg width="14" height="14" viewBox="0 0 14 14" fill="none" xmlns="http://www.w3.org/2000/svg">
<g clip-path="url(#clip0_417_21360)">
<path fill-rule="evenodd" clip-rule="evenodd" d="M3.73028 13.9988L3.72694 13.9988C3.63763 13.9995 3.54907 13.9825 3.46634 13.9487C3.38258 13.9146 3.3065 13.8641 3.24259 13.8001L0.984718 11.5151C0.85787 11.3881 0.786621 11.2159 0.786621 11.0364C0.786621 10.8569 0.85787 10.6848 0.984718 10.5578C1.11438 10.4325 1.28762 10.3625 1.4679 10.3625C1.64819 10.3625 1.82143 10.4325 1.95109 10.5578L3.04388 11.6506V0.677361C3.04626 0.496888 3.11962 0.324613 3.24809 0.197836C3.37656 0.0710596 3.54979 -1.56221e-05 3.73028 0C3.90835 0.00237458 4.07833 0.0747863 4.20342 0.20156C4.3285 0.328333 4.39862 0.499268 4.39861 0.677361V11.7228L5.56368 10.5578C5.69334 10.4325 5.86658 10.3625 6.04686 10.3625C6.22715 10.3625 6.40039 10.4325 6.53005 10.5578C6.6569 10.6848 6.72815 10.8569 6.72815 11.0364C6.72815 11.2159 6.6569 11.3881 6.53005 11.5151L4.27218 13.773C4.205 13.8494 4.12126 13.9094 4.02735 13.9485C3.93361 13.9876 3.83221 14.0048 3.73085 13.9988L3.73028 13.9988ZM11.1506 6.1205C11.2757 6.24727 11.4457 6.31968 11.6238 6.32206C11.8043 6.32207 11.9775 6.251 12.106 6.12422C12.2344 5.99745 12.3078 5.82517 12.3102 5.6447V1.64375C12.3124 1.42078 12.2507 1.20185 12.1322 1.01294C12.0137 0.824034 11.8435 0.673091 11.6418 0.578034C11.4664 0.493145 11.2712 0.457546 11.0772 0.475046C10.8831 0.492545 10.6974 0.562484 10.54 0.67738L9.95295 0.984451C9.79486 1.07188 9.67798 1.21853 9.62801 1.39213C9.57805 1.56574 9.59909 1.75209 9.68652 1.91018C9.77395 2.06827 9.9206 2.18515 10.0942 2.23512C10.2678 2.28508 10.4542 2.26403 10.6123 2.17661L10.9554 1.97791V5.6447C10.9554 5.82279 11.0256 5.99373 11.1506 6.1205ZM11.1722 11.7409C10.7707 11.7391 10.3787 11.6184 10.0457 11.3941C9.71275 11.1697 9.45369 10.8517 9.30127 10.4802C9.14885 10.1088 9.1099 9.70046 9.18932 9.30688C9.26875 8.91329 9.463 8.55205 9.74754 8.26876C10.0321 7.98547 10.3942 7.79283 10.7881 7.71515C11.1821 7.63747 11.5902 7.67824 11.961 7.8323C12.3318 7.98637 12.6486 8.24683 12.8715 8.5808C13.0944 8.91478 13.2133 9.3073 13.2133 9.70882C13.2138 9.80228 13.2077 9.89544 13.1953 9.98765V10.1604V11.19C13.1544 11.8235 12.8758 12.4183 12.4154 12.8553C11.9549 13.2923 11.3464 13.5395 10.7116 13.5472H10.2691C10.0894 13.5472 9.91716 13.4759 9.79013 13.3488C9.6631 13.2218 9.59174 13.0495 9.59174 12.8699C9.59174 12.6902 9.6631 12.5179 9.79013 12.3909C9.91716 12.2639 10.0894 12.1925 10.2691 12.1925H10.7116C11 12.1865 11.2756 12.0729 11.4845 11.874C11.5434 11.818 11.5957 11.7563 11.6411 11.6901C11.4877 11.7252 11.3303 11.7423 11.1722 11.7409ZM11.8406 9.81895C11.8177 9.95776 11.752 10.087 11.6512 10.1878C11.5242 10.3148 11.3519 10.3862 11.1722 10.3862C10.9926 10.3862 10.8203 10.3148 10.6933 10.1878C10.5662 10.0608 10.4949 9.88847 10.4949 9.70882C10.4949 9.52918 10.5662 9.35689 10.6933 9.22986C10.8203 9.10283 10.9926 9.03146 11.1722 9.03146C11.3519 9.03146 11.5242 9.10283 11.6512 9.22986C11.7597 9.33836 11.8276 9.47988 11.8451 9.63081C11.8421 9.65659 11.8406 9.68265 11.8406 9.70886V9.81895Z" fill="#212121"/>
</g>
<defs>
<clipPath id="clip0_417_21360">
<rect width="14" height="14" fill="white"/>
</clipPath>
</defs>
</svg>
