<svg width="14" height="14" viewBox="0 0 14 14" fill="none" xmlns="http://www.w3.org/2000/svg">
<g clip-path="url(#clip0_378_15578)">
<path d="M3.63435 0.19871C3.57112 0.135484 3.49886 0.0903226 3.41757 0.0541935C3.25499 -0.0180645 3.06532 -0.0180645 2.90274 0.0541935C2.82144 0.0903226 2.74919 0.135484 2.68596 0.19871L0.427897 2.45677C0.165961 2.71871 0.165961 3.15226 0.427897 3.41419C0.689832 3.67613 1.12338 3.67613 1.38532 3.41419L2.48725 2.31226V13.3226C2.48725 13.6929 2.79435 14 3.16467 14C3.53499 14 3.84209 13.6929 3.84209 13.3226V2.31226L4.94403 3.41419C5.07951 3.54968 5.25112 3.6129 5.42274 3.6129C5.59435 3.6129 5.76596 3.54968 5.90145 3.41419C6.16338 3.15226 6.16338 2.71871 5.90145 2.45677L3.64338 0.19871H3.63435Z" fill="#212121"/>
<path d="M13.0911 12.6452H7.22015C6.84983 12.6452 6.54274 12.9523 6.54274 13.3226C6.54274 13.6929 6.84983 14 7.22015 14H13.0911C13.4614 14 13.7685 13.6929 13.7685 13.3226C13.7685 12.9523 13.4614 12.6452 13.0911 12.6452Z" fill="#212121"/>
<path d="M7.22015 8.58064H9.47822C9.84854 8.58064 10.1556 8.27355 10.1556 7.90323C10.1556 7.5329 9.84854 7.22581 9.47822 7.22581H7.22015C6.84983 7.22581 6.54274 7.5329 6.54274 7.90323C6.54274 8.27355 6.84983 8.58064 7.22015 8.58064Z" fill="#212121"/>
<path d="M7.22015 5.87097H7.67177C8.04209 5.87097 8.34919 5.56387 8.34919 5.19355C8.34919 4.82323 8.04209 4.51613 7.67177 4.51613H7.22015C6.84983 4.51613 6.54274 4.82323 6.54274 5.19355C6.54274 5.56387 6.84983 5.87097 7.22015 5.87097Z" fill="#212121"/>
<path d="M7.22015 11.2903H11.2847C11.655 11.2903 11.9621 10.9832 11.9621 10.6129C11.9621 10.2426 11.655 9.93548 11.2847 9.93548H7.22015C6.84983 9.93548 6.54274 10.2426 6.54274 10.6129C6.54274 10.9832 6.84983 11.2903 7.22015 11.2903Z" fill="#212121"/>
</g>
<defs>
<clipPath id="clip0_378_15578">
<rect width="14" height="14" fill="white"/>
</clipPath>
</defs>
</svg>
