<svg width="14" height="14" viewBox="0 0 14 14" fill="none" xmlns="http://www.w3.org/2000/svg">
<g clip-path="url(#clip0_414_20984)">
<path d="M5.38897 10.5858L4.28704 11.6877V0.677419C4.28704 0.307097 3.97994 0 3.60962 0C3.2393 0 2.9322 0.307097 2.9322 0.677419V11.6877L1.83026 10.5858C1.56833 10.3239 1.13478 10.3239 0.872843 10.5858C0.610908 10.8477 0.610908 11.2813 0.872843 11.5432L3.13091 13.8013C3.19413 13.8645 3.26639 13.9097 3.34768 13.9458C3.42897 13.9819 3.51929 14 3.60962 14C3.69994 14 3.79026 13.9819 3.87155 13.9458C3.95284 13.9097 4.0251 13.8645 4.08833 13.8013L6.34639 11.5432C6.60833 11.2813 6.60833 10.8477 6.34639 10.5858C6.08446 10.3239 5.65091 10.3239 5.38897 10.5858Z" fill="#212121"/>
<path d="M8.80323 6.28646C9.15549 6.41291 9.54388 6.23227 9.67033 5.88001L9.92323 5.17549H11.7568L12.0097 5.88001C12.109 6.16001 12.371 6.33162 12.651 6.33162C12.7232 6.33162 12.8045 6.32259 12.8768 6.29549C13.229 6.16904 13.4097 5.78065 13.2832 5.4284L11.7387 1.10194C11.5852 0.713557 11.2329 0.460654 10.8355 0.460654C10.4381 0.460654 10.0858 0.713557 9.93226 1.12001L8.39678 5.4284C8.27033 5.78065 8.45097 6.16904 8.80323 6.29549V6.28646ZM11.269 3.82065H10.4019L10.8355 2.61033L11.269 3.82065Z" fill="#212121"/>
<path d="M13.0212 8.31871C12.8496 7.92129 12.4883 7.67742 12.0729 7.67742H9.26383C8.8935 7.67742 8.58641 7.98452 8.58641 8.35484C8.58641 8.72516 8.8935 9.03226 9.26383 9.03226H11.4225L8.86641 11.6968C8.55931 12.0219 8.47802 12.4916 8.64963 12.9071C8.82124 13.3045 9.18253 13.5484 9.59802 13.5484H12.4251C12.7954 13.5484 13.1025 13.2413 13.1025 12.871C13.1025 12.5006 12.7954 12.1935 12.4251 12.1935H10.2664L12.8135 9.5471C13.1206 9.22194 13.2109 8.74323 13.0303 8.32774L13.0212 8.31871Z" fill="#212121"/>
</g>
<defs>
<clipPath id="clip0_414_20984">
<rect width="14" height="14" fill="white"/>
</clipPath>
</defs>
</svg>
