<svg width="14" height="14" viewBox="0 0 14 14" fill="none" xmlns="http://www.w3.org/2000/svg">
<path d="M7.01087 10.2966C6.93444 10.2969 6.8587 10.282 6.78811 10.2527C6.71751 10.2234 6.65348 10.1803 6.59977 10.1259L1.17019 4.69633C1.08894 4.61497 1.03362 4.51136 1.01121 4.39858C0.988807 4.2858 1.00033 4.16891 1.04431 4.06268C1.0883 3.95644 1.16279 3.86562 1.25836 3.8017C1.35393 3.73777 1.46631 3.70359 1.58129 3.70349H12.4404C12.5508 3.70769 12.6577 3.74324 12.7487 3.80597C12.8396 3.8687 12.9108 3.95602 12.9539 4.05772C12.997 4.15942 13.0103 4.2713 12.9922 4.38027C12.974 4.48924 12.9253 4.59079 12.8515 4.67306L7.42197 10.1026C7.37026 10.1612 7.30712 10.2087 7.23643 10.242C7.16574 10.2754 7.08899 10.2939 7.01087 10.2966ZM2.98522 4.86697L7.01087 8.89262L11.0365 4.86697H2.98522Z" fill="#212121"/>
</svg>
