<svg width="14" height="14" viewBox="0 0 14 14" fill="none" xmlns="http://www.w3.org/2000/svg">
<g clip-path="url(#clip0_417_21301)">
<path d="M5.389 10.5858L4.28707 11.6877V0.677419C4.28707 0.307097 3.97997 0 3.60965 0C3.23933 0 2.93223 0.307097 2.93223 0.677419V11.6877L1.83029 10.5858C1.56836 10.3239 1.13481 10.3239 0.872874 10.5858C0.610938 10.8477 0.610938 11.2813 0.872874 11.5432L3.13094 13.8013C3.19416 13.8645 3.26642 13.9097 3.34771 13.9458C3.429 13.9819 3.51933 14 3.60965 14C3.69997 14 3.78126 13.9819 3.87158 13.9458C3.95287 13.9097 4.02513 13.8645 4.08836 13.8013L6.34642 11.5432C6.60836 11.2813 6.60836 10.8477 6.34642 10.5858C6.08449 10.3239 5.65094 10.3239 5.389 10.5858Z" fill="#212121"/>
<path d="M13.2833 12.6452L11.7387 8.31871C11.5852 7.93032 11.2329 7.67742 10.8355 7.67742C10.4381 7.67742 10.0858 7.93032 9.93229 8.33677L8.39681 12.6452C8.27036 12.9974 8.451 13.3858 8.80326 13.5123C9.15552 13.6387 9.54391 13.4581 9.67036 13.1058L9.92326 12.4013H11.7568L12.0097 13.1058C12.1091 13.3858 12.371 13.5574 12.651 13.5574C12.7233 13.5574 12.8046 13.5484 12.8768 13.5213C13.2291 13.3948 13.4097 13.0065 13.2833 12.6542V12.6452ZM10.402 11.0465L10.8355 9.83613L11.2691 11.0465H10.402Z" fill="#212121"/>
<path d="M8.64967 5.6813C8.82128 6.07872 9.18257 6.32259 9.59806 6.32259H12.4252C12.7955 6.32259 13.1026 6.01549 13.1026 5.64517C13.1026 5.27485 12.7955 4.96775 12.4252 4.96775H10.2664L12.8135 2.3213C13.1206 1.99614 13.211 1.51743 13.0303 1.10194C12.8587 0.704525 12.4974 0.460654 12.0819 0.460654H9.2729C8.90257 0.460654 8.59548 0.767751 8.59548 1.13807C8.59548 1.5084 8.90257 1.81549 9.2729 1.81549H11.4316L8.87548 4.48001C8.56838 4.80517 8.48709 5.27485 8.6587 5.69033L8.64967 5.6813Z" fill="#212121"/>
</g>
<defs>
<clipPath id="clip0_417_21301">
<rect width="14" height="14" fill="white"/>
</clipPath>
</defs>
</svg>
