<svg width="14" height="14" viewBox="0 0 14 14" fill="none" xmlns="http://www.w3.org/2000/svg">
<g clip-path="url(#clip0_414_21096)">
<path fill-rule="evenodd" clip-rule="evenodd" d="M3.71721 14C3.53671 14 3.36346 13.9289 3.23498 13.8021C3.10651 13.6754 3.03314 13.5031 3.03076 13.3226V2.23089L1.87462 3.38704C1.7487 3.49455 1.58857 3.55362 1.423 3.55362C1.25744 3.55362 1.0973 3.49455 0.97139 3.38704C0.860304 3.26284 0.798889 3.10206 0.798889 2.93543C0.798889 2.7688 0.860304 2.60801 0.97139 2.48381L3.1393 0.315901C3.16652 0.273457 3.19853 0.233824 3.23498 0.197853C3.36346 0.0710656 3.53671 -1.56234e-05 3.71721 0C3.89531 0.00237479 4.0653 0.0747927 4.19039 0.201577C4.22095 0.232542 4.24822 0.266141 4.27199 0.301836L6.45397 2.48381C6.58083 2.61083 6.65208 2.78301 6.65208 2.96252C6.65208 3.14204 6.58083 3.31422 6.45397 3.44123C6.32325 3.55928 6.15121 3.62095 5.97526 3.61285C5.88286 3.61048 5.79192 3.58922 5.70804 3.55039C5.62416 3.51155 5.54911 3.45596 5.48752 3.38704L4.3856 2.28512V13.3226C4.38562 13.5007 4.31549 13.6716 4.19039 13.7984C4.0653 13.9252 3.89531 13.9976 3.71721 14ZM11.1383 13.3468C11.2634 13.4736 11.4333 13.546 11.6114 13.5484C11.7919 13.5484 11.9652 13.4773 12.0937 13.3505C12.2221 13.2237 12.2955 13.0515 12.2979 12.871V8.85161C12.3002 8.62863 12.2384 8.40967 12.1199 8.22075C12.0014 8.03183 11.8312 7.88087 11.6295 7.78581C11.4541 7.70091 11.2589 7.66531 11.0648 7.68281C10.8707 7.70031 10.685 7.77026 10.5276 7.88516L9.93144 8.21032C9.77333 8.29776 9.65644 8.44442 9.60647 8.61804C9.5565 8.79167 9.57755 8.97803 9.66498 9.13613C9.75242 9.29423 9.89908 9.41113 10.0727 9.4611C10.2463 9.51107 10.4327 9.49002 10.5908 9.40258L10.943 9.20387V12.871C10.943 13.0491 11.0132 13.22 11.1383 13.3468ZM11.1598 4.5161C10.7582 4.51431 10.3662 4.39361 10.0332 4.16922C9.70016 3.94483 9.44108 3.62681 9.28865 3.25531C9.13622 2.88381 9.09726 2.47548 9.17669 2.08186C9.25613 1.68823 9.45039 1.32697 9.73496 1.04365C10.0195 0.760338 10.3817 0.56768 10.7756 0.489994C11.1696 0.412308 11.5778 0.453077 11.9486 0.607156C12.3194 0.761235 12.6363 1.02172 12.8592 1.35572C13.0821 1.68972 13.201 2.08228 13.2011 2.48384C13.2015 2.57724 13.1954 2.67036 13.183 2.76252V2.93549V3.96517C13.1442 4.5995 12.8663 5.1955 12.4053 5.633C11.9444 6.07049 11.3347 6.31692 10.6992 6.32259H10.2566C10.0769 6.32259 9.90462 6.25122 9.77757 6.12417C9.65053 5.99713 9.57916 5.82483 9.57916 5.64517C9.57916 5.4655 9.65053 5.2932 9.77757 5.16616C9.90462 5.03912 10.0769 4.96775 10.2566 4.96775H10.6992C10.9875 4.9617 11.2632 4.84809 11.4721 4.64923C11.531 4.59316 11.5833 4.53146 11.6287 4.46531C11.4752 4.50038 11.3179 4.51751 11.1598 4.5161ZM11.8282 2.59383C11.8053 2.73271 11.7396 2.86203 11.6388 2.96285C11.5117 3.08989 11.3394 3.16126 11.1598 3.16126C10.9801 3.16126 10.8078 3.08989 10.6808 2.96285C10.5537 2.83581 10.4823 2.6635 10.4823 2.48384C10.4823 2.30418 10.5537 2.13187 10.6808 2.00483C10.8078 1.87779 10.9801 1.80642 11.1598 1.80642C11.3394 1.80642 11.5117 1.87779 11.6388 2.00483C11.7473 2.11337 11.8152 2.25494 11.8327 2.40592C11.8297 2.43167 11.8282 2.4577 11.8282 2.48388V2.59383Z" fill="#212121"/>
</g>
<defs>
<clipPath id="clip0_414_21096">
<rect width="14" height="14" fill="white"/>
</clipPath>
</defs>
</svg>
