<svg width="14" height="14" viewBox="0 0 14 14" fill="none" xmlns="http://www.w3.org/2000/svg">
<g clip-path="url(#clip0_378_15544)">
<path d="M4.93952 10.5858L3.83758 11.6877V0.677419C3.83758 0.307097 3.53048 0 3.16016 0C2.78984 0 2.48274 0.307097 2.48274 0.677419V11.6877L1.38081 10.5858C1.11887 10.3239 0.685323 10.3239 0.423388 10.5858C0.161452 10.8477 0.161452 11.2813 0.423388 11.5432L2.68145 13.8013C2.74468 13.8645 2.81694 13.9097 2.89823 13.9458C2.97952 13.9819 3.06984 14 3.16016 14C3.25048 14 3.33178 13.9819 3.4221 13.9458C3.50339 13.9097 3.57565 13.8645 3.63887 13.8013L5.89694 11.5432C6.15887 11.2813 6.15887 10.8477 5.89694 10.5858C5.635 10.3239 5.20145 10.3239 4.93952 10.5858Z" fill="#212121"/>
<path d="M13.0956 8.12903H7.22468C6.85436 8.12903 6.54726 8.43613 6.54726 8.80645C6.54726 9.17677 6.85436 9.48387 7.22468 9.48387H13.0956C13.466 9.48387 13.7731 9.17677 13.7731 8.80645C13.7731 8.43613 13.466 8.12903 13.0956 8.12903Z" fill="#212121"/>
<path d="M7.22468 4.06452H9.48274C9.85307 4.06452 10.1602 3.75742 10.1602 3.3871C10.1602 3.01677 9.85307 2.70968 9.48274 2.70968H7.22468C6.85436 2.70968 6.54726 3.01677 6.54726 3.3871C6.54726 3.75742 6.85436 4.06452 7.22468 4.06452Z" fill="#212121"/>
<path d="M7.22468 1.35484H7.67629C8.04661 1.35484 8.35371 1.04774 8.35371 0.677419C8.35371 0.307097 8.04661 0 7.67629 0H7.22468C6.85436 0 6.54726 0.307097 6.54726 0.677419C6.54726 1.04774 6.85436 1.35484 7.22468 1.35484Z" fill="#212121"/>
<path d="M7.22468 6.77419H11.2892C11.6595 6.77419 11.9666 6.4671 11.9666 6.09677C11.9666 5.72645 11.6595 5.41935 11.2892 5.41935H7.22468C6.85436 5.41935 6.54726 5.72645 6.54726 6.09677C6.54726 6.4671 6.85436 6.77419 7.22468 6.77419Z" fill="#212121"/>
</g>
<defs>
<clipPath id="clip0_378_15544">
<rect width="14" height="14" fill="white"/>
</clipPath>
</defs>
</svg>
