<svg width="14" height="14" viewBox="0 0 14 14" fill="none" xmlns="http://www.w3.org/2000/svg">
<g clip-path="url(#clip0_378_15561)">
<path d="M4.93951 10.5858L3.83757 11.6877V0.677419C3.83757 0.307097 3.53048 0 3.16015 0C2.78983 0 2.48274 0.307097 2.48274 0.677419V11.6877L1.3808 10.5858C1.11886 10.3239 0.685316 10.3239 0.42338 10.5858C0.161445 10.8477 0.161445 11.2813 0.42338 11.5432L2.68144 13.8013C2.74467 13.8645 2.81693 13.9097 2.89822 13.9458C2.97951 13.9819 3.06983 14 3.16015 14C3.25048 14 3.33177 13.9819 3.42209 13.9458C3.50338 13.9097 3.57564 13.8645 3.63886 13.8013L5.89693 11.5432C6.15886 11.2813 6.15886 10.8477 5.89693 10.5858C5.63499 10.3239 5.20145 10.3239 4.93951 10.5858Z" fill="#212121"/>
<path d="M13.0956 0H7.22467C6.85435 0 6.54725 0.307097 6.54725 0.677419C6.54725 1.04774 6.85435 1.35484 7.22467 1.35484H13.0956C13.466 1.35484 13.7731 1.04774 13.7731 0.677419C13.7731 0.307097 13.466 0 13.0956 0Z" fill="#212121"/>
<path d="M9.48274 5.41935H7.22467C6.85435 5.41935 6.54725 5.72645 6.54725 6.09677C6.54725 6.4671 6.85435 6.77419 7.22467 6.77419H9.48274C9.85306 6.77419 10.1602 6.4671 10.1602 6.09677C10.1602 5.72645 9.85306 5.41935 9.48274 5.41935Z" fill="#212121"/>
<path d="M7.67628 8.12903H7.22467C6.85435 8.12903 6.54725 8.43613 6.54725 8.80645C6.54725 9.17677 6.85435 9.48387 7.22467 9.48387H7.67628C8.04661 9.48387 8.3537 9.17677 8.3537 8.80645C8.3537 8.43613 8.04661 8.12903 7.67628 8.12903Z" fill="#212121"/>
<path d="M11.2892 2.70968H7.22467C6.85435 2.70968 6.54725 3.01677 6.54725 3.3871C6.54725 3.75742 6.85435 4.06452 7.22467 4.06452H11.2892C11.6595 4.06452 11.9666 3.75742 11.9666 3.3871C11.9666 3.01677 11.6595 2.70968 11.2892 2.70968Z" fill="#212121"/>
</g>
<defs>
<clipPath id="clip0_378_15561">
<rect width="14" height="14" fill="white"/>
</clipPath>
</defs>
</svg>
