<svg width="14" height="14" viewBox="0 0 14 14" fill="none" xmlns="http://www.w3.org/2000/svg">
<g clip-path="url(#clip0_414_20995)">
<path d="M4.08223 0.19871C4.01897 0.135484 3.94667 0.0903226 3.86533 0.0541935C3.70266 -0.0180645 3.51288 -0.0180645 3.35021 0.0541935C3.26887 0.0903226 3.19657 0.135484 3.13331 0.19871L0.87399 2.45677C0.611909 2.71871 0.611909 3.15226 0.87399 3.41419C1.13607 3.67613 1.56986 3.67613 1.83194 3.41419L2.93449 2.31226V13.3226C2.93449 13.6929 3.24176 14 3.61229 14C3.98282 14 4.29009 13.6929 4.29009 13.3226V2.31226L5.39264 3.41419C5.52819 3.54968 5.6999 3.6129 5.87161 3.6129C6.04332 3.6129 6.21503 3.54968 6.35059 3.41419C6.61267 3.15226 6.61267 2.71871 6.35059 2.45677L4.09127 0.19871H4.08223Z" fill="#212121"/>
<path d="M8.79975 6.28646C9.1522 6.41291 9.54081 6.23227 9.66733 5.88001L9.92037 5.17549H11.7549L12.008 5.88001C12.1074 6.16001 12.3695 6.33162 12.6496 6.33162C12.7219 6.33162 12.8033 6.32259 12.8756 6.29549C13.228 6.16904 13.4088 5.78065 13.2822 5.4284L11.7369 1.10194C11.5832 0.713557 11.2308 0.460654 10.8331 0.460654C10.4355 0.460654 10.083 0.713557 9.92941 1.12001L8.39307 5.4284C8.26655 5.78065 8.4473 6.16904 8.79975 6.29549V6.28646ZM11.2669 3.82065H10.3994L10.8331 2.61033L11.2669 3.82065Z" fill="#212121"/>
<path d="M13.0201 8.31871C12.8484 7.92129 12.4869 7.67742 12.0712 7.67742H9.2606C8.89007 7.67742 8.5828 7.98452 8.5828 8.35484C8.5828 8.72516 8.89007 9.03226 9.2606 9.03226H11.4205L8.86296 11.6968C8.55569 12.0219 8.47436 12.4916 8.64607 12.9071C8.81777 13.3045 9.17927 13.5484 9.59498 13.5484H12.4237C12.7942 13.5484 13.1014 13.2413 13.1014 12.871C13.1014 12.5006 12.7942 12.1935 12.4237 12.1935H10.2637L12.8123 9.5471C13.1195 9.22194 13.2099 8.74323 13.0292 8.32774L13.0201 8.31871Z" fill="#212121"/>
</g>
<defs>
<clipPath id="clip0_414_20995">
<rect width="14" height="14" fill="white"/>
</clipPath>
</defs>
</svg>
