<svg width="14" height="14" viewBox="0 0 14 14" fill="none" xmlns="http://www.w3.org/2000/svg">
<path d="M12.42 10.2808H1.57338C1.45887 10.2816 1.34675 10.248 1.25147 10.1845C1.15619 10.121 1.08212 10.0304 1.03879 9.92442C0.999051 9.82118 0.989604 9.70874 1.01156 9.60032C1.03352 9.4919 1.08597 9.392 1.16275 9.31236L6.58606 3.88905C6.69501 3.78024 6.8427 3.71912 6.99668 3.71912C7.15067 3.71912 7.29835 3.78024 7.40731 3.88905L12.8306 9.31236C12.912 9.39402 12.9672 9.49802 12.9892 9.61115C13.0113 9.72428 12.9992 9.84141 12.9546 9.94766C12.9077 10.0493 12.8321 10.135 12.7371 10.1942C12.6421 10.2534 12.5319 10.2835 12.42 10.2808ZM2.97569 9.11867H11.0177L6.99668 5.09767L2.97569 9.11867Z" fill="#212121"/>
</svg>
