<svg width="14" height="14" viewBox="0 0 14 14" fill="none" xmlns="http://www.w3.org/2000/svg">
<g clip-path="url(#clip0_417_21375)">
<path d="M5.98267 3.61291C5.81106 3.61291 5.63945 3.54968 5.50396 3.4142L3.72461 1.63484L1.94525 3.4142C1.68332 3.67613 1.24977 3.67613 0.987833 3.4142C0.725898 3.15226 0.725898 2.71871 0.987833 2.45678L3.2459 0.198712C3.50783 -0.0632236 3.94138 -0.0632236 4.20332 0.198712L6.46138 2.45678C6.72332 2.71871 6.72332 3.15226 6.46138 3.4142C6.3259 3.54968 6.15429 3.61291 5.98267 3.61291Z" fill="#212121"/>
<path d="M3.72466 14C3.35434 14 3.04724 13.6929 3.04724 13.3226V0.677419C3.04724 0.307097 3.35434 0 3.72466 0C4.09498 0 4.40208 0.307097 4.40208 0.677419V13.3226C4.40208 13.6929 4.09498 14 3.72466 14Z" fill="#212121"/>
<path d="M11.6279 6.32261C11.2576 6.32261 10.9505 6.01551 10.9505 5.64519V1.97809L10.5982 2.16777C10.264 2.34841 9.85756 2.23099 9.67692 1.90583C9.49627 1.58067 9.61369 1.16519 9.93885 0.984541L10.5259 0.659379C10.8511 0.424541 11.2666 0.388412 11.6279 0.550992C12.0343 0.74067 12.2963 1.15615 12.2963 1.62583V5.64519C12.2963 6.01551 11.9892 6.32261 11.6188 6.32261H11.6279Z" fill="#212121"/>
<path d="M11.1763 11.7419C10.0563 11.7419 9.14402 10.8297 9.14402 9.70968C9.14402 8.58968 10.0563 7.67742 11.1763 7.67742C12.2963 7.67742 13.2085 8.58968 13.2085 9.70968C13.2085 10.8297 12.2963 11.7419 11.1763 11.7419ZM11.1763 9.03226C10.806 9.03226 10.4989 9.33935 10.4989 9.70968C10.4989 10.08 10.806 10.3871 11.1763 10.3871C11.5466 10.3871 11.8537 10.08 11.8537 9.70968C11.8537 9.33935 11.5466 9.03226 11.1763 9.03226Z" fill="#212121"/>
<path d="M10.7066 13.5484H10.273C9.90273 13.5484 9.59563 13.2413 9.59563 12.871C9.59563 12.5006 9.90273 12.1935 10.273 12.1935H10.7066C11.2937 12.1935 11.8085 11.7058 11.8356 11.1187C11.8447 10.8568 11.8447 10.5406 11.8447 10.1613V9.70968C11.8447 9.33935 12.1518 9.03226 12.5221 9.03226C12.8924 9.03226 13.1995 9.33935 13.1995 9.70968V10.1613C13.1995 10.5677 13.1995 10.9019 13.1814 11.191C13.1182 12.4916 11.9982 13.5484 10.6976 13.5484H10.7066Z" fill="#212121"/>
</g>
<defs>
<clipPath id="clip0_417_21375">
<rect width="14" height="14" fill="white"/>
</clipPath>
</defs>
</svg>
