<svg width="14" height="14" viewBox="0 0 14 14" fill="none" xmlns="http://www.w3.org/2000/svg">
<mask id="path-1-inside-1_414_21110" fill="white">
<path fill-rule="evenodd" clip-rule="evenodd" d="M10.0385 13.3678C10.1611 13.4904 10.3267 13.5602 10.5 13.5625C10.6733 13.5602 10.8389 13.4904 10.9615 13.3678C11.0841 13.2452 11.154 13.0796 11.1562 12.9062V0.65625C11.1562 0.482202 11.0871 0.315282 10.964 0.192211C10.841 0.0691403 10.674 0 10.5 0C10.326 0 10.159 0.0691403 10.036 0.192211C9.91289 0.315282 9.84375 0.482202 9.84375 0.65625V6.50995L3.96376 0.629964C3.87154 0.538098 3.75408 0.475736 3.62631 0.450807C3.49855 0.425878 3.36626 0.439507 3.24626 0.489964C3.12655 0.538895 3.02423 0.622554 2.9525 0.73016C2.88076 0.837767 2.84289 0.96439 2.84376 1.09371V13.3437C2.84289 13.473 2.88076 13.5997 2.9525 13.7073C3.02423 13.8149 3.12655 13.8985 3.24626 13.9475C3.32652 13.9817 3.41278 13.9995 3.50001 14C3.674 13.9998 3.84081 13.9306 3.96376 13.8075L9.84375 7.92748V12.9062C9.84602 13.0796 9.91588 13.2452 10.0385 13.3678ZM8.69751 7.21871L4.15626 11.76V2.67746L8.69751 7.21871Z"/>
</mask>
<path fill-rule="evenodd" clip-rule="evenodd" d="M10.0385 13.3678C10.1611 13.4904 10.3267 13.5602 10.5 13.5625C10.6733 13.5602 10.8389 13.4904 10.9615 13.3678C11.0841 13.2452 11.154 13.0796 11.1562 12.9062V0.65625C11.1562 0.482202 11.0871 0.315282 10.964 0.192211C10.841 0.0691403 10.674 0 10.5 0C10.326 0 10.159 0.0691403 10.036 0.192211C9.91289 0.315282 9.84375 0.482202 9.84375 0.65625V6.50995L3.96376 0.629964C3.87154 0.538098 3.75408 0.475736 3.62631 0.450807C3.49855 0.425878 3.36626 0.439507 3.24626 0.489964C3.12655 0.538895 3.02423 0.622554 2.9525 0.73016C2.88076 0.837767 2.84289 0.96439 2.84376 1.09371V13.3437C2.84289 13.473 2.88076 13.5997 2.9525 13.7073C3.02423 13.8149 3.12655 13.8985 3.24626 13.9475C3.32652 13.9817 3.41278 13.9995 3.50001 14C3.674 13.9998 3.84081 13.9306 3.96376 13.8075L9.84375 7.92748V12.9062C9.84602 13.0796 9.91588 13.2452 10.0385 13.3678ZM8.69751 7.21871L4.15626 11.76V2.67746L8.69751 7.21871Z" fill="#212121"/>
<path d="M10.5 13.5625L10.4869 14.5624L10.5 14.5626L10.5131 14.5624L10.5 13.5625ZM10.9615 13.3678L10.2544 12.6607L10.2544 12.6607L10.9615 13.3678ZM11.1562 12.9062L12.1562 12.9193V12.9062H11.1562ZM10.964 0.192211L10.2569 0.899316L10.2569 0.899321L10.964 0.192211ZM9.84375 6.50995L9.13664 7.21706L10.8438 8.92416V6.50995H9.84375ZM3.96376 0.629964L4.67087 -0.0771446L4.66949 -0.0785257L3.96376 0.629964ZM3.62631 0.450807L3.81782 -0.530684H3.81782L3.62631 0.450807ZM3.24626 0.489964L3.62464 1.41567L3.63388 1.41179L3.24626 0.489964ZM2.9525 0.73016L2.12045 0.17546L2.9525 0.73016ZM2.84376 1.09371H3.84379L3.84374 1.08694L2.84376 1.09371ZM2.84376 13.3437L3.84376 13.3505V13.3437H2.84376ZM2.9525 13.7073L3.78455 13.1526L3.78455 13.1526L2.9525 13.7073ZM3.24626 13.9475L3.63822 13.0275L3.63144 13.0246L3.62462 13.0218L3.24626 13.9475ZM3.50001 14L3.49473 15L3.50089 15L3.50001 14ZM3.96376 13.8075L3.25666 13.1004L3.25622 13.1008L3.96376 13.8075ZM9.84375 7.92748H10.8438V5.51326L9.13664 7.22037L9.84375 7.92748ZM9.84375 12.9062H8.84366L8.84384 12.9193L9.84375 12.9062ZM4.15626 11.76H3.15626V14.1742L4.86337 12.4671L4.15626 11.76ZM8.69751 7.21871L9.40462 7.92582L10.1117 7.21871L9.40462 6.51161L8.69751 7.21871ZM4.15626 2.67746L4.86337 1.97036L3.15626 0.26325V2.67746H4.15626ZM10.5131 12.5626C10.6004 12.5637 10.6838 12.5989 10.7456 12.6607L9.33136 14.0749C9.63828 14.3818 10.0529 14.5567 10.4869 14.5624L10.5131 12.5626ZM10.2544 12.6607C10.3162 12.5989 10.3996 12.5637 10.4869 12.5626L10.5131 14.5624C10.9471 14.5567 11.3617 14.3818 11.6686 14.0749L10.2544 12.6607ZM10.1563 12.8932C10.1575 12.8059 10.1927 12.7224 10.2544 12.6607L11.6686 14.0749C11.9756 13.768 12.1505 13.3533 12.1562 12.9193L10.1563 12.8932ZM10.1562 0.65625V12.9062H12.1562V0.65625H10.1562ZM10.2569 0.899321C10.1925 0.834851 10.1562 0.747415 10.1562 0.65625H12.1562C12.1562 0.216989 11.9818 -0.204288 11.6711 -0.514898L10.2569 0.899321ZM10.5 1C10.4088 1 10.3214 0.963784 10.2569 0.899316L11.6711 -0.514894C11.3605 -0.825504 10.9393 -1 10.5 -1V1ZM10.7431 0.899318C10.6786 0.963783 10.5912 1 10.5 1V-1C10.0607 -1 9.63946 -0.825503 9.32885 -0.514896L10.7431 0.899318ZM10.8438 0.65625C10.8438 0.74742 10.8075 0.834853 10.7431 0.899318L9.32885 -0.514896C9.01825 -0.20429 8.84375 0.216983 8.84375 0.65625H10.8438ZM10.8438 6.50995V0.65625H8.84375V6.50995H10.8438ZM3.25666 1.33707L9.13664 7.21706L10.5509 5.80284L4.67087 -0.0771433L3.25666 1.33707ZM3.4348 1.4323C3.36788 1.41924 3.30635 1.38657 3.25804 1.33845L4.66949 -0.0785257C4.43673 -0.310378 4.14027 -0.467767 3.81782 -0.530684L3.4348 1.4323ZM3.63388 1.41179C3.57102 1.43822 3.50173 1.44536 3.4348 1.4323L3.81782 -0.530684C3.49538 -0.5936 3.1615 -0.559201 2.85865 -0.431859L3.63388 1.41179ZM3.78455 1.28486C3.74549 1.34344 3.68979 1.38899 3.62462 1.41562L2.86791 -0.435697C2.56331 -0.311196 2.30298 -0.0983346 2.12045 0.17546L3.78455 1.28486ZM3.84374 1.08694C3.84422 1.15734 3.8236 1.22628 3.78455 1.28486L2.12045 0.17546C1.93792 0.449255 1.84156 0.771435 1.84379 1.10049L3.84374 1.08694ZM3.84376 13.3437V1.09371H1.84376V13.3437H3.84376ZM3.78455 13.1526C3.8236 13.2111 3.84422 13.2801 3.84374 13.3505L1.84379 13.3369C1.84156 13.666 1.93792 13.9882 2.12045 14.262L3.78455 13.1526ZM3.62462 13.0218C3.68979 13.0484 3.74549 13.094 3.78455 13.1526L2.12045 14.262C2.30297 14.5358 2.56331 14.7486 2.86791 14.8731L3.62462 13.0218ZM3.5053 13C3.55099 13.0002 3.59618 13.0096 3.63822 13.0275L2.85431 14.8674C3.05686 14.9537 3.27457 14.9988 3.49473 14.9999L3.5053 13ZM3.25622 13.1008C3.32062 13.0363 3.408 13 3.49914 13L3.50089 15C3.94001 14.9996 4.361 14.8248 4.67131 14.5141L3.25622 13.1008ZM9.13664 7.22037L3.25666 13.1004L4.67087 14.5146L10.5509 8.63459L9.13664 7.22037ZM10.8438 12.9062V7.92748H8.84375V12.9062H10.8438ZM10.7456 12.6607C10.8073 12.7224 10.8425 12.8059 10.8437 12.8932L8.84384 12.9193C8.84951 13.3533 9.02444 13.768 9.33136 14.0749L10.7456 12.6607ZM4.86337 12.4671L9.40462 7.92582L7.99041 6.51161L3.44916 11.0529L4.86337 12.4671ZM3.15626 2.67746V11.76H5.15626V2.67746H3.15626ZM9.40462 6.51161L4.86337 1.97036L3.44916 3.38457L7.99041 7.92582L9.40462 6.51161Z" fill="#212121" mask="url(#path-1-inside-1_414_21110)"/>
</svg>
