<svg width="14" height="14" viewBox="0 0 14 14" fill="none" xmlns="http://www.w3.org/2000/svg">
<path d="M10.6129 0C10.2426 0 9.93552 0.307097 9.93552 0.677419V6.26839L3.86585 0.198709C3.67617 0.00903209 3.3781 -0.0541936 3.1252 0.0541935C2.8723 0.162581 2.70972 0.406452 2.70972 0.677419V13.3226C2.70972 13.5935 2.8723 13.8465 3.1252 13.9458C3.20649 13.9819 3.29681 14 3.38714 14C3.56778 14 3.73939 13.9277 3.86585 13.8013L9.93552 7.73161V13.3226C9.93552 13.6929 10.2426 14 10.6129 14C10.9833 14 11.2904 13.6929 11.2904 13.3226V0.677419C11.2904 0.307097 10.9833 0 10.6129 0ZM4.06456 11.6877V2.31226L8.7523 7L4.06456 11.6877Z" fill="#212121"/>
</svg>
