<svg width="14" height="14" viewBox="0 0 14 14" fill="none" xmlns="http://www.w3.org/2000/svg">
<path d="M10.8748 0.0541935C10.6219 -0.0451613 10.3329 0.00903207 10.1342 0.198709L4.06449 6.26839V0.677419C4.06449 0.307097 3.7574 0 3.38708 0C3.01675 0 2.70966 0.307097 2.70966 0.677419V13.3226C2.70966 13.6929 3.01675 14 3.38708 14C3.7574 14 4.06449 13.6929 4.06449 13.3226V7.73161L10.1342 13.8013C10.2606 13.9277 10.4413 14 10.6129 14C10.7032 14 10.7845 13.9819 10.8748 13.9458C11.1277 13.8374 11.2903 13.5935 11.2903 13.3226V0.677419C11.2903 0.406452 11.1277 0.153548 10.8748 0.0541935ZM9.93546 11.6877L5.24772 7L9.93546 2.31226V11.6877Z" fill="#212121"/>
</svg>
