<svg width="14" height="14" viewBox="0 0 14 14" fill="none" xmlns="http://www.w3.org/2000/svg">
<path fill-rule="evenodd" clip-rule="evenodd" d="M2.91071 13.799C3.03725 13.9255 3.2082 13.9977 3.38714 14C3.56607 13.9977 3.73702 13.9255 3.86356 13.799C3.99009 13.6725 4.06222 13.5015 4.06456 13.3226V7.73164L10.1342 13.8013C10.2622 13.9267 10.4337 13.9979 10.6129 14C10.7029 13.9995 10.792 13.9811 10.8748 13.9458C10.9984 13.8953 11.104 13.8089 11.1781 13.6978C11.2521 13.5868 11.2912 13.4561 11.2903 13.3226V0.677406C11.2912 0.54391 11.2521 0.413202 11.1781 0.302125C11.104 0.191047 10.9984 0.10469 10.8748 0.0541797C10.751 0.00209579 10.6144 -0.0119738 10.4825 0.0137597C10.3506 0.0394932 10.2294 0.103867 10.1342 0.198696L4.06456 6.26833V0.677419C4.06456 0.497757 3.99318 0.325452 3.86614 0.198411C3.7391 0.0713707 3.5668 0 3.38714 0C3.20747 0 3.03517 0.0713707 2.90813 0.198411C2.78109 0.325452 2.70972 0.497757 2.70972 0.677419V13.3226C2.71206 13.5015 2.78418 13.6725 2.91071 13.799ZM9.93548 11.6877L5.24774 6.99999L9.93548 2.31224V11.6877Z" fill="#212121"/>
</svg>
