<svg width="14" height="14" viewBox="0 0 14 14" fill="none" xmlns="http://www.w3.org/2000/svg">
<g clip-path="url(#clip0_417_21466)">
<path d="M11.5161 14H2.48387C1.82511 14 1.19332 13.7383 0.727509 13.2725C0.261693 12.8067 0 12.1749 0 11.5161V2.48387C0 1.82511 0.261693 1.19332 0.727509 0.727509C1.19332 0.261693 1.82511 0 2.48387 0H11.5161C12.1749 0 12.8067 0.261693 13.2725 0.727509C13.7383 1.19332 14 1.82511 14 2.48387V11.5161C14 12.1749 13.7383 12.8067 13.2725 13.2725C12.8067 13.7383 12.1749 14 11.5161 14ZM2.48387 1.35484C2.18443 1.35484 1.89726 1.47379 1.68552 1.68552C1.47379 1.89726 1.35484 2.18443 1.35484 2.48387V11.5161C1.35484 11.8156 1.47379 12.1027 1.68552 12.3145C1.89726 12.5262 2.18443 12.6452 2.48387 12.6452H11.5161C11.8156 12.6452 12.1027 12.5262 12.3145 12.3145C12.5262 12.1027 12.6452 11.8156 12.6452 11.5161V2.48387C12.6452 2.18443 12.5262 1.89726 12.3145 1.68552C12.1027 1.47379 11.8156 1.35484 11.5161 1.35484H2.48387Z" fill="#212121"/>
</g>
<defs>
<clipPath id="clip0_417_21466">
<rect width="14" height="14" fill="white"/>
</clipPath>
</defs>
</svg>
