<svg width="14" height="14" viewBox="0 0 14 14" fill="none" xmlns="http://www.w3.org/2000/svg">
<g clip-path="url(#clip0_1518_32537)">
<path d="M6.77795 1.75C3.40045 1.75 0.652954 4.4975 0.652954 7.875C0.652954 11.2525 3.40045 14 6.77795 14C10.1555 14 12.903 11.2525 12.903 7.875C12.903 4.4975 10.1555 1.75 6.77795 1.75ZM6.77795 12.6875C4.1267 12.6875 1.96545 10.5262 1.96545 7.875C1.96545 5.22375 4.1267 3.0625 6.77795 3.0625C9.4292 3.0625 11.5905 5.22375 11.5905 7.875C11.5905 10.5262 9.4292 12.6875 6.77795 12.6875ZM3.9342 0.65625C3.9342 0.2975 4.2317 0 4.59045 0H8.96545C9.3242 0 9.6217 0.2975 9.6217 0.65625C9.6217 1.015 9.3242 1.3125 8.96545 1.3125H4.59045C4.2317 1.3125 3.9342 1.015 3.9342 0.65625ZM7.4342 5.25V7.875C7.4342 8.23375 7.1367 8.53125 6.77795 8.53125C6.4192 8.53125 6.1217 8.23375 6.1217 7.875V5.25C6.1217 4.89125 6.4192 4.59375 6.77795 4.59375C7.1367 4.59375 7.4342 4.89125 7.4342 5.25ZM13.1567 3.73625C13.0255 3.8675 12.8592 3.92875 12.693 3.92875C12.5267 3.92875 12.3605 3.8675 12.2292 3.73625L10.9167 2.42375C10.663 2.17 10.663 1.75 10.9167 1.49625C11.1705 1.2425 11.5905 1.2425 11.8442 1.49625L13.1567 2.80875C13.4105 3.0625 13.4105 3.4825 13.1567 3.73625Z" fill="#212121"/>
</g>
<defs>
<clipPath id="clip0_1518_32537">
<rect width="14" height="14" fill="white"/>
</clipPath>
</defs>
</svg>
