<svg width="14" height="14" viewBox="0 0 14 14" fill="none" xmlns="http://www.w3.org/2000/svg">
<g clip-path="url(#clip0_417_21522)">
<path fill-rule="evenodd" clip-rule="evenodd" d="M6.99998 2.1C6.8613 2.09819 6.72882 2.04229 6.63075 1.94423C6.53268 1.84616 6.47679 1.71367 6.47498 1.575V0.525C6.47498 0.385761 6.53029 0.252225 6.62874 0.153769C6.7272 0.0553123 6.86074 0 6.99998 0C7.13921 0 7.27275 0.0553123 7.37121 0.153769C7.46966 0.252225 7.52498 0.385761 7.52498 0.525V1.575C7.52316 1.71367 7.46727 1.84616 7.3692 1.94423C7.27114 2.04229 7.13865 2.09819 6.99998 2.1ZM6.99998 11.025C6.20391 11.025 5.42572 10.7889 4.76381 10.3466C4.1019 9.90437 3.586 9.27575 3.28136 8.54028C2.97672 7.80481 2.89701 6.99551 3.05232 6.21474C3.20762 5.43397 3.59097 4.71678 4.15387 4.15387C4.71678 3.59097 5.43397 3.20762 6.21474 3.05232C6.99551 2.89701 7.80481 2.97672 8.54028 3.28136C9.27575 3.586 9.90437 4.1019 10.3466 4.76381C10.7889 5.42572 11.025 6.20391 11.025 6.99998C11.0231 8.06691 10.5985 9.08961 9.84404 9.84404C9.08961 10.5985 8.06691 11.0231 6.99998 11.025ZM6.99998 4.02498C6.41158 4.02498 5.83639 4.19946 5.34716 4.52636C4.85792 4.85325 4.47661 5.31788 4.25144 5.86149C4.02627 6.4051 3.96735 7.00328 4.08214 7.58037C4.19693 8.15746 4.48027 8.68756 4.89633 9.10362C5.3124 9.51968 5.84249 9.80302 6.41958 9.91781C6.99668 10.0326 7.59485 9.97369 8.13846 9.74852C8.68207 9.52335 9.1467 9.14204 9.4736 8.6528C9.8005 8.16356 9.97498 7.58838 9.97498 6.99998C9.97313 6.21153 9.6591 5.4559 9.10158 4.89838C8.54406 4.34086 7.78843 4.02683 6.99998 4.02498ZM6.63075 13.8443C6.72882 13.9423 6.8613 13.9982 6.99998 14C7.13865 13.9982 7.27114 13.9423 7.3692 13.8443C7.46727 13.7462 7.52316 13.6137 7.52498 13.475V12.425C7.52498 12.2858 7.46966 12.1522 7.37121 12.0538C7.27275 11.9553 7.13921 11.9 6.99998 11.9C6.86074 11.9 6.7272 11.9553 6.62874 12.0538C6.53029 12.1522 6.47498 12.2858 6.47498 12.425V13.475C6.47679 13.6137 6.53268 13.7462 6.63075 13.8443ZM13.475 7.52498H12.425C12.2858 7.52498 12.1522 7.46966 12.0538 7.37121C11.9553 7.27275 11.9 7.13921 11.9 6.99998C11.9 6.86074 11.9553 6.7272 12.0538 6.62874C12.1522 6.53029 12.2858 6.47498 12.425 6.47498H13.475C13.6143 6.47498 13.7478 6.53029 13.8463 6.62874C13.9447 6.7272 14 6.86074 14 6.99998C14 7.13921 13.9447 7.27275 13.8463 7.37121C13.7478 7.46966 13.6143 7.52498 13.475 7.52498ZM0.525 7.52498H1.575C1.71424 7.52498 1.84777 7.46966 1.94623 7.37121C2.04469 7.27275 2.1 7.13921 2.1 6.99998C2.1 6.86074 2.04469 6.7272 1.94623 6.62874C1.84777 6.53029 1.71424 6.47498 1.575 6.47498H0.525C0.385761 6.47498 0.252225 6.53029 0.153769 6.62874C0.0553123 6.7272 0 6.86074 0 6.99998C0 7.13921 0.0553123 7.27275 0.153769 7.37121C0.252225 7.46966 0.385761 7.52498 0.525 7.52498ZM3.15005 3.67499C3.01499 3.66466 2.88935 3.60184 2.80005 3.49999L2.03705 2.79999C1.98695 2.74989 1.94721 2.69041 1.9201 2.62496C1.89298 2.5595 1.87903 2.48934 1.87903 2.41849C1.87903 2.34764 1.89298 2.27748 1.9201 2.21202C1.94721 2.14657 1.98695 2.08709 2.03705 2.03699C2.08715 1.98689 2.14663 1.94715 2.21208 1.92004C2.27754 1.89292 2.3477 1.87897 2.41855 1.87897C2.4894 1.87897 2.55956 1.89292 2.62502 1.92004C2.69047 1.94715 2.74995 1.98689 2.80005 2.03699L3.50005 2.79999C3.58614 2.89624 3.63374 3.02085 3.63374 3.14999C3.63374 3.27913 3.58614 3.40374 3.50005 3.49999C3.41075 3.60184 3.28511 3.66466 3.15005 3.67499ZM11.391 12.0774C11.4547 12.1039 11.523 12.1173 11.592 12.117C11.6625 12.1146 11.7318 12.0979 11.7955 12.0678C11.8593 12.0377 11.9163 11.9949 11.963 11.942C12.0613 11.8435 12.1165 11.7101 12.1165 11.571C12.1165 11.4319 12.0613 11.2984 11.963 11.2L11.2 10.5C11.102 10.4532 10.992 10.4379 10.885 10.4563C10.7779 10.4747 10.6793 10.5257 10.6025 10.6025C10.5257 10.6793 10.4747 10.7779 10.4563 10.885C10.4379 10.992 10.4532 11.102 10.5 11.2L11.221 11.963C11.2695 12.0121 11.3272 12.051 11.391 12.0774ZM10.85 3.67499C10.715 3.66466 10.5893 3.60184 10.5 3.49999C10.4139 3.40374 10.3663 3.27913 10.3663 3.14999C10.3663 3.02085 10.4139 2.89624 10.5 2.79999L11.2 2.03699C11.3012 1.93581 11.4384 1.87897 11.5815 1.87897C11.7246 1.87897 11.8618 1.93581 11.963 2.03699C12.0642 2.13817 12.121 2.2754 12.121 2.41849C12.121 2.56158 12.0642 2.69881 11.963 2.79999L11.2 3.49999C11.1107 3.60184 10.9851 3.66466 10.85 3.67499ZM2.20693 12.0774C2.27063 12.1039 2.33898 12.1173 2.40796 12.117C2.48044 12.1202 2.55279 12.1082 2.62032 12.0816C2.68785 12.0551 2.74905 12.0147 2.79996 11.963L3.49996 11.2C3.54675 11.102 3.56202 10.992 3.54366 10.885C3.5253 10.7779 3.47422 10.6793 3.39745 10.6025C3.32068 10.5257 3.222 10.4747 3.115 10.4563C3.00799 10.4379 2.89793 10.4532 2.79996 10.5L2.03696 11.221C1.93865 11.3194 1.88342 11.4529 1.88342 11.592C1.88342 11.7311 1.93865 11.8645 2.03696 11.963C2.08543 12.0121 2.14322 12.051 2.20693 12.0774Z" fill="#212121"/>
</g>
<defs>
<clipPath id="clip0_417_21522">
<rect width="14" height="14" fill="white"/>
</clipPath>
</defs>
</svg>
