<svg width="14" height="14" viewBox="0 0 14 14" fill="none" xmlns="http://www.w3.org/2000/svg">
<g clip-path="url(#clip0_417_21545)">
<path fill-rule="evenodd" clip-rule="evenodd" d="M12.3402 0.200998C12.4667 0.074461 12.6377 0.00233932 12.8166 0C12.9963 0 13.1686 0.0713707 13.2956 0.198411C13.4227 0.325452 13.494 0.497757 13.494 0.677419V4.51613C13.4952 4.60543 13.4786 4.69406 13.4449 4.7768C13.4113 4.85953 13.3615 4.9347 13.2983 4.99784C13.2352 5.06099 13.16 5.11085 13.0773 5.14446C12.9945 5.17807 12.9059 5.19476 12.8166 5.19355H8.98694C8.80727 5.19355 8.63497 5.12218 8.50793 4.99514C8.38089 4.8681 8.30952 4.69579 8.30952 4.51613C8.30952 4.33647 8.38089 4.16416 8.50793 4.03712C8.63497 3.91008 8.80727 3.83871 8.98694 3.83871H11.1637L10.405 3.08C9.42992 2.1087 8.10969 1.56335 6.73339 1.56335C5.35709 1.56335 4.03686 2.1087 3.06178 3.08C2.50039 3.63712 2.07669 4.31751 1.82436 5.0671C1.77788 5.20055 1.69135 5.31641 1.57657 5.39885C1.4618 5.4813 1.32438 5.52631 1.18307 5.52774C1.10836 5.54073 1.03197 5.54073 0.957261 5.52774C0.867711 5.49994 0.785012 5.45361 0.714538 5.39176C0.644065 5.32991 0.587395 5.25392 0.548209 5.16873C0.509024 5.08355 0.4882 4.99107 0.487092 4.89731C0.485984 4.80355 0.504616 4.7106 0.541777 4.62452C0.898643 3.56845 1.51955 2.62114 2.34553 1.87255C3.17151 1.12396 4.17514 0.598948 5.26111 0.347364C6.34708 0.0957811 7.47934 0.125983 8.55036 0.435101C9.62137 0.744219 10.5956 1.32199 11.3805 2.11355L12.1392 2.87226V0.677419C12.1415 0.498484 12.2137 0.327535 12.3402 0.200998ZM12.7691 8.47021C12.8624 8.46718 12.9555 8.48325 13.0424 8.51742C13.1281 8.54396 13.2076 8.58748 13.2761 8.64539C13.3446 8.70329 13.4008 8.7744 13.4412 8.85447C13.4817 8.93454 13.5056 9.02194 13.5116 9.11145C13.5176 9.20096 13.5054 9.29076 13.476 9.37549C13.1191 10.4316 12.4982 11.3789 11.6722 12.1275C10.8462 12.876 9.84261 13.4011 8.75664 13.6526C7.67066 13.9042 6.53841 13.874 5.46739 13.5649C4.39638 13.2558 3.42216 12.678 2.63726 11.8865L1.87855 11.1277V13.3226C1.87855 13.5022 1.80718 13.6746 1.68014 13.8016C1.5531 13.9286 1.3808 14 1.20113 14C1.02147 14 0.849165 13.9286 0.722124 13.8016C0.595084 13.6746 0.523713 13.5022 0.523713 13.3226V9.49291C0.522498 9.40361 0.53919 9.31498 0.572803 9.23224C0.606417 9.1495 0.656269 9.07434 0.719417 9.01119C0.782565 8.94804 0.857727 8.89819 0.940464 8.86458C1.0232 8.83097 1.11184 8.81427 1.20113 8.81549H5.03081C5.21047 8.81549 5.38278 8.88686 5.50982 9.0139C5.63686 9.14094 5.70823 9.31324 5.70823 9.49291C5.70823 9.67257 5.63686 9.84487 5.50982 9.97192C5.38278 10.099 5.21047 10.1703 5.03081 10.1703H2.79984L3.55855 10.929C4.53364 11.9003 5.85386 12.4457 7.23016 12.4457C8.60647 12.4457 9.92669 11.9003 10.9018 10.929C11.4632 10.3719 11.8869 9.69152 12.1392 8.94194C12.1684 8.85318 12.2154 8.77131 12.2773 8.70134C12.3392 8.63138 12.4148 8.57479 12.4993 8.53505C12.5839 8.4953 12.6757 8.47324 12.7691 8.47021Z" fill="#212121"/>
</g>
<defs>
<clipPath id="clip0_417_21545">
<rect width="14" height="14" fill="white"/>
</clipPath>
</defs>
</svg>
