<svg width="14" height="14" viewBox="0 0 14 14" fill="none" xmlns="http://www.w3.org/2000/svg">
<g clip-path="url(#clip0_417_21578)">
<path d="M11.8 0H2.19999C1.43199 0 0.799988 0.632 0.799988 1.4V12.6C0.799988 13.368 1.43199 14 2.19999 14H11.8C12.568 14 13.2 13.368 13.2 12.6V1.4C13.2 0.632 12.568 0 11.8 0ZM12 12.6C12 12.712 11.912 12.8 11.8 12.8H2.19999C2.08799 12.8 1.99999 12.712 1.99999 12.6V1.4C1.99999 1.288 2.08799 1.2 2.19999 1.2H11.8C11.912 1.2 12 1.288 12 1.4V12.6ZM7.79999 10.2C7.79999 10.64 7.43999 11 6.99999 11C6.55999 11 6.19999 10.64 6.19999 10.2C6.19999 9.76 6.55999 9.4 6.99999 9.4C7.43999 9.4 7.79999 9.76 7.79999 10.2Z" fill="#212121"/>
</g>
<defs>
<clipPath id="clip0_417_21578">
<rect width="14" height="14" fill="white"/>
</clipPath>
</defs>
</svg>
