<svg width="14" height="14" viewBox="0 0 14 14" fill="none" xmlns="http://www.w3.org/2000/svg">
<g clip-path="url(#clip0_417_21566)">
<path d="M11.8 0.799988H2.2C1.61652 0.799988 1.05694 1.03177 0.644365 1.44435C0.231785 1.85693 0 2.41651 0 2.99999V11C0 11.5835 0.231785 12.143 0.644365 12.5556C1.05694 12.9682 1.61652 13.2 2.2 13.2H11.8C12.3835 13.2 12.9431 12.9682 13.3556 12.5556C13.7682 12.143 14 11.5835 14 11V2.99999C14 2.41651 13.7682 1.85693 13.3556 1.44435C12.9431 1.03177 12.3835 0.799988 11.8 0.799988ZM12.8 2.99999V6.39999H7.6V1.99999H11.8C12.0652 1.99999 12.3196 2.10534 12.5071 2.29288C12.6946 2.48042 12.8 2.73477 12.8 2.99999ZM2.2 1.99999H6.4V6.39999H1.2V2.99999C1.2 2.73477 1.30536 2.48042 1.49289 2.29288C1.68043 2.10534 1.93478 1.99999 2.2 1.99999ZM1.2 11V7.59999H6.4V12H2.2C1.93478 12 1.68043 11.8946 1.49289 11.7071C1.30536 11.5196 1.2 11.2652 1.2 11ZM11.8 12H7.6V7.59999H12.8V11C12.8 11.2652 12.6946 11.5196 12.5071 11.7071C12.3196 11.8946 12.0652 12 11.8 12Z" fill="#212121"/>
</g>
<defs>
<clipPath id="clip0_417_21566">
<rect width="14" height="14" fill="white"/>
</clipPath>
</defs>
</svg>
