<svg width="14" height="14" viewBox="0 0 14 14" fill="none" xmlns="http://www.w3.org/2000/svg">
<g clip-path="url(#clip0_394_19774)">
<path d="M7.28412 14C6.77511 14 6.2661 13.807 5.87996 13.4211L0.193073 7.74561C0.0702083 7.62281 0 7.45614 0 7.2807V0.657895C0 0.298246 0.298386 0 0.658204 0H7.27535C7.45087 0 7.61761 0.0701753 7.74048 0.192982L13.4274 5.87719C14.1909 6.64912 14.1909 7.90351 13.4274 8.67544L8.67952 13.4211C8.29337 13.807 7.78436 14 7.27535 14H7.28412ZM1.31641 7.00877L6.81022 12.4912C7.0735 12.7456 7.49475 12.7456 7.74926 12.4912L12.4971 7.74561C12.7516 7.49123 12.7516 7.07018 12.4971 6.80702L7.00329 1.31579H1.31641V7V7.00877ZM3.93167 5.02632C3.32612 5.02632 2.83467 4.53509 2.83467 3.92982C2.83467 3.32456 3.32612 2.83333 3.93167 2.83333C4.53722 2.83333 5.02868 3.32456 5.02868 3.92982C5.02868 4.53509 4.53722 5.02632 3.93167 5.02632Z" fill="#212121"/>
</g>
<defs>
<clipPath id="clip0_394_19774">
<rect width="14" height="14" fill="white"/>
</clipPath>
</defs>
</svg>
