<svg width="14" height="14" viewBox="0 0 14 14" fill="none" xmlns="http://www.w3.org/2000/svg">
<path d="M13.5222 5.78213L9.21119 1.47112C9.1106 1.37053 8.97408 1.31305 8.83038 1.31305H0.538876C0.244291 1.31305 0 1.55734 0 1.85193V7.51372C0 7.65742 0.0574801 7.79393 0.15807 7.89452L4.46908 12.1983C4.78522 12.5145 5.20195 12.6869 5.64742 12.6869C6.09289 12.6869 6.51681 12.5145 6.82576 12.1983L6.98383 12.0403C7.01257 12.0978 7.04131 12.1552 7.09161 12.1983C7.41493 12.5217 7.84604 12.6869 8.26995 12.6869C8.69387 12.6869 9.12497 12.5217 9.45548 12.1983L13.515 8.13881C14.1617 7.49216 14.1617 6.43597 13.515 5.78213H13.5222ZM6.07134 11.4367C5.95638 11.5517 5.81268 11.6092 5.65461 11.6092C5.49654 11.6092 5.34565 11.5445 5.23788 11.4367L1.07775 7.29098V2.3908H5.97793L10.1309 6.54374C10.3608 6.77366 10.3608 7.14728 10.1309 7.3772L6.07134 11.4367ZM12.7606 7.3772L8.70105 11.4367C8.47113 11.6667 8.09033 11.6667 7.86041 11.4367C7.81011 11.3864 7.75982 11.3577 7.69515 11.329L10.8853 8.13881C11.5319 7.48498 11.5319 6.42878 10.8853 5.78213L7.49397 2.3908H8.60046L12.7534 6.54374C12.9833 6.77366 12.9833 7.14728 12.7534 7.3772H12.7606ZM4.31101 4.48883C4.31101 4.98459 3.90865 5.38695 3.41288 5.38695C2.91712 5.38695 2.51476 4.98459 2.51476 4.48883C2.51476 3.99306 2.91712 3.5907 3.41288 3.5907C3.90865 3.5907 4.31101 3.99306 4.31101 4.48883Z" fill="#212121"/>
</svg>
