<svg width="14" height="14" viewBox="0 0 14 14" fill="none" xmlns="http://www.w3.org/2000/svg">
<g clip-path="url(#clip0_414_21123)">
<path d="M7 0C5.61553 0 4.26215 0.410543 3.11101 1.17971C1.95987 1.94888 1.06266 3.04213 0.532846 4.32122C0.00303297 5.6003 -0.13559 7.00776 0.134506 8.36563C0.404603 9.7235 1.07129 10.9708 2.05026 11.9497C3.02922 12.9287 4.2765 13.5954 5.63437 13.8655C6.99224 14.1356 8.3997 13.997 9.67879 13.4672C10.9579 12.9373 12.0511 12.0401 12.8203 10.889C13.5895 9.73784 14 8.38447 14 7C14 5.14348 13.2625 3.36301 11.9497 2.05025C10.637 0.737498 8.85652 0 7 0ZM10.4388 4.795L9.2925 10.2112C9.205 10.5962 8.9775 10.6837 8.65375 10.5087L6.90375 9.21375L6.02875 10.0275C5.98754 10.0813 5.9346 10.1251 5.87396 10.1554C5.81331 10.1857 5.74655 10.2018 5.67875 10.2025L5.80125 8.4525L9.03875 5.52125C9.1875 5.39875 9.03875 5.32875 8.82875 5.45125L4.85625 7.945L3.10625 7.4025C2.73 7.28875 2.72125 7.02625 3.185 6.85125L9.93125 4.22625C10.2638 4.13 10.5438 4.3225 10.4388 4.795Z" fill="#212121"/>
</g>
<defs>
<clipPath id="clip0_414_21123">
<rect width="14" height="14" fill="white"/>
</clipPath>
</defs>
</svg>
