<svg width="14" height="14" viewBox="0 0 14 14" fill="none" xmlns="http://www.w3.org/2000/svg">
<g clip-path="url(#clip0_417_21459)">
<path d="M12.0966 0H2.84064C1.96864 0 1.22464 0.624 1.07264 1.488L0.0246429 7.488C-0.0633571 8.016 0.0806429 8.552 0.416643 8.96C0.760643 9.368 1.25664 9.6 1.79264 9.6H5.01664V11.8C5.01664 13.016 6.00064 14 7.28064 14C7.84064 14 8.34464 13.664 8.56864 13.144L10.6006 8.4H12.1046C13.1526 8.4 14.0006 7.552 14.0006 6.504V1.888C14.0006 0.848 13.1526 0 12.1046 0H12.0966ZM9.60064 7.68L7.46464 12.68C7.43264 12.752 7.36064 12.808 7.20864 12.808C6.65664 12.808 6.21664 12.36 6.21664 11.808V8.408H1.79264C1.60864 8.408 1.44864 8.336 1.33664 8.2C1.21664 8.064 1.17664 7.888 1.20864 7.704L2.25664 1.704C2.30464 1.416 2.55264 1.208 2.84864 1.208H9.60064V7.68ZM12.7926 6.504C12.7926 6.888 12.4806 7.2 12.0966 7.2H10.8086V1.2H12.0966C12.4806 1.2 12.7926 1.512 12.7926 1.888V6.504Z" fill="#212121"/>
</g>
<defs>
<clipPath id="clip0_417_21459">
<rect width="14" height="14" fill="white"/>
</clipPath>
</defs>
</svg>
