<svg width="14" height="14" viewBox="0 0 14 14" fill="none" xmlns="http://www.w3.org/2000/svg">
<g clip-path="url(#clip0_417_21497)">
<path d="M13.5825 5.04C13.2384 4.632 12.7421 4.4 12.2059 4.4H8.98033V2.2C8.98033 0.984 7.99585 0 6.71523 0C6.15496 0 5.65072 0.336 5.42661 0.856L3.39363 5.6H1.89691C0.848409 5.6 0 6.448 0 7.496V12.112C0 13.152 0.856412 14 1.89691 14H11.1494C12.0218 14 12.7661 13.376 12.9182 12.512L13.9747 6.512C14.0628 5.984 13.9187 5.448 13.5745 5.04H13.5825ZM1.89691 12.8C1.51273 12.8 1.20058 12.488 1.20058 12.112V7.496C1.20058 7.112 1.51273 6.8 1.89691 6.8H3.18553V12.8H1.89691ZM11.7417 12.304C11.6936 12.592 11.4455 12.8 11.1494 12.8H4.39412V6.32L6.53115 1.32C6.56316 1.248 6.6352 1.192 6.78727 1.192C7.33953 1.192 7.77975 1.64 7.77975 2.192V5.592H12.2059C12.39 5.592 12.55 5.664 12.6621 5.8C12.7742 5.936 12.8222 6.112 12.7902 6.296L11.7337 12.296L11.7417 12.304Z" fill="#212121"/>
</g>
<defs>
<clipPath id="clip0_417_21497">
<rect width="14" height="14" fill="white"/>
</clipPath>
</defs>
</svg>
