<svg width="14" height="14" viewBox="0 0 14 14" fill="none" xmlns="http://www.w3.org/2000/svg">
<path d="M12.6 12.4H1.4C1.02934 12.3979 0.674468 12.2497 0.412371 11.9876C0.150274 11.7255 0.00210008 11.3706 0 11V8.99998C0.00207197 8.84149 0.0659513 8.69008 0.178027 8.578C0.290103 8.46593 0.441514 8.40205 0.6 8.39998C0.971303 8.39998 1.3274 8.25248 1.58995 7.98993C1.8525 7.72737 2 7.37128 2 6.99998C2 6.62867 1.8525 6.27258 1.58995 6.01003C1.3274 5.74748 0.971303 5.59998 0.6 5.59998C0.441514 5.5979 0.290103 5.53402 0.178027 5.42195C0.0659513 5.30987 0.00207197 5.15846 0 4.99998V2.99998C0.00210008 2.62932 0.150274 2.27444 0.412371 2.01235C0.674468 1.75025 1.02934 1.60208 1.4 1.59998H12.6C12.9707 1.60208 13.3255 1.75025 13.5876 2.01235C13.8497 2.27444 13.9979 2.62932 14 2.99998V4.99998C13.9979 5.15846 13.934 5.30987 13.822 5.42195C13.7099 5.53402 13.5585 5.5979 13.4 5.59998C13.0287 5.59998 12.6726 5.74748 12.4101 6.01003C12.1475 6.27258 12 6.62867 12 6.99998C12 7.37128 12.1475 7.72737 12.4101 7.98993C12.6726 8.25248 13.0287 8.39998 13.4 8.39998C13.5585 8.40205 13.7099 8.46593 13.822 8.578C13.934 8.69008 13.9979 8.84149 14 8.99998V11C13.9979 11.3706 13.8497 11.7255 13.5876 11.9876C13.3255 12.2497 12.9707 12.3979 12.6 12.4ZM1.2 9.52798V11C1.2 11.053 1.22107 11.1039 1.25858 11.1414C1.29609 11.1789 1.34696 11.2 1.4 11.2H12.6C12.653 11.2 12.7039 11.1789 12.7414 11.1414C12.7789 11.1039 12.8 11.053 12.8 11V9.52798C12.2323 9.39152 11.727 9.06793 11.3656 8.60935C11.0042 8.15076 10.8076 7.58387 10.8076 6.99998C10.8076 6.41609 11.0042 5.84919 11.3656 5.3906C11.727 4.93202 12.2323 4.60843 12.8 4.47198V2.99998C12.8 2.94693 12.7789 2.89606 12.7414 2.85855C12.7039 2.82105 12.653 2.79998 12.6 2.79998H1.4C1.34696 2.79998 1.29609 2.82105 1.25858 2.85855C1.22107 2.89606 1.2 2.94693 1.2 2.99998V4.47198C1.76772 4.60843 2.27299 4.93202 2.63441 5.3906C2.99583 5.84919 3.19237 6.41609 3.19237 6.99998C3.19237 7.58387 2.99583 8.15076 2.63441 8.60935C2.27299 9.06793 1.76772 9.39152 1.2 9.52798Z" fill="#212121"/>
</svg>
