<svg width="98" height="24" viewBox="0 0 98 24" fill="none" xmlns="http://www.w3.org/2000/svg">
<path d="M26 18.75H12C11.5367 18.7474 11.0931 18.5622 10.7655 18.2345C10.4378 17.9069 10.2526 17.4633 10.25 17V14.5C10.2526 14.3019 10.3324 14.1126 10.4725 13.9725C10.6126 13.8324 10.8019 13.7526 11 13.75C11.4641 13.75 11.9092 13.5656 12.2374 13.2374C12.5656 12.9092 12.75 12.4641 12.75 12C12.75 11.5359 12.5656 11.0908 12.2374 10.7626C11.9092 10.4344 11.4641 10.25 11 10.25C10.8019 10.2474 10.6126 10.1676 10.4725 10.0275C10.3324 9.88737 10.2526 9.69811 10.25 9.5V7C10.2526 6.53668 10.4378 6.09309 10.7655 5.76546C11.0931 5.43784 11.5367 5.25263 12 5.25H26C26.4633 5.25263 26.9069 5.43784 27.2345 5.76546C27.5622 6.09309 27.7474 6.53668 27.75 7V9.5C27.7474 9.69811 27.6676 9.88737 27.5275 10.0275C27.3874 10.1676 27.1981 10.2474 27 10.25C26.5359 10.25 26.0908 10.4344 25.7626 10.7626C25.4344 11.0908 25.25 11.5359 25.25 12C25.25 12.4641 25.4344 12.9092 25.7626 13.2374C26.0908 13.5656 26.5359 13.75 27 13.75C27.1981 13.7526 27.3874 13.8324 27.5275 13.9725C27.6676 14.1126 27.7474 14.3019 27.75 14.5V17C27.7474 17.4633 27.5622 17.9069 27.2345 18.2345C26.9069 18.5622 26.4633 18.7474 26 18.75ZM11.75 15.16V17C11.75 17.0663 11.7763 17.1299 11.8232 17.1768C11.8701 17.2237 11.9337 17.25 12 17.25H26C26.0663 17.25 26.1299 17.2237 26.1768 17.1768C26.2237 17.1299 26.25 17.0663 26.25 17V15.16C25.5403 14.9894 24.9088 14.5849 24.457 14.0117C24.0052 13.4385 23.7595 12.7299 23.7595 12C23.7595 11.2701 24.0052 10.5615 24.457 9.98829C24.9088 9.41505 25.5403 9.01057 26.25 8.84V7C26.25 6.9337 26.2237 6.87011 26.1768 6.82322C26.1299 6.77634 26.0663 6.75 26 6.75H12C11.9337 6.75 11.8701 6.77634 11.8232 6.82322C11.7763 6.87011 11.75 6.9337 11.75 7V8.84C12.4597 9.01057 13.0912 9.41505 13.543 9.98829C13.9948 10.5615 14.2405 11.2701 14.2405 12C14.2405 12.7299 13.9948 13.4385 13.543 14.0117C13.0912 14.5849 12.4597 14.9894 11.75 15.16Z" fill="#212121"/>
<path d="M59.6 17.4H48.4C48.0293 17.3979 47.6745 17.2497 47.4124 16.9876C47.1503 16.7255 47.0021 16.3706 47 16V14C47.0021 13.8415 47.066 13.6901 47.178 13.578C47.2901 13.4659 47.4415 13.402 47.6 13.4C47.9713 13.4 48.3274 13.2525 48.5899 12.9899C48.8525 12.7274 49 12.3713 49 12C49 11.6287 48.8525 11.2726 48.5899 11.01C48.3274 10.7475 47.9713 10.6 47.6 10.6C47.4415 10.5979 47.2901 10.534 47.178 10.4219C47.066 10.3099 47.0021 10.1585 47 9.99998V7.99998C47.0021 7.62932 47.1503 7.27444 47.4124 7.01235C47.6745 6.75025 48.0293 6.60208 48.4 6.59998H59.6C59.9707 6.60208 60.3255 6.75025 60.5876 7.01235C60.8497 7.27444 60.9979 7.62932 61 7.99998V9.99998C60.9979 10.1585 60.934 10.3099 60.822 10.4219C60.7099 10.534 60.5585 10.5979 60.4 10.6C60.0287 10.6 59.6726 10.7475 59.4101 11.01C59.1475 11.2726 59 11.6287 59 12C59 12.3713 59.1475 12.7274 59.4101 12.9899C59.6726 13.2525 60.0287 13.4 60.4 13.4C60.5585 13.402 60.7099 13.4659 60.822 13.578C60.934 13.6901 60.9979 13.8415 61 14V16C60.9979 16.3706 60.8497 16.7255 60.5876 16.9876C60.3255 17.2497 59.9707 17.3979 59.6 17.4ZM48.2 14.528V16C48.2 16.053 48.2211 16.1039 48.2586 16.1414C48.2961 16.1789 48.347 16.2 48.4 16.2H59.6C59.653 16.2 59.7039 16.1789 59.7414 16.1414C59.7789 16.1039 59.8 16.053 59.8 16V14.528C59.2323 14.3915 58.727 14.0679 58.3656 13.6093C58.0042 13.1508 57.8076 12.5839 57.8076 12C57.8076 11.4161 58.0042 10.8492 58.3656 10.3906C58.727 9.93202 59.2323 9.60843 59.8 9.47198V7.99998C59.8 7.94693 59.7789 7.89606 59.7414 7.85855C59.7039 7.82105 59.653 7.79998 59.6 7.79998H48.4C48.347 7.79998 48.2961 7.82105 48.2586 7.85855C48.2211 7.89606 48.2 7.94693 48.2 7.99998V9.47198C48.7677 9.60843 49.273 9.93202 49.6344 10.3906C49.9958 10.8492 50.1924 11.4161 50.1924 12C50.1924 12.5839 49.9958 13.1508 49.6344 13.6093C49.273 14.0679 48.7677 14.3915 48.2 14.528Z" fill="#212121"/>
<path d="M89.6 17.4H78.4C78.0293 17.3979 77.6745 17.2497 77.4124 16.9876C77.1503 16.7255 77.0021 16.3706 77 16V14C77.0021 13.8415 77.066 13.6901 77.178 13.578C77.2901 13.4659 77.4415 13.402 77.6 13.4C77.9713 13.4 78.3274 13.2525 78.5899 12.9899C78.8525 12.7274 79 12.3713 79 12C79 11.6287 78.8525 11.2726 78.5899 11.01C78.3274 10.7475 77.9713 10.6 77.6 10.6C77.4415 10.5979 77.2901 10.534 77.178 10.4219C77.066 10.3099 77.0021 10.1585 77 9.99998V7.99998C77.0021 7.62932 77.1503 7.27444 77.4124 7.01235C77.6745 6.75025 78.0293 6.60208 78.4 6.59998H89.6C89.9707 6.60208 90.3255 6.75025 90.5876 7.01235C90.8497 7.27444 90.9979 7.62932 91 7.99998V9.99998C90.9979 10.1585 90.934 10.3099 90.822 10.4219C90.7099 10.534 90.5585 10.5979 90.4 10.6C90.0287 10.6 89.6726 10.7475 89.4101 11.01C89.1475 11.2726 89 11.6287 89 12C89 12.3713 89.1475 12.7274 89.4101 12.9899C89.6726 13.2525 90.0287 13.4 90.4 13.4C90.5585 13.402 90.7099 13.4659 90.822 13.578C90.934 13.6901 90.9979 13.8415 91 14V16C90.9979 16.3706 90.8497 16.7255 90.5876 16.9876C90.3255 17.2497 89.9707 17.3979 89.6 17.4ZM78.2 14.528V16C78.2 16.053 78.2211 16.1039 78.2586 16.1414C78.2961 16.1789 78.347 16.2 78.4 16.2H89.6C89.653 16.2 89.7039 16.1789 89.7414 16.1414C89.7789 16.1039 89.8 16.053 89.8 16V14.528C89.2323 14.3915 88.727 14.0679 88.3656 13.6093C88.0042 13.1508 87.8076 12.5839 87.8076 12C87.8076 11.4161 88.0042 10.8492 88.3656 10.3906C88.727 9.93202 89.2323 9.60843 89.8 9.47198V7.99998C89.8 7.94693 89.7789 7.89606 89.7414 7.85855C89.7039 7.82105 89.653 7.79998 89.6 7.79998H78.4C78.347 7.79998 78.2961 7.82105 78.2586 7.85855C78.2211 7.89606 78.2 7.94693 78.2 7.99998V9.47198C78.7677 9.60843 79.273 9.93202 79.6344 10.3906C79.9958 10.8492 80.1924 11.4161 80.1924 12C80.1924 12.5839 79.9958 13.1508 79.6344 13.6093C79.273 14.0679 78.7677 14.3915 78.2 14.528Z" fill="#212121"/>
<rect x="0.5" y="0.5" width="97" height="23" rx="4.5" stroke="#3B82F6" stroke-dasharray="10 5"/>
</svg>
