<svg width="14" height="14" viewBox="0 0 14 14" fill="none" xmlns="http://www.w3.org/2000/svg">
<path d="M11.1682 3.02487H9.65387V2.457C9.65387 1.73012 9.05571 1.13196 8.32883 1.13196H1.32504C0.598161 1.13196 0 1.73012 0 2.457V9.27149C0 9.99837 0.598161 10.5965 1.32504 10.5965H1.53705C1.63548 11.861 2.68794 12.868 3.97512 12.868C5.2623 12.868 6.31476 11.861 6.4132 10.5965H7.5868C7.68524 11.861 8.7377 12.868 10.0249 12.868C11.3121 12.868 12.3645 11.861 12.463 10.5965H12.675C13.4018 10.5965 14 9.99837 14 9.27149V5.86425C14 4.29691 12.728 3.02487 11.1606 3.02487H11.1682ZM1.13575 9.27149V2.457C1.13575 2.351 1.21904 2.26771 1.32504 2.26771H8.32883C8.43483 2.26771 8.51812 2.351 8.51812 2.457V8.4689C8.51812 8.4689 8.48026 8.51433 8.45754 8.52947C8.34397 8.6279 8.23797 8.7339 8.13953 8.84748C8.10925 8.88534 8.07896 8.91562 8.05625 8.95348C7.94267 9.11249 7.83667 9.27149 7.76852 9.45321H6.25419C6.25419 9.45321 6.25419 9.45321 6.25419 9.44564C6.20119 9.31692 6.12547 9.1882 6.04976 9.07463C6.02704 9.04434 6.00433 9.01406 5.98161 8.9762C5.92104 8.88534 5.85289 8.80962 5.77718 8.72633C5.74689 8.69605 5.72418 8.66576 5.69389 8.63547C5.59546 8.54461 5.49703 8.46133 5.39102 8.38561C5.37588 8.37804 5.36831 8.36289 5.35316 8.35532C5.23959 8.27961 5.11844 8.21903 4.9973 8.15846C4.95187 8.13574 4.90644 8.1206 4.86101 8.10546C4.76257 8.0676 4.67171 8.03731 4.57328 8.0146C4.52785 8.00703 4.48242 7.99188 4.43699 7.98431C4.29313 7.95402 4.1417 7.93888 3.99027 7.93888C3.83883 7.93888 3.69497 7.95402 3.54354 7.98431C3.49811 7.99188 3.45268 8.00703 3.40725 8.0146C3.30882 8.03731 3.21038 8.0676 3.11952 8.10546C3.07409 8.1206 3.02866 8.13574 2.98323 8.15846C2.86209 8.21146 2.74094 8.27961 2.62737 8.35532C2.61222 8.36289 2.60465 8.37047 2.58951 8.38561C2.4835 8.46133 2.3775 8.54461 2.28664 8.63547C2.25635 8.66576 2.22607 8.69605 2.20335 8.72633C2.12764 8.80205 2.05949 8.88534 1.99892 8.9762C1.9762 9.00648 1.95349 9.03677 1.93077 9.07463C1.85506 9.19578 1.78691 9.31692 1.72634 9.44564C1.72634 9.44564 1.72634 9.44564 1.72634 9.45321H1.34776C1.24175 9.45321 1.15846 9.36992 1.15846 9.26392L1.13575 9.27149ZM3.97512 11.7323C3.24824 11.7323 2.65008 11.1341 2.65008 10.4072C2.65008 10.3164 2.65765 10.2255 2.68037 10.1422C2.71065 10.0059 2.76366 9.87723 2.8318 9.76365C2.83937 9.74094 2.85452 9.72579 2.86209 9.70308C2.93023 9.59707 3.01352 9.49864 3.11195 9.41535C3.13467 9.40021 3.14981 9.38507 3.17253 9.36992C3.27096 9.29421 3.38453 9.22606 3.50568 9.18063C3.52082 9.18063 3.54354 9.16549 3.56625 9.16549C3.69497 9.12006 3.83883 9.08977 3.98269 9.08977C4.12655 9.08977 4.26285 9.12006 4.39914 9.16549C4.42185 9.16549 4.43699 9.17306 4.45971 9.18063C4.58085 9.22606 4.69443 9.29421 4.79286 9.36992C4.81558 9.38507 4.83072 9.40021 4.85343 9.41535C4.95187 9.49864 5.03515 9.59707 5.1033 9.70308C5.11844 9.71822 5.12601 9.74094 5.13359 9.76365C5.20173 9.8848 5.25473 10.0059 5.28502 10.1422C5.30016 10.2255 5.31531 10.3164 5.31531 10.4072C5.31531 11.1341 4.71714 11.7323 3.99027 11.7323H3.97512ZM10.0324 11.7323C9.30557 11.7323 8.70741 11.1341 8.70741 10.4072C8.70741 10.3164 8.71498 10.2255 8.7377 10.1422C8.76041 10.0514 8.78313 9.96051 8.82098 9.87723C8.82098 9.87723 8.82098 9.86965 8.82098 9.86208C8.85884 9.78637 8.8967 9.71065 8.9497 9.6425C8.95727 9.62736 8.97242 9.61979 8.97999 9.60465C9.02542 9.54407 9.07085 9.49107 9.12385 9.43807C9.13899 9.42293 9.15414 9.41535 9.16928 9.40021C9.22228 9.35478 9.28286 9.30935 9.34343 9.27149C9.35857 9.26392 9.38129 9.24878 9.404 9.24121C9.47215 9.20335 9.54786 9.17306 9.62358 9.15035C9.65387 9.14278 9.68415 9.12763 9.72201 9.12006C9.82044 9.09734 9.92645 9.0822 10.0324 9.0822C10.1763 9.0822 10.3126 9.11249 10.4489 9.15792C10.4716 9.15792 10.4867 9.16549 10.5095 9.17306C10.6306 9.21849 10.7442 9.28664 10.8426 9.36235C10.8653 9.3775 10.8805 9.39264 10.9032 9.40778C11.0016 9.49107 11.0849 9.5895 11.1531 9.69551C11.1682 9.71065 11.1758 9.73337 11.1833 9.75608C11.2515 9.87723 11.3045 9.99837 11.3348 10.1347C11.3499 10.2179 11.3651 10.3088 11.3651 10.3997C11.3651 11.1265 10.7669 11.7247 10.04 11.7247L10.0324 11.7323ZM9.65387 6.43212V4.16062H11.1682C12.1071 4.16062 12.8718 4.92536 12.8718 5.86425V6.43212H9.65387Z" fill="#212121"/>
</svg>
