<svg width="14" height="14" viewBox="0 0 14 14" fill="none" xmlns="http://www.w3.org/2000/svg">
<g clip-path="url(#clip0_417_21610)">
<path d="M12.5581 4.17521C12.5581 4.29596 12.5581 4.42381 12.5581 4.54456C12.5647 5.61724 12.3583 6.68055 11.9508 7.67285C11.5434 8.66514 10.943 9.56668 10.1845 10.3252C9.42598 11.0837 8.52444 11.6841 7.53214 12.0915C6.53984 12.499 5.47653 12.7054 4.40386 12.6988C2.84272 12.7033 1.31349 12.2569 0 11.4132C0.234399 11.4132 0.454592 11.4132 0.710299 11.4132C1.9984 11.4132 3.24915 10.9804 4.2618 10.1843C3.66155 10.179 3.07842 9.98362 2.59607 9.62632C2.11372 9.26902 1.75692 8.76813 1.57686 8.1955C1.75774 8.22434 1.94064 8.2386 2.12379 8.23812C2.37748 8.23629 2.63011 8.20531 2.87671 8.14578C2.23496 8.01478 1.65818 7.66608 1.24399 7.15869C0.829791 6.6513 0.603621 6.01639 0.603754 5.36141C1.00087 5.58046 1.44338 5.70446 1.8965 5.72366C1.49668 5.45919 1.16911 5.09922 0.94339 4.67631C0.717675 4.2534 0.600944 3.7809 0.603754 3.30154C0.60464 2.80254 0.73693 2.31257 0.987316 1.88094C1.70595 2.76714 2.6027 3.49252 3.61951 4.0101C4.63632 4.52769 5.7505 4.82592 6.8899 4.8855C6.84483 4.67054 6.82104 4.45166 6.81887 4.23203C6.80037 3.64736 6.96278 3.07124 7.28393 2.58232C7.60507 2.0934 8.0693 1.71553 8.61322 1.50029C9.15714 1.28505 9.75424 1.24295 10.323 1.37972C10.8917 1.5165 11.4044 1.82549 11.791 2.2645C12.4338 2.13537 13.0492 1.895 13.6093 1.5542C13.3954 2.21702 12.9455 2.77818 12.345 3.13107C12.9159 3.06937 13.474 2.92087 14 2.69068C13.6105 3.2596 13.1306 3.76105 12.5794 4.17521H12.5581Z" fill="#212121"/>
</g>
<defs>
<clipPath id="clip0_417_21610">
<rect width="14" height="14" fill="white"/>
</clipPath>
</defs>
</svg>
