<svg width="14" height="14" viewBox="0 0 14 14" fill="none" xmlns="http://www.w3.org/2000/svg">
<g clip-path="url(#clip0_414_21063)">
<path d="M11 5.6H4.39999V3.8C4.39999 3.11044 4.67392 2.44912 5.16151 1.96152C5.6491 1.47393 6.31042 1.2 6.99999 1.2C7.68955 1.2 8.35087 1.47393 8.83846 1.96152C9.32606 2.44912 9.59999 3.11044 9.59999 3.8C9.59999 3.95913 9.6632 4.11174 9.77572 4.22426C9.88825 4.33679 10.0409 4.4 10.2 4.4C10.3591 4.4 10.5117 4.33679 10.6243 4.22426C10.7368 4.11174 10.8 3.95913 10.8 3.8C10.8 2.79218 10.3996 1.82563 9.68699 1.11299C8.97435 0.400356 8.00781 0 6.99999 0C5.99216 0 5.02562 0.400356 4.31298 1.11299C3.60034 1.82563 3.19999 2.79218 3.19999 3.8V5.6H2.99999C2.41651 5.6 1.85693 5.83179 1.44435 6.24437C1.03177 6.65695 0.799988 7.21652 0.799988 7.8V11.8C0.799988 12.3835 1.03177 12.9431 1.44435 13.3556C1.85693 13.7682 2.41651 14 2.99999 14H11C11.5835 14 12.143 13.7682 12.5556 13.3556C12.9682 12.9431 13.2 12.3835 13.2 11.8V7.8C13.2 7.21652 12.9682 6.65695 12.5556 6.24437C12.143 5.83179 11.5835 5.6 11 5.6ZM12 11.8C12 12.0652 11.8946 12.3196 11.7071 12.5071C11.5196 12.6946 11.2652 12.8 11 12.8H2.99999C2.73477 12.8 2.48042 12.6946 2.29288 12.5071C2.10534 12.3196 1.99999 12.0652 1.99999 11.8V7.8C1.99999 7.53478 2.10534 7.28043 2.29288 7.09289C2.48042 6.90536 2.73477 6.8 2.99999 6.8H11C11.2652 6.8 11.5196 6.90536 11.7071 7.09289C11.8946 7.28043 12 7.53478 12 7.8V11.8Z" fill="#212121"/>
</g>
<defs>
<clipPath id="clip0_414_21063">
<rect width="14" height="14" fill="white"/>
</clipPath>
</defs>
</svg>
