<svg width="14" height="14" viewBox="0 0 14 14" fill="none" xmlns="http://www.w3.org/2000/svg">
<path fill-rule="evenodd" clip-rule="evenodd" d="M4.59898 6.69001C5.09948 7.02443 5.68791 7.20292 6.28985 7.20292C7.09703 7.20292 7.87115 6.88227 8.44191 6.31151C9.01268 5.74075 9.33333 4.96663 9.33333 4.15945C9.33333 3.5575 9.15483 2.96908 8.82041 2.46858C8.48599 1.96808 8.01066 1.57799 7.45454 1.34764C6.89841 1.11729 6.28647 1.05701 5.6961 1.17445C5.10572 1.29188 4.56342 1.58174 4.13778 2.00738C3.71215 2.43302 3.42228 2.97532 3.30485 3.56569C3.18742 4.15607 3.24769 4.76801 3.47804 5.32413C3.70839 5.88026 4.09848 6.35558 4.59898 6.69001ZM5.27533 2.64111C5.57563 2.44046 5.92868 2.33336 6.28985 2.33336C6.77416 2.33336 7.23863 2.52575 7.58109 2.86821C7.92354 3.21067 8.11593 3.67514 8.11593 4.15945C8.11593 4.52061 8.00884 4.87367 7.80818 5.17397C7.60753 5.47426 7.32233 5.70832 6.98866 5.84653C6.65499 5.98474 6.28782 6.02091 5.9336 5.95045C5.57937 5.87999 5.25399 5.70607 4.99861 5.45068C4.74323 5.1953 4.56931 4.86992 4.49885 4.5157C4.42839 4.16147 4.46455 3.79431 4.60276 3.46063C4.74098 3.12696 4.97503 2.84176 5.27533 2.64111ZM11.5429 12.7034C11.6566 12.8171 11.8102 12.882 11.971 12.8841C12.1318 12.882 12.2854 12.8171 12.3991 12.7034C12.5128 12.5897 12.5776 12.4361 12.5797 12.2754C12.5797 8.42029 8.17275 8.42029 6.28986 8.42029C4.40696 8.42029 0 8.42029 0 12.2754C0 12.4368 0.0641302 12.5916 0.178283 12.7058C0.292435 12.8199 0.44726 12.8841 0.608696 12.8841C0.770132 12.8841 0.924956 12.8199 1.03911 12.7058C1.15326 12.5916 1.21739 12.4368 1.21739 12.2754C1.21739 10.6928 2.07768 9.63768 6.28986 9.63768C10.502 9.63768 11.3623 10.6928 11.3623 12.2754C11.3644 12.4361 11.4292 12.5897 11.5429 12.7034ZM11.971 8.62316C11.8102 8.62105 11.6566 8.55625 11.5429 8.44255C11.4292 8.32885 11.3644 8.17524 11.3623 8.01446V7.20286H10.5507C10.3893 7.20286 10.2345 7.13873 10.1203 7.02458C10.0061 6.91043 9.94202 6.75561 9.94202 6.59417C9.94202 6.43273 10.0061 6.27791 10.1203 6.16376C10.2345 6.0496 10.3893 5.98547 10.5507 5.98547H11.3623V5.17388C11.3623 5.01244 11.4264 4.85762 11.5406 4.74347C11.6547 4.62932 11.8096 4.56519 11.971 4.56519C12.1324 4.56519 12.2873 4.62932 12.4014 4.74347C12.5156 4.85762 12.5797 5.01244 12.5797 5.17388V5.98547H13.3913C13.5527 5.98547 13.7076 6.0496 13.8217 6.16376C13.9359 6.27791 14 6.43273 14 6.59417C14 6.75561 13.9359 6.91043 13.8217 7.02458C13.7076 7.13873 13.5527 7.20286 13.3913 7.20286H12.5797V8.01446C12.5776 8.17524 12.5128 8.32885 12.3991 8.44255C12.2854 8.55625 12.1318 8.62105 11.971 8.62316Z" fill="#212121"/>
</svg>
