<svg width="14" height="14" viewBox="0 0 14 14" fill="none" xmlns="http://www.w3.org/2000/svg">
<path fill-rule="evenodd" clip-rule="evenodd" d="M6.94013 6.72568C7.38288 7.02152 7.90341 7.17942 8.4359 7.17942C9.14994 7.17942 9.83474 6.89576 10.3397 6.39086C10.8446 5.88595 11.1282 5.20115 11.1282 4.48711C11.1282 3.95462 10.9703 3.43409 10.6745 2.99134C10.3786 2.54859 9.95816 2.20352 9.4662 1.99974C8.97425 1.79597 8.43291 1.74265 7.91066 1.84653C7.3884 1.95042 6.90868 2.20683 6.53215 2.58336C6.15563 2.95989 5.89921 3.43961 5.79532 3.96187C5.69144 4.48412 5.74476 5.02545 5.94853 5.51741C6.15231 6.00936 6.49739 6.42985 6.94013 6.72568ZM7.53844 3.14397C7.80409 2.96646 8.11641 2.87172 8.4359 2.87172C8.86433 2.87172 9.27521 3.04192 9.57815 3.34486C9.88109 3.6478 10.0513 4.05868 10.0513 4.48711C10.0513 4.8066 9.95654 5.11892 9.77904 5.38457C9.60154 5.65022 9.34925 5.85726 9.05408 5.97953C8.75891 6.10179 8.43411 6.13378 8.12075 6.07145C7.8074 6.00912 7.51957 5.85527 7.29365 5.62936C7.06774 5.40344 6.91388 5.11561 6.85155 4.80225C6.78922 4.4889 6.82122 4.1641 6.94348 3.86893C7.06574 3.57375 7.27279 3.32147 7.53844 3.14397ZM13.0828 12.0453C13.1834 12.1459 13.3193 12.2032 13.4615 12.2051C13.6037 12.2032 13.7396 12.1459 13.8402 12.0453C13.9408 11.9447 13.9981 11.8088 14 11.6666C14 8.25635 10.1015 8.25635 8.43587 8.25635C6.77023 8.25635 2.87177 8.25635 2.87177 11.6666C2.87177 11.8094 2.9285 11.9464 3.02948 12.0474C3.13046 12.1483 3.26742 12.2051 3.41023 12.2051C3.55304 12.2051 3.69 12.1483 3.79098 12.0474C3.89196 11.9464 3.94869 11.8094 3.94869 11.6666C3.94869 10.2666 4.70971 9.33327 8.43587 9.33327C12.162 9.33327 12.923 10.2666 12.923 11.6666C12.9249 11.8088 12.9822 11.9447 13.0828 12.0453ZM4.35792 7.76098H4.12817C3.55694 7.70576 3.03103 7.42588 2.66616 6.98291C2.30128 6.53994 2.12731 5.97016 2.18253 5.39892C2.23775 4.82769 2.51763 4.30179 2.9606 3.93691C3.40357 3.57203 3.97335 3.39806 4.54458 3.45328C4.61783 3.45643 4.68966 3.4745 4.75567 3.50639C4.82169 3.53828 4.88049 3.58331 4.92849 3.63873C4.97649 3.69415 5.01266 3.75878 5.03479 3.82867C5.05693 3.89856 5.06456 3.97224 5.05722 4.04518C5.04987 4.11813 5.02771 4.1888 4.99209 4.25288C4.95647 4.31696 4.90814 4.37308 4.85006 4.41782C4.79198 4.46256 4.72538 4.49497 4.65433 4.51306C4.58328 4.53115 4.50929 4.53454 4.43689 4.52303C4.29674 4.50905 4.15521 4.52347 4.02076 4.56541C3.8863 4.60735 3.76168 4.67595 3.65433 4.76713C3.54529 4.85508 3.45485 4.96386 3.38829 5.08712C3.32173 5.21039 3.28037 5.34567 3.26663 5.48508C3.25179 5.62624 3.26518 5.76894 3.30604 5.90487C3.34689 6.0408 3.41439 6.16725 3.5046 6.27683C3.59481 6.38642 3.70592 6.47696 3.83147 6.54317C3.95701 6.60939 4.09448 6.64996 4.23586 6.66251C4.46958 6.68251 4.70357 6.62716 4.90356 6.50457C5.02542 6.42935 5.17217 6.40563 5.31153 6.43862C5.45088 6.47161 5.57142 6.5586 5.64663 6.68046C5.72185 6.80233 5.74557 6.94908 5.71258 7.08843C5.67959 7.22779 5.5926 7.34833 5.47074 7.42354C5.13775 7.63592 4.75278 7.75265 4.35792 7.76098ZM0.159768 11.5068C0.260349 11.6074 0.396231 11.6647 0.538462 11.6666C0.680692 11.6647 0.816574 11.6074 0.917155 11.5068C1.01774 11.4062 1.07506 11.2703 1.07692 11.1281C1.07692 9.51272 1.3641 8.97426 3.05128 8.97426C3.19409 8.97426 3.33105 8.91753 3.43203 8.81655C3.53301 8.71557 3.58974 8.57861 3.58974 8.4358C3.58974 8.29299 3.53301 8.15603 3.43203 8.05505C3.33105 7.95407 3.19409 7.89734 3.05128 7.89734C0.516923 7.89734 0 9.18965 0 11.1281C0.00185946 11.2703 0.0591871 11.4062 0.159768 11.5068Z" fill="#212121"/>
</svg>
