<svg width="14" height="14" viewBox="0 0 14 14" fill="none" xmlns="http://www.w3.org/2000/svg">
<path fill-rule="evenodd" clip-rule="evenodd" d="M6.28985 7.20292C5.68791 7.20292 5.09948 7.02443 4.59898 6.69001C4.09848 6.35558 3.70839 5.88026 3.47804 5.32413C3.24769 4.76801 3.18742 4.15607 3.30485 3.56569C3.42228 2.97532 3.71215 2.43302 4.13778 2.00738C4.56342 1.58174 5.10572 1.29188 5.6961 1.17445C6.28647 1.05701 6.89841 1.11729 7.45454 1.34764C8.01066 1.57799 8.48599 1.96808 8.82041 2.46858C9.15483 2.96908 9.33333 3.5575 9.33333 4.15945C9.33333 4.96663 9.01268 5.74075 8.44191 6.31151C7.87115 6.88227 7.09703 7.20292 6.28985 7.20292ZM6.28985 2.33336C5.92868 2.33336 5.57563 2.44046 5.27533 2.64111C4.97503 2.84176 4.74098 3.12696 4.60276 3.46063C4.46455 3.79431 4.42839 4.16147 4.49885 4.5157C4.56931 4.86992 4.74323 5.1953 4.99861 5.45068C5.25399 5.70607 5.57937 5.87999 5.9336 5.95045C6.28782 6.02091 6.65499 5.98474 6.98866 5.84653C7.32233 5.70832 7.60753 5.47426 7.80818 5.17397C8.00884 4.87367 8.11593 4.52061 8.11593 4.15945C8.11593 3.67514 7.92354 3.21067 7.58109 2.86821C7.23863 2.52575 6.77416 2.33336 6.28985 2.33336ZM11.971 12.8841C11.8102 12.882 11.6566 12.8171 11.5429 12.7034C11.4292 12.5897 11.3644 12.4361 11.3623 12.2754C11.3623 10.6928 10.502 9.63768 6.28986 9.63768C2.07768 9.63768 1.21739 10.6928 1.21739 12.2754C1.21739 12.4368 1.15326 12.5916 1.03911 12.7058C0.924956 12.8199 0.770132 12.8841 0.608696 12.8841C0.44726 12.8841 0.292435 12.8199 0.178283 12.7058C0.0641302 12.5916 0 12.4368 0 12.2754C0 8.42029 4.40696 8.42029 6.28986 8.42029C8.17275 8.42029 12.5797 8.42029 12.5797 12.2754C12.5776 12.4361 12.5128 12.5897 12.3991 12.7034C12.2854 12.8171 12.1318 12.882 11.971 12.8841ZM10.5507 7.20286H13.3913C13.5527 7.20286 13.7076 7.13873 13.8217 7.02458C13.9359 6.91043 14 6.75561 14 6.59417C14 6.43273 13.9359 6.27791 13.8217 6.16376C13.7076 6.0496 13.5527 5.98547 13.3913 5.98547H10.5507C10.3893 5.98547 10.2345 6.0496 10.1203 6.16376C10.0061 6.27791 9.94202 6.43273 9.94202 6.59417C9.94202 6.75561 10.0061 6.91043 10.1203 7.02458C10.2345 7.13873 10.3893 7.20286 10.5507 7.20286Z" fill="#212121"/>
</svg>
