<svg width="14" height="14" viewBox="0 0 14 14" fill="none" xmlns="http://www.w3.org/2000/svg">
<path fill-rule="evenodd" clip-rule="evenodd" d="M5.90308 6.90101C5.33815 6.90101 4.78591 6.73349 4.31619 6.41963C3.84647 6.10578 3.48037 5.65968 3.26418 5.13775C3.04799 4.61583 2.99143 4.04151 3.10164 3.48744C3.21185 2.93337 3.48389 2.42442 3.88335 2.02495C4.28282 1.62549 4.79177 1.35345 5.34584 1.24324C5.89991 1.13303 6.47423 1.18959 6.99615 1.40578C7.51808 1.62197 7.96417 1.98807 8.27803 2.45779C8.59189 2.92751 8.75941 3.47975 8.75941 4.04468C8.7574 4.80161 8.45582 5.52696 7.92059 6.06219C7.38536 6.59742 6.66001 6.899 5.90308 6.90101ZM5.90308 2.33089C5.56413 2.33089 5.23278 2.4314 4.95095 2.61971C4.66912 2.80803 4.44945 3.07569 4.31974 3.38884C4.19003 3.702 4.15609 4.04658 4.22222 4.37903C4.28834 4.71147 4.45157 5.01684 4.69124 5.25652C4.93092 5.4962 5.23629 5.65942 5.56874 5.72555C5.90118 5.79168 6.24577 5.75774 6.55892 5.62802C6.87208 5.49831 7.13974 5.27865 7.32805 4.99682C7.51637 4.71499 7.61688 4.38364 7.61688 4.04468C7.61688 3.59016 7.43632 3.15425 7.11492 2.83285C6.79352 2.51145 6.35761 2.33089 5.90308 2.33089ZM0.571266 12.2327C0.419756 12.2327 0.274453 12.1726 0.16732 12.0654C0.0601868 11.9583 0 11.813 0 11.6615C0 8.04346 4.13596 8.04346 5.90308 8.04346C6.45149 8.04346 6.93897 8.04346 7.38075 8.09678C7.53102 8.10847 7.67058 8.17907 7.76903 8.29321C7.86747 8.40735 7.91682 8.55577 7.90631 8.70612C7.89273 8.85705 7.8205 8.99663 7.70515 9.09489C7.5898 9.19315 7.44051 9.24227 7.28935 9.23169C7.09554 9.23169 6.89159 9.22154 6.6759 9.21081L6.67586 9.21081H6.67585C6.4338 9.19877 6.17696 9.18599 5.90308 9.18599C1.95754 9.18599 1.14253 10.1762 1.14253 11.6615C1.14356 11.7368 1.12948 11.8115 1.10113 11.8813C1.07279 11.9511 1.03075 12.0144 0.977494 12.0677C0.924242 12.121 0.860858 12.163 0.791086 12.1913C0.721314 12.2197 0.646569 12.2338 0.571266 12.2327ZM7.10653 12.6441C7.21356 12.7513 7.35876 12.8115 7.51022 12.8117L7.56354 12.7888L9.04121 12.6517C9.17417 12.6391 9.29834 12.5797 9.39159 12.4841L13.5961 8.27963C13.727 8.14581 13.83 7.98738 13.8993 7.81351C13.9686 7.63963 14.0028 7.45374 13.9998 7.26658C14.003 7.06354 13.9655 6.86192 13.8897 6.67356C13.8138 6.4852 13.701 6.31391 13.558 6.16975C13.2679 5.90101 12.8871 5.75171 12.4917 5.75171C12.0962 5.75171 11.7154 5.90101 11.4253 6.16975L7.22078 10.3743C7.12689 10.471 7.07024 10.5978 7.06082 10.7323L6.93895 12.1947C6.93102 12.2774 6.94198 12.3608 6.97101 12.4387C7.00004 12.5165 7.04638 12.5868 7.10653 12.6441ZM8.1348 11.6082L8.1805 11.0293L12.2327 6.99999C12.3076 6.94435 12.3984 6.9143 12.4917 6.9143C12.5849 6.9143 12.6758 6.94435 12.7506 6.99999C12.8192 7.08087 12.857 7.1834 12.8573 7.28944C12.8611 7.36417 12.8367 7.43762 12.7887 7.49509L8.72892 11.5549L8.1348 11.6082Z" fill="#212121"/>
</svg>
