<svg width="14" height="14" viewBox="0 0 14 14" fill="none" xmlns="http://www.w3.org/2000/svg">
<g clip-path="url(#clip0_1518_32484)">
<path d="M8.56333 14C8.18221 14 7.82443 13.8211 7.52887 13.6656C7.3422 13.5722 7.11664 13.4555 6.99997 13.4555C6.88331 13.4555 6.64997 13.5722 6.47108 13.6656C6.09774 13.86 5.63107 14.0933 5.13328 13.9611C4.61994 13.8289 4.33994 13.3778 4.1066 13.02C4.00549 12.8567 3.86549 12.6389 3.77216 12.5844C3.67882 12.53 3.42993 12.5222 3.21993 12.5066C2.79992 12.4833 2.2788 12.46 1.90547 12.0944C1.53213 11.7133 1.50879 11.1922 1.48546 10.7722C1.47768 10.57 1.46213 10.3133 1.40768 10.22C1.36101 10.1344 1.13546 9.99439 0.979899 9.89328C0.622117 9.65995 0.178778 9.37216 0.0387762 8.8666C-0.0934476 8.36882 0.139889 7.90215 0.334336 7.52881C0.42767 7.34214 0.544338 7.11658 0.544338 6.99991C0.544338 6.88324 0.42767 6.64991 0.334336 6.47102C0.139889 6.09768 -0.0934476 5.63101 0.0387762 5.13322C0.171 4.61988 0.622117 4.33988 0.979899 4.10654C1.14323 4.00543 1.36102 3.86543 1.41546 3.7721C1.46991 3.67876 1.47768 3.42987 1.49324 3.21987C1.51657 2.79986 1.53991 2.27874 1.90547 1.9054C2.28658 1.53207 2.8077 1.50873 3.22771 1.4854C3.42993 1.47762 3.6866 1.46207 3.77993 1.40762C3.86549 1.36095 4.00549 1.1354 4.1066 0.979838C4.33994 0.622056 4.62772 0.178717 5.13328 0.0387152C5.63107 -0.0935087 6.09774 0.139828 6.47108 0.334275C6.65775 0.427609 6.88331 0.544277 6.99997 0.544277C7.11664 0.544277 7.34998 0.427609 7.52887 0.334275C7.90221 0.147606 8.36888 -0.0935087 8.86666 0.0387152C9.38 0.170939 9.66001 0.622056 9.89334 0.979838C9.99446 1.14317 10.1345 1.36095 10.2278 1.4154C10.3211 1.46984 10.57 1.47762 10.78 1.49318C11.2 1.51651 11.7211 1.53984 12.0945 1.9054C12.4678 2.28652 12.4912 2.80764 12.5145 3.22764C12.5223 3.42987 12.5378 3.68654 12.5923 3.77987C12.6389 3.86543 12.8645 4.00543 13.02 4.10654C13.3778 4.33988 13.8212 4.62766 13.9612 5.13322C14.0934 5.63101 13.8601 6.09768 13.6656 6.47102C13.5723 6.65769 13.4556 6.88324 13.4556 6.99991C13.4556 7.11658 13.5723 7.34992 13.6656 7.52881C13.8601 7.90215 14.0934 8.36882 13.9612 8.8666C13.8289 9.37994 13.3778 9.65995 13.02 9.89328C12.8567 9.99439 12.6389 10.1344 12.5845 10.2277C12.53 10.3211 12.5223 10.57 12.5067 10.78C12.4834 11.2 12.46 11.7211 12.0945 12.0944C11.7134 12.4678 11.1922 12.4911 10.7722 12.5144C10.57 12.5222 10.3133 12.5378 10.22 12.5922C10.1345 12.6389 9.99446 12.8644 9.89334 13.02C9.66001 13.3778 9.37222 13.8211 8.86666 13.9611C8.76555 13.9922 8.66444 14 8.56333 14ZM5.4444 1.16651C5.4444 1.16651 5.4444 1.16651 5.43662 1.16651C5.35884 1.19762 5.17995 1.46207 5.0944 1.60985C4.90773 1.89763 4.69772 2.2243 4.36327 2.41875C4.02105 2.61319 3.63215 2.63653 3.28215 2.65208C3.11104 2.65986 2.79214 2.67541 2.72214 2.72986C2.67548 2.79208 2.65992 3.1032 2.65214 3.27431C2.63659 3.62432 2.61325 4.01321 2.41881 4.34766C2.22436 4.68211 1.89769 4.89211 1.60991 5.07878C1.46213 5.17211 1.19768 5.34323 1.16657 5.42878C1.15879 5.51434 1.29101 5.77879 1.36879 5.93434C1.52435 6.24546 1.71102 6.59546 1.71102 6.99213C1.71102 7.38881 1.53213 7.73881 1.36879 8.04993C1.29101 8.20548 1.15101 8.46993 1.16657 8.55549C1.19768 8.63327 1.46213 8.81216 1.60991 8.89771C1.89769 9.08438 2.22436 9.29439 2.41881 9.62883C2.61325 9.97106 2.63659 10.36 2.65214 10.71C2.65992 10.8811 2.67548 11.2 2.72992 11.27C2.79214 11.3166 3.10326 11.3322 3.27437 11.34C3.62438 11.3555 4.01327 11.3789 4.34772 11.5733C4.68217 11.7677 4.89217 12.0944 5.07884 12.3822C5.17217 12.53 5.34329 12.7944 5.42884 12.8255C5.50662 12.8489 5.77885 12.7011 5.93441 12.6233C6.24552 12.4678 6.59552 12.2811 6.9922 12.2811C7.38887 12.2811 7.73887 12.46 8.04999 12.6233C8.20554 12.7011 8.45444 12.8489 8.55555 12.8255C8.63333 12.7944 8.81222 12.53 8.89777 12.3822C9.08444 12.0944 9.29445 11.7677 9.6289 11.5733C9.97112 11.3789 10.36 11.3555 10.71 11.34C10.8811 11.3322 11.2 11.3166 11.27 11.2622C11.3167 11.2 11.3322 10.8889 11.34 10.7177C11.3556 10.3677 11.3789 9.97884 11.5734 9.64439C11.7678 9.30994 12.0945 9.09994 12.3823 8.91327C12.53 8.81994 12.7945 8.64882 12.8256 8.56327C12.8334 8.47771 12.7012 8.21326 12.6234 8.0577C12.4678 7.74659 12.2812 7.39658 12.2812 6.99991C12.2812 6.60324 12.46 6.25324 12.6234 5.94212C12.7012 5.78656 12.8334 5.52212 12.8256 5.43656C12.7945 5.351 12.5223 5.17989 12.3823 5.08656C12.0945 4.89989 11.7678 4.68988 11.5734 4.35544C11.3789 4.01321 11.3556 3.62432 11.34 3.27431C11.3322 3.1032 11.3167 2.7843 11.2622 2.7143C11.2 2.66764 10.8889 2.65208 10.7178 2.6443C10.3678 2.62875 9.9789 2.60541 9.64445 2.41097C9.31 2.21652 9.1 1.88985 8.91333 1.60207C8.82 1.45429 8.64888 1.18984 8.56333 1.15873C8.48555 1.1354 8.21332 1.28318 8.05776 1.36095C7.74665 1.51651 7.39665 1.70318 6.99997 1.70318C6.6033 1.70318 6.2533 1.52429 5.94218 1.36095C5.78663 1.28318 5.53773 1.15873 5.4444 1.15873V1.16651ZM5.82551 9.72995C5.66996 9.72995 5.52218 9.66772 5.41329 9.55883L3.46104 7.60659C3.23548 7.38103 3.23548 7.00769 3.46104 6.78213C3.6866 6.55657 4.05994 6.55657 4.2855 6.78213L5.82551 8.32215L9.70667 4.44099C9.93223 4.21543 10.3056 4.21543 10.5311 4.44099C10.7567 4.66655 10.7567 5.03989 10.5311 5.26545L6.23774 9.55883C6.12885 9.66772 5.98107 9.72995 5.82551 9.72995Z" fill="#212121"/>
</g>
<defs>
<clipPath id="clip0_1518_32484">
<rect width="14" height="14" fill="white"/>
</clipPath>
</defs>
</svg>
