<svg width="14" height="14" viewBox="0 0 14 14" fill="none" xmlns="http://www.w3.org/2000/svg">
<path fill-rule="evenodd" clip-rule="evenodd" d="M2.2 12.4H7.8C8.38348 12.4 8.94306 12.1682 9.35564 11.7556C9.76822 11.343 10 10.7835 10 10.2V8.8592L13.088 10.712C13.1826 10.768 13.2901 10.7983 13.4 10.8C13.5034 10.8034 13.6057 10.7785 13.696 10.728C13.788 10.6758 13.8646 10.6002 13.918 10.5089C13.9714 10.4176 13.9997 10.3138 14 10.208V3.808C13.9997 3.70222 13.9714 3.5984 13.918 3.50708C13.8646 3.41576 13.788 3.34018 13.696 3.288C13.6041 3.23302 13.4991 3.20398 13.392 3.20398C13.2849 3.20398 13.1799 3.23302 13.088 3.288L10 5.14079V3.79998C10 3.2165 9.76822 2.65692 9.35564 2.24434C8.94306 1.83176 8.38348 1.59998 7.8 1.59998H2.2C1.61652 1.59998 1.05694 1.83176 0.644365 2.24434C0.231785 2.65692 0 3.2165 0 3.79998V10.2C0 10.7835 0.231785 11.343 0.644365 11.7556C1.05694 12.1682 1.61652 12.4 2.2 12.4ZM10 7.464V6.53599L12.8 4.856V9.144L10 7.464ZM8.8 6.19661V3.79998C8.8 3.53476 8.69464 3.28041 8.50711 3.09287C8.31957 2.90533 8.06522 2.79998 7.8 2.79998H2.2C1.93478 2.79998 1.68043 2.90533 1.49289 3.09287C1.30536 3.28041 1.2 3.53476 1.2 3.79998V10.2C1.2 10.4652 1.30536 10.7195 1.49289 10.9071C1.68043 11.0946 1.93478 11.2 2.2 11.2H7.8C8.06522 11.2 8.31957 11.0946 8.50711 10.9071C8.69464 10.7195 8.8 10.4652 8.8 10.2V7.80338C8.79999 7.80226 8.79999 7.80113 8.79999 7.8V6.2C8.79999 6.19887 8.79999 6.19774 8.8 6.19661Z" fill="#212121"/>
</svg>
