<svg width="14" height="14" viewBox="0 0 14 14" fill="none" xmlns="http://www.w3.org/2000/svg">
<g clip-path="url(#clip0_417_21617)">
<path d="M12.6 0H1.4C1.0287 0 0.672602 0.1475 0.410051 0.410051C0.1475 0.672602 0 1.0287 0 1.4V12.6C0 12.9713 0.1475 13.3274 0.410051 13.5899C0.672602 13.8525 1.0287 14 1.4 14H12.6C12.9713 14 13.3274 13.8525 13.5899 13.5899C13.8525 13.3274 14 12.9713 14 12.6V1.4C14 1.0287 13.8525 0.672602 13.5899 0.410051C13.3274 0.1475 12.9713 0 12.6 0ZM11.7775 4.64625C11.7308 5.63208 11.0454 6.9825 9.72125 8.6975C8.3475 10.4475 7.175 11.375 6.22125 11.375C5.62625 11.375 5.13625 10.8325 4.725 9.73875C3.92875 6.825 3.5875 5.11875 2.975 5.11875C2.68735 5.23535 2.41892 5.39464 2.17875 5.59125L1.70625 4.97875C2.87 3.955 3.98125 2.8175 4.68125 2.75625C5.38125 2.695 5.915 3.22 6.125 4.375C6.7725 8.47875 7.06125 9.1 8.23375 7.23625C8.56442 6.7816 8.79685 6.26311 8.91625 5.71375C9.03 4.6725 8.11125 4.7425 7.48125 5.01375C7.96542 3.38042 8.9075 2.58417 10.3075 2.625C11.3458 2.66 11.8358 3.33375 11.7775 4.64625Z" fill="#212121"/>
</g>
<defs>
<clipPath id="clip0_417_21617">
<rect width="14" height="14" fill="white"/>
</clipPath>
</defs>
</svg>
