<svg width="14" height="14" viewBox="0 0 14 14" fill="none" xmlns="http://www.w3.org/2000/svg">
<g clip-path="url(#clip0_414_20877)">
<path d="M11.5145 14C11.3614 13.9974 11.213 13.9469 11.0902 13.8555L6.76527 10.3884H2.48553C2.30665 10.386 2.13577 10.3139 2.00928 10.1874C1.88278 10.061 1.81069 9.89006 1.80835 9.71119V4.29379C1.81069 4.11492 1.88278 3.94403 2.00928 3.81754C2.13577 3.69105 2.30665 3.61895 2.48553 3.61661H6.76527L11.0902 0.149476C11.19 0.0691776 11.3106 0.0188545 11.4379 0.00435197C11.5652 -0.0101505 11.694 0.011763 11.8094 0.067547C11.9247 0.123331 12.0219 0.210696 12.0896 0.319495C12.1572 0.428294 12.1927 0.554061 12.1917 0.682188V13.3228C12.1907 13.45 12.1549 13.5746 12.088 13.6828C12.0211 13.7911 11.9258 13.8789 11.8125 13.9368C11.719 13.9793 11.6173 14.0009 11.5145 14ZM3.1627 9.03402H7.00003C7.15344 9.03467 7.30245 9.08539 7.42439 9.17848L10.8374 11.8872V2.09071L7.42439 4.79941C7.30245 4.89251 7.15344 4.94323 7.00003 4.94388H3.1627V9.03402Z" fill="#212121"/>
</g>
<defs>
<clipPath id="clip0_414_20877">
<rect width="14" height="14" fill="white"/>
</clipPath>
</defs>
</svg>
