<svg width="14" height="14" viewBox="0 0 14 14" fill="none" xmlns="http://www.w3.org/2000/svg">
<path fill-rule="evenodd" clip-rule="evenodd" d="M7.91966 12.7116C7.79475 12.7095 7.67364 12.6683 7.5734 12.5937L4.04455 9.76473H0.552534C0.406586 9.76283 0.267153 9.704 0.163943 9.60079C0.0607339 9.49758 0.00190806 9.35815 0 9.2122V4.79193C0.00190806 4.64598 0.0607339 4.50654 0.163943 4.40333C0.267153 4.30013 0.406586 4.2413 0.552534 4.23939H4.04455L7.5734 1.41042C7.65487 1.3449 7.75326 1.30384 7.85713 1.292C7.96101 1.28017 8.06611 1.29805 8.16023 1.34357C8.25435 1.38908 8.33362 1.46037 8.38884 1.54914C8.44406 1.63791 8.47297 1.74053 8.47219 1.84508V12.159C8.47155 12.2638 8.44153 12.3663 8.38553 12.4549C8.32952 12.5434 8.24979 12.6145 8.15541 12.66C8.08192 12.6953 8.00119 12.713 7.91966 12.7116ZM1.10507 8.65967H4.2361C4.36127 8.66019 4.48285 8.70158 4.58235 8.77754L7.36712 10.9877V2.99435L4.58235 5.20448C4.48574 5.2884 4.36388 5.33766 4.2361 5.34446H1.10507V8.65967ZM11.9421 11.4738C11.8099 11.4736 11.682 11.4266 11.5811 11.3412C11.5255 11.2939 11.4799 11.236 11.4471 11.1708C11.4143 11.1056 11.3949 11.0345 11.3901 10.9617C11.3853 10.8888 11.3952 10.8158 11.4191 10.7468C11.4431 10.6779 11.4806 10.6144 11.5295 10.5603C12.4056 9.58208 12.89 8.3151 12.89 7.00197C12.89 5.68884 12.4056 4.42186 11.5295 3.44365C11.4812 3.38947 11.4439 3.32629 11.42 3.25773C11.396 3.18916 11.3858 3.11655 11.3899 3.04403C11.394 2.97152 11.4124 2.90052 11.4439 2.8351C11.4754 2.76968 11.5196 2.71111 11.5737 2.66273C11.6279 2.61436 11.6911 2.57713 11.7597 2.55317C11.8282 2.52921 11.9008 2.519 11.9734 2.5231C12.0459 2.52721 12.1169 2.54555 12.1823 2.5771C12.2477 2.60864 12.3063 2.65276 12.3547 2.70693C13.4139 3.88386 14 5.41121 14 6.9946C14 8.57799 13.4139 10.1053 12.3547 11.2823C12.3044 11.3428 12.2413 11.3914 12.1699 11.4245C12.0986 11.4576 12.0208 11.4745 11.9421 11.4738ZM9.8793 9.38163C9.97566 9.45199 10.0915 9.49061 10.2108 9.49214C10.2964 9.49103 10.3806 9.47058 10.4572 9.4323C10.5337 9.39402 10.6006 9.33892 10.6529 9.27113C11.1511 8.61963 11.4211 7.82224 11.4211 7.00205C11.4211 6.18186 11.1511 5.38448 10.6529 4.73298C10.5649 4.61575 10.434 4.53824 10.289 4.51752C10.1439 4.49679 9.99654 4.53455 9.8793 4.62247C9.76207 4.7104 9.68457 4.84129 9.66384 4.98636C9.64312 5.13143 9.68087 5.27879 9.7688 5.39602C10.1201 5.85772 10.3104 6.42188 10.3104 7.00205C10.3104 7.58222 10.1201 8.14639 9.7688 8.60809C9.68087 8.72532 9.64312 8.87268 9.66384 9.01775C9.68457 9.16281 9.76207 9.29371 9.8793 9.38163Z" fill="#212121"/>
</svg>
