<svg width="14" height="14" viewBox="0 0 14 14" fill="none" xmlns="http://www.w3.org/2000/svg">
<g clip-path="url(#clip0_417_21634)">
<path fill-rule="evenodd" clip-rule="evenodd" d="M9.28312 13.8554C9.40596 13.9468 9.55439 13.9974 9.70748 13.9999C9.80739 14.0016 9.90634 13.98 9.9964 13.9367C10.1121 13.8809 10.2098 13.7938 10.2784 13.6853C10.3471 13.5768 10.3839 13.4511 10.3846 13.3227V0.682185C10.3856 0.554058 10.3502 0.428291 10.2825 0.319493C10.2148 0.210695 10.1177 0.12333 10.0023 0.0675467C9.88696 0.0117629 9.75816 -0.0101505 9.63085 0.00435195C9.50354 0.0188544 9.38296 0.0691773 9.28312 0.149476L4.95824 3.6166H0.678515C0.499645 3.61894 0.328759 3.69103 0.202268 3.81752C0.0757766 3.94401 0.00368124 4.1149 0.00134277 4.29377V9.71115C0.00368124 9.89002 0.0757766 10.0609 0.202268 10.1874C0.328759 10.3139 0.499645 10.386 0.678515 10.3883H4.95824L9.28312 13.8554ZM5.193 9.03397H1.35569V4.94385H5.193C5.34641 4.94321 5.49541 4.89248 5.61736 4.79939L9.0303 2.0907V11.8871L5.61736 9.17844C5.49541 9.08535 5.34641 9.03462 5.193 9.03397ZM12.1091 9.91883C12.2272 10.0051 12.3692 10.0524 12.5154 10.0543C12.6203 10.0529 12.7235 10.0278 12.8173 9.98092C12.9112 9.93401 12.9931 9.86648 13.0572 9.78339C13.6678 8.98494 13.9987 8.00768 13.9987 7.00247C13.9987 5.99727 13.6678 5.02001 13.0572 4.22155C13.0038 4.15041 12.937 4.09047 12.8604 4.04517C12.7839 3.99986 12.6992 3.97007 12.6112 3.95749C12.5232 3.94491 12.4335 3.9498 12.3474 3.97187C12.2612 3.99394 12.1803 4.03276 12.1091 4.08612C12.038 4.13947 11.978 4.20632 11.9327 4.28284C11.8874 4.35936 11.8576 4.44406 11.8451 4.53209C11.8325 4.62012 11.8374 4.70977 11.8594 4.79592C11.8815 4.88206 11.9203 4.96302 11.9737 5.03416C12.4043 5.60001 12.6374 6.29143 12.6374 7.00247C12.6374 7.71351 12.4043 8.40494 11.9737 8.97079C11.9203 9.04193 11.8815 9.12288 11.8594 9.20903C11.8374 9.29517 11.8325 9.38482 11.8451 9.47286C11.8576 9.56089 11.8874 9.64558 11.9327 9.72211C11.978 9.79862 12.038 9.86547 12.1091 9.91883Z" fill="#212121"/>
</g>
<defs>
<clipPath id="clip0_417_21634">
<rect width="14" height="14" fill="white"/>
</clipPath>
</defs>
</svg>
