<svg width="14" height="14" viewBox="0 0 14 14" fill="none" xmlns="http://www.w3.org/2000/svg">
<g clip-path="url(#clip0_414_20896)">
<path fill-rule="evenodd" clip-rule="evenodd" d="M12.3717 3.20668H12.5716C12.942 3.20878 13.2967 3.35686 13.5586 3.6188C13.8206 3.88073 13.9686 4.23539 13.9707 4.60582V12.6009C13.9686 12.9713 13.8206 13.3259 13.5586 13.5879C13.2967 13.8498 12.942 13.9979 12.5716 14H1.37853C1.01791 13.9836 0.677393 13.8292 0.427394 13.5688C0.177396 13.3084 0.0370438 12.9619 0.0353656 12.6009V4.60582C0.0271112 4.51539 0.0271112 4.42441 0.0353656 4.33398C0.0389621 4.30478 0.0389621 4.27524 0.0353656 4.24604C0.0503803 4.18631 0.0690711 4.12757 0.0913311 4.07015L0.139301 3.9822C0.162873 3.93258 0.189577 3.88452 0.219252 3.83829C0.236021 3.8083 0.257632 3.78128 0.283212 3.75834L0.379153 3.63841L0.467098 3.55846L0.579029 3.46252L0.67497 3.32661L0.802891 3.25465H0.914821L1.05074 3.20668H1.17866H1.2666L10.7807 0.00866173C10.8442 -0.00288724 10.9092 -0.00288724 10.9726 0.00866173C11.343 0.0107605 11.6977 0.158843 11.9596 0.420778C12.2215 0.682713 12.3696 1.03737 12.3717 1.4078V3.20668ZM11.1343 1.29079C11.11 1.25654 11.0759 1.23044 11.0366 1.21591L5.07225 3.20668H11.1725V1.4078C11.1718 1.36583 11.1585 1.32504 11.1343 1.29079ZM12.7129 12.7422C12.7504 12.7047 12.7715 12.6539 12.7715 12.6009V4.60582C12.7715 4.55281 12.7504 4.50197 12.7129 4.46448C12.6755 4.427 12.6246 4.40594 12.5716 4.40594H1.37853C1.32552 4.40594 1.27468 4.427 1.2372 4.46448C1.19972 4.50197 1.17866 4.55281 1.17866 4.60582V12.6009C1.17866 12.6539 1.19972 12.7047 1.2372 12.7422C1.27468 12.7797 1.32552 12.8007 1.37853 12.8007H12.5716C12.6246 12.8007 12.6755 12.7797 12.7129 12.7422ZM11.5722 8.60338C11.5722 9.15533 11.1248 9.60277 10.5728 9.60277C10.0209 9.60277 9.57346 9.15533 9.57346 8.60338C9.57346 8.05144 10.0209 7.604 10.5728 7.604C11.1248 7.604 11.5722 8.05144 11.5722 8.60338Z" fill="#212121"/>
</g>
<defs>
<clipPath id="clip0_414_20896">
<rect width="14" height="14" fill="white"/>
</clipPath>
</defs>
</svg>
