<svg width="14" height="14" viewBox="0 0 14 14" fill="none" xmlns="http://www.w3.org/2000/svg">
<g clip-path="url(#clip0_414_20904)">
<path d="M11.9074 2.03004C11.2656 1.38378 10.5016 0.871511 9.65988 0.523013C8.81815 0.174514 7.91548 -0.00325485 7.00438 4.51139e-05C5.78636 0.0012329 4.59004 0.322215 3.53521 0.930846C2.48038 1.53948 1.60407 2.41439 0.994044 3.46798C0.384018 4.52156 0.0616867 5.71683 0.0593296 6.93407C0.0569724 8.15132 0.374672 9.34783 0.980613 10.4038L0 14L3.6773 13.0375C4.69271 13.6021 5.83368 13.9029 6.99562 13.9125C8.84273 13.9126 10.6151 13.1835 11.9269 11.884C13.2387 10.5844 13.9838 8.81965 14 6.97377C13.9938 6.05267 13.8058 5.14183 13.4467 4.29349C13.0877 3.44514 12.5646 2.67596 11.9074 2.03004ZM7.00438 12.7138C5.96921 12.7144 4.95298 12.4363 4.06254 11.9088L3.85241 11.7775L1.6723 12.355L2.25016 10.2288L2.11007 10.01C1.3652 8.80835 1.0872 7.37539 1.32875 5.9826C1.5703 4.58981 2.31461 3.33393 3.42068 2.45286C4.52675 1.57179 5.91776 1.12674 7.3302 1.20202C8.74263 1.27729 10.0784 1.86766 11.0844 2.86129C12.1841 3.93595 12.8136 5.40182 12.8355 6.93877C12.8217 8.4752 12.2012 9.94399 11.1092 11.0255C10.0171 12.1071 8.54183 12.7138 7.00438 12.7138ZM10.1651 8.39127C9.98999 8.30377 9.14071 7.88377 8.98312 7.83127C8.82552 7.77877 8.70294 7.74377 8.58912 7.91877C8.41782 8.15334 8.23368 8.37827 8.03752 8.59252C7.94121 8.71502 7.83615 8.72377 7.66104 8.59252C6.66268 8.19822 5.83087 7.47201 5.30582 6.53627C5.12195 6.23003 5.48093 6.24753 5.81363 5.59128C5.83819 5.54397 5.85101 5.49145 5.85101 5.43815C5.85101 5.38485 5.83819 5.33234 5.81363 5.28503C5.81363 5.19753 5.41964 4.34003 5.27955 3.99878C5.13946 3.65753 4.99937 3.71003 4.88555 3.70128H4.54409C4.45562 3.70264 4.36846 3.72286 4.28843 3.76058C4.20841 3.79831 4.13736 3.85267 4.08005 3.92003C3.88359 4.11094 3.73037 4.34171 3.63068 4.59679C3.531 4.85187 3.48719 5.12534 3.50219 5.39878C3.55709 6.05334 3.80376 6.67724 4.21138 7.19252C4.95753 8.30882 5.98004 9.21313 7.17949 9.81751C7.80854 10.1845 8.53963 10.338 9.26329 10.255C9.50426 10.2072 9.73248 10.1093 9.9331 9.96759C10.1337 9.82588 10.3023 9.64358 10.4278 9.43251C10.544 9.17494 10.5806 8.88852 10.5328 8.61002C10.454 8.52252 10.3402 8.47877 10.1651 8.39127Z" fill="#212121"/>
</g>
<defs>
<clipPath id="clip0_414_20904">
<rect width="14" height="14" fill="white"/>
</clipPath>
</defs>
</svg>
