<svg width="14" height="14" viewBox="0 0 14 14" fill="none" xmlns="http://www.w3.org/2000/svg">
<g clip-path="url(#clip0_414_20914)">
<path fill-rule="evenodd" clip-rule="evenodd" d="M13.0113 5.22125C13.1223 5.32307 13.2672 5.3799 13.4178 5.38066C13.5367 5.37755 13.6518 5.3391 13.7487 5.27021C13.8455 5.20132 13.9197 5.10512 13.9616 4.99391C14.0035 4.8827 14.0113 4.76151 13.984 4.64583C13.9568 4.53015 13.8956 4.42523 13.8084 4.34447C11.9785 2.6111 9.55385 1.64502 7.03332 1.64502C4.51279 1.64502 2.08813 2.6111 0.258245 4.34447C0.188094 4.39289 0.129106 4.45575 0.0852406 4.52883C0.0413748 4.60191 0.0136449 4.68353 0.00391092 4.76821C-0.00582305 4.85289 0.00266417 4.93867 0.028803 5.0198C0.0549418 5.10093 0.0981277 5.17553 0.155464 5.2386C0.212801 5.30167 0.282962 5.35175 0.361241 5.38548C0.43952 5.41921 0.524107 5.43581 0.609328 5.43417C0.694549 5.43252 0.778433 5.41267 0.855353 5.37595C0.932274 5.33923 1.00045 5.28648 1.05531 5.22125C2.66661 3.68533 4.80727 2.82852 7.03332 2.82852C9.25938 2.82852 11.4 3.68533 13.0113 5.22125ZM10.915 7.45312C11.0215 7.55101 11.161 7.6051 11.3056 7.60456C11.3909 7.60384 11.4751 7.58581 11.5532 7.55156C11.6313 7.5173 11.7016 7.46754 11.7599 7.4053C11.8628 7.28508 11.9146 7.12937 11.9042 6.97148C11.8937 6.81359 11.8219 6.66605 11.7041 6.5604C10.4308 5.41439 8.77831 4.78027 7.0652 4.78027C5.35208 4.78027 3.6996 5.41439 2.42626 6.5604C2.30845 6.66605 2.23666 6.81359 2.22623 6.97148C2.21581 7.12937 2.26757 7.28508 2.37046 7.4053C2.42276 7.46398 2.48611 7.51178 2.5569 7.54595C2.62768 7.58012 2.70452 7.59999 2.78299 7.60443C2.86147 7.60888 2.94005 7.5978 3.01424 7.57183C3.08843 7.54587 3.15678 7.50553 3.21536 7.45312C4.27371 6.50533 5.64449 5.98125 7.0652 5.98125C8.4859 5.98125 9.85669 6.50533 10.915 7.45312ZM4.95296 9.87607C4.86016 9.87607 4.76863 9.85447 4.68562 9.81296C4.60261 9.77146 4.53041 9.7112 4.47472 9.63695C4.42658 9.57456 4.39144 9.50314 4.37136 9.42694C4.35128 9.35073 4.34668 9.27127 4.35783 9.19325C4.36897 9.11524 4.39564 9.04024 4.43625 8.97271C4.47686 8.90517 4.5306 8.84645 4.59428 8.80003C5.29791 8.2616 6.15926 7.96985 7.04527 7.96985C7.93127 7.96985 8.79262 8.2616 9.49625 8.80003C9.55906 8.84713 9.61197 8.90615 9.65197 8.9737C9.69196 9.04125 9.71826 9.11602 9.72936 9.19373C9.74047 9.27145 9.73615 9.35059 9.71667 9.42664C9.69719 9.50268 9.66292 9.57415 9.61581 9.63695C9.51942 9.76204 9.37799 9.84454 9.22166 9.86687C9.06533 9.8892 8.90645 9.8496 8.77889 9.75651C8.28061 9.37706 7.67159 9.17157 7.04527 9.17157C6.41895 9.17157 5.80993 9.37706 5.31164 9.75651C5.2074 9.83264 5.08204 9.87442 4.95296 9.87607ZM6.61857 12.1799C6.73068 12.292 6.88274 12.355 7.04128 12.355C7.19983 12.355 7.35188 12.292 7.46399 12.1799C7.5761 12.0678 7.63908 11.9158 7.63908 11.7572C7.63908 11.5987 7.5761 11.4466 7.46399 11.3345C7.35188 11.2224 7.19983 11.1594 7.04128 11.1594C6.88274 11.1594 6.73068 11.2224 6.61857 11.3345C6.50646 11.4466 6.44348 11.5987 6.44348 11.7572C6.44348 11.9158 6.50646 12.0678 6.61857 12.1799Z" fill="#212121"/>
</g>
<defs>
<clipPath id="clip0_414_20914">
<rect width="14" height="14" fill="white"/>
</clipPath>
</defs>
</svg>
