<svg width="14" height="14" viewBox="0 0 14 14" fill="none" xmlns="http://www.w3.org/2000/svg">
<g clip-path="url(#clip0_1518_32529)">
<path d="M2.29459 14C1.68682 14 1.11103 13.7601 0.671199 13.3283C-0.224465 12.4326 -0.224465 10.9851 0.671199 10.0895L5.07755 5.68312C4.6777 4.1317 5.10953 2.46033 6.24511 1.32475C7.38868 0.181183 9.06805 -0.266649 10.6275 0.157192C10.8354 0.213171 10.9953 0.373111 11.0513 0.581033C11.1073 0.788955 11.0513 1.00487 10.8994 1.15682L8.9401 3.11608L9.35594 4.64351L10.8834 5.05935L12.8426 3.10009C12.9946 2.94815 13.2185 2.89217 13.4184 2.94815C13.6263 3.00412 13.7863 3.16406 13.8423 3.37199C14.2661 4.9314 13.8263 6.61077 12.6747 7.75434C11.5391 8.88992 9.86775 9.32175 8.31633 8.9219L3.90998 13.3283C3.47815 13.7601 2.90236 14 2.29459 14ZM9.14002 1.22079C8.37231 1.28477 7.64458 1.62064 7.08479 2.18043C6.17314 3.09209 5.87725 4.42759 6.31708 5.65913C6.39705 5.87505 6.34107 6.12295 6.17314 6.2829L1.51088 10.9451C1.08704 11.369 1.08704 12.0647 1.51088 12.4886C1.71881 12.6965 1.9907 12.8084 2.28659 12.8084C2.57448 12.8084 2.85438 12.6965 3.0543 12.4886L7.71656 7.82631C7.88449 7.65838 8.1244 7.6104 8.34032 7.68237C9.57186 8.11421 10.9074 7.82632 11.819 6.91466C12.3788 6.35487 12.7067 5.62714 12.7787 4.85943L11.4751 6.16294C11.3232 6.31488 11.0993 6.37086 10.8914 6.31488L8.70019 5.71511C8.49227 5.65913 8.33233 5.49919 8.27635 5.29127L7.67657 3.10009C7.62059 2.89217 7.67657 2.66825 7.82851 2.51631L9.13203 1.2128L9.14002 1.22079Z" fill="#212121"/>
</g>
<defs>
<clipPath id="clip0_1518_32529">
<rect width="14" height="14" fill="white"/>
</clipPath>
</defs>
</svg>
