<svg width="14" height="14" viewBox="0 0 14 14" fill="none" xmlns="http://www.w3.org/2000/svg">
<g clip-path="url(#clip0_414_20948)">
<path d="M13.7108 3.62703C13.633 3.32717 13.477 3.05333 13.2587 2.83351C13.0405 2.61369 12.7677 2.45575 12.4684 2.37584C10.6537 2.16181 8.82708 2.06537 6.99994 2.08711C5.1728 2.06537 3.34616 2.16181 1.53147 2.37584C1.23216 2.45575 0.959429 2.61369 0.741142 2.83351C0.522856 3.05333 0.366839 3.32717 0.289031 3.62703C0.0902499 4.74168 -0.00639592 5.87214 0.000296259 7.00435C-0.00673097 8.14238 0.0899133 9.27869 0.289031 10.3992C0.37087 10.6942 0.52868 10.9626 0.746699 11.1775C0.964718 11.3925 1.23532 11.5465 1.53147 11.6241C3.34616 11.8381 5.1728 11.9346 6.99994 11.9129C8.82708 11.9346 10.6537 11.8381 12.4684 11.6241C12.7646 11.5465 13.0352 11.3925 13.2532 11.1775C13.4712 10.9626 13.629 10.6942 13.7108 10.3992C13.91 9.27869 14.0066 8.14238 13.9996 7.00435C14.0063 5.87214 13.9096 4.74168 13.7108 3.62703ZM5.56501 9.0955V4.93071L9.23108 7.00435L5.56501 9.08675V9.0955Z" fill="#212121"/>
</g>
<defs>
<clipPath id="clip0_414_20948">
<rect width="14" height="14" fill="white"/>
</clipPath>
</defs>
</svg>
